<svg xmlns="http://www.w3.org/2000/svg" version="1.1" width="256px" height="256px" style="shape-rendering:geometricPrecision; text-rendering:geometricPrecision; image-rendering:optimizeQuality; fill-rule:evenodd; clip-rule:evenodd" xmlns:xlink="http://www.w3.org/1999/xlink">
<g><path style="opacity:0.01" fill="#000000" d="M 98.5,0.5 C 98.5,0.166667 98.5,-0.166667 98.5,-0.5C 99.8333,-0.5 101.167,-0.5 102.5,-0.5C 101.432,0.434475 100.099,0.767809 98.5,0.5 Z"/></g>
<g><path style="opacity:0.993" fill="#0c0e11" d="M 109.5,-0.5 C 121.5,-0.5 133.5,-0.5 145.5,-0.5C 147.265,0.461384 149.265,0.794717 151.5,0.5C 155.264,1.99152 159.264,2.99152 163.5,3.5C 165.214,4.73838 167.214,5.40505 169.5,5.5C 171.936,6.87096 174.603,7.87096 177.5,8.5C 177.842,9.33825 178.508,9.67158 179.5,9.5C 180.93,10.5375 182.597,11.2041 184.5,11.5C 190.464,15.1523 196.464,18.819 202.5,22.5C 202.5,23.1667 202.833,23.5 203.5,23.5C 206.943,26.7286 210.61,29.7286 214.5,32.5C 214.5,33.1667 214.833,33.5 215.5,33.5C 215.5,34.1667 215.833,34.5 216.5,34.5C 216.5,35.1667 216.833,35.5 217.5,35.5C 217.5,36.1667 217.833,36.5 218.5,36.5C 218.5,37.1667 218.833,37.5 219.5,37.5C 219.5,38.1667 219.833,38.5 220.5,38.5C 220.5,39.1667 220.833,39.5 221.5,39.5C 221.5,40.1667 221.833,40.5 222.5,40.5C 225.271,44.39 228.271,48.0567 231.5,51.5C 231.5,52.1667 231.833,52.5 232.5,52.5C 234.181,55.2028 235.847,57.8695 237.5,60.5C 237.5,61.1667 237.833,61.5 238.5,61.5C 239.079,64.3311 240.412,66.6644 242.5,68.5C 242.66,70.153 243.326,71.4863 244.5,72.5C 245.925,77.0008 247.591,81.3342 249.5,85.5C 249.928,88.7846 250.928,91.7846 252.5,94.5C 253.058,99.7093 254.058,104.709 255.5,109.5C 255.5,121.5 255.5,133.5 255.5,145.5C 254.539,147.265 254.205,149.265 254.5,151.5C 253.087,154.219 252.42,157.219 252.5,160.5C 251.596,161.209 251.263,162.209 251.5,163.5C 250.262,165.214 249.595,167.214 249.5,169.5C 248.596,170.209 248.263,171.209 248.5,172.5C 247.596,173.209 247.263,174.209 247.5,175.5C 246.662,175.842 246.328,176.508 246.5,177.5C 245.662,177.842 245.328,178.508 245.5,179.5C 244.596,180.209 244.263,181.209 244.5,182.5C 243.662,182.842 243.328,183.508 243.5,184.5C 242.662,184.842 242.328,185.508 242.5,186.5C 241.662,186.842 241.328,187.508 241.5,188.5C 240.833,188.5 240.5,188.833 240.5,189.5C 239.662,189.842 239.328,190.508 239.5,191.5C 238.662,191.842 238.328,192.508 238.5,193.5C 237.662,193.842 237.328,194.508 237.5,195.5C 236.833,195.5 236.5,195.833 236.5,196.5C 235.662,196.842 235.328,197.508 235.5,198.5C 234.833,198.5 234.5,198.833 234.5,199.5C 233.662,199.842 233.328,200.508 233.5,201.5C 232.833,201.5 232.5,201.833 232.5,202.5C 231.833,202.5 231.5,202.833 231.5,203.5C 230.662,203.842 230.328,204.508 230.5,205.5C 229.833,205.5 229.5,205.833 229.5,206.5C 227.457,207.579 226.124,209.246 225.5,211.5C 224.833,211.5 224.5,211.833 224.5,212.5C 223.833,212.5 223.5,212.833 223.5,213.5C 222.833,213.5 222.5,213.833 222.5,214.5C 221.833,214.5 221.5,214.833 221.5,215.5C 220.833,215.5 220.5,215.833 220.5,216.5C 219.833,216.5 219.5,216.833 219.5,217.5C 218.833,217.5 218.5,217.833 218.5,218.5C 217.833,218.5 217.5,218.833 217.5,219.5C 216.833,219.5 216.5,219.833 216.5,220.5C 215.833,220.5 215.5,220.833 215.5,221.5C 214.833,221.5 214.5,221.833 214.5,222.5C 213.833,222.5 213.5,222.833 213.5,223.5C 212.833,223.5 212.5,223.833 212.5,224.5C 211.833,224.5 211.5,224.833 211.5,225.5C 209.246,226.124 207.579,227.457 206.5,229.5C 205.833,229.5 205.5,229.833 205.5,230.5C 204.508,230.328 203.842,230.662 203.5,231.5C 202.833,231.5 202.5,231.833 202.5,232.5C 201.833,232.5 201.5,232.833 201.5,233.5C 200.508,233.328 199.842,233.662 199.5,234.5C 198.833,234.5 198.5,234.833 198.5,235.5C 197.508,235.328 196.842,235.662 196.5,236.5C 195.508,236.328 194.842,236.662 194.5,237.5C 193.833,237.5 193.5,237.833 193.5,238.5C 192.508,238.328 191.842,238.662 191.5,239.5C 190.508,239.328 189.842,239.662 189.5,240.5C 188.833,240.5 188.5,240.833 188.5,241.5C 187.508,241.328 186.842,241.662 186.5,242.5C 185.508,242.328 184.842,242.662 184.5,243.5C 183.508,243.328 182.842,243.662 182.5,244.5C 180.447,244.402 178.78,245.069 177.5,246.5C 176.508,246.328 175.842,246.662 175.5,247.5C 174.209,247.263 173.209,247.596 172.5,248.5C 171.209,248.263 170.209,248.596 169.5,249.5C 167.214,249.595 165.214,250.262 163.5,251.5C 162.209,251.263 161.209,251.596 160.5,252.5C 155.291,253.058 150.291,254.058 145.5,255.5C 133.5,255.5 121.5,255.5 109.5,255.5C 107.735,254.539 105.735,254.205 103.5,254.5C 100.781,253.087 97.7814,252.42 94.5,252.5C 91.7846,250.928 88.7846,249.928 85.5,249.5C 83.064,248.129 80.3973,247.129 77.5,246.5C 77.1583,245.662 76.4916,245.328 75.5,245.5C 74.791,244.596 73.791,244.263 72.5,244.5C 71.4863,243.326 70.153,242.66 68.5,242.5C 63.2028,239.181 57.8695,235.847 52.5,232.5C 52.5,231.833 52.1667,231.5 51.5,231.5C 48.0567,228.271 44.39,225.271 40.5,222.5C 40.5,221.833 40.1667,221.5 39.5,221.5C 39.5,220.833 39.1667,220.5 38.5,220.5C 38.5,219.833 38.1667,219.5 37.5,219.5C 37.5,218.833 37.1667,218.5 36.5,218.5C 36.5,217.833 36.1667,217.5 35.5,217.5C 35.5,216.833 35.1667,216.5 34.5,216.5C 34.5,215.833 34.1667,215.5 33.5,215.5C 33.5,214.833 33.1667,214.5 32.5,214.5C 29.7286,210.61 26.7286,206.943 23.5,203.5C 23.5,202.833 23.1667,202.5 22.5,202.5C 20.8193,199.797 19.1526,197.131 17.5,194.5C 17.5,193.833 17.1667,193.5 16.5,193.5C 15.2262,190.24 13.5595,187.24 11.5,184.5C 11.0652,181.843 10.0652,179.509 8.5,177.5C 7.87096,174.603 6.87096,171.936 5.5,169.5C 5.40505,167.214 4.73838,165.214 3.5,163.5C 2.45067,157.315 1.11734,151.315 -0.5,145.5C -0.5,133.5 -0.5,121.5 -0.5,109.5C 0.461384,107.735 0.794717,105.735 0.5,103.5C 2.15345,97.6055 3.82012,91.6055 5.5,85.5C 6.87096,83.064 7.87096,80.3973 8.5,77.5C 9.33825,77.1583 9.67158,76.4916 9.5,75.5C 13.5507,67.7383 17.884,60.0717 22.5,52.5C 23.1667,52.5 23.5,52.1667 23.5,51.5C 26.7286,48.0567 29.7286,44.39 32.5,40.5C 33.1667,40.5 33.5,40.1667 33.5,39.5C 34.1667,39.5 34.5,39.1667 34.5,38.5C 35.1667,38.5 35.5,38.1667 35.5,37.5C 36.1667,37.5 36.5,37.1667 36.5,36.5C 37.1667,36.5 37.5,36.1667 37.5,35.5C 38.1667,35.5 38.5,35.1667 38.5,34.5C 39.1667,34.5 39.5,34.1667 39.5,33.5C 40.1667,33.5 40.5,33.1667 40.5,32.5C 44.39,29.7286 48.0567,26.7286 51.5,23.5C 52.1667,23.5 52.5,23.1667 52.5,22.5C 55.2028,20.8193 57.8695,19.1526 60.5,17.5C 61.1667,17.5 61.5,17.1667 61.5,16.5C 69.3742,12.4366 77.3742,8.76993 85.5,5.5C 93.577,3.35657 101.577,1.35657 109.5,-0.5 Z"/></g>
<g><path style="opacity:0.009" fill="#000000" d="M 151.5,0.5 C 151.5,0.166667 151.5,-0.166667 151.5,-0.5C 153.167,-0.5 154.833,-0.5 156.5,-0.5C 156.5,-0.166667 156.5,0.166667 156.5,0.5C 154.833,0.5 153.167,0.5 151.5,0.5 Z"/></g>
<g><path style="opacity:0.01" fill="#000000" d="M 98.5,0.5 C 97.7494,1.57346 96.7494,1.74012 95.5,1C 96.448,0.517215 97.448,0.350549 98.5,0.5 Z"/></g>
<g><path style="opacity:0.01" fill="#000000" d="M 156.5,0.5 C 157.552,0.350549 158.552,0.517215 159.5,1C 158.251,1.74012 157.251,1.57346 156.5,0.5 Z"/></g>
<g><path style="opacity:0.009" fill="#000000" d="M 163.5,3.5 C 164.251,2.42654 165.251,2.25988 166.5,3C 165.552,3.48278 164.552,3.64945 163.5,3.5 Z"/></g>
<g><path style="opacity:0.008" fill="#000000" d="M 85.5,5.5 C 81.7787,5.20738 81.9454,4.54072 86,3.5C 86.5,3.66667 87,3.83333 87.5,4C 86.5842,4.27842 85.9175,4.77842 85.5,5.5 Z"/></g>
<g><path style="opacity:0.008" fill="#000000" d="M 169.5,5.5 C 169.082,4.77842 168.416,4.27842 167.5,4C 169.289,3.47954 170.956,3.81288 172.5,5C 171.552,5.48278 170.552,5.64945 169.5,5.5 Z"/></g>
<g><path style="opacity:0.007" fill="#000000" d="M 177.5,8.5 C 178.849,7.2035 180.182,7.37017 181.5,9C 180.906,9.46434 180.239,9.63101 179.5,9.5C 179.158,8.66175 178.492,8.32842 177.5,8.5 Z"/></g>
<g><path style="opacity:0.012" fill="#000000" d="M 73.5,8.5 C 74.8333,9.16667 74.8333,9.16667 73.5,8.5 Z"/></g>
<g><path style="opacity:0.016" fill="#000000" d="M 184.5,10.5 C 185.833,11.1667 185.833,11.1667 184.5,10.5 Z"/></g>
<g><path style="opacity:0.008" fill="#000000" d="M 61.5,16.5 C 60.8333,16.5 60.5,16.8333 60.5,17.5C 58.0248,17.2533 58.0248,16.5866 60.5,15.5C 61.1067,15.6236 61.44,15.9569 61.5,16.5 Z"/></g>
<g><path style="opacity:0.008" fill="#000000" d="M 52.5,22.5 C 51.8333,22.5 51.5,22.8333 51.5,23.5C 49.0248,23.2533 49.0248,22.5866 51.5,21.5C 52.1067,21.6236 52.44,21.9569 52.5,22.5 Z"/></g>
<g><path style="opacity:0.008" fill="#000000" d="M 202.5,22.5 C 203.497,21.2875 204.497,21.4542 205.5,23C 204.906,23.4643 204.239,23.631 203.5,23.5C 202.833,23.5 202.5,23.1667 202.5,22.5 Z"/></g>
<g><path style="opacity:0.005" fill="#000000" d="M 40.5,32.5 C 39.8333,32.5 39.5,32.8333 39.5,33.5C 38.8333,33.5 38.5,33.8333 38.5,34.5C 37.8333,34.5 37.5,34.8333 37.5,35.5C 36.8333,35.5 36.5,35.8333 36.5,36.5C 35.8333,36.5 35.5,36.8333 35.5,37.5C 34.8333,37.5 34.5,37.8333 34.5,38.5C 33.8333,38.5 33.5,38.8333 33.5,39.5C 32.8333,39.5 32.5,39.8333 32.5,40.5C 31.475,40.1034 31.3083,39.4368 32,38.5C 34.1667,36.3333 36.3333,34.1667 38.5,32C 39.4368,31.3083 40.1034,31.475 40.5,32.5 Z"/></g>
<g><path style="opacity:0.005" fill="#000000" d="M 214.5,32.5 C 214.897,31.475 215.563,31.3083 216.5,32C 218.667,34.1667 220.833,36.3333 223,38.5C 223.692,39.4368 223.525,40.1034 222.5,40.5C 221.833,40.5 221.5,40.1667 221.5,39.5C 220.833,39.5 220.5,39.1667 220.5,38.5C 219.833,38.5 219.5,38.1667 219.5,37.5C 218.833,37.5 218.5,37.1667 218.5,36.5C 217.833,36.5 217.5,36.1667 217.5,35.5C 216.833,35.5 216.5,35.1667 216.5,34.5C 215.833,34.5 215.5,34.1667 215.5,33.5C 214.833,33.5 214.5,33.1667 214.5,32.5 Z"/></g>
<g><path style="opacity:1" fill="#eab40c" d="M 125.5,42.5 C 140.886,50.0289 155.886,58.3622 170.5,67.5C 171.521,68.0016 171.688,68.6683 171,69.5C 165.915,72.6262 160.749,75.6262 155.5,78.5C 146.065,73.0329 136.565,67.6996 127,62.5C 117.435,67.6996 107.935,73.0329 98.5,78.5C 93.2514,75.6262 88.0848,72.6262 83,69.5C 82.3123,68.6683 82.479,68.0016 83.5,67.5C 97.5633,59.1406 111.563,50.8072 125.5,42.5 Z"/></g>
<g><path style="opacity:0.008" fill="#000000" d="M 23.5,51.5 C 22.8333,51.5 22.5,51.8333 22.5,52.5C 21.2875,51.5029 21.4542,50.5029 23,49.5C 23.4643,50.0944 23.631,50.7611 23.5,51.5 Z"/></g>
<g><path style="opacity:0.008" fill="#000000" d="M 232.5,52.5 C 231.833,52.5 231.5,52.1667 231.5,51.5C 231.747,49.0248 232.413,49.0248 233.5,51.5C 233.376,52.1067 233.043,52.44 232.5,52.5 Z"/></g>
<g><path style="opacity:0.008" fill="#000000" d="M 238.5,61.5 C 237.833,61.5 237.5,61.1667 237.5,60.5C 237.747,58.0248 238.413,58.0248 239.5,60.5C 239.376,61.1067 239.043,61.44 238.5,61.5 Z"/></g>
<g><path style="opacity:0.008" fill="#000000" d="M 242.5,68.5 C 242.369,67.7611 242.536,67.0944 243,66.5C 243.692,67.4368 243.525,68.1034 242.5,68.5 Z"/></g>
<g><path style="opacity:0.01" fill="#000000" d="M 244.5,72.5 C 244.369,71.7611 244.536,71.0944 245,70.5C 245.692,71.4368 245.525,72.1034 244.5,72.5 Z"/></g>
<g><path style="opacity:0.007" fill="#000000" d="M 9.5,75.5 C 8.66175,75.8417 8.32842,76.5084 8.5,77.5C 7.2035,76.1512 7.37017,74.8179 9,73.5C 9.46434,74.0944 9.63101,74.7611 9.5,75.5 Z"/></g>
<g><path style="opacity:0.012" fill="#000000" d="M 245.5,73.5 C 246.833,74.1667 246.833,74.1667 245.5,73.5 Z"/></g>
<g><path style="opacity:1" fill="#e9b30c" d="M 182.5,75.5 C 188.545,77.6903 194.212,80.6903 199.5,84.5C 200.833,91.5 200.833,98.5 199.5,105.5C 194.381,108.726 189.048,111.393 183.5,113.5C 183.83,107.132 183.496,100.798 182.5,94.5C 177.162,91.8331 172.162,88.6664 167.5,85C 172.564,81.8087 177.564,78.6421 182.5,75.5 Z"/></g>
<g><path style="opacity:1" fill="#eab30c" d="M 68.5,75.5 C 74.8779,77.8567 80.8779,81.0233 86.5,85C 81.4168,88.2921 76.2502,91.4588 71,94.5C 70.8309,101.191 70.3309,107.858 69.5,114.5C 64.6657,111.248 59.6657,108.248 54.5,105.5C 53.3356,98.5237 53.1689,91.5237 54,84.5C 59.0059,81.6369 63.8392,78.6369 68.5,75.5 Z"/></g>
<g><path style="opacity:1" fill="#e7b10c" d="M 125.5,75.5 C 131.878,77.8567 137.878,81.0233 143.5,85C 138,88.5 132.5,92 127,95.5C 121.5,92 116,88.5 110.5,85C 115.564,81.8087 120.564,78.6421 125.5,75.5 Z"/></g>
<g><path style="opacity:0.008" fill="#000000" d="M 5.5,85.5 C 4.77842,85.9175 4.27842,86.5842 4,87.5C 3.47954,85.7111 3.81288,84.0444 5,82.5C 5.48278,83.448 5.64945,84.448 5.5,85.5 Z"/></g>
<g><path style="opacity:0.008" fill="#000000" d="M 249.5,85.5 C 249.793,81.7787 250.459,81.9454 251.5,86C 251.333,86.5 251.167,87 251,87.5C 250.722,86.5842 250.222,85.9175 249.5,85.5 Z"/></g>
<g><path style="opacity:0.01" fill="#000000" d="M 252.5,94.5 C 252.351,93.448 252.517,92.448 253,91.5C 253.74,92.7494 253.573,93.7494 252.5,94.5 Z"/></g>
<g><path style="opacity:1" fill="#eeb60c" d="M 97.5,91.5 C 107.211,97.0408 117.044,102.374 127,107.5C 136.556,102.638 146.056,97.6384 155.5,92.5C 161.203,95.102 166.703,98.102 172,101.5C 172.831,108.192 172.664,114.858 171.5,121.5C 162.5,126.833 153.5,132.167 144.5,137.5C 143.833,148.833 143.167,160.167 142.5,171.5C 137.667,174.082 133,176.915 128.5,180C 122.422,178.295 116.756,175.461 111.5,171.5C 110.833,160.167 110.167,148.833 109.5,137.5C 100.251,132.293 91.0847,126.96 82,121.5C 81.3333,114.833 81.3333,108.167 82,101.5C 87.4867,98.5163 92.6533,95.183 97.5,91.5 Z"/></g>
<g><path style="opacity:0.01" fill="#000000" d="M 0.5,98.5 C 0.350549,97.448 0.517215,96.448 1,95.5C 1.74012,96.7494 1.57346,97.7494 0.5,98.5 Z"/></g>
<g><path style="opacity:0.01" fill="#000000" d="M 254.5,98.5 C 253.427,97.7494 253.26,96.7494 254,95.5C 254.483,96.448 254.649,97.448 254.5,98.5 Z"/></g>
<g><path style="opacity:0.009" fill="#000000" d="M -0.5,98.5 C -0.166667,98.5 0.166667,98.5 0.5,98.5C 0.5,100.167 0.5,101.833 0.5,103.5C 0.166667,103.5 -0.166667,103.5 -0.5,103.5C -0.5,101.833 -0.5,100.167 -0.5,98.5 Z"/></g>
<g><path style="opacity:0.01" fill="#000000" d="M 254.5,98.5 C 254.833,98.5 255.167,98.5 255.5,98.5C 255.5,99.8333 255.5,101.167 255.5,102.5C 254.566,101.432 254.232,100.099 254.5,98.5 Z"/></g>
<g><path style="opacity:1" fill="#ebb40c" d="M 156.5,196.5 C 155.51,190.355 155.177,184.022 155.5,177.5C 164.272,171.941 173.272,166.608 182.5,161.5C 183.332,150.181 183.832,138.848 184,127.5C 189.085,124.374 194.251,121.374 199.5,118.5C 200.833,136.167 200.833,153.833 199.5,171.5C 184.975,179.593 170.642,187.926 156.5,196.5 Z"/></g>
<g><path style="opacity:1" fill="#ecb50c" d="M 98.5,177.5 C 98.8235,184.022 98.4902,190.355 97.5,196.5C 83.0303,188.431 68.697,180.097 54.5,171.5C 53.1667,153.833 53.1667,136.167 54.5,118.5C 59.7486,121.374 64.9152,124.374 70,127.5C 70.1675,138.848 70.6675,150.181 71.5,161.5C 80.7282,166.608 89.7282,171.941 98.5,177.5 Z"/></g>
<g><path style="opacity:1" fill="#9a770e" d="M 83.5,135.5 C 82.5098,141.645 82.1765,147.978 82.5,154.5C 81.1819,147.989 81.1819,141.322 82.5,134.5C 83.1067,134.624 83.44,134.957 83.5,135.5 Z"/></g>
<g><path style="opacity:1" fill="#eab40c" d="M 83.5,135.5 C 88.1393,138.155 92.806,140.821 97.5,143.5C 98.8333,150.167 98.8333,156.833 97.5,163.5C 92.2708,160.726 87.2708,157.726 82.5,154.5C 82.1765,147.978 82.5098,141.645 83.5,135.5 Z"/></g>
<g><path style="opacity:1" fill="#e8b20c" d="M 170.5,134.5 C 171.82,137.428 172.486,140.761 172.5,144.5C 172.333,147.833 172.167,151.167 172,154.5C 166.915,157.626 161.749,160.626 156.5,163.5C 155.167,156.833 155.167,150.167 156.5,143.5C 161.571,140.974 166.238,137.974 170.5,134.5 Z"/></g>
<g><path style="opacity:0.009" fill="#000000" d="M 254.5,151.5 C 254.833,151.5 255.167,151.5 255.5,151.5C 255.5,153.167 255.5,154.833 255.5,156.5C 255.167,156.5 254.833,156.5 254.5,156.5C 254.5,154.833 254.5,153.167 254.5,151.5 Z"/></g>
<g><path style="opacity:0.01" fill="#000000" d="M -0.5,152.5 C 0.434475,153.568 0.767809,154.901 0.5,156.5C 0.166667,156.5 -0.166667,156.5 -0.5,156.5C -0.5,155.167 -0.5,153.833 -0.5,152.5 Z"/></g>
<g><path style="opacity:0.01" fill="#000000" d="M 0.5,156.5 C 1.57346,157.251 1.74012,158.251 1,159.5C 0.517215,158.552 0.350549,157.552 0.5,156.5 Z"/></g>
<g><path style="opacity:0.01" fill="#000000" d="M 254.5,156.5 C 254.649,157.552 254.483,158.552 254,159.5C 253.26,158.251 253.427,157.251 254.5,156.5 Z"/></g>
<g><path style="opacity:0.01" fill="#000000" d="M 252.5,160.5 C 253.833,161.5 253.833,162.5 252.5,163.5C 252.5,162.5 252.5,161.5 252.5,160.5 Z"/></g>
<g><path style="opacity:0.01" fill="#000000" d="M 3.5,163.5 C 3.64945,164.552 3.48278,165.552 3,166.5C 2.25988,165.251 2.42654,164.251 3.5,163.5 Z"/></g>
<g><path style="opacity:0.01" fill="#000000" d="M 251.5,163.5 C 251.833,163.5 252.167,163.5 252.5,163.5C 252.167,167.5 251.833,167.5 251.5,163.5 Z"/></g>
<g><path style="opacity:0.008" fill="#000000" d="M 5.5,169.5 C 5.20738,173.221 4.54072,173.055 3.5,169C 3.66667,168.5 3.83333,168 4,167.5C 4.27842,168.416 4.77842,169.082 5.5,169.5 Z"/></g>
<g><path style="opacity:0.008" fill="#000000" d="M 249.5,172.5 C 249.5,171.5 249.5,170.5 249.5,169.5C 250.222,169.082 250.722,168.416 251,167.5C 251.599,169.535 251.099,171.201 249.5,172.5 Z"/></g>
<g><path style="opacity:0.007" fill="#000000" d="M 248.5,172.5 C 248.833,172.5 249.167,172.5 249.5,172.5C 249.737,173.791 249.404,174.791 248.5,175.5C 248.5,174.5 248.5,173.5 248.5,172.5 Z"/></g>
<g><path style="opacity:0.01" fill="#000000" d="M 247.5,175.5 C 247.833,175.5 248.167,175.5 248.5,175.5C 248.672,176.492 248.338,177.158 247.5,177.5C 247.5,176.833 247.5,176.167 247.5,175.5 Z"/></g>
<g><path style="opacity:0.007" fill="#000000" d="M 8.5,177.5 C 8.5,178.5 8.5,179.5 8.5,180.5C 7.16667,179.5 7.16667,178.5 8.5,177.5 Z"/></g>
<g><path style="opacity:0.007" fill="#000000" d="M 246.5,177.5 C 246.833,177.5 247.167,177.5 247.5,177.5C 247.688,179.103 247.188,180.437 246,181.5C 245.536,180.906 245.369,180.239 245.5,179.5C 246.338,179.158 246.672,178.492 246.5,177.5 Z"/></g>
<g><path style="opacity:1" fill="#4b3b10" d="M 155.5,177.5 C 155.177,184.022 155.51,190.355 156.5,196.5C 156.44,197.043 156.107,197.376 155.5,197.5C 154.182,190.678 154.182,184.011 155.5,177.5 Z"/></g>
<g><path style="opacity:1" fill="#604a10" d="M 98.5,177.5 C 99.8181,184.011 99.8181,190.678 98.5,197.5C 97.8933,197.376 97.56,197.043 97.5,196.5C 98.4902,190.355 98.8235,184.022 98.5,177.5 Z"/></g>
<g><path style="opacity:0.012" fill="#000000" d="M 8.5,180.5 C 9.83333,181.167 9.83333,181.167 8.5,180.5 Z"/></g>
<g><path style="opacity:0.008" fill="#000000" d="M 244.5,182.5 C 245.833,183.167 245.833,183.833 244.5,184.5C 244.5,183.833 244.5,183.167 244.5,182.5 Z"/></g>
<g><path style="opacity:0.016" fill="#000000" d="M 11.5,184.5 C 10.8333,185.167 10.8333,185.167 11.5,184.5 Z"/></g>
<g><path style="opacity:0.016" fill="#000000" d="M 243.5,184.5 C 243.833,184.5 244.167,184.5 244.5,184.5C 244.315,185.17 243.981,185.17 243.5,184.5 Z"/></g>
<g><path style="opacity:1" fill="#ebb40c" d="M 110.5,204.5 C 109.877,197.745 110.544,191.412 112.5,185.5C 117.242,188.288 122.075,190.955 127,193.5C 132.479,190.76 137.813,187.76 143,184.5C 143.667,191.167 143.667,197.833 143,204.5C 137.813,207.76 132.479,210.76 127,213.5C 121.409,210.622 115.909,207.622 110.5,204.5 Z"/></g>
<g><path style="opacity:0.008" fill="#000000" d="M 242.5,186.5 C 243.833,187.167 243.833,187.833 242.5,188.5C 242.5,187.833 242.5,187.167 242.5,186.5 Z"/></g>
<g><path style="opacity:1" fill="#473910" d="M 112.5,185.5 C 110.544,191.412 109.877,197.745 110.5,204.5C 109.509,198.021 109.176,191.354 109.5,184.5C 110.791,184.263 111.791,184.596 112.5,185.5 Z"/></g>
<g><path style="opacity:0.016" fill="#000000" d="M 241.5,188.5 C 241.833,188.5 242.167,188.5 242.5,188.5C 242.315,189.17 241.981,189.17 241.5,188.5 Z"/></g>
<g><path style="opacity:0.01" fill="#000000" d="M 240.5,189.5 C 240.833,189.5 241.167,189.5 241.5,189.5C 241.672,190.492 241.338,191.158 240.5,191.5C 240.5,190.833 240.5,190.167 240.5,189.5 Z"/></g>
<g><path style="opacity:0.006" fill="#000000" d="M 239.5,191.5 C 239.833,191.5 240.167,191.5 240.5,191.5C 240.672,192.492 240.338,193.158 239.5,193.5C 239.5,192.833 239.5,192.167 239.5,191.5 Z"/></g>
<g><path style="opacity:0.008" fill="#000000" d="M 16.5,193.5 C 17.1667,193.5 17.5,193.833 17.5,194.5C 17.2533,196.975 16.5866,196.975 15.5,194.5C 15.6236,193.893 15.9569,193.56 16.5,193.5 Z"/></g>
<g><path style="opacity:0.01" fill="#000000" d="M 238.5,193.5 C 238.833,193.5 239.167,193.5 239.5,193.5C 239.672,194.492 239.338,195.158 238.5,195.5C 238.5,194.833 238.5,194.167 238.5,193.5 Z"/></g>
<g><path style="opacity:0.008" fill="#000000" d="M 237.5,195.5 C 237.833,195.5 238.167,195.5 238.5,195.5C 238.315,196.17 237.981,196.17 237.5,195.5 Z"/></g>
<g><path style="opacity:0.01" fill="#000000" d="M 236.5,196.5 C 236.833,196.5 237.167,196.5 237.5,196.5C 237.672,197.492 237.338,198.158 236.5,198.5C 236.5,197.833 236.5,197.167 236.5,196.5 Z"/></g>
<g><path style="opacity:0.012" fill="#000000" d="M 235.5,198.5 C 235.833,198.5 236.167,198.5 236.5,198.5C 236.315,199.17 235.981,199.17 235.5,198.5 Z"/></g>
<g><path style="opacity:0.01" fill="#000000" d="M 234.5,199.5 C 234.833,199.5 235.167,199.5 235.5,199.5C 235.672,200.492 235.338,201.158 234.5,201.5C 234.5,200.833 234.5,200.167 234.5,199.5 Z"/></g>
<g><path style="opacity:0.012" fill="#000000" d="M 233.5,201.5 C 233.833,201.5 234.167,201.5 234.5,201.5C 234.315,202.17 233.981,202.17 233.5,201.5 Z"/></g>
<g><path style="opacity:0.008" fill="#000000" d="M 22.5,202.5 C 23.1667,202.5 23.5,202.833 23.5,203.5C 23.2533,205.975 22.5866,205.975 21.5,203.5C 21.6236,202.893 21.9569,202.56 22.5,202.5 Z"/></g>
<g><path style="opacity:0.008" fill="#000000" d="M 232.5,202.5 C 232.833,202.5 233.167,202.5 233.5,202.5C 233.573,204.027 232.906,205.027 231.5,205.5C 231.5,204.833 231.5,204.167 231.5,203.5C 232.167,203.5 232.5,203.167 232.5,202.5 Z"/></g>
<g><path style="opacity:0.012" fill="#000000" d="M 230.5,205.5 C 230.833,205.5 231.167,205.5 231.5,205.5C 231.315,206.17 230.981,206.17 230.5,205.5 Z"/></g>
<g><path style="opacity:0.016" fill="#000000" d="M 229.5,206.5 C 229.833,206.5 230.167,206.5 230.5,206.5C 230.315,207.17 229.981,207.17 229.5,206.5 Z"/></g>
<g><path style="opacity:0.016" fill="#000000" d="M 225.5,211.5 C 226.833,212.167 226.833,212.167 225.5,211.5 Z"/></g>
<g><path style="opacity:0.016" fill="#000000" d="M 224.5,212.5 C 224.833,212.5 225.167,212.5 225.5,212.5C 225.315,213.17 224.981,213.17 224.5,212.5 Z"/></g>
<g><path style="opacity:0.016" fill="#000000" d="M 223.5,213.5 C 223.833,213.5 224.167,213.5 224.5,213.5C 224.315,214.17 223.981,214.17 223.5,213.5 Z"/></g>
<g><path style="opacity:0.005" fill="#000000" d="M 32.5,214.5 C 33.1667,214.5 33.5,214.833 33.5,215.5C 34.1667,215.5 34.5,215.833 34.5,216.5C 35.1667,216.5 35.5,216.833 35.5,217.5C 36.1667,217.5 36.5,217.833 36.5,218.5C 37.1667,218.5 37.5,218.833 37.5,219.5C 38.1667,219.5 38.5,219.833 38.5,220.5C 39.1667,220.5 39.5,220.833 39.5,221.5C 40.1667,221.5 40.5,221.833 40.5,222.5C 40.1034,223.525 39.4368,223.692 38.5,223C 36.3333,220.833 34.1667,218.667 32,216.5C 31.3083,215.563 31.475,214.897 32.5,214.5 Z"/></g>
<g><path style="opacity:0.005" fill="#000000" d="M 222.5,214.5 C 222.833,214.5 223.167,214.5 223.5,214.5C 221.5,218.5 218.5,221.5 214.5,223.5C 214.5,223.167 214.5,222.833 214.5,222.5C 215.167,222.5 215.5,222.167 215.5,221.5C 216.167,221.5 216.5,221.167 216.5,220.5C 217.167,220.5 217.5,220.167 217.5,219.5C 218.167,219.5 218.5,219.167 218.5,218.5C 219.167,218.5 219.5,218.167 219.5,217.5C 220.167,217.5 220.5,217.167 220.5,216.5C 221.167,216.5 221.5,216.167 221.5,215.5C 222.167,215.5 222.5,215.167 222.5,214.5 Z"/></g>
<g><path style="opacity:0.016" fill="#000000" d="M 213.5,223.5 C 213.833,223.5 214.167,223.5 214.5,223.5C 214.315,224.17 213.981,224.17 213.5,223.5 Z"/></g>
<g><path style="opacity:0.016" fill="#000000" d="M 212.5,224.5 C 212.833,224.5 213.167,224.5 213.5,224.5C 213.315,225.17 212.981,225.17 212.5,224.5 Z"/></g>
<g><path style="opacity:0.012" fill="#000000" d="M 211.5,225.5 C 211.833,225.5 212.167,225.5 212.5,225.5C 212.315,226.17 211.981,226.17 211.5,225.5 Z"/></g>
<g><path style="opacity:0.016" fill="#000000" d="M 206.5,229.5 C 207.833,230.167 207.833,230.167 206.5,229.5 Z"/></g>
<g><path style="opacity:0.012" fill="#000000" d="M 205.5,230.5 C 205.833,230.5 206.167,230.5 206.5,230.5C 206.315,231.17 205.981,231.17 205.5,230.5 Z"/></g>
<g><path style="opacity:0.008" fill="#000000" d="M 51.5,231.5 C 52.1667,231.5 52.5,231.833 52.5,232.5C 51.5029,233.713 50.5029,233.546 49.5,232C 50.0944,231.536 50.7611,231.369 51.5,231.5 Z"/></g>
<g><path style="opacity:0.008" fill="#000000" d="M 203.5,231.5 C 204.167,231.5 204.833,231.5 205.5,231.5C 205.027,232.906 204.027,233.573 202.5,233.5C 202.5,233.167 202.5,232.833 202.5,232.5C 203.167,232.5 203.5,232.167 203.5,231.5 Z"/></g>
<g><path style="opacity:0.012" fill="#000000" d="M 201.5,233.5 C 201.833,233.5 202.167,233.5 202.5,233.5C 202.315,234.17 201.981,234.17 201.5,233.5 Z"/></g>
<g><path style="opacity:0.008" fill="#000000" d="M 199.5,235.5 C 199.5,235.167 199.5,234.833 199.5,234.5C 200.167,234.5 200.833,234.5 201.5,234.5C 201.158,235.338 200.492,235.672 199.5,235.5 Z"/></g>
<g><path style="opacity:0.012" fill="#000000" d="M 198.5,235.5 C 198.833,235.5 199.167,235.5 199.5,235.5C 199.315,236.17 198.981,236.17 198.5,235.5 Z"/></g>
<g><path style="opacity:0.008" fill="#000000" d="M 196.5,237.5 C 196.5,237.167 196.5,236.833 196.5,236.5C 197.167,236.5 197.833,236.5 198.5,236.5C 198.158,237.338 197.492,237.672 196.5,237.5 Z"/></g>
<g><path style="opacity:0.008" fill="#000000" d="M 194.5,237.5 C 195.167,237.5 195.833,237.5 196.5,237.5C 196.027,238.906 195.027,239.573 193.5,239.5C 193.5,239.167 193.5,238.833 193.5,238.5C 194.167,238.5 194.5,238.167 194.5,237.5 Z"/></g>
<g><path style="opacity:0.008" fill="#000000" d="M 191.5,240.5 C 191.5,240.167 191.5,239.833 191.5,239.5C 192.167,239.5 192.833,239.5 193.5,239.5C 193.158,240.338 192.492,240.672 191.5,240.5 Z"/></g>
<g><path style="opacity:0.006" fill="#000000" d="M 189.5,241.5 C 189.5,241.167 189.5,240.833 189.5,240.5C 190.167,240.5 190.833,240.5 191.5,240.5C 191.158,241.338 190.492,241.672 189.5,241.5 Z"/></g>
<g><path style="opacity:0.012" fill="#000000" d="M 188.5,241.5 C 188.833,241.5 189.167,241.5 189.5,241.5C 189.315,242.17 188.981,242.17 188.5,241.5 Z"/></g>
<g><path style="opacity:0.008" fill="#000000" d="M 68.5,242.5 C 68.1034,243.525 67.4368,243.692 66.5,243C 67.0944,242.536 67.7611,242.369 68.5,242.5 Z"/></g>
<g><path style="opacity:0.008" fill="#000000" d="M 186.5,242.5 C 187.167,242.5 187.833,242.5 188.5,242.5C 187.833,243.833 187.167,243.833 186.5,242.5 Z"/></g>
<g><path style="opacity:0.016" fill="#000000" d="M 184.5,243.5 C 185.833,244.167 185.833,244.167 184.5,243.5 Z"/></g>
<g><path style="opacity:0.008" fill="#000000" d="M 72.5,244.5 C 72.1034,245.525 71.4368,245.692 70.5,245C 71.0944,244.536 71.7611,244.369 72.5,244.5 Z"/></g>
<g><path style="opacity:0.01" fill="#000000" d="M 182.5,244.5 C 183.167,244.5 183.833,244.5 184.5,244.5C 183.833,245.833 183.167,245.833 182.5,244.5 Z"/></g>
<g><path style="opacity:0.007" fill="#000000" d="M 75.5,245.5 C 75.8417,246.338 76.5084,246.672 77.5,246.5C 76.1512,247.797 74.8179,247.63 73.5,246C 74.0944,245.536 74.7611,245.369 75.5,245.5 Z"/></g>
<g><path style="opacity:0.012" fill="#000000" d="M 180.5,245.5 C 181.833,246.167 181.833,246.167 180.5,245.5 Z"/></g>
<g><path style="opacity:0.007" fill="#000000" d="M 177.5,247.5 C 177.5,247.167 177.5,246.833 177.5,246.5C 178.5,246.5 179.5,246.5 180.5,246.5C 179.791,247.404 178.791,247.737 177.5,247.5 Z"/></g>
<g><path style="opacity:0.01" fill="#000000" d="M 175.5,248.5 C 175.5,248.167 175.5,247.833 175.5,247.5C 176.167,247.5 176.833,247.5 177.5,247.5C 177.158,248.338 176.492,248.672 175.5,248.5 Z"/></g>
<g><path style="opacity:0.008" fill="#000000" d="M 172.5,249.5 C 172.5,249.167 172.5,248.833 172.5,248.5C 173.5,248.5 174.5,248.5 175.5,248.5C 174.791,249.404 173.791,249.737 172.5,249.5 Z"/></g>
<g><path style="opacity:0.008" fill="#000000" d="M 85.5,249.5 C 85.9175,250.222 86.5842,250.722 87.5,251C 85.7111,251.52 84.0444,251.187 82.5,250C 83.448,249.517 84.448,249.351 85.5,249.5 Z"/></g>
<g><path style="opacity:0.008" fill="#000000" d="M 169.5,249.5 C 170.5,249.5 171.5,249.5 172.5,249.5C 171.201,251.099 169.535,251.599 167.5,251C 168.416,250.722 169.082,250.222 169.5,249.5 Z"/></g>
<g><path style="opacity:0.01" fill="#000000" d="M 163.5,252.5 C 163.5,252.167 163.5,251.833 163.5,251.5C 167.5,251.833 167.5,252.167 163.5,252.5 Z"/></g>
<g><path style="opacity:0.01" fill="#000000" d="M 94.5,252.5 C 93.7494,253.573 92.7494,253.74 91.5,253C 92.448,252.517 93.448,252.351 94.5,252.5 Z"/></g>
<g><path style="opacity:0.01" fill="#000000" d="M 160.5,252.5 C 161.5,252.5 162.5,252.5 163.5,252.5C 162.5,253.833 161.5,253.833 160.5,252.5 Z"/></g>
<g><path style="opacity:0.01" fill="#000000" d="M 98.5,254.5 C 97.448,254.649 96.448,254.483 95.5,254C 96.7494,253.26 97.7494,253.427 98.5,254.5 Z"/></g>
<g><path style="opacity:0.01" fill="#000000" d="M 156.5,254.5 C 157.251,253.427 158.251,253.26 159.5,254C 158.552,254.483 157.552,254.649 156.5,254.5 Z"/></g>
<g><path style="opacity:0.009" fill="#000000" d="M 98.5,255.5 C 98.5,255.167 98.5,254.833 98.5,254.5C 100.167,254.5 101.833,254.5 103.5,254.5C 103.5,254.833 103.5,255.167 103.5,255.5C 101.833,255.5 100.167,255.5 98.5,255.5 Z"/></g>
<g><path style="opacity:0.01" fill="#000000" d="M 152.5,255.5 C 153.568,254.566 154.901,254.232 156.5,254.5C 156.5,254.833 156.5,255.167 156.5,255.5C 155.167,255.5 153.833,255.5 152.5,255.5 Z"/></g>
</svg>
