<?xml version="1.0" encoding="UTF-8" standalone="no"?>
<svg
   width="18"
   height="18"
   viewBox="0 0 18 18"
   fill="none"
   version="1.1"
   id="svg6"
   xmlns="http://www.w3.org/2000/svg"
   xmlns:svg="http://www.w3.org/2000/svg">
  <path
     d="m 14.267962,18.017648 h -0.750946 c -0.19915,0 -0.390191,-0.07907 -0.530968,-0.219916 -0.140877,-0.140738 -0.219977,-0.331726 -0.219977,-0.530819 0,-0.199096 0.0791,-0.390083 0.219977,-0.530821 0.140777,-0.140839 0.331818,-0.219916 0.530968,-0.219916 h 0.750946 c 0.597452,0 1.170473,-0.237332 1.593005,-0.659645 0.422432,-0.422414 0.65983,-0.995275 0.65983,-1.592561 v -0.750734 c 0,-0.199096 0.0791,-0.390083 0.219978,-0.53082 0.140777,-0.140838 0.331817,-0.219916 0.530969,-0.219916 0.199149,0 0.39019,0.07907 0.530967,0.219916 0.140877,0.140737 0.219978,0.331724 0.219978,0.53082 v 0.750734 c -0.0012,0.995175 -0.397201,1.94921 -1.101087,2.652899 -0.703886,0.703689 -1.658187,1.099577 -2.65364,1.100779 z M 18.022689,4.5044118 V 3.7536765 C 18.021486,2.7585018 17.625488,1.8044373 16.921602,1.1007381 16.217716,0.39704989 15.263415,0.00119217 14.267962,0 h -0.750946 c -0.19915,0 -0.390191,0.07909546 -0.530968,0.21988536 -0.140877,0.1407899 -0.219977,0.33174495 -0.219977,0.53084994 0,0.199105 0.0791,0.390062 0.219977,0.53085 0.140777,0.1407878 0.331818,0.2198853 0.530968,0.2198853 h 0.750946 c 0.597452,0 1.170473,0.2372823 1.593005,0.6596561 0.422432,0.4223736 0.65983,0.9952248 0.65983,1.5925498 v 0.7507353 c 0,0.199105 0.0791,0.3900621 0.219978,0.5308499 0.140777,0.1407879 0.331817,0.2198854 0.530969,0.2198854 0.199149,0 0.39019,-0.079098 0.530967,-0.2198854 0.140877,-0.1407878 0.219978,-0.3317449 0.219978,-0.5308499 z M 5.2566174,17.266913 c 0,-0.199096 -0.07912,-0.390083 -0.2199469,-0.530821 C 4.8958432,16.595253 4.7048327,16.516176 4.5056721,16.516176 H 3.7547266 c -0.5974921,0 -1.1705035,-0.237332 -1.5929953,-0.659645 C 1.7392395,15.434117 1.5018906,14.861256 1.5018906,14.26397 v -0.750734 c 0,-0.199096 -0.07912,-0.390083 -0.2199468,-0.53082 C 1.1411165,12.841578 0.95010808,12.7625 0.75094534,12.7625 c -0.1991627,0 -0.39016917,0.07907 -0.53099845,0.219916 C 0.07911719,13.123153 0,13.31414 0,13.513236 v 0.750734 c 0.00119241,0.995175 0.39716097,1.94921 1.1010461,2.652899 0.703896,0.703689 1.6582274,1.099577 2.6536805,1.100779 h 0.7509455 c 0.1991606,0 0.3901711,-0.07907 0.5309984,-0.219916 0.1408273,-0.140738 0.2199469,-0.331726 0.2199469,-0.530819 z M 1.5018906,4.5044118 V 3.7536765 c 0,-0.597325 0.2373489,-1.1701762 0.6598407,-1.5925498 C 2.5842231,1.7387529 3.1572345,1.5014706 3.7547266,1.5014706 h 0.7509455 c 0.1991606,0 0.3901711,-0.079098 0.5309984,-0.2198853 0.1408273,-0.140788 0.2199469,-0.331745 0.2199469,-0.53085 0,-0.19910499 -0.07912,-0.39006004 -0.2199469,-0.53084994 C 4.8958432,0.07909546 4.7048327,0 4.5056721,0 H 3.7547266 C 2.7592735,0.00119217 1.8049421,0.39704989 1.1010461,1.1007381 0.39716097,1.8044373 0.00119239,2.7585018 0,3.7536765 v 0.7507353 c 0,0.199105 0.07911719,0.3900621 0.21994689,0.5308499 0.14082928,0.1407879 0.33183575,0.2198854 0.53099845,0.2198854 0.19916268,0 0.39017116,-0.079098 0.53099846,-0.2198854 C 1.4227711,4.8944739 1.5018906,4.7035168 1.5018906,4.5044118 Z"
     fill="#0066DA"
     id="path2"/>
  <path
     d="m 5.8432962,7.0381436 c 0,-0.7385436 0.5988735,-1.3372502 1.3376237,-1.3372502 h 3.6608281 c 0.738731,0 1.337684,0.5987066 1.337684,1.3372502 v 3.9161854 c 0,0.738523 -0.598953,1.33721 -1.337684,1.33721 H 7.1809199 c -0.7387502,0 -1.3376237,-0.598687 -1.3376237,-1.33721 z"
     fill="#0066DA"
     id="path4"/>
</svg>
