<?xml version="1.0" encoding="UTF-8" standalone="no"?>
<svg
   width="320"
   height="320"
   viewBox="0 0 320 320"
   fill="none"
   version="1.1"
   id="svg22"
   xmlns="http://www.w3.org/2000/svg"
   xmlns:svg="http://www.w3.org/2000/svg">
  <defs
     id="defs26" />
  <path
     d="m 218.79673,39.682603 c 13.22754,-27.28181 25.03774,-23.974528 36.20228,-25.340042 7.55394,-0.92331 37.92688,18.573636 37.92688,38.624785 0,20.05101 -13.16949,27.818326 -20.89617,32.207401"
     fill="#9b9b9b"
     id="path2"
     style="stroke-width:14.1592" />
  <path
     d="M 99.212792,39.682603 C 85.985679,12.400793 74.17561,15.708075 63.010643,14.342561 c -7.55479,-0.92331 -37.926692,18.573636 -37.926692,38.624785 0,20.05101 13.168453,27.818326 20.895846,32.207401"
     fill="#9b9b9b"
     id="path4"
     style="stroke-width:14.1592" />
  <path
     d="m 159.00518,300.91705 c 74.56528,0 135.01239,-60.44713 135.01239,-135.0124 0,-74.56568 -60.44711,-135.012798 -135.01239,-135.012798 -74.564837,0 -135.011871,60.447118 -135.011871,135.012798 0,74.56527 60.447034,135.0124 135.011871,135.0124 z"
     fill="#f5faff"
     id="path6"
     style="stroke-width:14.1592" />
  <path
     fill-rule="evenodd"
     clip-rule="evenodd"
     d="m 239.69149,270.87968 c 2.78228,-1.66229 6.38722,-0.75327 8.0495,2.02901 l 16.92877,28.34392 c 1.66228,2.78371 0.75327,6.38723 -2.03043,8.04952 -2.78229,1.66228 -6.38723,0.75469 -8.04952,-2.02902 l -16.92876,-28.34392 c -1.66229,-2.7837 -0.75327,-6.38723 2.03044,-8.04951 z"
     fill="#0066da"
     id="path8"
     style="stroke-width:14.1592" />
  <path
     fill-rule="evenodd"
     clip-rule="evenodd"
     d="m 78.319455,270.87968 c 2.783267,1.66228 3.692009,5.26581 2.029576,8.04951 l -16.928754,28.34392 c -1.662434,2.78371 -5.266385,3.6913 -8.049663,2.02902 -2.783276,-1.66229 -3.692016,-5.26581 -2.029582,-8.04952 l 16.928761,-28.34392 c 1.662434,-2.78228 5.266379,-3.6913 8.049662,-2.02901 z"
     fill="#0066da"
     id="path10"
     style="stroke-width:14.1592" />
  <path
     fill-rule="evenodd"
     clip-rule="evenodd"
     d="m 255.7438,24.530259 c -6.68458,0 -12.77871,2.471208 -17.4385,6.558407 -2.43681,2.137901 -6.1451,1.895353 -8.28314,-0.541873 -2.13804,-2.437084 -1.89592,-6.145949 0.54229,-8.28385 6.71855,-5.894341 15.53833,-9.472885 25.17935,-9.472885 21.09723,0 38.20015,17.101871 38.20015,38.199671 0,7.681941 -2.27398,14.850895 -6.18618,20.848174 -1.77131,2.715171 -5.40881,3.480477 -8.12313,1.709157 -2.71574,-1.771318 -3.48035,-5.408395 -1.70902,-8.123709 2.70583,-4.147517 4.27891,-9.098004 4.27891,-14.433622 0,-14.613446 -11.84701,-26.45947 -26.46073,-26.45947 z"
     fill="#0066da"
     id="path12"
     style="stroke-width:14.1592" />
  <path
     fill-rule="evenodd"
     clip-rule="evenodd"
     d="m 24.06763,50.989729 c 0,-21.097659 17.102706,-38.199671 38.199654,-38.199671 9.640723,0 18.460646,3.578544 25.180465,9.472744 2.437232,2.137758 2.680057,5.846481 0.542305,8.28385 -2.137905,2.437225 -5.846623,2.679915 -8.283856,0.542155 -4.660075,-4.08734 -10.753632,-6.558548 -17.438914,-6.558548 -14.613159,0 -26.459469,11.845883 -26.459469,26.45947 0,5.335902 1.572947,10.286246 4.278774,14.433198 1.771461,2.715171 1.006579,6.35225 -1.708592,8.123851 -2.715171,1.771602 -6.35225,1.006578 -8.12385,-1.708593 C 26.340822,65.840483 24.06763,58.671388 24.06763,50.989729 Z"
     fill="#0066da"
     id="path14"
     style="stroke-width:14.1592" />
  <path
     fill-rule="evenodd"
     clip-rule="evenodd"
     d="m 159.00518,36.760565 c -71.323236,0 -129.142252,57.819025 -129.142252,129.142675 0,71.32281 57.819016,129.14197 129.142252,129.14197 71.32281,0 129.14198,-57.81916 129.14198,-129.14197 0,-71.32365 -57.81917,-129.142675 -129.14198,-129.142675 z M 18.122726,165.90324 c 0,-77.807588 63.075157,-140.882931 140.882454,-140.882931 77.80774,0 140.88281,63.075343 140.88281,140.882931 0,77.80632 -63.07507,140.88138 -140.88281,140.88138 -77.807159,0 -140.882454,-63.07506 -140.882454,-140.88138 z"
     fill="#0066da"
     id="path16"
     style="stroke-width:14.1592" />
  <path
     fill-rule="evenodd"
     clip-rule="evenodd"
     d="m 159.15669,58.451495 c 3.24103,0 5.86899,2.628093 5.86899,5.870127 v 99.791898 c 0,3.24105 -2.62796,5.87041 -5.86899,5.87041 -3.24246,0 -5.87071,-2.62936 -5.87071,-5.87041 V 64.321622 c 0,-3.242034 2.62825,-5.870127 5.87071,-5.870127 z"
     fill="#001833"
     id="path18"
     style="stroke-width:14.1592" />
  <path
     fill-rule="evenodd"
     clip-rule="evenodd"
     d="m 161.90357,158.5093 c 2.91822,1.68353 3.91786,5.41449 2.23291,8.3327 l -35.22063,61.00356 c -1.68466,2.91823 -5.41562,3.91787 -8.33355,2.23292 -2.91778,-1.68353 -3.91742,-5.41449 -2.2329,-8.3327 l 35.22063,-61.00356 c 1.68437,-2.91822 5.41533,-3.91787 8.33354,-2.23292 z"
     fill="#001833"
     id="path20"
     style="stroke-width:14.1592" />
</svg>
