<svg width="244" height="190" viewBox="0 0 244 190" fill="none" xmlns="http://www.w3.org/2000/svg">
    <path d="M175.8 190C175.8 190 188.635 165.141 197.337 135.778C208.503 98.1494 211.5 43.8293 177.966 27.6848C149.567 14.0071 116.482 37.2543 116.482 37.2543C116.482 37.2543 78.9689 9.21498 39.9402 31.7881C3.99162 52.5806 23.8813 98.7307 23.8813 98.7307C23.8813 98.7307 4.31572 108.349 0.609261 132.522C-4.39361 165.146 23.0576 189.888 23.0576 189.888L175.8 190Z"
          fill="#001E3F"/>
    <path d="M224.8 129C224.8 129 237.635 104.141 246.337 74.7777C257.503 37.1493 260.5 -17.1707 226.966 -33.3152C198.567 -46.9929 165.482 -23.7457 165.482 -23.7457C165.482 -23.7457 127.969 -51.785 88.9402 -29.2119C52.9916 -8.41937 72.8813 37.7307 72.8813 37.7307C72.8813 37.7307 53.3157 47.349 49.6093 71.5219C44.6064 104.146 72.0576 128.888 72.0576 128.888L224.8 129Z"
          fill="#00244B"/>
    <path d="M264.669 196C264.669 196 279.32 167.568 289.253 133.985C301.998 90.9492 305.419 28.8228 267.142 10.358C234.725 -5.28533 196.96 21.3028 196.96 21.3028C196.96 21.3028 154.14 -10.7661 109.59 15.051C68.5563 38.8317 91.2596 91.6141 91.2596 91.6141C91.2596 91.6141 68.9262 102.615 64.6954 130.262C58.9849 167.574 90.3194 195.872 90.3194 195.872L264.669 196Z"
          fill="#002A57"/>
</svg>