<?xml version="1.0" encoding="UTF-8" standalone="no"?>
<svg
   width="222"
   height="195"
   viewBox="0 0 222 195"
   fill="none"
   version="1.1"
   id="svg4"
   xmlns="http://www.w3.org/2000/svg"
   xmlns:svg="http://www.w3.org/2000/svg">
  <defs
     id="defs8" />
  <path
     d="M133.529 195C173.145 195 201.487 159.575 212.743 121.591V121.591C224.78 81.0222 228.012 22.4571 191.86 5.05088C161.244 -9.69572 125.576 15.3682 125.576 15.3682C125.576 15.3682 85.134 -14.8623 43.0583 9.47485C4.30325 31.8923 25.7457 81.6489 25.7457 81.6489C25.7457 81.6489 4.65265 92.0189 0.656828 118.081C-0.927988 128.416 0.584799 139.319 3.51162 149.564C12.2821 180.262 44.6218 195 76.5483 195H133.529Z"
     fill="#F5FAFF"
     id="path2" />
  <path
     d="m 106.51291,133.36661 c 0,0 -0.007,0 -0.0136,0.007 l -0.3733,0.468 c -2.7756,3.522 -5.2322,7.174 -7.050998,9.963 -1.1129,1.696 -2.2055,3.406 -3.2981,5.117 l -0.3801,0.59 c -0.6582,1.032 -1.3437,2.09 -2.0427,3.115 l 0.1426,0.109 0.1425,0.095 0.0814,0.054 0.2172,0.142 c 4.4789,2.559 9.378698,4.371 14.108798,6.128 1.1808,0.435 2.3412,0.862 3.4881,1.303 -0.5293,1.052 -1.0586,2.111 -1.5947,3.176 l -0.6855,1.364 -0.1764,0.353 c -0.8212,1.636 -1.6423,3.278 -2.4499,4.92 -0.9229,1.894 -1.7237,3.611 -2.4498,5.246 -0.3801,0.862 -0.7533,1.731 -1.1062,2.599 -0.3325,0.808 -0.7194,1.772 -1.0655,2.769 -0.0271,0.082 -0.0339,0.17 -0.007,0.258 2.6739,-2.104 5.4088,-4.458 8.3744,-7.2 1.4251,-1.317 2.9249,-2.735 4.4654,-4.221 1.4726,-1.425 2.9181,-2.823 4.3908,-4.31 2.8502,-2.857 5.3272,-5.497 7.5939,-8.069 -1.717,-0.732 -3.4475,-1.493 -5.1102,-2.232 l -0.0949,-0.041 -0.2647,-0.115 c -1.3844,-0.611 -2.8163,-1.242 -4.2347,-1.826 -0.0339,-0.013 -0.0543,-0.041 -0.0679,-0.075 -0.0135,-0.04 -0.0135,-0.088 0.007,-0.128 0.1358,-0.211 0.2511,-0.381 0.3733,-0.537 0.061,-0.081 0.1221,-0.162 0.19,-0.244 0.2443,-0.332 0.5022,-0.651 0.7669,-0.964 0.1085,-0.149 0.2239,-0.291 0.3461,-0.434 l 0.0474,-0.054 0.2783,-0.373 c 0.1289,-0.17 0.2511,-0.34 0.38,-0.503 0.2308,-0.291 0.4615,-0.583 0.6923,-0.875 0.4818,-0.584 0.9704,-1.154 1.459,-1.717 l 0.1968,-0.224 c 0.8822,-1.025 1.7984,-2.077 2.6263,-3.169 0.5158,-0.692 0.9569,-1.337 1.3301,-1.968 -0.061,-0.109 6.291,-8.022 3.2371,-8.022 -0.9568,-0.353 -6.2298,-1.825 -7.1935,-2.171 -4.1396,-1.493 -7.6142,5.897 -11.6182,3.827 l 0.095,0.095 c -1.3844,-0.767 -2.5788,-1.472 -3.6443,-2.171 -0.0271,-0.028 -0.0678,-0.041 -0.1085,-0.055 z"
     fill="#fcd354"
     id="path2-9" />
  <path
     d="m 106.38391,138.06961 c -0.3257,0.509 -0.6582,1.025 -0.9908,1.534 -0.3325,0.509 -0.6515,1.031 -0.984,1.54 -0.6583,1.032 -1.3097,2.063 -1.968,3.095 -1.3301,2.09 -2.673798,4.174 -4.241498,6.094 -0.0678,0.082 -0.0271,0.21 0.0475,0.265 0.0883,0.061 0.1968,0.027 0.2647,-0.048 0.7736,-0.943 1.547298,-1.886 2.314098,-2.836 0.7669,-0.951 1.5202,-1.914 2.287,-2.864 1.5473,-1.941 3.0132,-3.957 4.6283,-5.85 0.129,-0.149 0.1629,-0.414 0.129,-0.611 -0.0408,-0.217 -0.1629,-0.414 -0.3462,-0.536 -0.1357,-0.095 -0.2986,-0.143 -0.4682,-0.143 -0.2579,0 -0.5226,0.123 -0.6719,0.36 z"
     fill="#fefefe"
     id="path4" />
  <path
     d="m 113.85571,161.82161 c -0.0951,0.014 -0.1833,0.055 -0.2579,0.123 -0.0747,0.061 -0.129,0.135 -0.1561,0.23 -2.0495,4.004 -4.384,7.859 -6.5896,11.775 -0.0475,0.088 -0.0407,0.203 0.0476,0.264 0.0814,0.055 0.2171,0.041 0.2646,-0.047 1.0994,-1.955 2.2531,-3.882 3.4475,-5.789 0.6107,-0.964 1.2351,-1.927 1.8594,-2.877 0.3054,-0.462 0.6108,-0.917 0.923,-1.371 0.3325,-0.489 0.665,-0.984 1.0044,-1.466 0.1696,-0.238 0.1017,-0.584 -0.1426,-0.753 -0.0882,-0.061 -0.1968,-0.095 -0.3054,-0.095 -0.0271,0 -0.061,0 -0.0949,0.006 z m -0.414,0.346 c -0.0204,0.041 -0.0407,0.075 -0.0543,0.116 0.0204,-0.041 0.0339,-0.075 0.0543,-0.116 z"
     fill="#fefefe"
     id="path6" />
  <path
     d="m 114.69711,159.51461 c -0.1561,0.129 -0.2511,0.319 -0.2715,0.523 -0.0339,0.386 0.2783,0.828 0.6991,0.828 0.2103,0 0.3936,-0.041 0.5564,-0.177 0.1561,-0.129 0.2511,-0.319 0.2715,-0.522 0.0339,-0.387 -0.2783,-0.828 -0.699,-0.828 -0.2104,-0.007 -0.3936,0.034 -0.5565,0.176 z"
     fill="#fefefe"
     id="path8" />
  <path
     d="m 106.49931,145.79261 c -0.19,0 -0.3461,0.102 -0.4411,0.258 -0.2172,0.346 -0.4615,0.679 -0.7126,1.004 -0.7057,0.917 -1.4454,1.806 -2.1851,2.695 -0.733,0.882 -1.4523,1.764 -2.1445,2.673 -0.0679,0.095 -0.0136,0.238 0.0814,0.292 0.1086,0.061 0.2172,0.014 0.2918,-0.081 0.0204,-0.027 0.0407,-0.055 0.0679,-0.088 0.8008,-1.032 1.6762,-2.002 2.5788,-2.953 0.4682,-0.495 0.9365,-0.984 1.4116,-1.472 0.475,-0.489 0.9365,-0.984 1.4319,-1.452 0.2036,-0.19 0.1968,-0.53 0,-0.727 -0.095,-0.095 -0.224,-0.149 -0.3597,-0.149 -0.0204,0 -0.0204,0 -0.0204,0 z m -1.1672,1.283 c -0.0136,0.013 -0.0204,0.027 -0.034,0.047 0.007,-0.02 0.0204,-0.034 0.034,-0.047 z m -3.9021,5.497 c -0.007,0.006 -0.0136,0.013 -0.0136,0.02 0.007,-0.014 0.0136,-0.02 0.0136,-0.02 z"
     fill="#fefefe"
     id="path10" />
  <path
     d="m 115.02821,26.142612 c -0.6922,0 -1.4048,0.04749 -2.1105,0.135714 -0.8483,0.108582 -1.7034,0.285027 -2.5449,0.508976 -0.7397,0.20359 -1.5405,0.48183 -2.4567,0.86865 -1.4862,0.63113 -2.8706,1.46585 -4.1057,2.4838 -1.0723,0.88901 -2.0495,1.97482 -2.891,3.23708 -0.7397,1.11296 -1.364098,2.40238 -1.852698,3.83428 -0.6447,1.873 -1.0112,4.0039 -1.0994,6.3317 -0.0339,1.0111 -0.0135,2.0766 0.0679,3.1624 -0.38,-0.6243 -0.8619,-1.2148 -1.4116,-1.7441 -1.079,-1.0247 -2.4431,-1.8323 -3.9632,-2.3277 -1.0655,-0.3529 -2.2124,-0.5293 -3.4,-0.5293 -0.3461,0 -0.7193,0.0203 -1.1061,0.0542 -1.5473,0.1493 -3.0403,0.5973 -4.4247,1.3302 -0.6176,0.3257 -1.2487,0.7465 -1.9409,1.3029 -0.5361,0.4276 -1.0723,0.9434 -1.588,1.5406 -0.4615,0.5361 -0.9026,1.14 -1.2962,1.7848 -0.3461,0.57 -0.6651,1.2079 -0.984,1.9612 -0.5293,1.2623 -0.889,2.6535 -1.0994,4.2415 -0.1832,1.3912 -0.2036,2.8706 -0.0611,4.4043 0.0814,0.8619 0.2172,1.7305 0.4072,2.5924 -0.1764,-0.1018 -0.3868,-0.1764 -0.5904,-0.2443 -0.6583,-0.2172 -1.3709,-0.3665 -2.1852,-0.4615 -0.4343,-0.0475 -0.8483,-0.0746 -1.2759,-0.0746 -0.9772,0 -2.0155,0.1289 -3.0945,0.38 -1.3709,0.3257 -2.7824,0.889 -4.2008,1.6694 -1.2826,0.699 -2.5516,1.6084 -3.7732,2.6874 -1.1061,0.9773 -2.1377,2.1106 -3.0674,3.3728 -0.8551,1.1537 -1.56086,2.4024 -2.11055,3.719 -0.47505,1.1401 -0.84153,2.4227 -1.11977,3.9225 -0.25109,1.3776 -0.3936,2.857 -0.42075,4.3839 -0.01357,1.4794 0.1018,2.9996 0.33932,4.513 0.24431,1.4997 0.61758,2.952 1.11976,4.3093 0.88223,2.382 2.10379,4.3772 3.63069,5.9312 -0.1832,-0.0475 -0.38,-0.0543 -0.5565,-0.0543 -0.7872,0.0068 -1.5744,0.1086 -2.39555,0.319 -1.43871,0.3665 -2.84347,1.079 -4.18716,2.1241 -1.22833,0.9569 -2.29378,2.1377 -3.176,3.508598 -0.83472,1.2894 -1.438725,2.7416 -1.798401,4.3093 -0.352889,1.5201 -0.461464,3.0674 -0.332524,4.6011 0.128941,1.4727 0.475057,2.9182 1.031535,4.3026 1.07903,2.6874 2.9181,5.1033 5.32047,6.9831 2.14448,1.6762 4.69613,2.891 7.36993,3.5018 1.4523,0.3393 3.0607,0.5429 4.7844,0.604 0.2715,0.0135 0.5497,0.0135 0.8211,0.0135 0.8076,0 1.6016,-0.0407 2.3617,-0.1289 -0.0272,0.8614 0.0339,1.7374 0.19,2.5924 0.129,0.685 0.2918,1.337 0.4954,1.954 0.19,0.577 0.4276,1.168 0.7533,1.84 1.0791,2.246 2.8096,4.316 4.9948,5.978 2.1173,1.609 4.6147,2.789 7.2003,3.414 1.2622,0.305 2.5923,0.475 3.9496,0.495 h 0.2307 c 1.2216,0 2.4567,-0.149 3.685,-0.448 1.0384,-0.251 2.1106,-0.644 3.3728,-1.248 1.1876,-0.564 2.3074,-1.256 3.3186,-2.05 1.0179,-0.801 1.9408,-1.717 2.734798,-2.721 0.4344,-0.55 0.8416,-1.14 1.208,-1.744 0.1493,0.278 0.3529,0.563 0.6108,0.882 0.699,0.855 1.5405,1.608 2.5109,2.253 1.7509,1.154 3.909,1.839 6.2571,1.982 0.2375,0.013 0.4818,0.027 0.7193,0.027 0.8212,0 1.683,-0.088 2.5788,-0.251 1.0451,-0.197 2.0834,-0.543 3.1014,-1.039 1.9612,-0.95 3.5967,-2.511 4.6147,-4.411 0.1221,0.306 0.2986,0.625 0.5157,0.964 0.5497,0.869 1.2623,1.656 2.1174,2.348 1.5405,1.228 3.5425,2.036 5.7819,2.321 0.6448,0.081 1.3098,0.129 1.9681,0.129 1.5065,0 3.081,-0.217 4.6758,-0.638 2.1784,-0.577 4.2618,-1.568 6.0398,-2.864 1.1401,-0.835 2.1241,-1.791 2.9249,-2.837 0.3936,-0.509 0.7465,-1.072 1.0655,-1.676 0.2375,-0.448 0.4479,-0.943 0.6648,-1.608 0.869,0.231 1.771,0.4 2.681,0.495 0.712,0.082 1.439,0.122 2.165,0.122 0.726,0 1.486,-0.04 2.26,-0.122 2.775,-0.298 5.639,-1.208 8.272,-2.626 5.185,-2.7892 9.379,-7.3565 11.815,-12.8602 1.208,-2.7349 1.927,-5.7005 2.063,-8.5575 0.068,-1.5066 -0.013,-3.0132 -0.237,-4.4722 -0.265,-1.635598 -0.686,-3.284598 -1.256,-4.899798 -0.556,-1.588 -1.289,-3.1488 -2.171,-4.6283 -0.876,-1.4726 -1.914,-2.8163 -3.088,-3.9903 -0.604,-0.6108 -1.249,-1.1741 -1.914,-1.6831 -0.672,-0.5089 -1.425,-0.9975 -2.314,-1.4997 -1.459,-0.8212 -3.122,-1.4795 -5.07,-2.0088 -1.031,-0.285 -2.158,-0.5225 -3.542,-0.7465 -1.242,-0.1968 -2.484,-0.3393 -3.692,-0.4343 -0.658,-0.0475 -1.296,-0.0679 -1.9,-0.0679 -0.896,0 -1.792,0.0475 -2.66,0.1493 0.319,-0.2443 0.638,-0.5632 0.95,-0.9433 0.488,-0.5768 0.93,-1.2215 1.357,-1.968 0.713,-1.2419 1.323,-2.7146 1.86,-4.4926 0.461,-1.5337 0.787,-3.0674 0.977,-4.5604 0.19,-1.5201 0.21,-3.0946 0.075,-4.6961 -0.279,-3.1964 -1.229,-6.3046 -2.756,-8.9852 -0.76,-1.3504 -1.71,-2.6263 -2.816,-3.7935 -0.516,-0.5429 -1.106,-1.079 -1.7578,-1.6084 -0.604,-0.4818 -1.1672,-0.8754 -1.7305,-1.1876 -1.1129,-0.6243 -2.3752,-1.079 -3.7596,-1.3505 -0.9433,-0.1832 -1.907,-0.2714 -2.8639,-0.2714 -0.4207,0 -0.8347,0.0135 -1.2622,0.0475 -1.4184,0.1153 -2.7824,0.4207 -4.0582,0.8958 -0.6515,0.2443 -1.2895,0.5361 -1.8866,0.8754 -0.4547,0.2511 -0.923,0.5565 -1.3912,0.9094 0.3732,-2.1174 0.4614,-4.3772 0.2782,-6.7185 -0.2511,-3.1489 -0.9908,-6.0466 -2.1988,-8.61864 -0.5972,-1.28941 -1.3708,-2.51095 -2.287,-3.6307 -0.9297,-1.12653 -2.0427,-2.10377 -3.3185,-2.91134 -1.4048,-0.8958 -3.0538,-1.547288 -4.7708,-1.886605 -0.9636,-0.190018 -1.9612,-0.285015 -2.9656,-0.285015 z"
     fill="#fefefe"
     id="path12" />
  <path
     d="m 87.726812,42.165112 c -1.4116,0.19 -2.7621,0.6243 -4.0108,1.2894 -0.6175,0.3257 -1.2554,0.7465 -1.9476,1.3029 -0.5294,0.4208 -1.0655,0.9433 -1.5881,1.5405 -0.475,0.5633 -0.9161,1.1673 -1.2961,1.7984 -0.3394,0.5497 -0.6651,1.1944 -0.9841,1.9681 -0.5361,1.2758 -0.8958,2.667 -1.1129,4.255 -0.1765,1.3708 -0.1968,2.857 -0.0611,4.4111 0.0814,0.8415 0.2172,1.717 0.4072,2.5992 -0.1222,-0.1493 -0.3258,-0.224 -0.5361,-0.2918 -0.6719,-0.224 -1.398,-0.3801 -2.1988,-0.4683 -0.4683,-0.0543 -0.8822,-0.0814 -1.2758,-0.0814 -0.9773,0 -2.0224,0.1357 -3.1082,0.3936 -1.3573,0.3121 -2.7688,0.8754 -4.2075,1.6694 -1.2759,0.6922 -2.5517,1.6016 -3.78,2.6942 -1.1198,0.9976 -2.1513,2.1309 -3.0674,3.3728 -0.8551,1.1469 -1.56766,2.4024 -2.11056,3.7325 -0.47505,1.1265 -0.84833,2.4159 -1.13335,3.9361 -0.25788,1.398 -0.40039,2.8706 -0.42075,4.3839 -0.01358,1.4795 0.10179,2.9996 0.33931,4.513 0.2511,1.5201 0.63116,2.9724 1.12656,4.3229 0.86865,2.3684 2.09699,4.3704 3.63749,5.9448 -0.1357,-0.1154 -0.3326,-0.1289 -0.5226,-0.1289 -0.794,0.0067 -1.5812,0.1153 -2.40913,0.3325 -1.4387,0.3597 -2.85026,1.0722 -4.20074,2.1241 -1.22833,0.9637 -2.30057,2.1513 -3.176,3.522098 -0.83472,1.2827 -1.445517,2.7349 -1.805193,4.3093 -0.35289,1.5202 -0.468223,3.0743 -0.346069,4.6148 0.128941,1.4862 0.481809,2.9385 1.038292,4.3093 1.07902,2.6942 2.91815,5.1169 5.3273,7.0035 2.15805,1.683 4.70964,2.891 7.38354,3.5085 1.4522,0.3393 3.0674,0.5429 4.7979,0.6108 0.2782,0.007 0.5565,0.0136 0.828,0.0136 0.7804,0 1.5812,-0.0407 2.3616,-0.129 -0.0679,0.7806 -0.0136,1.6356 0.1425,2.5516 0.1357,0.713 0.3054,1.371 0.5022,1.968 0.1697,0.543 0.4072,1.127 0.7533,1.846 1.079,2.253 2.8095,4.323 5.0015,5.999 2.1309,1.615 4.6283,2.796 7.2139,3.42 1.2826,0.313 2.6195,0.482 3.9632,0.503 h 0.2307 c 1.2012,0 2.4499,-0.15 3.6986,-0.455 1.0315,-0.244 2.1038,-0.645 3.3796,-1.249 0.8008,-0.38 1.6016,-0.834 2.3617,-1.35 l -0.509,0.081 -0.0747,0.014 c -0.3121,0.068 -0.6175,0.129 -0.9161,0.183 -1.3844,0.258 -2.7553,0.387 -4.0718,0.387 -0.2851,0 -0.5769,-0.007 -0.8619,-0.021 -1.6966,-0.081 -3.3049,-0.359 -4.7776,-0.834 -1.6083,-0.53 -3.0878,-1.269 -4.3975,-2.199 -0.7126,-0.509 -1.398,-1.072 -2.0224,-1.69 -0.6854,-0.672 -1.2486,-1.289 -1.7101,-1.893 -0.9637,-1.249 -1.6898,-2.565 -2.1581,-3.916 -0.4411,-1.289 -0.7125,-2.667 -0.8075,-4.0989 -0.0883,-1.2894 -0.0611,-2.6806 0.0814,-4.3704 0.1018,-1.2351 0.2375,-2.4838 0.3732,-3.6442 l 0.0951,-0.8144 c -0.8415,0.3868 -1.7102,0.7194 -2.5856,0.984 -1.018,0.2919 -2.0563,0.4954 -3.0811,0.6108 -0.6854,0.0747 -1.3911,0.1154 -2.0901,0.1154 -1.5134,0 -2.9521,-0.19 -4.2822,-0.5565 -1.0451,-0.2986 -1.9884,-0.699 -2.8028,-1.2012 -0.889,-0.5565 -1.6151,-1.208 -2.158,-1.9409 -0.29183,-0.3936 -0.54974,-0.8143 -0.75333,-1.2487 -0.21716,-0.4818 -0.38001,-0.9704 -0.4818,-1.4522 -0.12216,-0.5362 -0.19005,-1.1062 -0.19683,-1.683 -0.0068,-0.3122 2e-5,-0.6244 0.02038,-0.9298 0.02036,-0.3664 0.06106,-0.6786 0.10856,-0.9568 0.11537,-0.699 0.3122,-1.3641 0.57686,-1.9817 0.28503,-0.6515 0.62436,-1.269 1.01796,-1.8255 0.8211,-1.1672 1.8866,-2.2123 3.081,-3.0267 1.2555,-0.8483 2.5652,-1.445498 3.9021,-1.771198 0.7329,-0.1833 1.4455,-0.2851 2.1174,-0.3054 0.1425,-0.0068 0.285,-0.0136 0.4275,-0.0136 0.2104,0 0.4275,0.0068 0.6379,0.0271 0.3665,0.0272 0.699,0.0747 1.0044,0.1358 0.0203,0 0.0475,0.0135 0.0679,0.0339 l 0.1425,0.0068 -0.0747,-0.1765 -0.095,-0.1357 c -0.414,-0.4139 -0.9229,-0.9297 -1.3844,-1.459 -0.4818,-0.5565 -0.9026,-1.0723 -1.2758,-1.5813 -0.7737,-1.0518 -1.4591,-2.1512 -2.0291,-3.2642 -1.1877,-2.3345 -1.9409,-4.7708 -2.2327,-7.241 -0.1968,-1.6627 -0.1901,-3.2982 0.0067,-4.8522 0.2104,-1.6627 0.6244,-3.2914 1.2351,-4.8319 0.3597,-0.8958 0.6922,-1.6084 1.0519,-2.2259 0.3868,-0.6583 0.7669,-1.2284 1.1809,-1.7373 0.8754,-1.0926 1.8798,-2.0088 2.9927,-2.7349 1.1333,-0.7262 2.3142,-1.2487 3.5153,-1.5541 0.9026,-0.2307 1.812,-0.3461 2.7078,-0.3461 0.38,0 0.7397,0.0204 1.0654,0.0611 1.2827,0.1289 2.5585,0.5157 3.685,1.1197 0.6312,0.3461 1.2012,0.7194 1.6898,1.1198 0.414,0.3325 0.8008,0.6922 1.1537,1.0654 -0.7126,-3.8546 -1.1401,-6.9967 -1.3369,-9.8877 -0.0814,-1.1808 -0.1221,-2.2802 -0.1153,-3.3728 0,-1.2147 0.0474,-2.3005 0.1424,-3.3185 0.1086,-1.1808 0.2647,-2.2259 0.4819,-3.1828 0.2375,-1.079 0.5225,-2.0291 0.8754,-2.891 0.4004,-0.9501 0.8551,-1.7916 1.3641,-2.4906 0.5632,-0.7804 1.2012,-1.4455 1.9069,-1.968 0.4208,-0.319 0.8822,-0.604 1.3912,-0.8619 -0.0068,-0.0203 -0.0135,-0.0678 -0.0135,-0.0678 z"
     fill="#cbe0f7"
     fill-opacity="0.35"
     id="path14" />
  <path
     d="m 148.68171,51.496312 c 0,0 -0.007,0.0068 -0.014,0.0068 0.469,0.8211 0.876,1.6558 1.195,2.4973 0.292,0.7737 0.543,1.5677 0.733,2.3617 0.196,0.8347 0.353,1.683 0.461,2.5177 0.211,1.6694 0.265,3.3321 0.156,4.9201 -0.129,2.0088 -0.516,4.0718 -1.147,6.1349 -0.665,2.1377 -1.554,4.2686 -2.7074,6.5148 -2.0834,4.0175 -4.6079,7.6482 -7.4582,11.6454 l 0.6108,-0.1154 c 1.5948,-0.3596 3.4067,-0.7668 5.2187,-1.0654 1.1265,-0.19 2.1038,-0.319 2.9861,-0.3936 0.923,-0.0815 1.737,-0.1222 2.504,-0.1222 0.129,0 0.258,0 0.387,0.0068 2.124,0.0407 4.045,0.3529 5.721,0.9433 0.977,0.3461 1.88,0.7601 2.687,1.2351 0.876,0.509 1.703,1.0994 2.464,1.7509 0.468,0.4004 0.916,0.8211 1.33,1.2487 0.414,0.4275 0.787,0.8483 1.119,1.2487 0.706,0.8483 1.358,1.7169 1.921,2.5856 1.174,1.8255 2.104,3.7528 2.769,5.741198 0.665,2.0155 1.065,4.0922 1.194,6.1552 0.068,1.1062 0.061,2.1784 -0.02,3.1964 -0.082,1.1129 -0.231,2.158 -0.435,3.1081 -0.23,1.1062 -0.522,2.1716 -0.875,3.1692 -0.387,1.0791 -0.821,2.0902 -1.283,3.0132 -0.495,0.9772 -1.051,1.8798 -1.649,2.6874 -0.617,0.8415 -1.282,1.6151 -1.961,2.3005 -1.411,1.4249 -3.04,2.6739 -4.845,3.7259 l -0.15,0.088 -0.095,0.054 c 1.269,-0.366 2.552,-0.916 3.835,-1.601 5.184,-2.7894 9.392,-7.3566 11.835,-12.8739 1.215,-2.7417 1.934,-5.7073 2.077,-8.5779 0.068,-1.5066 -0.014,-3.0132 -0.238,-4.479 -0.265,-1.642298 -0.685,-3.291398 -1.262,-4.913298 -0.563,-1.6016 -1.29,-3.1625 -2.172,-4.6283 -0.882,-1.4794 -1.92,-2.8299 -3.094,-4.004 -0.611,-0.6107 -1.256,-1.1808 -1.914,-1.683 -0.692,-0.5157 -1.452,-1.0044 -2.328,-1.493 -1.466,-0.8279 -3.128,-1.4862 -5.076,-2.0087 -1.011,-0.2851 -2.144,-0.5294 -3.549,-0.7601 -1.201,-0.1832 -2.443,-0.3325 -3.699,-0.4343 -0.767,-0.0475 -1.384,-0.0679 -1.9,-0.0679 -0.882,0 -1.778,0.0475 -2.667,0.1493 0.292,-0.1357 0.597,-0.4072 0.984,-0.8686 0.489,-0.5837 0.93,-1.2351 1.357,-1.9816 0.713,-1.2284 1.324,-2.701 1.86,-4.4926 0.461,-1.5269 0.794,-3.0674 0.984,-4.574 0.19,-1.5066 0.21,-3.0946 0.074,-4.6961 -0.278,-3.21 -1.235,-6.3181 -2.762,-8.9987 -0.753,-1.3505 -1.703,-2.6331 -2.816,-3.8072 -0.109,-0.1153 -0.217,-0.2239 -0.332,-0.3393 0.006,-0.0203 -0.007,-0.0271 -0.014,-0.0271 z"
     fill="#cbe0f7"
     fill-opacity="0.35"
     id="path16" />
  <path
     d="m 113.84061,29.359292 c 0,0.39361 0.3257,0.69898 0.7126,0.71256 0.2036,0.0068 0.4004,0.02035 0.604,0.04071 0.4343,0.07465 0.8618,0.19681 1.269,0.36647 0.509,0.23074 0.9908,0.50897 1.4455,0.8415 0.5633,0.45469 1.0722,0.97045 1.5337,1.53372 0.6379,0.84829 1.1537,1.77124 1.5812,2.74169 0.4954,1.22157 0.8619,2.49737 1.1944,3.77317 0.319,1.2216 0.5701,2.4567 0.7601,3.7054 0.007,0.0407 0.0136,0.0746 0.0136,0.1153 0.0746,0.2715 0.2103,0.5022 0.4071,0.699 0.2986,0.2986 0.699,0.4615 1.1198,0.4615 0.4207,0 0.8279,-0.1697 1.1197,-0.4615 0.2715,-0.2646 0.5158,-0.7329 0.4683,-1.1265 -0.095,-0.7736 -0.2104,-1.5405 -0.3868,-2.3006 -0.1832,-0.7804 -0.4411,-1.5472 -0.733,-2.2937 -0.3189,-0.8144 -0.6854,-1.6152 -1.1197,-2.37526 -0.4208,-0.7465 -0.9026,-1.45908 -1.4048,-2.15807 -0.9637,-1.3437 -2.0766,-2.59238 -3.4339,-3.55604 -0.6447,-0.45468 -1.3572,-0.81437 -2.1037,-1.06546 -0.7465,-0.25109 -1.5541,-0.35288 -2.3345,-0.37324 h -0.0136 c -0.3801,0.0068 -0.699,0.33932 -0.699,0.71935 z"
     fill="#cbe0f7"
     fill-opacity="0.35"
     id="path18" />
  <path
     d="m 123.45001,46.990312 c 0,0.8822 0.7397,1.6219 1.6219,1.6219 0.8823,0 1.622,-0.7397 1.622,-1.6219 0,-0.8822 -0.7397,-1.6219 -1.622,-1.6219 -0.8822,0 -1.6219,0.7397 -1.6219,1.6219 z"
     fill="#f5faff"
     id="path20" />
  <path
     d="m 163.24471,95.688912 c -0.224,0.129 -0.271,0.4004 -0.162,0.6176 0.149,0.2782 0.278,0.57 0.4,0.8619 0.455,1.1129 0.74,2.2802 0.902,3.467798 0.191,1.4998 0.177,3.0063 -0.006,4.5061 0,-0.0136 0.006,-0.0203 0.006,-0.0339 0,0.0136 -0.006,0.0339 -0.006,0.0475 -0.007,0.0339 -0.007,0.0746 -0.014,0.1086 0,-0.0204 0.007,-0.0475 0.007,-0.0679 -0.238,1.6559 -0.672,3.271 -1.303,4.8183 -0.672,1.5541 -1.493,3.0539 -2.518,4.4043 -0.916,1.1537 -1.947,2.2395 -3.101,3.1625 -0.984,0.7397 -2.056,1.364 -3.19,1.8527 -0.943,0.38 -1.927,0.6854 -2.925,0.855 -0.393,0.0679 -0.773,0.4072 -0.97,0.7397 -0.217,0.3733 -0.278,0.8347 -0.163,1.2487 0.109,0.4072 0.38,0.7601 0.747,0.9705 0.4,0.2375 0.8,0.2375 1.248,0.1628 0.469,-0.0814 0.93,-0.1764 1.385,-0.3121 0.583,-0.1697 1.147,-0.414 1.703,-0.6583 0.977,-0.4343 1.859,-1.0315 2.694,-1.6898 1.622,-1.2758 2.993,-2.891 4.072,-4.6419 2.199,-3.5696 3.4,-7.7771 3.549,-11.9575 0.102,-2.857 -0.414,-5.747998 -1.73,-8.306498 -0.075,-0.1425 -0.231,-0.2239 -0.394,-0.2239 -0.081,0.0068 -0.156,0.0271 -0.231,0.0678 z m 0.258,1.5066 c 0.007,0.0136 0.007,0.0204 0.014,0.0339 -0.007,-0.0135 -0.007,-0.0203 -0.014,-0.0339 z m 0.882,3.359298 c 0,0.0135 10e-4,0.0271 0.007,0.0339 0,-0.007 -0.007,-0.0204 -0.007,-0.0339 z m -1.343,9.5348 c -0.007,0.0203 -0.014,0.0407 -0.021,0.0543 0,-0.0204 0.014,-0.0408 0.021,-0.0543 z m 1.337,-4.8998 c 0,-0.0136 0.006,-0.0271 0.006,-0.0407 0,-0.007 0,-0.007 0,-0.0136 0,0.0204 -0.006,0.034 -0.006,0.0543 z"
     fill="#cbe0f7"
     fill-opacity="0.35"
     id="path22" />
  <path
     d="m 72.796912,71.882612 c -0.0476,0.0203 -0.0883,0.0407 -0.1358,0.061 0.0204,-0.0067 0.0407,-0.0135 0.0611,-0.0271 -0.4344,0.19 -0.8415,0.4072 -1.2351,0.6854 -0.4751,0.3325 -0.9298,0.7126 -1.3437,1.1198 -0.7533,0.7397 -1.3912,1.6287 -1.9138,2.5448 -1.0994,1.9409 -1.5948,4.1329 -1.7644,6.3385 -0.0747,1.0179 -0.034,2.0495 0.0678,3.0606 0.1154,1.1266 0.3326,2.2259 0.6651,3.305 0.6108,1.968 1.6084,3.8003 2.8774,5.4155 0.1425,0.1832 0.4343,0.2714 0.6515,0.2714 0.2443,0 0.4818,-0.1018 0.6515,-0.2714 0.1696,-0.1697 0.2715,-0.4072 0.2715,-0.6515 0,-0.2443 -0.0951,-0.414 -0.224,-0.5972 0.0068,0.0068 0.0136,0.0136 0.0136,0.0203 -0.5158,-0.6854 -0.9365,-1.4455 -1.2826,-2.2327 -0.4615,-1.1469 -0.733,-2.3616 -0.9094,-3.5899 -0.1765,-1.4184 -0.19,-2.8367 -0.0204,-4.2619 0.1833,-1.2011 0.5022,-2.3616 0.9501,-3.4949 0.38,-0.8619 0.8415,-1.6763 1.398,-2.4295 0.5293,-0.6583 1.1265,-1.2487 1.7848,-1.7781 0.3393,-0.2578 0.6922,-0.5157 1.0519,-0.7397 0.7397,-0.4547 1.0179,-1.4251 0.57,-2.192 -0.2103,-0.3596 -0.5564,-0.6243 -0.9568,-0.7329 -0.1357,-0.0407 -0.2715,-0.0543 -0.3936,-0.0543 -0.2851,0.0136 -0.5497,0.1018 -0.8347,0.2308 z m -2.5314,7.4785 c -0.0136,0.0407 -0.0339,0.0814 -0.0475,0.1222 0.0204,-0.0408 0.0339,-0.0815 0.0475,-0.1222 z"
     fill="#f5faff"
     id="path24" />
  <path
     d="m 56.407772,95.688912 c -1.11296,0.3461 -2.17162,0.8755 -3.12849,1.5405 -0.91616,0.6447 -1.73731,1.4455 -2.42952,2.3278 -0.69899,0.895798 -1.26227,1.900098 -1.71017,2.938398 -0.936517,2.1649 -1.302956,4.574 -1.248665,6.9289 0.02715,1.2215 0.223949,2.4295 0.508975,3.6103 0.285027,1.1605 0.71254,2.287 1.24866,3.3525 0.67185,1.3369 1.53372,2.5788 2.54488,3.6782 0.54969,0.604 1.13334,1.1672 1.76447,1.683 0.61756,0.509 1.2758,0.9636 1.96123,1.3776 1.33012,0.8144 2.77567,1.4184 4.26187,1.873 1.4997,0.4615 3.0538,0.7465 4.6147,0.9026 0.699,0.0679 1.4048,0.1086 2.1038,0.1357 0.8686,0.034 1.744,0.0475 2.6127,-0.0678 0.3189,-0.0407 0.57,-0.2986 0.5429,-0.6311 -0.0272,-0.3258 -0.3122,-0.5565 -0.6311,-0.5429 -0.6922,0.0271 -1.3845,0.0203 -2.0835,-0.0136 0.0272,0 0.0611,0 0.0883,0.007 -2.321,-0.1358 -4.6351,-0.5226 -6.8474,-1.2284 -1.493,-0.5022 -2.91815,-1.1536 -4.24828,-1.9816 -1.20796,-0.7872 -2.32771,-1.7101 -3.31173,-2.7688 -0.52934,-0.5904 -1.03154,-1.208 -1.49301,-1.8595 -0.35289,-0.5021 -0.67183,-1.0315 -0.95685,-1.5744 0.01357,0.0272 0.02713,0.0475 0.03392,0.0747 -0.01357,-0.0272 -0.02714,-0.0543 -0.04072,-0.0815 -0.01357,-0.0203 -0.02035,-0.0475 -0.03392,-0.0678 0.0068,0.0203 0.02035,0.0339 0.02713,0.0543 -0.61077,-1.208 -1.0451,-2.4906 -1.32334,-3.814 0.0068,0.0543 0.02034,0.1018 0.02713,0.1493 -0.31217,-1.4658 -0.427507,-2.9656 -0.34607,-4.4586 l -0.0068,0.1222 c 0.07465,-1.2759 0.31895,-2.5449 0.71255,-3.7597 -0.0068,0.0204 -0.01359,0.0475 -0.02038,0.0679 0.34611,-1.0383 0.80082,-2.0291 1.38444,-2.9521 0.52934,-0.814298 1.14689,-1.567598 1.85945,-2.232698 -0.01357,0.0136 -0.03393,0.0272 -0.0475,0.0475 0.67863,-0.6243 1.4387,-1.1536 2.25307,-1.5812 0.83472,-0.4275 1.72374,-0.7329 2.63989,-0.9365 0,0 -1e-5,0 -0.0068,0 0,0 0,0 0.0068,0 0.02715,-0.0068 0.0475,-0.0136 0.07464,-0.0136 -0.01357,0 -0.02714,0.0068 -0.03392,0.0068 0.83469,-0.1697 1.68299,-0.2579 2.53809,-0.2579 0.1697,0 0.2986,-0.1696 0.285,-0.3325 -0.0136,-0.1765 -0.1629,-0.285 -0.3325,-0.285 -1.2962,0.0068 -2.57882,0.1832 -3.81394,0.5632 z m 4.20754,27.891898 c 0.0407,0.0136 0.0746,0.0271 0.1154,0.0407 -0.034,-0.0136 -0.0747,-0.0271 -0.1154,-0.0407 z m -10.05736,-8.2115 c 0,0.007 0.0068,0.007 0.0068,0.0136 -0.0068,-0.007 -0.0068,-0.0136 -0.01358,-0.0271 0.0068,0 0.0068,0.007 0.0068,0.0135 z m -0.97044,-11.6657 c 0.0068,-0.0136 0.0068,-0.0271 0.01354,-0.0407 -0.0068,0.0136 -0.0067,0.0271 -0.01354,0.0407 z m 8.0961,-7.702498 c 0.01357,0 0.02714,-0.0068 0.04072,-0.0068 -0.01358,0.0068 -0.02715,0.0068 -0.04072,0.0068 z"
     fill="#cbe0f7"
     id="path26" />
  <path
     d="m 69.464712,125.03311 c -0.1086,0 -0.2104,0.0339 -0.3054,0.0882 -0.1358,0.0815 -0.2715,0.2376 -0.2918,0.3937 -0.034,0.251 -0.0543,0.4954 -0.0475,0.7466 0.0067,0.251 0.0475,0.502 0.0882,0.746 0.0814,0.482 0.2036,0.957 0.3529,1.425 0.1357,0.435 0.3121,0.856 0.4886,1.276 0.1968,0.469 0.4072,0.937 0.6244,1.398 0.6786,1.446 1.5676,2.789 2.5788,4.025 0.9704,1.194 2.1241,2.232 3.3592,3.148 1.208,0.896 2.5313,1.643 3.9225,2.226 0.8958,0.374 1.8187,0.665 2.7552,0.889 0.9705,0.231 1.9681,0.374 2.9589,0.448 2.0291,0.163 4.0718,-0.047 6.0398,-0.515 0.129,-0.034 0.1968,-0.17 0.1629,-0.292 -0.0339,-0.129 -0.1629,-0.19 -0.2918,-0.163 -0.4818,0.115 -0.9704,0.21 -1.4591,0.285 h 0.0068 c -0.7465,0.108 -1.4998,0.176 -2.2531,0.197 -0.7465,0.013 -1.493,-0.014 -2.2395,-0.089 -1.5676,-0.169 -3.1149,-0.563 -4.5875,-1.133 0.0068,0 0.0136,0.007 0.0271,0.007 -1.4862,-0.584 -2.891,-1.351 -4.1804,-2.307 0.034,0.02 0.0611,0.047 0.0951,0.067 -0.3122,-0.237 -0.6244,-0.475 -0.923,-0.733 -0.2986,-0.251 -0.5904,-0.522 -0.8754,-0.8 -0.5633,-0.55 -1.0926,-1.134 -1.5744,-1.751 0.0203,0.027 0.0407,0.054 0.061,0.081 -0.5225,-0.665 -0.9976,-1.357 -1.4319,-2.083 -0.4479,-0.747 -0.8279,-1.527 -1.174,-2.328 -0.2375,-0.55 -0.4547,-1.113 -0.6379,-1.683 -0.1968,-0.611 -0.3394,-1.221 -0.4412,-1.853 -0.061,-0.42 -0.095,-0.8478 -0.1764,-1.2686 -0.0272,-0.1086 -0.0814,-0.1968 -0.1629,-0.2782 -0.1153,-0.1154 -0.2714,-0.1765 -0.4411,-0.1765 h -0.0271 z m 0.8075,1.7845 c 0.0068,0.027 0.0068,0.061 0.0136,0.095 -0.0068,-0.034 -0.0136,-0.061 -0.0136,-0.095 z"
     fill="#cbe0f7"
     id="path28" />
  <path
     d="m 71.901012,59.911412 c -1.5134,0.0882 -3.0064,0.4479 -4.4179,0.9976 -0.699,0.2714 -1.3709,0.6108 -2.0223,0.9772 -0.6651,0.3733 -1.2963,0.794 -1.907,1.2555 -1.2148,0.9229 -2.3074,2.0155 -3.2778,3.1896 -0.5701,0.6922 -1.0994,1.4183 -1.588,2.1648 -0.4954,0.7669 -0.93653,1.5744 -1.33693,2.4024 -0.76685,1.6015 -1.31656,3.2981 -1.66266,5.0354 -0.02036,0.0883 0.06784,0.1697 0.14928,0.1765 0.09501,0.0135 0.15609,-0.0611 0.17645,-0.1493 0.02715,-0.1154 0.0475,-0.2308 0.07464,-0.3529 0,0.0136 -0.0067,0.0271 -0.0067,0.0407 0.37325,-1.6762 1.00435,-3.2846 1.79835,-4.8115 0,0.0068 -0.0068,0.0068 -0.0068,0.0136 0,-0.0068 0.0068,-0.0136 0.0068,-0.0204 0.85512,-1.6084 1.90022,-3.1285 3.14212,-4.4654 -0.0068,0.0068 -0.0068,0.0068 -0.0136,0.0136 0.5904,-0.6244 1.208,-1.2148 1.873,-1.7645 0.6583,-0.5429 1.3505,-1.0315 2.0699,-1.4862 l -0.0136,0.0068 c 0.5633,-0.3461 1.1469,-0.6651 1.7509,-0.9365 0.6243,-0.285 1.2758,-0.5293 1.9341,-0.7329 l -0.0136,0.0068 c 1.0722,-0.3122 2.1784,-0.509 3.2914,-0.5565 0.57,-0.0204 1.1401,-0.0068 1.7101,0.0407 0.6244,0.0543 1.242,0.1493 1.8595,0.285 0.4208,0.1018 0.8415,0.224 1.2691,0.2782 0.2307,0.034 0.4682,-0.1289 0.5428,-0.346 0.0951,-0.2647 -0.0407,-0.5905 -0.3189,-0.6855 -0.2308,-0.0746 -0.4683,-0.1289 -0.7058,-0.1764 -0.2443,-0.0543 -0.4886,-0.1086 -0.7329,-0.1561 -0.414,-0.0882 -0.8347,-0.1561 -1.2555,-0.2036 -0.4886,-0.0543 -0.9705,-0.0746 -1.4591,-0.0746 -0.3054,0.0067 -0.6107,0.0203 -0.9093,0.0339 z m -3.3525,1.588 c -0.0135,0 -0.0203,0.0068 -0.0339,0.0136 0.0068,-0.0068 0.0204,-0.0068 0.0339,-0.0136 z"
     fill="#cbe0f7"
     id="path30" />
  <path
     d="m 84.170712,43.081312 c -0.699,0.3732 -1.364,0.7872 -2.0019,1.2554 -0.6108,0.4479 -1.1741,0.9501 -1.6966,1.493 -0.9976,1.0451 -1.7916,2.2463 -2.4092,3.5493 -0.6311,1.3301 -1.0654,2.7485 -1.3573,4.1804 -0.3121,1.5201 -0.4275,3.0674 -0.4207,4.6215 0,0.8822 -0.0339,1.778 0.095,2.6534 0.0407,0.2783 0.319,0.4683 0.5904,0.4208 0.129,-0.0204 0.2511,-0.095 0.3325,-0.2104 0.0815,-0.1154 0.1018,-0.2443 0.0883,-0.38 -0.0611,-0.5633 -0.1086,-1.1334 -0.1358,-1.7034 -0.0746,-2.2327 0.0068,-4.4926 0.4819,-6.6846 0,0.0136 -0.0068,0.0272 -0.0068,0.0408 0.0068,-0.0272 0.0136,-0.0543 0.0204,-0.0815 v -0.0068 c 0.285,-1.2487 0.7125,-2.4566 1.3097,-3.5899 0.5294,-0.9705 1.1673,-1.8799 1.9206,-2.6874 0.7668,-0.8076 1.6287,-1.5134 2.572,-2.1038 0.2511,-0.1561 0.509,-0.2986 0.7736,-0.4411 0.0883,-0.0475 0.129,-0.1493 0.0883,-0.2375 -0.0272,-0.0611 -0.1018,-0.1086 -0.1697,-0.1086 -0.0271,0 -0.0543,0.0068 -0.0747,0.0204 z m -3.2099,2.891 -0.0136,0.0135 c 0,-0.0068 0.0068,-0.0068 0.0136,-0.0135 z m -1.9206,2.7009 c -0.0067,0.0068 -0.0135,0.0204 -0.0135,0.0272 0,-0.0068 0.0068,-0.0136 0.0135,-0.0272 z m -1.7915,10.227 c 0,0.0136 0,0.0204 0,0.0339 0,-0.0135 0,-0.0203 0,-0.0339 z m 0.4954,-6.6642 c 0,0.0136 -0.0068,0.0272 -0.0068,0.0407 0,-0.0135 0,-0.0271 0.0068,-0.0407 z"
     fill="#cbe0f7"
     id="path32" />
  <path
     d="m 121.78061,27.676252 c -0.0407,0.07465 -0.0204,0.18324 0.061,0.22396 0.5362,0.28503 1.0451,0.61076 1.527,0.98401 -0.007,-0.0068 -0.0204,-0.01357 -0.0272,-0.02036 0.8823,0.68542 1.6695,1.493 2.3481,2.38201 0.923,1.23511 1.6627,2.59239 2.2463,4.01073 0.9365,2.34131 1.459,4.82511 1.7576,7.32921 l -0.0136,-0.1221 c 0.1222,1.0247 0.1901,2.0562 0.2376,3.0945 0.0611,1.4659 0.0271,2.9385 -0.1697,4.3976 -0.0135,0.1086 0.0543,0.2443 0.129,0.319 0.0814,0.0814 0.19,0.1289 0.3121,0.1289 0.1154,0 0.2376,-0.0475 0.319,-0.1289 0.0882,-0.0883 0.1154,-0.1901 0.1289,-0.3122 0.1222,-1.0451 0.2172,-2.0902 0.2511,-3.1353 0.0272,-0.889 0.007,-1.778 -0.0611,-2.6602 -0.1153,-1.4523 -0.3325,-2.8978 -0.665,-4.3162 -0.3393,-1.4522 -0.8008,-2.8842 -1.3776,-4.26179 -0.5701,-1.35726 -1.2623,-2.66703 -2.1309,-3.86142 -0.604,-0.83472 -1.2895,-1.60836 -2.0495,-2.30056 -0.7805,-0.70578 -1.6627,-1.30977 -2.5924,-1.80517 -0.0272,-0.01357 -0.0543,-0.02036 -0.0814,-0.02036 -0.0679,0 -0.1222,0.02714 -0.1493,0.07464 z m 3.8682,3.52211 c 0.007,0.0068 0.007,0.01357 0.0135,0.02036 0,-0.0068 -0.007,-0.01357 -0.0135,-0.02036 z"
     fill="#cbe0f7"
     id="path34" />
  <path
     d="m 147.69761,128.94161 c -0.1357,0.238 -0.2443,0.489 -0.3665,0.733 -0.3665,0.699 -0.8144,1.337 -1.2622,1.989 -0.3937,0.577 -0.828,1.119 -1.2962,1.642 -0.9162,0.998 -1.9681,1.88 -3.0946,2.62 -0.604,0.386 -1.2215,0.733 -1.8662,1.045 -0.6922,0.339 -1.4048,0.61 -2.1377,0.841 0.0135,-0.007 0.0203,-0.007 0.0339,-0.013 -0.7194,0.224 -1.4523,0.407 -2.192,0.536 -0.7465,0.129 -1.493,0.21 -2.2463,0.244 h 0.0136 c -0.007,0 -0.007,0 -0.0136,0 -0.9636,0.034 -1.9205,-0.014 -2.8706,-0.156 -0.095,-0.014 -0.1832,0.068 -0.19,0.163 -0.0136,0.102 0.0678,0.176 0.1628,0.19 0.8008,0.115 1.5948,0.19 2.4024,0.21 0.7872,0.021 1.5812,-0.02 2.3617,-0.102 1.5812,-0.169 3.1488,-0.576 4.6283,-1.16 1.4862,-0.59 2.8841,-1.384 4.1464,-2.368 0.6311,-0.489 1.208,-1.046 1.7441,-1.629 0.2647,-0.292 0.5225,-0.591 0.7669,-0.896 0.2782,-0.353 0.5293,-0.719 0.7871,-1.086 0.2647,-0.373 0.5226,-0.753 0.7598,-1.147 0.122,-0.203 0.224,-0.407 0.326,-0.617 0.122,-0.238 0.204,-0.489 0.244,-0.754 0.034,-0.203 -0.115,-0.407 -0.298,-0.468 -0.048,-0.02 -0.102,-0.027 -0.156,-0.027 -0.156,0.014 -0.3125,0.081 -0.3871,0.21 z m -0.3733,0.733 c -0.0136,0.028 -0.0271,0.048 -0.0339,0.075 0.0136,-0.02 0.0271,-0.047 0.0339,-0.075 z m -14.0681,8.911 c 0.007,0 0.007,-0.007 0,0 0.007,-0.007 0,0 0,0 z m 4.4451,-0.781 c 0.0136,-0.006 0.0271,-0.006 0.0475,-0.013 -0.0136,0 -0.0272,0.007 -0.0475,0.013 z"
     fill="#cbe0f7"
     id="path36" />
  <path
     d="m 172.74571,118.32151 c -0.522,0.6854 -1.072,1.3437 -1.642,1.9816 0.007,-0.007 0.007,-0.007 0.014,-0.0136 -0.822,0.9026 -1.69,1.7577 -2.613,2.5585 -0.91,0.7872 -1.894,1.5065 -2.898,2.158 -1.805,1.1606 -3.76,2.0696 -5.796,2.7346 h 0.007 c -2.002,0.645 -4.078,1.032 -6.175,1.134 0.04,0 0.074,0 0.115,0 -0.916,0.034 -1.825,0.013 -2.742,-0.061 -0.441,-0.041 -0.889,-0.089 -1.33,-0.15 -0.475,-0.061 -0.95,-0.149 -1.425,-0.197 -0.271,-0.027 -0.5428,0.143 -0.631,0.401 -0.1086,0.312 0.0475,0.685 0.366,0.787 0.469,0.163 0.964,0.251 1.453,0.326 0.522,0.081 1.045,0.115 1.574,0.136 1.025,0.04 2.05,0.006 3.074,-0.075 1.69,-0.143 3.353,-0.462 4.975,-0.964 3.121,-0.977 5.985,-2.674 8.496,-4.757 1.011,-0.8347 1.968,-1.7509 2.871,-2.701 0.923,-0.9772 1.785,-2.0087 2.606,-3.0809 0.054,-0.0747 0.034,-0.1901 -0.041,-0.2376 -0.027,-0.0203 -0.061,-0.0271 -0.095,-0.0271 -0.075,-0.0272 -0.129,0 -0.163,0.0475 z m -7.125,6.6642 c -0.007,0.007 -0.014,0.007 -0.014,0.0135 0.007,-0.007 0.007,-0.007 0.014,-0.0135 z"
     fill="#cbe0f7"
     id="path38" />
  <path
     d="m 131.28821,95.593912 c 1.2555,0 2.5042,0.2172 3.7121,0.6379 1.3098,0.4615 2.5517,1.1808 3.6782,2.1445 0.2715,0.2239 0.4887,0.4343 0.7058,0.6515 0.129,0.1289 0.2579,0.2579 0.3868,0.4004 0.6719,0.726098 1.2691,1.547198 1.7713,2.429498 l 0.0475,0.0814 c 0.19,0.3325 0.3664,0.6787 0.5361,1.0519 0.19,0.4208 0.3596,0.8347 0.4954,1.2351 l 0.0475,0.1493 0.0407,0.1086 c 0.3936,1.1944 0.6311,2.4702 0.699,3.8003 0.007,0.1358 0.0136,0.2783 0.0203,0.414 0.0475,1.9205 -0.2918,3.8886 -0.984,5.6937 -0.1764,0.4547 -0.38,0.9094 -0.6039,1.3437 l -0.034,0.0679 c -0.6514,1.2419 -1.4794,2.3684 -2.4634,3.3525 -1.3708,1.3572 -3.0607,2.3752 -4.8998,2.9249 -0.984,0.2986 -2.0291,0.4479 -3.0877,0.4479 -0.9026,0 -1.8188,-0.1086 -2.7078,-0.3258 -1.7916,-0.4411 -3.5357,-1.3912 -5.0355,-2.7552 -0.6854,-0.6244 -1.3301,-1.3777 -1.9205,-2.2327 -0.5293,-0.7601 -0.984,-1.6084 -1.364,-2.5246 -0.3801,-0.9093 -0.6651,-1.873 -0.8551,-2.8706 -0.1833,-0.9636 -0.2647,-1.9748 -0.2511,-3.0063 0.0136,-0.9773 0.1357,-1.9952 0.3597,-3.0335 0.2036,-0.9298 0.5293,-1.8798 0.9568,-2.8299 0.8008,-1.778 2.002,-3.379598 3.4814,-4.628298 1.493,-1.2623 3.271,-2.1377 5.1508,-2.5177 0.6922,-0.1425 1.4048,-0.2104 2.1174,-0.2104 z m 6.4878,2.9113 -0.0408,-0.0339 -0.007,-0.0068 c -0.76,-0.5565 -1.5608,-1.0247 -2.3956,-1.3844 -0.8211,-0.3393 -1.683,-0.5768 -2.572,-0.7126 -0.4818,-0.0611 -0.9704,-0.095 -1.4455,-0.095 -0.4411,0 -0.889,0.0272 -1.3436,0.0815 -0.9162,0.1289 -1.8188,0.38 -2.6874,0.7329 -0.8348,0.3597 -1.683,0.8551 -2.4499,1.4387 0,0 -0.0272,0.0203 -0.034,0.0203 0,0 -0.0271,0.0136 -0.0339,0.0136 -0.7601,0.6244 -1.4658,1.3437 -2.0902,2.130898 -0.6989,0.923 -1.2554,1.8731 -1.6965,2.9114 -0.4683,1.1333 -0.7941,2.3345 -0.9637,3.5764 -0.1629,1.269 -0.1561,2.5652 0.007,3.8478 0.1764,1.2012 0.4886,2.3617 0.9433,3.4543 0.4547,1.0586 1.0247,2.0494 1.6966,2.9317 0.6379,0.8211 1.3708,1.5608 2.1784,2.192 0.7601,0.5768 1.588,1.0654 2.4566,1.4454 0.8687,0.3597 1.7781,0.604 2.701,0.733 0.4343,0.0543 0.8822,0.0814 1.3233,0.0814 0.4547,0 0.9162,-0.0271 1.3709,-0.0814 0.9093,-0.1358 1.7576,-0.3665 2.6059,-0.7058 0,0 0.0272,-0.007 0.0339,-0.007 0.007,0 0.0204,-0.007 0.0272,-0.007 0.8755,-0.4004 1.683,-0.8822 2.4227,-1.4387 0.8008,-0.6243 1.5473,-1.3776 2.2192,-2.2327 0.57,-0.7533 1.0654,-1.5812 1.4726,-2.4499 0.0611,-0.1289 0.1221,-0.2646 0.1832,-0.4004 0.1968,-0.4818 0.3597,-0.9432 0.5022,-1.4115 l 0.0339,-0.0882 c -0.007,-0.007 0.007,-0.0408 0.0136,-0.0747 l 0.0204,-0.0814 0.0271,-0.0815 0.0204,-0.0882 0.0271,-0.0814 0.0136,-0.0882 0.0204,-0.0883 0.0203,-0.095 0.0272,-0.0814 0.0135,-0.0679 0.0136,-0.095 0.0272,-0.1289 c 0.0678,-0.3122 0.1221,-0.6379 0.1696,-0.9569 0.1697,-1.3165 0.1696,-2.6263 0.007,-3.9021 -0.1425,-1.0112 -0.3936,-2.002 -0.7329,-2.9385 l -0.0204,-0.0611 -0.0203,-0.0611 -0.034,-0.095 -0.0271,-0.0678 -0.0272,-0.0679 -0.0271,-0.0882 -0.0475,-0.1086 c -0.4615,-1.0655 -1.0044,-2.0088 -1.6695,-2.891 l -0.0475,-0.0611 c -0.6515,-0.827898 -1.3844,-1.560798 -2.1851,-2.185198 z"
     fill="#cbe0f7"
     id="path40" />
  <path
     d="m 131.80391,95.180112 c 0.0136,0 0.0272,0 0.0408,0 0.0203,0 0.0407,0 0.0611,0 0.0271,0 0.0475,0 0.0746,0 0.0136,0 0.0271,0 0.0407,0 0.0272,0 0.0611,0.0068 0.0882,0.0068 0.0136,0 0.0272,0 0.0408,0 0.0271,0 0.0542,0.0068 0.0814,0.0068 0.0136,0 0.0339,0 0.0543,0.0067 l 0.0678,0.0068 c 0.0272,0 0.0543,0.0068 0.0883,0.0068 h 0.0203 c 0.319,0.034 0.6379,0.0747 0.9569,0.1357 0.5701,0.1018 1.1266,0.2579 1.6762,0.4615 0.0408,0.0136 0.0815,0.0272 0.1222,0.0408 0.2647,0.1017 0.5293,0.2103 0.7872,0.3257 0.0475,0.0203 0.095,0.0407 0.1425,0.0679 1.1741,0.5496 2.2395,1.3097 3.176,2.2055 0.2036,0.1968 0.4004,0.3936 0.5904,0.604 0.604,0.6515 1.1266,1.357298 1.5881,2.110498 0.4003,0.6515 0.7464,1.3302 1.0382,2.0359 0.0475,0.1222 0.1019,0.2376 0.1494,0.3597 0.2239,0.5633 0.4071,1.1469 0.5564,1.7373 0.2919,1.1401 0.4412,2.3142 0.4683,3.495 0,0.0814 0.007,0.1696 0.007,0.2511 0.0203,1.8662 -0.3054,3.746 -0.9501,5.4969 -0.4004,1.0994 -0.9433,2.1513 -1.5948,3.1217 -0.224,0.3258 -0.4547,0.6447 -0.7058,0.9501 -0.0136,0.0136 -0.0203,0.0272 -0.0271,0.0407 -0.0136,0.0204 -0.034,0.0408 -0.0475,0.0611 -0.1629,0.1968 -0.3325,0.3936 -0.5022,0.5836 -0.0136,0.0136 -0.0272,0.0272 -0.0407,0.034 -0.4683,0.5022 -0.9773,0.9636 -1.5202,1.3912 -1.5676,1.208 -3.4067,2.0291 -5.368,2.3141 -1.968,0.2851 -3.9836,0.0272 -5.8159,-0.7329 -1.8391,-0.7601 -3.4474,-2.002 -4.7233,-3.5289 -1.2758,-1.5269 -2.1919,-3.3185 -2.762,-5.2187 -0.5633,-1.8934 -0.7329,-3.9157 -0.5497,-5.8838 0.1765,-1.9476 0.7329,-3.841 1.6219,-5.5851 0.8415,-1.6559 2.0359,-3.142098 3.4814,-4.316098 1.4998,-1.2148 3.2778,-2.0698 5.1848,-2.4295 0.509,-0.095 1.0179,-0.1493 1.5269,-0.1697 0.0136,0 0.0204,0 0.0339,0 0.1358,-0.0068 0.2647,-0.0068 0.4005,-0.0068 0.1289,0.0068 0.285,0.0068 0.441,0.0136 z m -1.7915,1.0519 c -0.889,0.1289 -1.7577,0.3732 -2.5924,0.7125 0.0407,-0.0203 0.0814,-0.0339 0.1154,-0.0542 -0.8958,0.38 -1.7374,0.8754 -2.5178,1.459 -0.8211,0.6447 -1.5473,1.3844 -2.192,2.198798 -0.699,0.9229 -1.2758,1.9273 -1.7305,2.9928 0.007,-0.0136 0.0136,-0.0272 0.0136,-0.0407 -0.0136,0.0271 -0.0204,0.0542 -0.034,0.0746 l -0.0135,0.0407 c 0,-0.007 0.007,-0.0136 0.007,-0.0204 -0.4547,1.1334 -0.7737,2.3142 -0.9501,3.529 -0.1697,1.3436 -0.1765,2.6941 0,4.0378 0.1832,1.2759 0.5225,2.5245 1.0179,3.7189 0,-0.007 -0.007,-0.0135 -0.007,-0.0203 0.4479,1.0315 1.0112,2.002 1.6898,2.8978 0.6312,0.8007 1.3438,1.5269 2.1378,2.1648 0.7736,0.5972 1.6151,1.0926 2.5109,1.4794 0.8144,0.3258 1.6491,0.5565 2.5177,0.6854 0.9162,0.1154 1.8256,0.1154 2.7417,0 0.8619,-0.1289 1.6966,-0.3596 2.5109,-0.6854 0.8687,-0.3732 1.6763,-0.8483 2.4296,-1.4116 0.7261,-0.57 1.3844,-1.2147 1.9748,-1.9205 0.0136,-0.0136 0.0204,-0.0271 0.0339,-0.0407 0.0679,-0.0814 0.1357,-0.1629 0.1968,-0.2443 0.6854,-0.9094 1.2555,-1.8934 1.7102,-2.9317 0.007,-0.007 0.007,-0.0204 0.0135,-0.0271 0.4819,-1.1605 0.8076,-2.3753 0.9908,-3.6172 0.1697,-1.3369 0.1765,-2.6874 0.007,-4.0243 0,0.007 0,0.0136 0,0.0204 0,-0.0136 -0.007,-0.0272 -0.007,-0.0475 v -0.0136 c 0,-0.0136 0,-0.0271 -0.007,-0.0407 0,0.007 0,0.0204 0,0.0271 v -0.007 c 0,0.0271 0.007,0.061 0.007,0.0882 -0.1017,-0.7194 -0.251,-1.4251 -0.4478,-2.1174 l -0.0136,-0.0407 -0.007,-0.0271 c -0.1561,-0.5429 -0.3461,-1.0723 -0.5633,-1.5948 -0.3325,-0.7601 -0.7261,-1.4862 -1.1876,-2.1784 0,0 0,-0.007 -0.007,-0.007 l -0.0408,-0.0611 -0.0203,-0.0339 c -0.007,-0.007 -0.0136,-0.0204 -0.0204,-0.0272 -0.1221,-0.1832 -0.2579,-0.3664 -0.3868,-0.5429 -0.2172,-0.2782 -0.4411,-0.5429 -0.6786,-0.800798 -0.4751,-0.5157 -0.9909,-0.9976 -1.5473,-1.4319 -0.7533,-0.5632 -1.5609,-1.0451 -2.4296,-1.4183 -0.1221,-0.0475 -0.2443,-0.095 -0.3664,-0.1425 -0.007,0 -0.0136,-0.0068 -0.0136,-0.0068 -0.0136,-0.0068 -0.0339,-0.0136 -0.0475,-0.0204 l -0.0475,-0.0136 c -0.007,0 -0.007,0 -0.0136,-0.0067 -0.6854,-0.2376 -1.3844,-0.414 -2.1105,-0.5158 0.0204,0 0.0407,0.0068 0.061,0.0068 0.007,0 0.0136,0 0.0204,0 -0.007,0 -0.0136,0 -0.0271,0 -0.007,0 -0.007,0 -0.0136,0 -0.007,0 -0.0136,0 -0.0136,0 0.007,0 0.007,0 0.0136,0 -0.0611,-0.0068 -0.1289,-0.0136 -0.19,-0.0204 -0.0136,0 -0.034,-0.0068 -0.0475,-0.0068 l -0.034,-0.0068 c -0.0203,0 -0.0475,-0.0067 -0.0746,-0.0067 h -0.0204 c -0.0136,0 -0.0271,0 -0.0407,0 -0.7397,-0.0679 -1.4997,-0.0543 -2.2598,0.0407 z m 5.2865,0.7125 c 0.007,0 0.007,0.0068 0.0136,0.0068 -0.007,-0.0067 -0.0136,-0.0068 -0.0136,-0.0068 z m 7.3089,14.156298 c 0,0.0204 -0.007,0.034 -0.007,0.0543 0.007,-0.0203 0.007,-0.0339 0.007,-0.0543 z m -21.5127,3.6715 c 0.007,0.0271 0.0204,0.0475 0.0339,0.0746 -0.0135,-0.0271 -0.0271,-0.0543 -0.0339,-0.0746 z m 20.5287,0.007 c -0.007,0.0136 -0.0136,0.034 -0.0204,0.0476 0.007,-0.0204 0.0136,-0.034 0.0204,-0.0476 z m -14.2445,6.5896 c 0.0136,0.007 0.0271,0.007 0.0339,0.0136 -0.007,0 -0.0203,-0.007 -0.0339,-0.0136 z m 15.2217,-14.2242 c 0,0.0136 0,0.0271 0.007,0.0339 0,-0.0135 -0.007,-0.0339 -0.007,-0.0475 z m -21.5263,-3.5425 c 0,-0.007 0.007,-0.0135 0.007,-0.0203 0.007,-0.0136 0.0136,-0.0204 0.0136,-0.0339 0,0.0135 -0.007,0.0339 -0.0204,0.0542 z m 11.6386,-7.369898 h -0.0136 c 0,0 0.007,0 0.0136,0 z"
     fill="#cbe0f7"
     id="path42" />
  <path
     d="m 131.31541,122.20301 c -6.4945,0 -11.7675,-5.8837 -11.7675,-13.1315 0,-7.2478 5.273,-13.138398 11.7675,-13.138398 6.4945,0 11.7675,5.883798 11.7675,13.138398 0,7.2478 -5.273,13.1315 -11.7675,13.1315 z"
     fill="#fefefe"
     id="path44" />
  <path
     d="m 128.32261,99.224612 c 4.6826,0 8.4965,4.255098 8.4965,9.480498 0,5.2255 -3.8139,9.4806 -8.4965,9.4806 -4.6826,0 -8.4965,-4.2551 -8.4965,-9.4806 0,-5.2254 3.8071,-9.480498 8.4965,-9.480498 z"
     fill="#001833"
     id="path46" />
  <path
     d="m 136.90731,111.34511 c -1.7034,0 -3.0878,-0.665 -3.0878,-1.4794 0,-0.8144 1.3844,-1.4794 3.0878,-1.4794 1.7034,0 3.081,0.665 3.081,1.4794 0,0.8144 -1.3844,1.4794 -3.081,1.4794 z"
     fill="#fefefe"
     id="path48" />
  <path
     d="m 88.622512,95.593912 c -1.2555,0 -2.5041,0.2172 -3.7121,0.6379 -1.3098,0.4615 -2.5517,1.1808 -3.6782,2.1445 -0.2714,0.2239 -0.4886,0.4343 -0.7058,0.6515 -0.1289,0.1289 -0.2579,0.2579 -0.3868,0.4004 -0.6719,0.726098 -1.2691,1.547198 -1.7712,2.429498 l -0.0476,0.0814 c -0.19,0.3325 -0.3664,0.6787 -0.5361,1.0519 -0.19,0.4208 -0.3597,0.8347 -0.4886,1.2351 l -0.0475,0.1493 -0.0407,0.1086 c -0.3936,1.1944 -0.6311,2.4702 -0.699,3.8003 -0.0068,0.1358 -0.0135,0.2783 -0.0203,0.414 -0.0475,1.9205 0.2917,3.8886 0.9839,5.6937 0.1765,0.4547 0.3801,0.9094 0.604,1.3437 l 0.034,0.0679 c 0.6515,1.2419 1.4794,2.3684 2.4634,3.3525 1.3709,1.3572 3.0607,2.3752 4.8998,2.9249 0.984,0.2986 2.0291,0.4479 3.0877,0.4479 0.9026,0 1.8188,-0.1086 2.7078,-0.3258 1.7916,-0.4411 3.5357,-1.3912 5.0354,-2.7552 0.6855,-0.6244 1.3302,-1.3777 1.9206,-2.2327 0.5293,-0.7601 0.984,-1.6084 1.364,-2.5246 0.3733,-0.9093 0.665098,-1.873 0.855098,-2.8706 0.1833,-0.9636 0.2647,-1.9748 0.2511,-3.0063 -0.0135,-0.9773 -0.1357,-1.9952 -0.3597,-3.0335 -0.2036,-0.9298 -0.529298,-1.8798 -0.956798,-2.8299 -0.8008,-1.778 -2.002,-3.379598 -3.4814,-4.628298 -1.493,-1.2623 -3.2711,-2.1377 -5.1509,-2.5177 -0.6922,-0.1425 -1.4047,-0.2104 -2.1241,-0.2104 z m -6.4809,2.9113 0.0407,-0.0339 0.0068,-0.0068 c 0.76,-0.5565 1.5676,-1.0247 2.3956,-1.3844 0.8211,-0.3393 1.683,-0.5768 2.572,-0.7126 0.4818,-0.0611 0.9704,-0.095 1.4455,-0.095 0.4411,0 0.8957,0.0272 1.3436,0.0815 0.9162,0.1289 1.8188,0.38 2.6875,0.7329 0.8347,0.3597 1.683,0.8551 2.4498,1.4387 l 0.0339,0.0203 c 0,0 0.0272,0.0136 0.034,0.0136 0.7601,0.6244 1.4658,1.3437 2.0902,2.130898 0.699,0.923 1.2486,1.8731 1.6965,2.9114 0.4683,1.1333 0.7941,2.3345 0.9637,3.5764 0.162898,1.269 0.156098,2.5652 -0.0068,3.8478 -0.1764,1.2012 -0.4886,2.3617 -0.9433,3.4543 -0.4547,1.0586 -1.0247,2.0494 -1.6966,2.9317 -0.6379,0.8211 -1.3708,1.5608 -2.1784,2.192 -0.7601,0.5768 -1.5812,1.0654 -2.4566,1.4454 -0.8687,0.3597 -1.778,0.604 -2.701,0.733 -0.4343,0.0543 -0.8822,0.0814 -1.3233,0.0814 -0.4547,0 -0.9162,-0.0271 -1.3709,-0.0814 -0.9094,-0.1358 -1.7576,-0.3665 -2.6059,-0.7058 0,0 -0.0272,-0.007 -0.0339,-0.007 -0.0068,0 -0.0204,-0.007 -0.0272,-0.007 -0.8754,-0.4004 -1.683,-0.8822 -2.4227,-1.4387 -0.8008,-0.6243 -1.5473,-1.3776 -2.2191,-2.2327 -0.5701,-0.7533 -1.0655,-1.5812 -1.4727,-2.4499 -0.0611,-0.1289 -0.1221,-0.2646 -0.1832,-0.4004 -0.1968,-0.4818 -0.3597,-0.9432 -0.5022,-1.4115 l -0.034,-0.0882 c 0.0068,-0.007 -0.0067,-0.0408 -0.0135,-0.0747 l -0.0204,-0.0814 -0.0271,-0.0815 -0.0204,-0.0882 -0.0271,-0.0814 -0.0136,-0.0882 -0.0203,-0.0883 -0.0204,-0.095 -0.0272,-0.0814 -0.0135,-0.0679 -0.0136,-0.095 -0.0272,-0.1289 c -0.0678,-0.3122 -0.1221,-0.6379 -0.1696,-0.9569 -0.1697,-1.3165 -0.1697,-2.6263 -0.0068,-3.9021 0.1425,-1.0112 0.3936,-2.002 0.7329,-2.9385 l 0.0204,-0.0611 0.0203,-0.0611 0.034,-0.095 0.0271,-0.0678 0.0272,-0.0679 0.0271,-0.0882 0.0475,-0.1086 c 0.4615,-1.0655 1.0044,-2.0088 1.6695,-2.891 l 0.0475,-0.0611 c 0.6515,-0.827898 1.3844,-1.560798 2.1852,-2.185198 z"
     fill="#cbe0f7"
     id="path50" />
  <path
     d="m 88.113512,95.180112 c -0.0135,0 -0.0271,0 -0.0407,0 -0.0203,0 -0.0407,0 -0.061,0 -0.0272,0 -0.0475,0 -0.0747,0 -0.0136,0 -0.0271,0 -0.0407,0 l -0.0882,0.0068 c -0.0136,0 -0.0272,0 -0.0407,0 -0.0272,0 -0.0543,0.0068 -0.0815,0.0068 -0.0203,0 -0.0339,0 -0.0543,0.0067 -0.0203,0 -0.0475,1e-4 -0.0679,0.0068 -0.0271,0 -0.0543,0.0068 -0.0882,0.0068 -0.0068,0 -0.0135,0 -0.0203,0 -0.319,0.034 -0.6379,0.0747 -0.9569,0.1357 -0.57,0.1018 -1.1265,0.2579 -1.6762,0.4615 -0.0407,0.0136 -0.0815,0.0272 -0.1222,0.0408 -0.2646,0.1017 -0.5293,0.2103 -0.7872,0.3257 -0.0475,0.0203 -0.095,0.0407 -0.1425,0.0679 -1.174,0.5496 -2.2395,1.3097 -3.176,2.2055 -0.2036,0.1968 -0.4004,0.3936 -0.5904,0.604 -0.604,0.6515 -1.1266,1.357298 -1.588,2.110498 -0.4004,0.6515 -0.7465,1.3302 -1.0383,2.0359 -0.0475,0.1222 -0.1018,0.2376 -0.1493,0.3597 -0.224,0.5633 -0.4072,1.1469 -0.5565,1.7373 -0.2918,1.1401 -0.4411,2.3142 -0.4683,3.495 0,0.0814 -0.0068,0.1696 -0.0068,0.2511 -0.0203,1.8662 0.3054,3.746 0.9501,5.4969 0.4004,1.0994 0.9365,2.1513 1.5948,3.1217 0.2239,0.3258 0.4547,0.6447 0.7058,0.9501 0.0136,0.0136 0.0204,0.0272 0.0339,0.0407 0.0136,0.0204 0.034,0.0408 0.0475,0.0611 0.1629,0.1968 0.3326,0.3936 0.5022,0.5836 0.0136,0.0136 0.0272,0.0272 0.0407,0.034 0.4683,0.5022 0.9705,0.9636 1.5202,1.3912 1.5676,1.208 3.4067,2.0291 5.368,2.3141 1.968,0.2851 3.9836,0.0272 5.8159,-0.7329 1.8391,-0.7601 3.4474,-2.002 4.7232,-3.5289 1.2759,-1.5269 2.192,-3.3185 2.755298,-5.2187 0.5633,-1.8934 0.7329,-3.9157 0.5497,-5.8838 -0.1832,-1.9476 -0.7329,-3.841 -1.621998,-5.5851 -0.8415,-1.6559 -2.0358,-3.142098 -3.4813,-4.316098 -1.4998,-1.2148 -3.2778,-2.0698 -5.1848,-2.4295 -0.509,-0.095 -1.0179,-0.1493 -1.5269,-0.1697 -0.0136,0 -0.0204,0 -0.0339,0 -0.1358,-0.0068 -0.2647,-0.0068 -0.4004,-0.0068 -0.129,0.0068 -0.2851,0.0068 -0.4412,0.0136 z m 1.7916,1.0519 c 0.889,0.1289 1.7577,0.3732 2.5924,0.7125 -0.0407,-0.0203 -0.0814,-0.0339 -0.1153,-0.0542 0.8958,0.38 1.7372,0.8754 2.5177,1.459 0.8211,0.6447 1.5473,1.3844 2.192,2.198798 0.699,0.9229 1.2758,1.9273 1.7305,2.9928 -0.0068,-0.0136 -0.0136,-0.0272 -0.0136,-0.0407 0.0136,0.0271 0.0204,0.0542 0.0339,0.0746 l 0.0136,0.0407 c 0,-0.007 -0.0068,-0.0136 -0.0068,-0.0204 0.4547,1.1334 0.7737,2.3142 0.9501,3.529 0.1697,1.3436 0.1765,2.6941 0,4.0378 -0.1832,1.2759 -0.5225,2.5245 -1.0179,3.7189 0,-0.007 0.0068,-0.0135 0.0068,-0.0203 -0.4479,1.0315 -1.0112,2.002 -1.6898,2.8978 -0.6312,0.8007 -1.3437,1.5269 -2.1377,2.1648 -0.7737,0.5972 -1.6152,1.0926 -2.511,1.4794 -0.8144,0.3258 -1.649,0.5565 -2.5177,0.6854 -0.9094,0.1154 -1.8255,0.1154 -2.7417,0 -0.8619,-0.1289 -1.6966,-0.3596 -2.511,-0.6854 -0.8686,-0.3732 -1.6762,-0.8483 -2.4294,-1.4116 -0.7262,-0.57 -1.3845,-1.2147 -1.9749,-1.9205 -0.0136,-0.0136 -0.0203,-0.0271 -0.0339,-0.0407 -0.0679,-0.0814 -0.1357,-0.1629 -0.1968,-0.2443 -0.6854,-0.9094 -1.2555,-1.8934 -1.7102,-2.9317 -0.0068,-0.007 -0.0068,-0.0204 -0.0136,-0.0271 -0.4818,-1.1605 -0.8075,-2.3753 -0.9907,-3.6172 -0.1697,-1.3369 -0.1765,-2.6874 -0.0068,-4.0243 0,0.007 0,0.0136 0,0.0204 0,-0.0136 0.0068,-0.0272 0.0068,-0.0475 0,-0.007 0,-0.007 0,-0.0136 0,-0.0136 0,-0.0271 0.0068,-0.0407 0,0.007 0,0.0204 0,0.0271 v -0.007 c 0,0.0271 -0.0068,0.061 -0.0068,0.0882 0.1018,-0.7194 0.251,-1.4251 0.4478,-2.1174 l 0.0136,-0.0407 c 0,-0.007 0.0068,-0.0203 0.0068,-0.0271 0.1561,-0.5429 0.3461,-1.0723 0.5633,-1.5948 0.3325,-0.7601 0.7261,-1.4862 1.1876,-2.1784 0,0 0,-0.007 0.0068,-0.007 l 0.0407,-0.0611 0.0204,-0.0339 c 0.0067,-0.007 0.0135,-0.0204 0.0203,-0.0272 0.1222,-0.1832 0.2579,-0.3664 0.3868,-0.5429 0.2172,-0.2782 0.4411,-0.5429 0.6719,-0.800798 0.475,-0.5157 0.9908,-0.9976 1.5473,-1.4319 0.7533,-0.5632 1.5608,-1.0451 2.4295,-1.4183 0.1221,-0.0475 0.2443,-0.095 0.3732,-0.1425 0.0068,0 0.0136,-0.0068 0.0136,-0.0068 0.0135,-0.0068 0.0339,-0.0136 0.0475,-0.0204 l 0.0475,-0.0136 c 0.0068,0 0.0068,0 0.0136,-0.0067 0.6854,-0.2376 1.3844,-0.414 2.1105,-0.5158 -0.0203,0 -0.0407,0.0068 -0.061,0.0068 -0.0068,0 -0.0136,0 -0.0204,0 0.0068,0 0.0203,0 0.0271,0 0.0068,0 0.0068,0 0.0136,0 0.0068,0 0.0068,0 0.0136,0 -0.0068,0 -0.0068,0 -0.0136,0 0.0611,-0.0068 0.129,-0.0136 0.19,-0.0204 0.0204,0 0.0339,-0.0068 0.0475,-0.0068 0.0136,0 0.0204,0 0.034,-0.0068 0.0203,0 0.0475,-0.0067 0.0678,-0.0067 h 0.0204 c 0.0136,0 0.0271,0 0.0407,0 0.7465,-0.0679 1.5066,-0.0543 2.2666,0.0407 z m -5.2865,0.7125 c 0,0 -0.0068,0 0,0 -0.0068,0 -0.0068,0.0068 -0.0136,0.0068 0.0068,-0.0067 0.0068,-0.0068 0.0136,-0.0068 z m -7.3157,14.156298 c 0,0.0204 0.0068,0.034 0.0068,0.0543 0,-0.0203 -0.0068,-0.0339 -0.0068,-0.0543 z m 21.5195,3.6715 c -0.0136,0.0271 -0.0204,0.0475 -0.0339,0.0746 0.0135,-0.0271 0.0203,-0.0543 0.0339,-0.0746 z m -20.5355,0.007 c 0.0068,0.0136 0.0136,0.034 0.0204,0.0476 -0.0068,-0.0204 -0.0136,-0.034 -0.0204,-0.0476 z m 14.2445,6.5896 c -0.0135,0.007 -0.0271,0.007 -0.0339,0.0136 0.0136,0 0.0204,-0.007 0.0339,-0.0136 z m -15.2149,-14.2242 c 0,0.0136 0,0.0271 -0.0068,0.0339 0,-0.0135 0.0068,-0.0339 0.0068,-0.0475 0,0.007 0,0.007 0,0.0136 z m 21.5195,-3.5425 c 0,-0.007 -0.0068,-0.0135 -0.0068,-0.0203 -0.0068,-0.0136 -0.0136,-0.0204 -0.0136,-0.0339 0.0068,0.0135 0.0136,0.0339 0.0204,0.0542 z m -11.6318,-7.369898 c -0.0068,0 -0.0068,0 0,0 0,0 0.0068,0 0.0136,0 -0.0068,0 -0.0136,0 -0.0136,0 z"
     fill="#cbe0f7"
     id="path52" />
  <path
     d="m 88.595412,122.20301 c 6.4945,0 11.767498,-5.8837 11.767498,-13.1315 0,-7.2478 -5.272998,-13.138398 -11.767498,-13.138398 -6.4945,0 -11.7675,5.883798 -11.7675,13.138398 0,7.2478 5.273,13.1315 11.7675,13.1315 z"
     fill="#fefefe"
     id="path54" />
  <path
     d="m 91.594912,99.224612 c -4.6825,0 -8.4964,4.255098 -8.4964,9.480498 0,5.2255 3.8139,9.4806 8.4964,9.4806 4.6826,0 8.496498,-4.2551 8.496498,-9.4806 0,-5.2254 -3.813898,-9.480498 -8.496498,-9.480498 z"
     fill="#001833"
     id="path56" />
  <path
     d="m 83.010312,111.34511 c 1.7034,0 3.0878,-0.665 3.0878,-1.4794 0,-0.8144 -1.3844,-1.4794 -3.0878,-1.4794 -1.7034,0 -3.0878,0.665 -3.0878,1.4794 0,0.8144 1.3844,1.4794 3.0878,1.4794 z"
     fill="#fefefe"
     id="path58" />
  <path
     d="m 92.633312,71.719812 c -1.4862,0 -3.3118,0.3596 -5.1373,1.0043 -1.8798,0.6651 -3.556,1.5541 -4.7165,2.5178 -1.1605,0.9636 -1.6694,1.873 -1.4251,2.5652 0.2511,0.7126 1.2554,1.1062 2.8299,1.1062 1.4862,0 3.3117,-0.3529 5.1372,-1.0044 2.9453,-1.0383 5.368,-2.6602 6.0195,-4.0311 0.1833,-0.3868 0.224,-0.7397 0.1154,-1.0519 -0.2443,-0.7125 -1.2487,-1.1061 -2.8231,-1.1061 z"
     fill="#0066da"
     fill-opacity="0.2"
     id="path60" />
  <path
     d="m 129.10981,71.997812 c -1.5812,0 -2.5856,0.3936 -2.8299,1.1062 -0.2443,0.6922 0.2578,1.6083 1.4251,2.5652 1.1605,0.9637 2.8367,1.8527 4.7165,2.5177 1.8255,0.6447 3.6511,0.9976 5.1373,0.9976 1.5744,0 2.5788,-0.3936 2.8299,-1.1061 0.2443,-0.6923 -0.2579,-1.6084 -1.4184,-2.5653 -1.1605,-0.9636 -2.8367,-1.8527 -4.7097,-2.5177 -1.8459,-0.6379 -3.6714,-0.9976 -5.1508,-0.9976 z"
     fill="#0066da"
     fill-opacity="0.2"
     id="path62" />
  <path
     d="m 108.60151,111.83361 c 0,1.3776 0.7193,2.4974 1.6083,2.4974 0.8891,0 1.6084,-1.1198 1.6084,-2.4974 0,-1.3776 -0.7193,-2.4974 -1.6084,-2.4974 -0.8822,0 -1.6083,1.1198 -1.6083,2.4974 z"
     fill="#001833"
     id="path64" />
</svg>
