<?xml version="1.0" encoding="UTF-8" standalone="no"?>
<svg
   width="320"
   height="320"
   viewBox="0 0 320 320"
   fill="none"
   version="1.1"
   id="svg6"
   xmlns="http://www.w3.org/2000/svg"
   xmlns:svg="http://www.w3.org/2000/svg">
  <defs
     id="defs10" />
  <path
     d="M 221.57525,6.7012795 71.57985,167.52543 c -2.841375,3.0464 -0.537725,7.81825 3.775038,7.81825 H 165.40135 L 84.937486,305.12817 c -0.783332,1.26444 1.01327,2.52886 2.084978,1.46845 L 256.98046,138.32827 c 3.03371,-3.00259 0.76649,-7.95542 -3.63999,-7.95542 h -87.18981 z"
     fill="#fbda2b"
     id="path2"
     style="stroke-width:11.5263" />
  <path
     fill-rule="evenodd"
     clip-rule="evenodd"
     d="m 224.31505,6.1696316 c 1.90529,1.2928652 2.59686,3.7727162 1.63673,5.8651014 L 173.50754,126.31906 h 79.71076 c 4.08721,0 7.45747,2.29833 8.98817,5.56488 1.55834,3.32417 1.1042,7.50705 -1.98368,10.49234 L 82.421068,314.29386 c -1.716485,1.65977 -4.403035,1.77389 -6.253689,0.26511 -1.850714,-1.5088 -2.28074,-4.16329 -1.001056,-6.17924 L 156.83504,179.73174 H 75.474305 c -4.001071,0 -7.331887,-2.21074 -8.904174,-5.39084 -1.59906,-3.23427 -1.27878,-7.34798 1.630845,-10.39553 L 218.26031,6.8142252 c 1.58947,-1.6649214 4.14944,-1.93746 6.05474,-0.6445936 z M 75.194686,170.26983 c 0.06325,0.0196 0.153863,0.0357 0.279619,0.0357 h 89.934755 c 1.71927,0 3.30206,0.9371 4.1301,2.44358 0.82817,1.50648 0.77019,3.34376 -0.15122,4.79607 L 104.37639,279.95368 253.488,135.77635 c -0.0634,-0.0173 -0.151,-0.0311 -0.2697,-0.0311 h -87.05888 c -1.60537,0 -3.10032,-0.81721 -3.96709,-2.16924 -0.86666,-1.35088 -0.98585,-3.051 -0.31628,-4.51023 l 43.7826,-95.408368 z"
     fill="#faae3b"
     id="path4"
     style="stroke-width:11.5263" />
</svg>
