<?xml version="1.0" encoding="UTF-8" standalone="no"?>
<svg
   width="44"
   height="44"
   viewBox="0 0 44 44"
   fill="none"
   version="1.1"
   id="svg4"
   xmlns="http://www.w3.org/2000/svg"
   xmlns:svg="http://www.w3.org/2000/svg">
  <defs
     id="defs8" />
  <rect
     width="44"
     height="44"
     rx="22"
     fill="#7FB0E8"
     id="rect2" />
  <path
     d="m 12.973572,32.914826 c 0,-4.1094 3.35086,-7.4407 7.4844,-7.4407 h 3.8301 c 4.1335,0 7.4843,3.3313 7.4843,7.4407 0,0.475099 -0.3874,0.860199 -0.8652,0.860199 h -17.06835 c -0.47787,0 -0.86525,-0.3851 -0.86525,-0.860199 z"
     fill="#004a9e"
     id="path2" />
  <path
     d="m 16.879822,26.906125 h 10.93755 v 6.1165 c 0,0.429001 -0.3498,0.7767 -0.7813,0.7767 h -9.375 c -0.43147,0 -0.78125,-0.347699 -0.78125,-0.7767 z"
     fill="#f5faff"
     id="path4" />
  <path
     d="m 22.348572,24.988625 c 0,0 4.6631,0.3641 5.2734,1.2379 0.4282,0.6129 0.0515,1.6916 -0.515,2.8256 -0.4546,0.9101 -1.4066,1.461601 -2.4285,1.4867 l -0.3279,0.0081 -0.7158,-0.0174 c -0.7154,-0.0173 -1.2862,-0.598801 -1.2862,-1.310301 z"
     fill="#4191ed"
     id="path6" />
  <path
     d="m 22.337872,24.988625 c 0,0 -4.66308,0.3641 -5.27343,1.2379 -0.42813,0.6129 -0.05142,1.6916 0.51502,2.8256 0.45464,0.9101 1.40666,1.461601 2.42851,1.4867 l 0.3279,0.0081 0.7157,-0.0174 c 0.7154,-0.0173 1.2863,-0.598801 1.2863,-1.310301 z"
     fill="#4191ed"
     id="path8" />
  <path
     d="m 20.053672,24.114825 h 4.6387 v 3.3738 c 0,1.2735 -1.0385,2.3058 -2.3194,2.3058 -1.2809,0 -2.3193,-1.0323 -2.3193,-2.3058 z"
     fill="#8b3e2a"
     id="path10" />
  <path
     d="m 9.8485723,19.673125 c 0,-2.587169 2.1095997,-4.684479 4.7119097,-4.684479 h 15.57619 c 2.6023,0 4.7119,2.09731 4.7119,4.684479 0,2.5871 -2.1096,4.6844 -4.7119,4.6844 h -15.57619 c -2.60231,0 -4.7119097,-2.0973 -4.7119097,-4.6844 z"
     fill="#122322"
     id="path12" />
  <path
     d="m 15.317322,14.333305 c 0,-3.029519 2.4703,-5.4854334 5.51755,-5.4854334 h 2.9785 c 3.0473,0 5.5176,2.4559144 5.5176,5.4854334 v 4.61162 c 0,3.029601 -2.4703,5.485501 -5.5176,5.485501 h -2.9785 c -3.04725,0 -5.51755,-2.4559 -5.51755,-5.485501 z"
     fill="#9b4832"
     id="path14" />
  <path
     d="m 23.705972,18.704525 c 0.3768,0.133 0.5691,0.578001 0.3489,0.9097 -0.1308,0.197001 -0.2208,0.245801 -0.4455,0.404201 -0.3731,0.263099 -0.8188,0.4052 -1.2762,0.4071 -0.4573,0.0018 -0.9042,-0.136701 -1.2794,-0.396701 -0.2197,-0.152299 -0.3409,-0.281399 -0.4746,-0.4835 -0.194,-0.292899 -0.0476,-0.6892 0.2801,-0.81881 l 0.1525,-0.05037 c 0.2793,-0.09232 0.5775,0.077 0.819,0.24438 0.1458,0.101 0.3193,0.154799 0.4969,0.154 0.1776,-7.01e-4 0.3507,-0.0559 0.4956,-0.158 0.2434,-0.17165 0.5293,-0.33674 0.8105,-0.23749 z"
     fill="#c05c4b"
     id="path16" />
  <path
     d="m 12.289982,17.318746 c 0,-1.31369 1.07119,-2.378651 2.39257,-2.378651 h 0.63477 l 0.1709,4.75733 h -0.80567 c -1.32138,0 -2.39257,-1.06499 -2.39257,-2.378679 z"
     fill="#9b4832"
     id="path18" />
  <path
     d="m 32.358372,17.318746 c 0,-1.31369 -1.0712,-2.378651 -2.3926,-2.378651 h -0.6348 l -0.2197,4.75733 h 0.8545 c 1.3214,0 2.3926,-1.06499 2.3926,-2.378679 z"
     fill="#9b4832"
     id="path20" />
  <path
     d="m 15.317312,14.430395 c 0,-3.109959 2.53588,-5.6310698 5.66406,-5.6310698 h 1.3672 v 4.2233008 c 0,0 -3.61328,2.274419 -4.95607,2.03884 -2.07519,-0.364081 -2.07519,0.436889 -2.07519,0.436889 z"
     fill="#122322"
     id="path22" />
  <path
     d="m 29.379872,14.454666 c 0,-3.10995 -2.5359,-5.6310676 -5.6641,-5.6310676 h -1.3672 v 4.2232966 c 0,0 3.6133,2.274421 4.9561,2.038841 2.0751,-0.36408 2.0752,0.43689 2.0752,0.43689 z"
     fill="#122322"
     id="path24" />
</svg>
