<?xml version="1.0" encoding="UTF-8" standalone="no"?>
<svg
   width="258"
   height="173"
   viewBox="0 0 258 173"
   fill="none"
   version="1.1"
   id="svg4"
   xmlns="http://www.w3.org/2000/svg"
   xmlns:svg="http://www.w3.org/2000/svg">
  <defs
     id="defs8" />
  <path
     d="M210.5 172.075C210.5 172.075 241.335 147.216 250.037 117.852C261.202 80.2241 269.122 20.7877 201 7.68702C141 -3.85146 94.9816 19.4413 94.9816 19.4413C94.9816 19.4413 74.5281 -14.886 35.4993 7.6871C-0.449203 28.4797 19.4405 74.6297 19.4405 74.6297C19.4405 74.6297 3.71422e-08 84.5178 3.23508e-08 117.852C2.75595e-08 151.187 65.4996 172.075 65.4996 172.075H210.5Z"
     fill="#F5FAFF"
     id="path2" />
  <path
     d="M 33.120451,80.134972 H 225.12045 v 79.550998 c 0,7.322 -5.949,13.258 -13.287,13.258 H 46.407651 c -7.33832,0 -13.2872,-5.936 -13.2872,-13.258 z"
     fill="#c8e0ff"
     id="path2-7" />
  <path
     d="m 33.120451,68.202372 c 0,-7.32239 5.94888,-13.258388 13.2872,-13.258388 H 211.83345 c 7.338,0 13.287,5.935998 13.287,13.258388 v 11.9326 H 33.120451 Z"
     fill="#75a3d6"
     id="path4" />
  <path
     d="m 43.750251,92.067572 c 0,-0.7322 0.5948,-1.3258 1.3287,-1.3258 h 55.141799 c 0.7339,0 1.3288,0.5936 1.3288,1.3258 v 62.977398 c 0,0.732 -0.5949,1.326 -1.3288,1.326 H 45.078951 c -0.7339,0 -1.3287,-0.594 -1.3287,-1.326 z"
     fill="#7fb0e8"
     id="path6" />
  <path
     d="m 109.52185,91.404672 c 0,-0.3661 0.2974,-0.6629 0.6643,-0.6629 h 76.4013 c 0.367,0 0.664,0.2968 0.664,0.6629 v 3.9775 c 0,0.3661 -0.297,0.6629 -0.664,0.6629 h -76.4013 c -0.3669,0 -0.6643,-0.2968 -0.6643,-0.6629 z"
     fill="#82addd"
     id="path8" />
  <path
     d="m 109.52185,102.01137 c 0,-0.3661 0.2974,-0.6629 0.6643,-0.6629 h 76.4013 c 0.367,0 0.664,0.2968 0.664,0.6629 v 3.9776 c 0,0.3661 -0.297,0.6629 -0.664,0.6629 h -76.4013 c -0.3669,0 -0.6643,-0.2968 -0.6643,-0.6629 z"
     fill="#82addd"
     id="path10" />
  <path
     d="m 109.52185,112.61817 c 0,-0.3662 0.2974,-0.663 0.6643,-0.663 h 65.1073 c 0.367,0 0.664,0.2968 0.664,0.663 v 3.3146 c 0,0.3661 -0.297,0.6629 -0.664,0.6629 h -65.1073 c -0.3669,0 -0.6643,-0.2968 -0.6643,-0.6629 z"
     fill="#82addd"
     id="path12" />
  <path
     d="m 109.52185,133.16867 c 0,-0.3661 0.2974,-0.6629 0.6643,-0.6629 h 65.1073 c 0.367,0 0.664,0.2968 0.664,0.6629 v 3.3146 c 0,0.3662 -0.297,0.663 -0.664,0.663 h -65.1073 c -0.3669,0 -0.6643,-0.2968 -0.6643,-0.663 z"
     fill="#82addd"
     id="path14" />
  <path
     d="m 109.52185,140.46087 c 0,-0.3662 0.2974,-0.663 0.6643,-0.663 h 65.1073 c 0.367,0 0.664,0.2968 0.664,0.663 v 3.3146 c 0,0.3661 -0.297,0.6629 -0.664,0.6629 h -65.1073 c -0.3669,0 -0.6643,-0.2968 -0.6643,-0.6629 z"
     fill="#82addd"
     id="path16" />
  <path
     d="m 109.52185,147.75297 c 0,-0.3661 0.2974,-0.6629 0.6643,-0.6629 h 65.1073 c 0.367,0 0.664,0.2968 0.664,0.6629 v 3.3146 c 0,0.3661 -0.297,0.6629 -0.664,0.6629 h -65.1073 c -0.3669,0 -0.6643,-0.2968 -0.6643,-0.6629 z"
     fill="#82addd"
     id="path18" />
  <path
     d="m 109.52185,119.91027 c 0,-0.3661 0.2974,-0.6629 0.6643,-0.6629 h 65.1073 c 0.367,0 0.664,0.2968 0.664,0.6629 v 1.3258 c 0,0.3662 -0.297,0.663 -0.664,0.663 h -65.1073 c -0.3669,0 -0.6643,-0.2968 -0.6643,-0.663 z"
     fill="#82addd"
     id="path20" />
  <path
     d="m 109.52185,125.21367 c 0,-0.3661 0.2974,-0.6629 0.6643,-0.6629 h 24.5813 c 0.367,0 0.664,0.2968 0.664,0.6629 v 1.3258 c 0,0.3661 -0.297,0.6629 -0.664,0.6629 h -24.5813 c -0.3669,0 -0.6643,-0.2968 -0.6643,-0.6629 z"
     fill="#82addd"
     id="path22" />
  <path
     d="m 138.08945,125.21367 c 0,-0.3661 0.297,-0.6629 0.664,-0.6629 h 24.582 c 0.366,0 0.664,0.2968 0.664,0.6629 v 1.3258 c 0,0.3661 -0.298,0.6629 -0.664,0.6629 h -24.582 c -0.367,0 -0.664,-0.2968 -0.664,-0.6629 z"
     fill="#82addd"
     id="path24" />
  <path
     d="m 55.459551,154.72917 c 0,-7.6278 6.1443,-13.8114 13.7236,-13.8114 h 7.023 c 7.5793,0 13.7236,6.1836 13.7236,13.8114 0,0.8818 -0.7104,1.5968 -1.5866,1.5968 h -31.2971 c -0.8762,0 -1.5865,-0.715 -1.5865,-1.5968 z"
     fill="#004a9e"
     id="path26" />
  <path
     d="m 62.622151,143.57597 h 20.0554 v 11.353 c 0,0.797 -0.6414,1.442 -1.4325,1.442 h -17.1903 c -0.7912,0 -1.4326,-0.645 -1.4326,-1.442 z"
     fill="#f5faff"
     id="path28" />
  <path
     d="m 72.649851,140.01677 c 0,0 8.5504,0.6758 9.6696,2.2977 0.785,1.1377 0.0942,3.1399 -0.9444,5.2448 -0.8337,1.6894 -2.5793,2.7131 -4.453,2.7597 l -0.6013,0.0149 -1.3124,-0.0322 c -1.3118,-0.0322 -2.3585,-1.1116 -2.3585,-2.4321 z"
     fill="#4191ed"
     id="path30" />
  <path
     d="m 72.630151,140.01677 c 0,0 -8.5503,0.6758 -9.6694,2.2977 -0.7851,1.1377 -0.0943,3.1399 0.9443,5.2448 0.8336,1.6894 2.5793,2.7131 4.453,2.7597 l 0.6013,0.0149 1.3124,-0.0322 c 1.3117,-0.0322 2.3584,-1.1116 2.3584,-2.4321 z"
     fill="#4191ed"
     id="path32" />
  <path
     d="m 68.441851,138.39487 h 8.5056 v 6.2623 c 0,2.3638 -1.9041,4.2801 -4.2528,4.2801 -2.3488,0 -4.2528,-1.9163 -4.2528,-4.2801 z"
     fill="#8b3e2a"
     id="path34" />
  <path
     d="m 49.729451,130.15017 c 0,-4.8022 3.8682,-8.6952 8.6399,-8.6952 h 28.561 c 4.7717,0 8.6399,3.893 8.6399,8.6952 0,4.8022 -3.8682,8.6952 -8.6399,8.6952 h -28.561 c -4.7717,0 -8.6399,-3.893 -8.6399,-8.6952 z"
     fill="#122322"
     id="path36" />
  <path
     d="m 59.757151,120.23857 c 0,-5.6234 4.5296,-10.182 10.1172,-10.182 h 5.4615 c 5.5876,0 10.1172,4.5586 10.1172,10.182 v 8.56 c 0,5.6233 -4.5296,10.182 -10.1172,10.182 h -5.4615 c -5.5876,0 -10.1172,-4.5587 -10.1172,-10.182 z"
     fill="#9b4832"
     id="path38" />
  <path
     d="m 75.138851,128.35227 c 0.6909,0.2469 1.0435,1.0729 0.6397,1.6886 -0.2398,0.3656 -0.4049,0.4563 -0.8169,0.7503 -0.6841,0.4883 -1.5013,0.7522 -2.3399,0.7556 -0.8387,0.003 -1.658,-0.2537 -2.3461,-0.7364 -0.4028,-0.2826 -0.625,-0.5223 -0.8703,-0.8974 -0.3556,-0.5436 -0.0872,-1.2794 0.5138,-1.5199 l 0.2795,-0.0935 c 0.5122,-0.1713 1.059,0.143 1.5018,0.4536 0.2672,0.1874 0.5854,0.2873 0.9111,0.286 0.3257,-0.001 0.6431,-0.1038 0.9087,-0.2935 0.4463,-0.3185 0.9706,-0.6249 1.4862,-0.4407 z"
     fill="#c05c4b"
     id="path40" />
  <path
     d="m 54.206051,125.78007 c 0,-2.4385 1.9642,-4.4152 4.3872,-4.4152 h 1.1639 l 0.3133,8.8303 h -1.4772 c -2.423,0 -4.3872,-1.9767 -4.3872,-4.4151 z"
     fill="#9b4832"
     id="path42" />
  <path
     d="m 91.004151,125.78007 c 0,-2.4385 -1.9642,-4.4152 -4.3872,-4.4152 h -1.1639 l -0.4029,8.8303 h 1.5668 c 2.423,0 4.3872,-1.9767 4.3872,-4.4151 z"
     fill="#9b4832"
     id="path44" />
  <path
     d="m 59.757151,120.41877 c 0,-5.7727 4.6498,-10.4523 10.3858,-10.4523 h 2.5069 v 7.8392 c 0,0 -6.6254,4.2217 -9.0876,3.7844 -3.8051,-0.6758 -3.8051,0.811 -3.8051,0.811 z"
     fill="#122322"
     id="path46" />
  <path
     d="m 85.542551,120.46377 c 0,-5.7726 -4.6498,-10.4523 -10.3858,-10.4523 h -2.5069 v 7.8392 c 0,0 6.6254,4.2218 9.0876,3.7845 3.8051,-0.6758 3.8051,0.8109 3.8051,0.8109 z"
     fill="#122322"
     id="path48" />
</svg>
