<?xml version="1.0" encoding="UTF-8" standalone="no"?>
<svg
   width="242.81139"
   height="166.99998"
   viewBox="0 0 242.81139 166.99998"
   fill="none"
   version="1.1"
   id="svg4"
   xmlns="http://www.w3.org/2000/svg"
   xmlns:svg="http://www.w3.org/2000/svg">
  <defs
     id="defs8" />
  <path
     d="m 175.8,166.99999 c 0,0 12.835,-24.859 21.537,-54.222 C 208.503,75.149287 211.5,20.829287 177.966,4.6847566 c -28.399,-13.6777 -61.484,9.5695304 -61.484,9.5695304 0,0 -37.5131,-28.0393 -76.5418,-5.4662204 C 3.9916201,29.580587 23.8813,75.730687 23.8813,75.730687 c 0,0 -19.5655799,9.6183 -23.27203886,33.791303 -5.00287104,32.624 22.44833886,57.366 22.44833886,57.366 z"
     fill="#f5faff"
     id="path2" />
  <path
     d="M 50.811392,74.146169 H 242.81139 v 79.551001 c 0,7.32199 -5.949,13.25799 -13.287,13.25799 H 64.098592 c -7.33832,0 -13.2872,-5.936 -13.2872,-13.25799 z"
     fill="#c8e0ff"
     id="path2-4" />
  <path
     d="m 50.811392,62.213569 c 0,-7.3224 5.94888,-13.2584 13.2872,-13.2584 H 229.52439 c 7.338,0 13.287,5.936 13.287,13.2584 v 11.9326 H 50.811392 Z"
     fill="#75a3d6"
     id="path4" />
  <path
     d="m 61.441192,86.078769 c 0,-0.7322 0.5948,-1.3258 1.3287,-1.3258 h 55.141798 c 0.7339,0 1.3288,0.5936 1.3288,1.3258 v 62.977391 c 0,0.732 -0.5949,1.326 -1.3288,1.326 H 62.769892 c -0.7339,0 -1.3287,-0.594 -1.3287,-1.326 z"
     fill="#7fb0e8"
     id="path6" />
  <path
     d="m 127.21279,85.415869 c 0,-0.3661 0.2974,-0.6629 0.6643,-0.6629 h 76.4013 c 0.367,0 0.664,0.2968 0.664,0.6629 v 3.977495 c 0,0.36611 -0.297,0.66291 -0.664,0.66291 h -76.4013 c -0.3669,0 -0.6643,-0.2968 -0.6643,-0.66291 z"
     fill="#82addd"
     id="path8" />
  <path
     d="m 127.21279,96.02256 c 0,-0.36609 0.2974,-0.6629 0.6643,-0.6629 h 76.4013 c 0.367,0 0.664,0.29681 0.664,0.6629 v 3.9775 c 0,0.36621 -0.297,0.663 -0.664,0.663 h -76.4013 c -0.3669,0 -0.6643,-0.29679 -0.6643,-0.663 z"
     fill="#82addd"
     id="path10" />
  <path
     d="m 127.21279,106.62936 c 0,-0.3662 0.2974,-0.66299 0.6643,-0.66299 h 65.1073 c 0.367,0 0.664,0.29679 0.664,0.66299 v 3.3146 c 0,0.3661 -0.297,0.66291 -0.664,0.66291 h -65.1073 c -0.3669,0 -0.6643,-0.29681 -0.6643,-0.66291 z"
     fill="#82addd"
     id="path12" />
  <path
     d="m 127.21279,127.17986 c 0,-0.3661 0.2974,-0.6629 0.6643,-0.6629 h 65.1073 c 0.367,0 0.664,0.29681 0.664,0.6629 v 3.3146 c 0,0.3661 -0.297,0.6629 -0.664,0.6629 h -65.1073 c -0.3669,0 -0.6643,-0.2968 -0.6643,-0.6629 z"
     fill="#82addd"
     id="path14" />
  <path
     d="m 127.21279,134.47207 c 0,-0.36621 0.2974,-0.66301 0.6643,-0.66301 h 65.1073 c 0.367,0 0.664,0.29681 0.664,0.66301 v 3.31459 c 0,0.36611 -0.297,0.6629 -0.664,0.6629 h -65.1073 c -0.3669,0 -0.6643,-0.2968 -0.6643,-0.6629 z"
     fill="#82addd"
     id="path16" />
  <path
     d="m 127.21279,141.76416 c 0,-0.3661 0.2974,-0.6629 0.6643,-0.6629 h 65.1073 c 0.367,0 0.664,0.2968 0.664,0.6629 v 3.3146 c 0,0.3661 -0.297,0.6629 -0.664,0.6629 h -65.1073 c -0.3669,0 -0.6643,-0.2968 -0.6643,-0.6629 z"
     fill="#82addd"
     id="path18" />
  <path
     d="m 127.21279,113.92147 c 0,-0.36611 0.2974,-0.6629 0.6643,-0.6629 h 65.1073 c 0.367,0 0.664,0.2968 0.664,0.6629 v 1.32579 c 0,0.3662 -0.297,0.66301 -0.664,0.66301 h -65.1073 c -0.3669,0 -0.6643,-0.29681 -0.6643,-0.66301 z"
     fill="#82addd"
     id="path20" />
  <path
     d="m 127.21279,119.22486 c 0,-0.3662 0.2974,-0.663 0.6643,-0.663 h 24.5813 c 0.367,0 0.664,0.2968 0.664,0.663 v 1.32581 c 0,0.36609 -0.297,0.66289 -0.664,0.66289 h -24.5813 c -0.3669,0 -0.6643,-0.2968 -0.6643,-0.66289 z"
     fill="#82addd"
     id="path22" />
  <path
     d="m 155.78039,119.22486 c 0,-0.3662 0.297,-0.663 0.664,-0.663 h 24.582 c 0.366,0 0.664,0.2968 0.664,0.663 v 1.32581 c 0,0.36609 -0.298,0.66289 -0.664,0.66289 h -24.582 c -0.367,0 -0.664,-0.2968 -0.664,-0.66289 z"
     fill="#82addd"
     id="path24" />
  <path
     d="m 73.150492,148.74036 c 0,-7.6278 6.1443,-13.8114 13.7236,-13.8114 h 7.023 c 7.579298,0 13.723598,6.1836 13.723598,13.8114 0,0.8818 -0.7104,1.5968 -1.5866,1.5968 H 74.736992 c -0.8762,0 -1.5865,-0.715 -1.5865,-1.5968 z"
     fill="#004a9e"
     id="path26" />
  <path
     d="m 80.313092,137.58716 h 20.055398 v 11.3533 c 0,0.7967 -0.641397,1.44171 -1.432497,1.44171 H 81.745692 c -0.7912,0 -1.4326,-0.64501 -1.4326,-1.44171 z"
     fill="#f5faff"
     id="path28" />
  <path
     d="m 90.340792,134.02796 c 0,0 8.550401,0.6758 9.669598,2.2977 0.785,1.1377 0.0942,3.1399 -0.944397,5.2448 -0.8337,1.68941 -2.5793,2.7131 -4.453,2.75961 l -0.601301,0.015 -1.3124,-0.0322 c -1.3118,-0.0322 -2.3585,-1.11161 -2.3585,-2.43221 z"
     fill="#4191ed"
     id="path30" />
  <path
     d="m 90.321092,134.02796 c 0,0 -8.5503,0.6758 -9.6694,2.2977 -0.7851,1.1377 -0.0943,3.1399 0.9443,5.24471 0.8336,1.68949 2.5793,2.71319 4.453,2.75969 l 0.6013,0.015 1.3124,-0.0322 c 1.3117,-0.0322 2.3584,-1.1116 2.3584,-2.4322 z"
     fill="#4191ed"
     id="path32" />
  <path
     d="m 86.132792,132.40606 h 8.505601 v 6.2623 c 0,2.3638 -1.904101,4.28 -4.252801,4.28 -2.3488,0 -4.2528,-1.9162 -4.2528,-4.28 z"
     fill="#8b3e2a"
     id="path34" />
  <path
     d="m 67.420392,124.16136 c 0,-4.8023 3.8682,-8.6952 8.6399,-8.6952 h 28.560998 c 4.7717,0 8.6399,3.8929 8.6399,8.6952 0,4.8022 -3.8682,8.6952 -8.6399,8.6952 H 76.060292 c -4.7717,0 -8.6399,-3.893 -8.6399,-8.6952 z"
     fill="#122322"
     id="path36" />
  <path
     d="m 77.448092,114.24966 c 0,-5.6233 4.5296,-10.1819 10.1172,-10.1819 h 5.4615 c 5.587601,0 10.117198,4.5586 10.117198,10.1819 v 8.5601 c 0,5.6233 -4.529597,10.1819 -10.117198,10.1819 h -5.4615 c -5.5876,0 -10.1172,-4.5586 -10.1172,-10.1819 z"
     fill="#9b4832"
     id="path38" />
  <path
     d="m 92.829792,122.36346 c 0.6909,0.2469 1.0435,1.0728 0.6397,1.6886 -0.2398,0.3656 -0.4049,0.4563 -0.8169,0.7503 -0.6841,0.4883 -1.5013,0.7521 -2.3399,0.7556 -0.8387,0.003 -1.658,-0.2537 -2.3461,-0.7364 -0.4028,-0.2826 -0.625,-0.5224 -0.8703,-0.8974 -0.3556,-0.5436 -0.0872,-1.2794 0.5138,-1.5199 l 0.2795,-0.0935 c 0.5122,-0.1713 1.059,0.143 1.5018,0.4536 0.2672,0.1874 0.5854,0.2873 0.9111,0.286 0.3257,-0.001 0.6431,-0.1038 0.9087,-0.2935 0.4463,-0.3185 0.9706,-0.6249 1.4862,-0.4407 z"
     fill="#c05c4b"
     id="path40" />
  <path
     d="m 71.896992,119.79116 c 0,-2.4384 1.9642,-4.41509 4.3872,-4.41509 h 1.1639 l 0.3133,8.83029 h -1.4772 c -2.423,0 -4.3872,-1.9767 -4.3872,-4.4152 z"
     fill="#9b4832"
     id="path42" />
  <path
     d="m 108.69509,119.79116 c 0,-2.4384 -1.9642,-4.41509 -4.3872,-4.41509 h -1.1639 l -0.4029,8.83029 h 1.5668 c 2.423,0 4.3872,-1.9767 4.3872,-4.4152 z"
     fill="#9b4832"
     id="path44" />
  <path
     d="m 77.448092,114.42986 c 0,-5.77259 4.6498,-10.45219 10.3858,-10.45219 h 2.5069 v 7.83919 c 0,0 -6.6254,4.2217 -9.0876,3.7844 -3.8051,-0.6758 -3.8051,0.81101 -3.8051,0.81101 z"
     fill="#122322"
     id="path46" />
  <path
     d="m 103.23349,114.47496 c 0,-5.77259 -4.649797,-10.4523 -10.385798,-10.4523 h -2.5069 v 7.8392 c 0,0 6.625401,4.2218 9.087601,3.7845 3.805097,-0.6758 3.805097,0.8109 3.805097,0.8109 z"
     fill="#122322"
     id="path48" />
</svg>
