<?xml version="1.0" encoding="UTF-8" standalone="no"?>
<svg
   width="328"
   height="122"
   viewBox="0 0 328 122"
   fill="none"
   version="1.1"
   id="svg88"
   xmlns="http://www.w3.org/2000/svg"
   xmlns:svg="http://www.w3.org/2000/svg">
  <g
     id="g1846"
     clip-path="url(#clipPath2089)">
    <rect
       width="328"
       height="190"
       rx="10"
       fill="#001833"
       id="rect2"
       x="0"
       y="0" />
    <path
       d="m 259.8,190 c 0,0 12.835,-24.859 21.537,-54.222 11.166,-37.6286 14.163,-91.9487 -19.371,-108.0932 -28.399,-13.6777 -61.484,9.5695 -61.484,9.5695 0,0 -37.513,-28.03932 -76.542,-5.4662 -35.9484,20.7925 -16.059,66.9426 -16.059,66.9426 0,0 -19.5653,9.6183 -23.2717,33.7913 -5.0029,32.624 22.4487,57.366 22.4487,57.366 z"
       fill="#001e3f"
       id="path4" />
    <path
       d="m 308.8,126 c 0,0 12.835,-24.859 21.537,-54.2223 11.166,-37.6284 14.163,-91.9484 -19.371,-108.0929 -28.399,-13.6777 -61.484,9.5695 -61.484,9.5695 0,0 -37.513,-28.0393 -76.542,-5.4662 -35.948,20.7925 -16.059,66.9426 -16.059,66.9426 0,0 -19.565,9.6183 -23.272,33.7912 -5.003,32.6241 22.449,57.3661 22.449,57.3661 z"
       fill="#00244b"
       id="path6"
       clip-path="url(#clipPath1952)" />
    <path
       d="m 323.8,172 c 0,0 12.835,-24.859 21.537,-54.222 C 356.503,80.1493 359.5,25.8293 325.966,9.68477 297.567,-3.99294 264.482,19.2543 264.482,19.2543 c 0,0 -37.513,-28.03932 -76.542,-5.4662 -35.948,20.7925 -16.059,66.9426 -16.059,66.9426 0,0 -19.565,9.6183 -23.272,33.7913 -5.003,32.624 22.449,57.366 22.449,57.366 z"
       fill="#002a57"
       id="path8" />
    <g
       filter="url(#filter0_b_399_14239)"
       id="g12"
       transform="matrix(1,0,0,1.0000515,0,-0.00628285)">
      <path
         d="m 0,122 h 328 v 52 c 0,5.601 0,8.401 -1.09,10.54 -0.959,1.882 -2.488,3.411 -4.37,4.37 C 320.401,190 317.601,190 312,190 H 16 C 10.3995,190 7.59921,190 5.46009,188.91 3.57847,187.951 2.04867,186.422 1.08993,184.54 0,182.401 0,179.601 0,174 Z"
         fill="#ffffff"
         id="path10" />
    </g>
    <path
       d="M 191,39.0112 H 312 V 89.573 C 312,94.2271 308.251,98 303.626,98 H 199.374 C 194.749,98 191,94.2271 191,89.573 Z"
       fill="#c8e0ff"
       id="path24" />
    <path
       d="M 191,31.427 C 191,26.7729 194.749,23 199.374,23 h 104.252 c 4.625,0 8.374,3.7729 8.374,8.427 v 7.5842 H 191 Z"
       fill="#75a3d6"
       id="path26" />
    <path
       d="m 197.699,46.5955 c 0,-0.4654 0.375,-0.8427 0.837,-0.8427 h 34.751 c 0.463,0 0.838,0.3773 0.838,0.8427 v 40.0281 c 0,0.4654 -0.375,0.8427 -0.838,0.8427 h -34.751 c -0.462,0 -0.837,-0.3773 -0.837,-0.8427 z"
       fill="#7fb0e8"
       id="path28" />
    <path
       d="m 239.149,46.1742 c 0,-0.2327 0.187,-0.4214 0.418,-0.4214 h 48.149 c 0.231,0 0.419,0.1887 0.419,0.4214 v 2.528 c 0,0.2327 -0.188,0.4214 -0.419,0.4214 h -48.149 c -0.231,0 -0.418,-0.1887 -0.418,-0.4214 z"
       fill="#82addd"
       id="path30" />
    <path
       d="m 239.149,52.9157 c 0,-0.2327 0.187,-0.4213 0.418,-0.4213 h 48.149 c 0.231,0 0.419,0.1886 0.419,0.4213 v 2.5281 c 0,0.2327 -0.188,0.4214 -0.419,0.4214 h -48.149 c -0.231,0 -0.418,-0.1887 -0.418,-0.4214 z"
       fill="#82addd"
       id="path32" />
    <path
       d="m 239.149,59.6573 c 0,-0.2327 0.187,-0.4213 0.418,-0.4213 h 41.032 c 0.231,0 0.418,0.1886 0.418,0.4213 v 2.1067 c 0,0.2327 -0.187,0.4214 -0.418,0.4214 h -41.032 c -0.231,0 -0.418,-0.1887 -0.418,-0.4214 z"
       fill="#82addd"
       id="path34" />
    <path
       d="m 239.149,72.7191 c 0,-0.2327 0.187,-0.4213 0.418,-0.4213 h 41.032 c 0.231,0 0.418,0.1886 0.418,0.4213 v 2.1067 c 0,0.2327 -0.187,0.4214 -0.418,0.4214 h -41.032 c -0.231,0 -0.418,-0.1887 -0.418,-0.4214 z"
       fill="#82addd"
       id="path36" />
    <path
       d="m 239.149,77.3539 c 0,-0.2327 0.187,-0.4213 0.418,-0.4213 h 41.032 c 0.231,0 0.418,0.1886 0.418,0.4213 v 2.1068 c 0,0.2327 -0.187,0.4213 -0.418,0.4213 h -41.032 c -0.231,0 -0.418,-0.1886 -0.418,-0.4213 z"
       fill="#82addd"
       id="path38" />
    <path
       d="m 239.149,81.9888 c 0,-0.2327 0.187,-0.4214 0.418,-0.4214 h 41.032 c 0.231,0 0.418,0.1887 0.418,0.4214 v 2.1067 c 0,0.2327 -0.187,0.4214 -0.418,0.4214 h -41.032 c -0.231,0 -0.418,-0.1887 -0.418,-0.4214 z"
       fill="#82addd"
       id="path40" />
    <path
       d="m 239.149,64.2921 c 0,-0.2327 0.187,-0.4213 0.418,-0.4213 h 41.032 c 0.231,0 0.418,0.1886 0.418,0.4213 v 0.8427 c 0,0.2327 -0.187,0.4214 -0.418,0.4214 h -41.032 c -0.231,0 -0.418,-0.1887 -0.418,-0.4214 z"
       fill="#82addd"
       id="path42" />
    <path
       d="m 239.149,67.6629 c 0,-0.2327 0.187,-0.4213 0.418,-0.4213 h 15.492 c 0.231,0 0.419,0.1886 0.419,0.4213 v 0.8427 c 0,0.2327 -0.188,0.4214 -0.419,0.4214 h -15.492 c -0.231,0 -0.418,-0.1887 -0.418,-0.4214 z"
       fill="#82addd"
       id="path44" />
    <path
       d="m 257.152,67.6629 c 0,-0.2327 0.188,-0.4213 0.419,-0.4213 h 15.491 c 0.232,0 0.419,0.1886 0.419,0.4213 v 0.8427 c 0,0.2327 -0.187,0.4214 -0.419,0.4214 h -15.491 c -0.231,0 -0.419,-0.1887 -0.419,-0.4214 z"
       fill="#82addd"
       id="path46" />
    <path
       d="m 205.078,86.4228 c 0,-4.8482 3.872,-8.7784 8.649,-8.7784 h 4.426 c 4.777,0 8.649,3.9302 8.649,8.7784 0,0.5605 -0.448,1.0149 -1,1.0149 h -19.724 c -0.552,0 -1,-0.4544 -1,-1.0149 z"
       fill="#004a9e"
       id="path48" />
    <path
       d="m 209.592,79.3339 h 12.639 V 86.55 c 0,0.506 -0.404,0.9163 -0.902,0.9163 h -10.834 c -0.499,0 -0.903,-0.4103 -0.903,-0.9163 z"
       fill="#f5faff"
       id="path50" />
    <path
       d="m 215.912,77.0717 c 0,0 5.388,0.4295 6.094,1.4604 0.494,0.7231 0.059,1.9957 -0.596,3.3335 -0.525,1.0738 -1.625,1.7245 -2.806,1.7541 l -0.379,0.0095 -0.827,-0.0205 c -0.827,-0.0205 -1.486,-0.7065 -1.486,-1.5459 z"
       fill="#4191ed"
       id="path52" />
    <path
       d="m 215.899,77.0717 c 0,0 -5.388,0.4295 -6.093,1.4604 -0.495,0.7231 -0.06,1.9957 0.595,3.3335 0.525,1.0738 1.625,1.7245 2.806,1.7541 l 0.379,0.0095 0.827,-0.0205 c 0.827,-0.0205 1.486,-0.7065 1.486,-1.5459 z"
       fill="#4191ed"
       id="path54" />
    <path
       d="m 213.26,76.0408 h 5.36 v 3.9803 c 0,1.5024 -1.2,2.7204 -2.68,2.7204 -1.48,0 -2.68,-1.218 -2.68,-2.7204 z"
       fill="#8b3e2a"
       id="path56" />
    <path
       d="m 201.467,70.8005 c 0,-3.0522 2.438,-5.5266 5.445,-5.5266 h 17.999 c 3.008,0 5.445,2.4744 5.445,5.5266 0,3.0523 -2.437,5.5266 -5.445,5.5266 h -17.999 c -3.007,0 -5.445,-2.4743 -5.445,-5.5266 z"
       fill="#122322"
       id="path58" />
    <path
       d="m 207.787,64.5008 c 0,-3.5742 2.854,-6.4716 6.376,-6.4716 h 3.441 c 3.522,0 6.376,2.8974 6.376,6.4716 v 5.4407 c 0,3.5741 -2.854,6.4716 -6.376,6.4716 h -3.441 c -3.522,0 -6.376,-2.8975 -6.376,-6.4716 z"
       fill="#9b4832"
       id="path60" />
    <path
       d="m 217.48,69.6578 c 0.436,0.1569 0.658,0.6819 0.403,1.0733 -0.151,0.2323 -0.255,0.29 -0.514,0.4769 -0.431,0.3103 -0.946,0.478 -1.475,0.4802 -0.529,0.0022 -1.045,-0.1613 -1.478,-0.468 -0.254,-0.1796 -0.394,-0.332 -0.549,-0.5704 -0.224,-0.3456 -0.055,-0.8132 0.324,-0.966 l 0.176,-0.0595 c 0.323,-0.1089 0.667,0.0909 0.946,0.2883 0.169,0.1192 0.369,0.1826 0.575,0.1818 0.205,-9e-4 0.405,-0.066 0.572,-0.1865 0.282,-0.2025 0.612,-0.3972 0.937,-0.2801 z"
       fill="#c05c4b"
       id="path62" />
    <path
       d="m 204.288,68.0229 c 0,-1.5498 1.238,-2.8063 2.765,-2.8063 h 0.734 l 0.197,5.6126 h -0.931 c -1.527,0 -2.765,-1.2564 -2.765,-2.8063 z"
       fill="#9b4832"
       id="path64" />
    <path
       d="m 227.479,68.0229 c 0,-1.5498 -1.238,-2.8063 -2.765,-2.8063 h -0.734 l -0.253,5.6126 h 0.987 c 1.527,0 2.765,-1.2564 2.765,-2.8063 z"
       fill="#9b4832"
       id="path66" />
    <path
       d="m 207.787,64.6153 c 0,-3.669 2.93,-6.6434 6.545,-6.6434 h 1.58 v 4.9826 c 0,0 -4.176,2.6833 -5.727,2.4053 -2.398,-0.4295 -2.398,0.5155 -2.398,0.5155 z"
       fill="#122322"
       id="path68" />
    <path
       d="m 224.037,64.6439 c 0,-3.669 -2.931,-6.6434 -6.545,-6.6434 h -1.58 v 4.9826 c 0,0 4.175,2.6833 5.727,2.4054 2.398,-0.4296 2.398,0.5154 2.398,0.5154 z"
       fill="#122322"
       id="path70" />
  </g>
  <defs
     id="defs86">
    <filter
       id="filter0_b_399_14239"
       x="-4"
       y="118"
       width="336"
       height="76"
       filterUnits="userSpaceOnUse"
       color-interpolation-filters="sRGB">
      <feFlood
         flood-opacity="0"
         result="BackgroundImageFix"
         id="feFlood74" />
      <feGaussianBlur
         in="BackgroundImage"
         stdDeviation="2"
         id="feGaussianBlur76" />
      <feComposite
         in2="SourceAlpha"
         operator="in"
         result="effect1_backgroundBlur_399_14239"
         id="feComposite78" />
      <feBlend
         mode="normal"
         in="SourceGraphic"
         in2="effect1_backgroundBlur_399_14239"
         result="shape"
         id="feBlend80" />
    </filter>
    <clipPath
       id="clip0_399_14239">
      <path
         d="M 0,12 C 0,5.37259 5.37258,0 12,0 h 304 c 6.627,0 12,5.37258 12,12 v 166 c 0,6.627 -5.373,12 -12,12 H 12 C 5.37259,190 0,184.627 0,178 Z"
         fill="#ffffff"
         id="path83" />
    </clipPath>
    <clipPath
       clipPathUnits="userSpaceOnUse"
       id="clipPath1952">
      <rect
         style="fill:none;stroke:#000000"
         id="rect1954"
         width="328"
         height="122"
         x="0"
         y="0" />
    </clipPath>
    <clipPath
       clipPathUnits="userSpaceOnUse"
       id="clipPath2089">
      <rect
         style="fill:none;stroke:#000000"
         id="rect2091"
         width="328"
         height="122"
         x="0"
         y="0" />
    </clipPath>
  </defs>
</svg>
