<?xml version="1.0" encoding="UTF-8" standalone="no"?>
<svg
   xmlns:dc="http://purl.org/dc/elements/1.1/"
   xmlns:cc="http://creativecommons.org/ns#"
   xmlns:rdf="http://www.w3.org/1999/02/22-rdf-syntax-ns#"
   xmlns:svg="http://www.w3.org/2000/svg"
   xmlns="http://www.w3.org/2000/svg"
   width="423.33334mm"
   height="119.0625mm"
   viewBox="0 0 423.33334 119.0625"
   version="1.1"
   id="svg8">
  <defs
     id="defs2" />
  <metadata
     id="metadata5">
    <rdf:RDF>
      <cc:Work
         rdf:about="">
        <dc:format>image/svg+xml</dc:format>
        <dc:type
           rdf:resource="http://purl.org/dc/dcmitype/StillImage" />
        <dc:title></dc:title>
      </cc:Work>
    </rdf:RDF>
  </metadata>
  <g
     id="layer1"
     transform="translate(44.990135,-66.347992)">
    <path
       style="fill:#02a1ff;stroke:none;stroke-width:0.264583"
       d="M -11.74607,88.173605 V 151.6736 h 7.6729157 v -19.31458 c 0,-4.04045 -0.353748,-8.14044 1.4083771,-11.90625 6.3727544,-13.61943 26.3379492,-14.30814 33.9259352,-1.5875 2.932641,4.91622 2.765689,9.82636 2.765689,15.34583 v 17.4625 h 7.672917 v -18.25625 c 0,-6.11372 0.07435,-11.76549 -2.496608,-17.4625 -7.503319,-16.62747 -31.0515018,-18.048547 -43.2763103,-6.35 V 88.173605 H -11.74607 M 348.08728,146.9111 v 15.08125 l 0.42333,5.01968 6.985,0.27199 v -30.42708 c 0,-7.5229 0.39952,-14.75661 -3.72004,-21.43125 -11.10721,-17.99405 -39.21125,-14.87514 -45.92902,5.29166 -0.92604,2.78527 -1.15094,5.55731 -1.15094,8.46667 0,22.2713 27.78919,33.20018 43.39167,17.72708 m -133.61459,-0.79375 v 5.82084 h 6.87917 c 0,-8.14176 0.53234,-16.48513 -0.0236,-24.60625 -1.524,-22.25411 -31.55526,-31.389904 -44.33173,-12.43542 -9.29852,13.79458 -2.26377,33.92091 14.45736,37.56686 9.15062,1.99523 15.66254,-1.48087 23.01875,-6.34603 M 50.166431,105.6361 c 0,9.73932 -1.906323,21.67097 2.449512,30.69167 8.816182,18.25678 35.117882,20.86636 46.625673,3.70417 6.656134,-9.92691 4.635234,-23.05685 4.635234,-34.39584 h -7.672919 c 0,9.0895 2.078303,21.0357 -2.927879,29.10417 -8.009996,12.91034 -27.418506,11.86312 -33.766654,-2.11667 -3.523986,-7.76076 -1.67005,-18.64227 -1.67005,-26.9875 h -7.672917 m 62.177099,0 v 46.0375 h 7.14375 v -37.04166 l 9.525,9.50118 5.54884,5.58007 0.27199,6.61458 v 15.34583 h 7.14375 v -15.34583 l 0.27199,-6.61458 4.49051,-4.7625 10.58333,-10.31875 v 37.04166 h 7.14375 v -46.0375 l -8.99583,0.15955 -5.02708,4.60295 -11.90625,12.43542 -11.90625,-12.17083 -5.29167,-4.86754 -8.99583,-0.15955 m 116.94583,0 0.26458,45.77292 h 6.87917 v -35.71875 l 9.26042,8.70744 16.40417,15.63423 7.67291,7.40833 4.49792,3.98515 7.40833,0.24818 v -46.0375 h -7.14375 v 35.98334 l -8.46666,-7.91369 -17.19792,-16.42798 -7.9375,-7.67292 -4.49792,-3.8092 -7.14375,-0.15955 m 60.85417,0.26459 v 46.0375 h 7.14375 v -46.0375 h -7.14375 m 38.1,4.83817 c 18.81187,-2.31008 27.16477,23.8424 11.37708,33.57536 -2.14577,1.32265 -4.64079,2.19498 -7.14375,2.52042 -18.87802,2.45322 -28.18341,-23.04653 -12.17083,-33.34094 2.41829,-1.55496 5.09323,-2.40533 7.9375,-2.75484 m -133.08542,0.79375 c 17.86943,-2.19446 26.2554,22.50784 11.1125,31.92145 -2.26986,1.41128 -4.75959,2.26218 -7.40833,2.58762 -17.79905,2.18599 -26.20116,-22.53694 -11.1125,-31.92145 2.26933,-1.41155 4.75985,-2.26219 7.40833,-2.58762 z"
       id="path901" />
    <path
       style="fill:#000000;stroke-width:0.264583"
       id="path899"
       d="" />
  </g>
</svg>
