<?xml version="1.0" encoding="UTF-8" standalone="no"?>
<svg
   width="423.33334mm"
   height="423mm"
   viewBox="0 0 423.33334 423"
   version="1.1"
   id="svg8"
   xmlns="http://www.w3.org/2000/svg"
   xmlns:svg="http://www.w3.org/2000/svg">
  <defs
     id="defs10" />
  <g
     id="layer1"
     transform="matrix(0.49851471,0,0,0.52548255,107.44139,2.0128885)">
    <path
       style="fill:#0066da;fill-opacity:1;stroke:none;stroke-width:0.264583"
       d="m 26.089359,91.340787 v 63.499993 h 7.672916 V 135.5262 c 0,-4.04045 -0.353748,-8.14044 1.408377,-11.90625 6.372754,-13.61943 26.337949,-14.30814 33.925935,-1.5875 2.932641,4.91622 2.765689,9.82636 2.765689,15.34583 v 17.4625 h 7.672917 v -18.25625 c 0,-6.11372 0.07435,-11.76549 -2.496608,-17.4625 -7.503319,-16.62747 -31.051502,-18.04854 -43.27631,-6.35 V 91.340787 H 26.089359 M 385.92271,150.07828 v 15.08125 l 0.42333,5.01968 6.985,0.27199 v -30.42708 c 0,-7.5229 0.39952,-14.75661 -3.72004,-21.43125 -11.10721,-17.99405 -39.21125,-14.87514 -45.92902,5.29166 -0.92604,2.78527 -1.15094,5.55731 -1.15094,8.46667 0,22.2713 27.78919,33.20018 43.39167,17.72708 m -133.61459,-0.79375 v 5.82084 h 6.87917 c 0,-8.14176 0.53234,-16.48513 -0.0236,-24.60625 -1.524,-22.25411 -31.55526,-31.389902 -44.33173,-12.43542 -9.29852,13.79458 -2.26377,33.92091 14.45736,37.56686 9.15062,1.99523 15.66254,-1.48087 23.01875,-6.34603 M 88.00186,108.80328 c 0,9.73932 -1.906323,21.67097 2.449512,30.69167 8.816182,18.25678 35.117878,20.86636 46.625678,3.70417 6.65613,-9.92691 4.63523,-23.05685 4.63523,-34.39584 h -7.67292 c 0,9.0895 2.0783,21.0357 -2.92788,29.10417 -8.00999,12.91034 -27.4185,11.86312 -33.766653,-2.11667 -3.523986,-7.76076 -1.67005,-18.64227 -1.67005,-26.9875 H 88.00186 m 62.1771,0 v 46.0375 h 7.14375 v -37.04166 l 9.525,9.50118 5.54884,5.58007 0.27199,6.61458 v 15.34583 h 7.14375 v -15.34583 l 0.27199,-6.61458 4.49051,-4.7625 10.58333,-10.31875 v 37.04166 h 7.14375 v -46.0375 l -8.99583,0.15955 -5.02708,4.60295 -11.90625,12.43542 -11.90625,-12.17083 -5.29167,-4.86754 -8.99583,-0.15955 m 116.94583,0 0.26458,45.77292 h 6.87917 v -35.71875 l 9.26042,8.70744 16.40417,15.63423 7.67291,7.40833 4.49792,3.98515 7.40833,0.24818 v -46.0375 h -7.14375 v 35.98334 l -8.46666,-7.91369 -17.19792,-16.42798 -7.9375,-7.67292 -4.49792,-3.8092 -7.14375,-0.15955 m 60.85417,0.26459 v 46.0375 h 7.14375 v -46.0375 h -7.14375 m 38.1,4.83817 c 18.81187,-2.31008 27.16477,23.8424 11.37708,33.57536 -2.14577,1.32265 -4.64079,2.19498 -7.14375,2.52042 -18.87802,2.45322 -28.18341,-23.04653 -12.17083,-33.34094 2.41829,-1.55496 5.09323,-2.40533 7.9375,-2.75484 m -133.08542,0.79375 c 17.86943,-2.19446 26.2554,22.50784 11.1125,31.92145 -2.26986,1.41128 -4.75959,2.26218 -7.40833,2.58762 -17.79905,2.18599 -26.20116,-22.53694 -11.1125,-31.92145 2.26933,-1.41155 4.75985,-2.26219 7.40833,-2.58762 z"
       id="path901" />
    <path
       style="fill:#000000;stroke-width:0.264583"
       id="path899"
       d="" />
  </g>
  <path
     id="path901-4"
     style="color:#000000;fill:#0066da;stroke-width:1.12169;-inkscape-stroke:none;fill-opacity:1"
     d="m 213.94026,109.76983 c -44.43338,-0.71134 -89.141,24.51371 -105.16088,72.60547 -3.92592,11.80807 -4.8789,23.56 -4.8789,35.89418 0,94.41837 117.81132,140.75103 183.95749,75.15335 v 63.93644 l 4.06703,22.36843 27.34035,0.0654 V 250.79851 c 0,-31.89308 1.69306,-62.56014 -15.77154,-90.85705 -20.60135,-33.37472 -54.99436,-49.61836 -89.55355,-50.17163 z m -2.86347,29.73142 c 74.52053,-2.3615 105.72678,102.93965 40.88703,142.91278 -9.09692,5.60734 -19.67449,9.30486 -30.28569,10.68457 -80.03274,10.40033 -119.48265,-97.70576 -51.59781,-141.34854 10.25225,-6.59221 21.59256,-10.19745 33.65074,-11.67919 2.49227,-0.30608 4.94184,-0.49342 7.34573,-0.56962 z" />
  <path
     style="fill:#000000;stroke-width:0.264583"
     id="path899-9"
     d="" />
</svg>
