<svg width="221" height="183" viewBox="0 0 221 183" fill="none" xmlns="http://www.w3.org/2000/svg">
<g clip-path="url(#clip0_20_363)">
<path d="M189.524 180.05C189.524 180.05 203.361 153.248 212.743 121.59C224.78 81.0215 228.012 22.4565 191.86 5.05024C161.244 -9.69636 125.576 15.3676 125.576 15.3676C125.576 15.3676 85.1339 -14.8629 43.0581 9.47421C4.30308 31.8917 25.7455 81.6483 25.7455 81.6483C25.7455 81.6483 4.65248 92.0183 0.656651 118.08C-4.7368 153.254 24.8575 179.929 24.8575 179.929L189.524 180.05Z" fill="#F5FAFF"/>
<path d="M11.5015 183H201.741C202.263 183 202.764 182.792 203.134 182.422C203.503 182.051 203.711 181.549 203.711 181.025V180.554C203.711 180.03 203.503 179.527 203.134 179.157C202.764 178.787 202.263 178.579 201.741 178.579H11.5015C10.9789 178.579 10.4777 178.787 10.1082 179.157C9.73873 179.527 9.53114 180.03 9.53114 180.554V181.025C9.53114 181.549 9.73873 182.051 10.1082 182.422C10.4777 182.792 10.9789 183 11.5015 183Z" fill="#001833"/>
<path d="M39.7219 178.644H105.329C107.813 178.644 110.196 177.655 111.953 175.894C113.71 174.133 114.697 171.745 114.697 169.254V28.0291C114.697 25.5386 113.71 23.1501 111.953 21.389C110.196 19.628 107.813 18.6386 105.329 18.6386H39.7219C37.2372 18.6386 34.8544 19.628 33.0975 21.389C31.3406 23.1501 30.3536 25.5386 30.3536 28.0291V169.254C30.3532 170.487 30.5953 171.709 31.066 172.848C31.5367 173.987 32.2267 175.023 33.0967 175.895C33.9667 176.767 34.9996 177.459 36.1364 177.93C37.2731 178.402 38.4915 178.645 39.7219 178.644Z" fill="#001833"/>
<path d="M109.992 159.448V29.5669C109.988 27.9617 109.35 26.4232 108.218 25.2881C107.086 24.153 105.551 23.5138 103.949 23.5103H41.1089C39.5052 23.5103 37.967 24.148 36.8317 25.2834C35.6965 26.4189 35.0569 27.9594 35.0535 29.5669V159.442C35.0569 161.05 35.6965 162.59 36.8317 163.726C37.967 164.861 39.5052 165.499 41.1089 165.499H103.934C104.728 165.501 105.515 165.346 106.249 165.043C106.984 164.74 107.652 164.295 108.214 163.732C108.777 163.17 109.224 162.503 109.529 161.767C109.834 161.032 109.991 160.244 109.992 159.448Z" fill="#F5FAFF"/>
<path d="M92.8051 68.253C92.8051 68.253 81.7713 66.5809 72.1797 66.228C62.6092 66.228 51.5543 68.253 51.5543 68.253C51.5543 77.388 43.0609 77.5486 43.0609 77.5486C43.0609 77.5486 44.5426 100.785 48.8589 112.464C53.1752 124.143 72.1797 131.052 72.1797 131.052C72.1797 131.052 91.1868 124.14 95.5006 112.464C99.8143 100.788 101.306 77.5486 101.306 77.5486C101.306 77.5486 92.8051 77.388 92.8051 68.253Z" fill="#0066DA"/>
<path d="M72.1797 125.802C65.3493 122.823 56.3567 117.409 53.9844 110.984C50.9422 102.747 49.3528 87.9871 48.7302 81.0615C52.5211 79.4578 55.3505 76.4374 56.4329 72.3162C60.2973 71.7553 66.4894 70.9996 72.0562 70.9996C77.7334 71.2155 83.9912 71.916 87.9266 72.4163C88.9512 76.203 91.5599 79.3551 95.603 81.0668C94.9935 87.995 93.4015 102.763 90.3645 110.989C88.0028 117.404 79.0155 122.821 72.1797 125.802Z" fill="#F5FAFF"/>
<path d="M80.0926 90.4993V88.0266C80.0926 85.9231 79.2589 83.9056 77.775 82.4182C76.291 80.9307 74.2783 80.0951 72.1797 80.0951C70.0811 80.0951 68.0685 80.9307 66.5845 82.4182C65.1006 83.9056 64.2669 85.9231 64.2669 88.0266V90.5099C63.5938 90.8841 63.0329 91.4322 62.6425 92.0972C62.2522 92.7621 62.0465 93.5198 62.047 94.2913V103.508C62.0498 104.654 62.5062 105.752 63.316 106.56C64.1258 107.369 65.2228 107.823 66.3659 107.821H78.0067C79.1507 107.821 80.2479 107.366 81.0569 106.555C81.8659 105.744 82.3204 104.644 82.3204 103.497V94.2808C82.3187 93.5087 82.1113 92.7511 81.7196 92.0863C81.3279 91.4215 80.7662 90.8736 80.0926 90.4993ZM66.3659 89.9569H66.3003V88.0266C66.3003 86.4615 66.9205 84.9605 68.0246 83.8538C69.1287 82.7471 70.6262 82.1254 72.1876 82.1254C73.749 82.1254 75.2465 82.7471 76.3506 83.8538C77.4547 84.9605 78.075 86.4615 78.075 88.0266V89.9674H66.3659V89.9569Z" fill="#0066DA"/>
<path d="M74.2473 96.7798C74.2477 96.4011 74.1444 96.0296 73.9485 95.7058C73.7527 95.3819 73.4718 95.1183 73.1367 94.9435C72.8015 94.7688 72.4249 94.6896 72.048 94.7148C71.671 94.74 71.3082 94.8684 70.9991 95.0862C70.69 95.3039 70.4466 95.6026 70.2953 95.9496C70.144 96.2966 70.0907 96.6786 70.1412 97.0539C70.1918 97.4292 70.3442 97.7833 70.5818 98.0777C70.8194 98.3721 71.1332 98.5954 71.4888 98.7232L70.438 103.068H73.9136L72.8628 98.7232C73.266 98.583 73.6158 98.3207 73.8638 97.9725C74.1118 97.6244 74.2458 97.2076 74.2473 96.7798Z" fill="#F5FAFF"/>
<path d="M145.263 59.6631C144.62 61.4564 144.338 61.28 144.262 61.5065C144.173 61.7698 145.221 65.5065 145.221 65.5065C145.221 65.5065 148.242 76.5006 148.426 77.0931L156.045 86.2228L152.49 91.1866C152.49 91.1866 144.472 81.0404 144.147 80.4374C143.821 79.8344 141.52 64.5137 141.257 63.1707C141.257 63.1707 140.356 61.675 139.822 60.7165C139.289 59.7579 139.218 58.6098 139.111 58.328C138.894 57.5615 138.774 56.7705 138.756 55.9739C138.724 54.8389 139.281 55.9027 139.281 55.9027C139.281 55.9027 139.728 58.0094 139.891 57.9357C140.054 57.8619 139.704 56.7559 139.654 55.4998C139.654 55.1759 140.364 55.1206 140.372 55.4656C140.407 55.8118 140.471 56.1544 140.563 56.49C140.609 56.8451 140.678 57.1969 140.768 57.5433C140.8 57.5196 140.91 57.6276 140.907 57.28C140.907 56.8665 140.7 55.9897 140.742 55.384C140.766 55.039 140.773 54.3307 140.773 54.3307C140.773 54.3307 141.504 53.9699 141.409 54.4334C141.47 54.7924 141.492 55.1571 141.475 55.5209C141.475 55.5209 141.769 57.072 142 57.0351C142.098 57.0193 142.032 56.0476 142.124 55.0838C142.208 54.1911 142.951 54.2753 142.951 54.2753C142.951 54.2753 142.922 54.9785 142.933 55.2128C142.943 55.4472 143.041 56.3057 143.041 56.3057C143.041 56.3057 143.429 58.831 143.64 58.7783C143.85 58.7257 144.336 58.465 144.37 58.2806C144.404 58.0963 144.052 57.1746 144.086 56.9903C144.12 56.806 144.404 56.7717 144.641 56.7954C144.877 56.8191 145.3 58.3754 145.3 58.3754C145.381 58.8023 145.368 59.2416 145.263 59.6631Z" fill="#F8A492"/>
<path d="M143.616 58.7968C143.24 58.8441 142.886 58.9976 142.594 59.2392C142.098 59.6447 142.016 60.8745 142.016 60.8745C142.016 60.8745 141.769 59.8396 141.924 59.2734C142.079 58.7073 143.062 58.5334 143.616 58.7968Z" fill="#F47458"/>
<path d="M181.036 52.6585C181.189 52.6439 181.342 52.6439 181.494 52.6585C181.622 52.7612 182.077 53.0904 182.077 53.5538C182.077 54.149 182.248 54.0989 182.248 54.0989L182.613 56.835L182.287 57.7329C181.927 57.2338 181.627 56.6937 181.394 56.1239C180.95 54.802 180.666 52.8349 181.036 52.6585Z" fill="#F7A491"/>
<path d="M193.631 49.2747L132.537 54.8152L131.994 47.7684L128.353 48.0476L128.896 55.097L124.223 55.4577L123.634 47.8L118.942 48.1608L119.533 55.8211L110.388 56.5269L110.775 61.5802L120.962 60.7928L121.782 71.4604L134.613 70.4677L133.793 59.8001L194.043 54.1437L193.631 49.2747Z" fill="#023F85"/>
<path d="M201.136 34.7467C194.724 34.7467 189.527 42.0936 189.527 51.1549C189.527 60.2161 194.724 67.5658 201.136 67.5658C207.549 67.5658 212.746 60.2188 212.746 51.1549C212.746 42.091 207.547 34.7467 201.136 34.7467ZM201.136 60.993C197.293 60.993 194.177 56.5901 194.177 51.1575C194.177 45.725 197.293 41.3221 201.136 41.3221C204.98 41.3221 208.096 45.725 208.096 51.1575C208.096 56.5901 204.977 60.993 201.136 60.993Z" fill="#023F85"/>
<path d="M185.374 51.8474C185.374 51.8474 184.988 50.0779 184.848 49.5828C184.709 49.0877 183.876 48.0423 183.748 48.1924C183.619 48.3425 183.658 48.7796 183.798 49.0166C183.937 49.2536 184.362 50.5756 184.362 50.5756L184.462 52.4189C184.379 51.7765 184.258 51.1398 184.097 50.5124C183.857 49.9933 183.58 49.4925 183.267 49.014L182.529 48.2925C182.503 48.2667 182.471 48.2481 182.436 48.2385C182.402 48.2289 182.365 48.2286 182.33 48.2377C182.295 48.2467 182.263 48.2648 182.237 48.2901C182.211 48.3154 182.192 48.3471 182.182 48.382C182.172 48.4351 182.172 48.4896 182.182 48.5426C182.259 48.8755 182.419 49.1834 182.647 49.4379C182.927 49.8642 183.151 50.3254 183.312 50.8099C183.425 51.2181 183.54 52.519 183.451 52.519C183.361 52.519 183.227 51.3734 183.08 51.0153C182.859 50.608 182.587 50.2302 182.271 49.8909C182.035 49.6276 181.339 49.0219 181.042 49.0219C180.745 49.0219 181.499 50.0252 181.567 50.1147C181.635 50.2043 182.25 51.1681 182.25 51.1681C182.25 51.1681 182.579 52.5979 182.4 52.5979C182.221 52.5979 180.653 49.7882 180.561 50.2727C180.469 50.7573 181.444 52.3978 181.541 52.7165C181.612 52.9456 181.924 55.4261 182.106 57.0693C182.161 57.5828 182.497 57.962 182.434 58.2306C182.171 59.3629 178.567 74.4124 178.567 74.4124C178.567 74.4124 175.564 78.7969 174.703 79.9424C173.841 81.0879 171.789 84.1741 171.789 84.1741L176.844 87.1945L184.06 75.3446C184.06 75.3446 185.587 56.5874 185.616 56.5769L185.374 51.8474Z" fill="#F7A491"/>
<path d="M134.7 153.254C134.408 155.186 134.254 157.136 134.237 159.089C134.237 159.329 134.334 160.43 134.348 160.585C131.891 161.844 130.407 161.957 127.78 162.558C128.431 161.37 129.721 161.457 129.881 160.956C130.089 160.353 129.96 157.997 129.48 154.147C131.318 154.581 132.913 153.712 134.7 153.254Z" fill="#F7A491"/>
<path d="M155.643 161.391C156.175 163.112 156.879 164.775 157.745 166.355C157.821 166.486 158.475 166.926 158.556 167.06C156.92 169.236 156.415 172.691 154.353 174.336C154.403 172.988 155.141 170.413 155.06 169.891C154.973 169.259 153.796 167.192 151.626 163.929C153.439 163.553 154.245 162.563 155.643 161.391Z" fill="#F7A491"/>
<path d="M157.264 167.34C157.461 166.729 158.241 166.257 158.84 166.565C159.439 166.874 160.253 167.205 160.863 167.548C161.546 167.932 161.633 168.414 161.625 168.525C161.604 168.846 155.659 178.155 153.281 178.642C152.309 178.842 153.909 171.005 154.928 170.181C155.843 169.441 156.381 170.094 157.264 167.34Z" fill="#001833"/>
<path d="M133.696 159.948C134.29 159.661 135.183 159.872 135.377 160.506C135.572 161.141 135.903 161.931 136.063 162.589C136.257 163.329 135.958 163.724 135.869 163.795C135.606 164.003 123.429 165.57 122.602 165.035C121.774 164.501 128.628 160.18 129.958 160.295C131.137 160.417 131.027 161.233 133.696 159.948Z" fill="#001833"/>
<path d="M154.868 116.1L167.423 120.014L151.694 131.94L136.423 134.71C136.423 134.71 135.251 148.885 135.154 154.526C133.578 155.171 130.688 155.993 129.046 155.798C127.908 147.969 126.737 131.795 128.132 129.317C129.335 127.174 154.868 116.1 154.868 116.1Z" fill="#023F85"/>
<path d="M158.078 117.973C158.73 116.738 158.845 114.244 158.845 114.244L166.879 119.837L169.267 121.235C169.267 121.235 169.756 127.129 166.69 130.657C163.624 134.186 149.172 143.745 149.172 143.745C149.172 143.745 154.295 156.996 156.681 161.96C155.47 163.311 153.42 164.983 151.671 165.602C149.485 162.028 137.666 145.715 138.217 142.094C138.611 139.419 157.427 119.208 158.078 117.973Z" fill="#004A9E"/>
<path d="M172.475 81.9252C172.475 81.9252 167.838 86.5467 165.206 87.6343C164.383 87.9576 163.53 88.1975 162.66 88.3505C160.001 88.5006 153.145 81.9753 153.145 81.9753C153.145 81.9753 149.43 87.0023 149.467 87.7344C149.493 88.3584 153.725 92.6086 153.988 94.1807C154.81 99.0866 153.462 116.324 153.462 116.324C157.117 119.174 169.535 121.591 169.535 121.591C169.535 121.591 172.217 95.0313 172.441 94.839C173.357 94.0491 177.739 87.4657 177.908 86.7047C178.21 85.3407 172.475 81.9252 172.475 81.9252Z" fill="#4191ED"/>
<path d="M161.872 86.0964L161.252 88.6323C161.252 88.6323 161.11 90.839 162.132 91.0392C163.364 91.2788 165.198 89.4302 165.198 89.4302L166.248 82.2808L161.872 86.0964Z" fill="#F7A491"/>
<path d="M166.248 82.3097L161.872 86.0964L161.409 87.9898C163.08 87.5869 165.466 85.7409 166.248 82.3097Z" fill="#F47458"/>
<path d="M161.856 75.7317C161.323 75.7474 160.808 75.928 160.382 76.2485C159.955 76.5691 159.638 77.014 159.473 77.5223C159.053 78.7168 158.733 79.9448 158.52 81.1932C158.057 83.9424 159.618 86.4598 160.979 86.66C162.339 86.8601 165.576 85.9595 166.291 82.0622C166.598 80.3926 167.002 78.2017 165.631 77.0589C164.555 76.208 163.227 75.741 161.856 75.7317Z" fill="#F7A491"/>
<path d="M165.849 85.0326C165.849 85.0326 170.641 80.7534 170.841 77.3959C171.04 74.0385 167.969 72.261 165.324 72.1662C164.247 72.1239 163.168 72.1794 162.1 72.3321C159.473 72.6665 157.75 73.8383 158.351 76.0187C159.161 78.9154 164.638 76.4743 165.757 77.3775C166.682 78.1227 165.182 79.916 166.08 80.6007C166.924 81.2432 166.495 81.0247 166.214 82.2492C166.033 83.1681 165.911 84.0978 165.849 85.0326Z" fill="#001833"/>
<path d="M167.696 81.1537C167.578 81.9437 167.089 82.5467 166.603 82.4703C166.117 82.394 165.815 81.6803 165.941 80.8903C166.067 80.1003 166.548 79.4973 167.034 79.5737C167.52 79.65 167.814 80.3531 167.696 81.1537Z" fill="#F7A491"/>
<path d="M144.344 56.6901C144.344 56.6901 145.353 58.0068 145.353 58.9179C145.319 59.5477 145.139 60.161 144.827 60.7085L142.725 59.1286C143.102 58.9256 143.461 58.6903 143.797 58.4255C144.06 58.1621 143.443 57.2668 143.598 56.8955C143.753 56.5242 144.089 56.3135 144.344 56.6901Z" fill="#F8A492"/>
</g>
<defs>
<clipPath id="clip0_20_363">
<rect width="221" height="183" fill="white"/>
</clipPath>
</defs>
</svg>
