<?xml version="1.0" encoding="UTF-8" standalone="no"?>
<svg
   width="320"
   height="320"
   viewBox="0 0 320 320"
   fill="none"
   version="1.1"
   xmlns="http://www.w3.org/2000/svg"
   xmlns:svg="http://www.w3.org/2000/svg">
  <circle
     cx="124.42382"
     cy="138.42383"
     r="124.42382"
     fill="#edf2f7"
     id="circle2"
     style="stroke-width:2.03973" />
  <mask
     id="mask0_98_4127"
     maskUnits="userSpaceOnUse"
     x="0"
     y="0"
     width="122"
     height="122">
    <circle
       cx="61"
       cy="61"
       r="61"
       fill="#ffffff"
       id="circle4" />
  </mask>
  <g
     mask="url(#mask0_98_4127)"
     id="g7" />
  <path
     fill-rule="evenodd"
     clip-rule="evenodd"
     d="m 63.206486,162.08046 -5.012648,14.69425 c 0,0 -1.676254,4.64244 5.012648,7.02199 6.688902,2.37956 19.745653,6.92715 19.745653,6.92715 v 11.4066 c 0,0 -0.07017,3.99951 4.105782,3.99951 4.176153,0 66.350939,0 66.350939,0 0,0 3.93057,0.24375 3.93057,-3.99951 0,-4.24326 0,-11.4066 0,-11.4066 v -11.71787 l 14.66733,-18.78555 5.75511,0.91319 25.70147,7.01607 c 0,0 5.43814,1.5449 6.96794,-4.78521 1.5298,-6.33012 11.2267,-40.86854 11.2267,-40.86854 l -12.56885,-21.44781 -28.65949,-7.974751 c 0,0 -5.46935,-1.643822 -6.32706,1.179171 -0.8577,2.823197 -22.05544,-12.894592 -22.05544,-12.894592 l -39.58861,-9.828666 -27.613313,11.627304 -24.072339,26.621194 -2.91682,1.22567 -39.141267,10.4208 c 0,0 -3.503285,1.11268 -2.392425,5.53809 1.11088,4.42561 10.690862,40.0455 10.690862,40.0455 0,0 1.110635,3.6807 5.976423,2.27063 4.865991,-1.41007 30.216835,-8.14486 30.216835,-8.14486 z"
     fill="#ffffff"
     id="path9"
     style="stroke-width:2.03973" />
  <path
     fill-rule="evenodd"
     clip-rule="evenodd"
     d="m 192.19768,132.72766 c 3.07246,-1.70563 7.11337,-0.6982 9.02542,2.25044 0.38245,0.58969 0.19439,1.34418 -0.42018,1.68543 -0.61458,0.34105 -1.42272,0.13952 -1.80517,-0.45017 -1.14715,-1.76906 -3.57178,-2.37364 -5.41529,-1.3501 -1.84351,1.02334 -2.40791,3.28724 -1.26056,5.0563 1.14715,1.76906 3.57178,2.37364 5.41529,1.3501 0.61437,-0.34104 1.42252,-0.13952 1.80497,0.45017 0.38245,0.58969 0.19438,1.34419 -0.42019,1.68543 -3.07245,1.70563 -7.11337,0.6982 -9.02542,-2.25044 -1.91225,-2.94843 -0.97152,-6.72133 2.10113,-8.42716 z m 5.00388,16.30176 -9.05051,-2.25655 c -0.70493,-0.17583 -1.1243,-0.92808 -0.93664,-1.68034 0.18745,-0.75205 0.91094,-1.21935 1.61587,-1.04373 l 9.05051,2.25656 c 0.70493,0.17582 1.1243,0.92808 0.93685,1.68033 -0.18765,0.75226 -0.91115,1.21956 -1.61608,1.04373 z"
     fill="#ffffff"
     id="path11"
     style="stroke-width:2.03973" />
  <path
     fill-rule="evenodd"
     clip-rule="evenodd"
     d="m 209.08913,101.04793 -4.18349,14.40114 c 0,0 -1.17264,5.41753 4.18349,6.18243 5.35635,0.76511 12.56885,0.86444 12.56885,0.86444 z"
     fill="#cdd1dd"
     id="path13"
     style="stroke-width:2.03973" />
  <path
     d="m 40.988879,141.07956 -0.01652,-0.0665 c 3.477136,-1.50369 4.837231,-3.76535 4.080285,-6.78477 -0.49178,-1.96161 -1.605067,-3.16403 -3.339861,-3.60727 -1.318281,-0.33778 -3.018604,-0.32574 -5.100765,0.0363 l -0.766737,-3.05777 -2.206177,0.55297 0.747971,2.98393 -2.14111,0.53686 -0.748174,-2.98393 -2.206381,0.55318 0.748174,2.98393 -5.36695,1.34561 0.668625,2.6078 2.876638,-0.72105 c 0.106474,-0.0267 0.217436,-0.0322 0.326154,-0.0159 0.108718,0.0161 0.213152,0.0537 0.307592,0.11035 0.09424,0.0567 0.176641,0.13136 0.242116,0.21989 0.06548,0.0887 0.113206,0.18928 0.139926,0.29617 l 3.929141,15.6721 c 0.05385,0.2158 0.01999,0.44425 -0.09383,0.63496 -0.114021,0.19072 -0.298617,0.3282 -0.513809,0.38245 l -2.890304,0.72472 0.582344,3.28806 5.594585,-1.40253 0.758985,3.02779 2.206381,-0.55318 -0.759189,-3.02778 2.141314,-0.53686 0.759393,3.02901 2.206177,-0.55298 -0.779179,-3.10814 c 2.274509,-0.74798 4.010731,-1.66504 5.208667,-2.75099 1.561621,-1.41007 2.041367,-3.31621 1.439033,-5.71861 -0.823237,-3.28356 -3.501409,-4.64957 -8.034515,-4.09782 z m -8.052873,-6.80231 c 2.741607,-0.68739 7.332846,-1.83842 8.165058,1.48023 0.832008,3.31885 -3.761883,4.47069 -6.501043,5.15747 z m 4.282015,17.07951 -1.729695,-6.89859 c 3.214418,-0.8059 8.59891,-2.15579 9.463349,1.29218 0.86444,3.44796 -4.521888,4.80112 -7.733654,5.60641 z"
     fill="#eaecf1"
     id="path15"
     style="stroke-width:2.03973" />
  <path
     opacity="0.23"
     d="m 207.11263,123.074 -2.94334,10.52707 -9.70281,1.46841 z"
     fill="#8693b0"
     id="path17"
     style="stroke-width:2.03973" />
  <path
     opacity="0.23"
     d="m 204.16929,133.60087 -2.55782,9.15147 -7.14519,-7.68307 z"
     fill="#5c6b8d"
     id="path19"
     style="stroke-width:2.03973" />
  <path
     opacity="0.23"
     d="m 201.08705,144.62747 -1.97303,7.05728 -5.21275,-14.59491 z"
     fill="#8693b0"
     id="path21"
     style="stroke-width:2.03973" />
  <path
     opacity="0.23"
     d="m 207.11263,123.074 -2.94334,10.52707 7.53478,6.28749 z"
     fill="#5c6b8d"
     id="path23"
     style="stroke-width:2.03973" />
  <path
     opacity="0.23"
     d="m 204.16929,133.60107 -2.55762,9.15148 10.0924,-2.86399 z"
     fill="#3d4b72"
     id="path25"
     style="stroke-width:2.03973" />
  <path
     opacity="0.23"
     d="m 201.08726,144.62747 -1.97304,7.05728 12.02485,-9.77584 z"
     fill="#5c6b8d"
     id="path27"
     style="stroke-width:2.03973" />
  <rect
     x="81.589394"
     y="99.668861"
     width="75.470184"
     height="17.473387"
     rx="8.7366934"
     fill="#ffffff"
     id="rect29"
     style="stroke-width:2.03973" />
  <rect
     x="84.563324"
     y="102.27136"
     width="11.896773"
     height="11.896773"
     rx="5.9483972"
     fill="#fd9900"
     fill-opacity="0.2"
     id="rect31"
     style="stroke-width:2.03973" />
  <rect
     x="99.062576"
     y="104.87386"
     width="18.960499"
     height="1.4870971"
     fill="#001833"
     fill-opacity="0.2"
     id="rect33"
     style="stroke-width:2.03973" />
  <rect
     x="99.062576"
     y="110.07865"
     width="13.755646"
     height="1.4870971"
     fill="#001833"
     fill-opacity="0.1"
     id="rect35"
     style="stroke-width:2.03973" />
  <rect
     width="10.781446"
     height="1.4870971"
     transform="scale(-1,1)"
     fill="#001833"
     fill-opacity="0.2"
     id="rect37"
     x="-154.08565"
     y="104.87386"
     style="stroke-width:2.03973" />
  <rect
     width="14.127427"
     height="1.4870971"
     transform="scale(-1,1)"
     fill="#001833"
     fill-opacity="0.1"
     id="rect39"
     x="-154.08565"
     y="110.07865"
     style="stroke-width:2.03973" />
  <rect
     x="81.589394"
     y="122.10594"
     width="75.470184"
     height="17.473387"
     rx="8.7366934"
     fill="#ffffff"
     id="rect41"
     style="stroke-width:2.03973" />
  <rect
     x="84.563324"
     y="124.70844"
     width="11.896773"
     height="11.896773"
     rx="5.9483972"
     fill="#4caf50"
     fill-opacity="0.2"
     id="rect43"
     style="stroke-width:2.03973" />
  <rect
     x="99.062576"
     y="127.31074"
     width="18.960499"
     height="1.4870971"
     fill="#001833"
     fill-opacity="0.2"
     id="rect45"
     style="stroke-width:2.03973" />
  <rect
     x="99.062576"
     y="132.51573"
     width="13.755646"
     height="1.4870971"
     fill="#001833"
     fill-opacity="0.1"
     id="rect47"
     style="stroke-width:2.03973" />
  <rect
     width="10.781446"
     height="1.4870971"
     transform="scale(-1,1)"
     fill="#001833"
     fill-opacity="0.2"
     id="rect49"
     x="-154.08565"
     y="127.31074"
     style="stroke-width:2.03973" />
  <rect
     width="14.127427"
     height="1.4870971"
     transform="scale(-1,1)"
     fill="#001833"
     fill-opacity="0.1"
     id="rect51"
     x="-154.08565"
     y="132.51573"
     style="stroke-width:2.03973" />
  <rect
     x="81.589394"
     y="144.54303"
     width="75.470184"
     height="17.473387"
     rx="8.7366934"
     fill="#ffffff"
     id="rect53"
     style="stroke-width:2.03973" />
  <rect
     x="84.563324"
     y="147.14552"
     width="11.896773"
     height="11.896773"
     rx="5.9483972"
     fill="#4caf50"
     fill-opacity="0.2"
     id="rect55"
     style="stroke-width:2.03973" />
  <rect
     x="99.062576"
     y="149.74782"
     width="18.960499"
     height="1.4870971"
     fill="#001833"
     fill-opacity="0.2"
     id="rect57"
     style="stroke-width:2.03973" />
  <rect
     x="99.062576"
     y="154.95282"
     width="13.755646"
     height="1.4870971"
     fill="#001833"
     fill-opacity="0.1"
     id="rect59"
     style="stroke-width:2.03973" />
  <rect
     width="10.781446"
     height="1.4870971"
     transform="scale(-1,1)"
     fill="#001833"
     fill-opacity="0.2"
     id="rect61"
     x="-154.08565"
     y="149.74782"
     style="stroke-width:2.03973" />
  <rect
     width="14.127427"
     height="1.4870971"
     transform="scale(-1,1)"
     fill="#001833"
     fill-opacity="0.1"
     id="rect63"
     x="-154.08565"
     y="154.95282"
     style="stroke-width:2.03973" />
  <g
     style="mix-blend-mode:soft-light"
     opacity="0.6"
     id="g67"
     transform="matrix(2.0397348,0,0,2.0397348,0,14)">
    <path
       d="m 62.0631,85.094 c 15.6683,0 28.37,-12.4533 28.37,-27.8152 0,-15.3619 -12.7017,-27.8152 -28.37,-27.8152 -15.6683,0 -28.37,12.4533 -28.37,27.8152 0,15.3619 12.7017,27.8152 28.37,27.8152 z"
       fill="#ffffff"
       fill-opacity="0.16"
       id="path65" />
  </g>
  <path
     d="m 261.31246,307.5056 c -6.05597,-0.26109 -13.74169,-0.87097 -18.16995,-1.24628 4.35483,-5.23396 18.16995,-8.76474 18.16995,-8.76474 h 3.89998 c 1.98466,2.72713 3.05144,5.99478 3.04736,9.34607 -1.20956,0.47117 -3.30437,0.82201 -6.94734,0.66495 z"
     fill="#001833"
     id="path69"
     style="stroke-width:2.03973" />
  <path
     d="m 265.87127,291.24891 -0.36307,7.084 c -0.0163,0.37531 -0.16726,0.73431 -0.42427,1.01171 -0.25904,0.27944 -0.60784,0.45894 -0.98723,0.50993 -0.98315,0.14482 -1.9867,0.0632 -2.9311,-0.23661 -0.33451,-0.1081 -0.63027,-0.30392 -0.86076,-0.56296 -0.23049,-0.25905 -0.38551,-0.57317 -0.45079,-0.91176 l -1.26463,-6.89431 z"
     fill="#f7a491"
     id="path71"
     style="stroke-width:2.03973" />
  <path
     d="m 307.50226,291.20404 h 3.2187 c 4.91372,-0.1 7.97944,10.03957 8.98911,13.96198 -0.36511,1.04435 -1.23608,2.02342 -3.15547,2.28655 -3.20034,0.43854 -5.24008,0.35491 -6.67809,-0.34676 -2.64758,-3.41655 -3.95912,-8.42002 -4.58532,-11.34092 -0.22641,-0.89341 -0.13055,-1.83781 0.27332,-2.66798 0.40183,-0.83221 1.08718,-1.50124 1.93775,-1.89287 z"
     fill="#001833"
     id="path73"
     style="stroke-width:2.03973" />
  <path
     d="m 310.30893,284.62997 1.78477,6.96978 c 0.10607,0.41406 0.0653,0.85261 -0.1183,1.2422 -0.18154,0.38958 -0.49362,0.70574 -0.88321,0.89952 -0.99947,0.50381 -2.40688,1.03006 -3.70212,0.87912 -0.29576,-0.0387 -0.5752,-0.15706 -0.80773,-0.34267 -0.23049,-0.18766 -0.40387,-0.43242 -0.50178,-0.70983 l -2.62106,-7.33285 z"
     fill="#f7a491"
     id="path75"
     style="stroke-width:2.03973" />
  <path
     d="m 312.43842,286.64115 c -2.22127,1.92551 -9.45417,2.18864 -9.45417,2.18864 -26.04946,-61.29811 -36.70503,-70.00778 -36.70503,-70.00778 3.76127,23.12243 0.60784,74.35649 0.60784,74.35649 -4.29772,1.86024 -9.82744,0 -9.82744,0 -0.3182,-32.73162 -4.78726,-65.30007 -13.30111,-96.95124 17.60495,-0.38857 26.96733,-6.29442 30.02285,-8.67071 14.66366,23.21177 38.65706,99.0846 38.65706,99.0846 z"
     fill="#004a9e"
     id="path77"
     style="stroke-width:2.03973" />
  <path
     d="m 269.29803,117.0729 c 3.33292,16.29768 2.13764,45.46671 1.35438,58.76823 -0.22233,3.74128 2.44156,8.92445 4.58736,12.46339 0.0795,0.13013 0.13055,0.27516 0.15094,0.42589 0.0204,0.15094 0.0102,0.30413 -0.0326,0.45038 -0.0428,0.14625 -0.11627,0.28209 -0.21417,0.39938 -0.0999,0.11728 -0.22233,0.21335 -0.36104,0.28189 -3.60217,1.81761 -15.80998,7.44401 -29.95758,8.14405 -0.45894,0.0171 -0.90972,-0.12014 -1.27892,-0.38878 -0.36919,-0.26842 -0.63435,-0.6523 -0.75062,-1.0884 -10.48219,-38.41779 -22.68185,-62.96559 -22.68185,-62.96559 13.46429,-21.06353 49.18413,-16.49044 49.18413,-16.49044 z"
     fill="#4191ed"
     id="path79"
     style="stroke-width:2.03973" />
  <path
     d="m 264.50261,217.37421 c 0.14686,-0.001 0.29168,-0.0404 0.41815,-0.11382 0.1285,-0.0736 0.23253,-0.17868 0.30596,-0.30474 0.0714,-0.12605 0.11014,-0.26883 0.1081,-0.41345 -0.002,-0.14482 -0.0428,-0.28638 -0.1183,-0.4108 -2.58843,-3.77678 -6.15388,-6.81129 -10.33126,-8.79289 -0.0999,-0.0526 -0.20805,-0.0851 -0.32024,-0.0951 -0.11422,-0.0102 -0.22641,0.002 -0.33451,0.0363 -0.10811,0.0343 -0.20602,0.0893 -0.29169,0.16216 -0.0857,0.0728 -0.15502,0.16196 -0.20397,0.2617 -0.0489,0.1 -0.0755,0.20846 -0.0816,0.31901 -0.004,0.11076 0.0122,0.22131 0.053,0.32493 0.0408,0.10362 0.1,0.19827 0.1795,0.27822 0.0775,0.08 0.17134,0.1436 0.27536,0.18684 3.87754,1.86044 7.19619,4.67548 9.62959,8.16975 0.0755,0.11953 0.1795,0.21825 0.30392,0.28679 0.12443,0.0685 0.26517,0.10464 0.40795,0.10505 z"
     fill="#00428d"
     id="path81"
     style="stroke-width:2.03973" />
  <path
     d="m 290.20531,163.84361 c -1.0729,7.59169 -4.23245,15.87383 -10.56175,24.66998 l -2.40281,-1.92694 c 0,0 2.77404,-11.04394 1.19733,-23.5779 3.90609,-0.73227 8.50773,0.0288 11.76723,0.83486 z"
     fill="#f7a491"
     id="path83"
     style="stroke-width:2.03973" />
  <path
     d="m 265.57551,137.18285 3.72252,-20.10975 c 0,0 24.87048,18.62604 20.9032,46.77071 -3.25542,-0.8061 -7.86114,-1.57692 -11.76519,-0.82854 -1.14021,-9.03051 -4.53433,-18.83164 -12.86053,-25.83242 z"
     fill="#4191ed"
     id="path85"
     style="stroke-width:2.03973" />
  <path
     d="m 220.10982,133.56354 9.60103,20.27028 c -1.55223,12.23534 -8.25684,17.52764 -15.48566,19.55738 -0.35696,-4.53902 -1.44414,-8.99401 -3.22278,-13.19892 9.24611,-9.35157 9.10741,-26.62874 9.10741,-26.62874 z"
     fill="#4191ed"
     id="path87"
     style="stroke-width:2.03973" />
  <path
     d="m 211.01056,160.19228 c 1.77865,4.20491 2.86583,8.65969 3.22279,13.19872 -19.28896,7.33815 -24.39217,-6.89166 -24.39217,-6.89166 l 3.56709,-0.61661 c 8.04777,0.83181 13.67173,-1.7148 17.60229,-5.69045 z"
     fill="#f7a491"
     id="path89"
     style="stroke-width:2.03973" />
  <path
     d="m 228.95411,108.54048 4.63428,16.69911 c 0.12238,0.44221 0.3386,0.85383 0.6364,1.20793 0.29576,0.3541 0.66699,0.64272 1.08514,0.8469 0.41814,0.20397 0.87708,0.31901 1.34214,0.33737 0.4671,0.0184 0.9342,-0.0602 1.36662,-0.2309 2.28247,-0.87545 4.51394,-1.87349 6.68217,-2.98984 0.54665,-0.29148 1.02599,-0.69147 1.40538,-1.17468 0.37939,-0.48322 0.65272,-1.03884 0.80162,-1.63118 0.14686,-0.59254 0.1693,-1.20875 0.0591,-1.80945 -0.10811,-0.6007 -0.34268,-1.17244 -0.68943,-1.67891 l -9.63775,-14.08518 z"
     fill="#f7a491"
     id="path91"
     style="stroke-width:2.03973" />
  <path
     d="m 181.00178,155.32058 118.75153,42.39038 c 1.17692,0.42039 2.2539,1.07535 3.16159,1.92326 0.90768,0.84792 1.62566,1.87065 2.11112,3.00392 0.48546,1.13328 0.72615,2.35263 0.70779,3.58157 -0.0184,1.22894 -0.29576,2.44095 -0.81589,3.55954 l -0.359,0.77714 c -0.46506,0.99254 -1.12389,1.88553 -1.93979,2.62759 -0.81793,0.74205 -1.77457,1.31848 -2.81891,1.69624 -1.04638,0.37776 -2.156,0.54951 -3.26765,0.50524 -1.1137,-0.0443 -2.20496,-0.30371 -3.21667,-0.76347 L 178.02112,162.32462 Z"
     fill="#023f85"
     id="path93"
     style="stroke-width:2.03973" />
  <path
     d="m 61.192044,129.84143 c 0,34.68304 29.203903,62.79875 65.227256,62.79875 36.02314,0 65.23031,-28.11571 65.23031,-62.79875 0,-34.683034 -29.18738,-62.808325 -65.21726,-62.808325 -36.029876,0 -65.240306,28.125291 -65.240306,62.808325 z m 9.580634,0 c 0,-29.58982 24.913117,-53.57567 55.646622,-53.57567 30.73329,0 55.64641,23.98585 55.64641,53.57567 0,29.58962 -24.91312,53.56589 -55.63336,53.56589 -30.720446,0 -55.659672,-23.98586 -55.659672,-53.56589 z"
     fill="#023f85"
     id="path95"
     style="stroke-width:2.03973" />
  <path
     d="m 191.28653,169.10062 c -0.98274,0.74491 -4.29751,-0.80611 -6.3348,-1.88207 -0.48097,-0.25272 -0.85689,-0.66189 -1.06311,-1.15734 -0.20622,-0.49525 -0.22988,-1.04557 -0.0669,-1.55611 0.4881,-1.51267 1.31012,-3.46837 2.31244,-3.71559 1.65423,-0.40794 9.13842,5.24743 5.15237,8.31111 z"
     fill="#f7a491"
     id="path97"
     style="stroke-width:2.03973" />
  <path
     d="m 219.79774,98.777905 c 0,0 0.69759,9.865385 2.67409,14.239185 1.97447,4.37401 2.49868,7.59189 7.86114,5.9958 5.36043,-1.59609 8.1875,-6.10166 8.24053,-11.46474 0,0 0.11015,-8.2854 -2.06625,-10.565415 -2.17844,-2.280016 -16.70951,1.79517 -16.70951,1.79517 z"
     fill="#f7a491"
     id="path99"
     style="stroke-width:2.03973" />
  <path
     d="m 236.02587,105.41235 c 0,0 -1.89083,2.07767 -2.43136,-0.67434 -0.54053,-2.75221 -0.41203,-6.390693 -4.25693,-5.064457 -3.84694,1.326237 -10.06609,2.035047 -12.10582,0 0,0 -4.07947,-3.064294 1.74397,-8.070211 0,0 4.18961,1.779057 9.27263,-1.136744 5.08506,-2.916005 11.35317,-1.284625 12.77486,3.738018 0,0 11.03293,7.482564 -1.98466,15.013264 0,0 -1.78273,-0.21846 -3.01269,-3.80553 z"
     fill="#001833"
     id="path101"
     style="stroke-width:2.03973" />
  <path
     d="m 235.55265,106.18949 c 0,0 -1.35234,-5.84792 1.71746,-5.55237 3.0698,0.29536 1.8174,6.40355 0.0551,7.52744 z"
     fill="#f7a491"
     id="path103"
     style="stroke-width:2.03973" />
</svg>
