<?xml version="1.0" encoding="UTF-8" standalone="no"?>
<svg
        width="520"
        height="520"
        viewBox="0 0 520 520"
        fill="none"
        version="1.1"
        id="svg6"
        xmlns="http://www.w3.org/2000/svg"
>
    <path
            fill-rule="evenodd"
            clip-rule="evenodd"
            d="m 260.88192,4.8130633 c 76.99204,2.7634072 165.55999,15.8586127 165.55999,15.8586127 0,71.537951 68.24052,72.796466 68.24052,72.796466 0,0 -11.97767,181.990858 -46.60376,273.429188 -34.62608,91.43834 -187.19675,145.5714 -187.19675,145.5714 0,0 -152.54889,-54.11249 -187.196759,-145.5714 C 39.037896,275.43843 27.14433,93.468142 27.14433,93.468142 c 0,0 68.176387,-1.258515 68.176387,-72.796466 0,0 88.738573,-15.8586127 165.561203,-15.8586127 z M 114.82769,355.3069 c 19.04229,50.31758 91.22535,92.71621 146.05423,116.03987 C 315.75193,448.00254 387.89385,405.58334 406.85144,355.34804 431.2291,290.92421 444.00786,175.27521 448.90034,121.0175 416.4464,107.61311 395.50665,82.929294 387.28275,53.274338 355.69283,49.356002 305.46116,43.870573 259.89084,42.179324 c -44.68574,0 -94.38858,5.918164 -125.40975,10.310863 -8.68738,32.273634 -31.39994,55.927653 -61.829363,68.486173 4.997754,54.23713 17.755944,169.82442 42.175963,234.33054 z"
            fill="white"
            id="path2"
    />
    <path
            fill-rule="evenodd"
            clip-rule="evenodd"
            d="m 324.39817,175.52328 v 19.36418 c 5.40677,2.93209 9.91564,7.22193 13.05951,12.42783 3.14386,5.2071 4.80897,11.14027 4.82229,17.18598 v 72.17701 c 0,8.98144 -3.64728,17.59379 -10.14194,23.94445 -6.49345,6.35065 -15.30063,9.91806 -24.48415,9.91806 h -93.43986 c -9.17626,0.0109 -17.98223,-3.54078 -24.48173,-9.8745 -6.50071,-6.33371 -10.16492,-14.93155 -10.18671,-23.90451 v -72.17822 c -0.004,-6.04208 1.64696,-11.97525 4.77994,-17.18235 3.13418,-5.20832 7.63579,-9.49937 13.03893,-12.43025 v -19.44768 c 0,-16.47323 6.69191,-32.27243 18.60423,-43.92094 11.91112,-11.64852 28.0673,-18.1928 44.91203,-18.1928 16.84594,0 33.00212,6.54428 44.91323,18.1928 11.91232,11.64851 18.60423,27.44771 18.60423,43.92094 z m -110.71175,15.11669 h 0.5276 v 0.0823 h 93.98804 v -15.19898 c 0,-12.256 -4.97839,-24.011 -13.84124,-32.67781 -8.86285,-8.66681 -20.88287,-13.53629 -33.41598,-13.53629 -12.53432,0 -24.55434,4.86948 -33.41718,13.53629 -8.86164,8.66681 -13.84124,20.42181 -13.84124,32.67781 z m 61.39372,45.02819 c 1.57193,2.5364 2.40086,5.4455 2.39723,8.41148 -0.0109,3.34958 -1.08668,6.61325 -3.07731,9.33963 -1.99185,2.72638 -4.7993,4.78114 -8.03513,5.87992 l 8.43446,34.02588 h -27.89908 l 8.43567,-34.02588 c -2.85465,-1.00197 -5.37289,-2.75058 -7.28123,-5.05584 -1.90713,-2.30526 -3.13055,-5.07883 -3.53594,-8.01819 -0.40539,-2.93814 0.0218,-5.92953 1.23673,-8.64744 1.21374,-2.7167 3.16807,-5.05584 5.6488,-6.76089 2.48193,-1.70625 5.39346,-2.71185 8.41994,-2.9091 3.02528,-0.19725 6.04813,0.42233 8.73942,1.79096 2.69007,1.36864 4.9445,3.43429 6.51644,5.96947 z"
            fill="white"
            id="path4"
    />
</svg>
