<?xml version="1.0" encoding="UTF-8" standalone="no"?>
<svg
   width="320"
   height="320"
   viewBox="0 0 320 320"
   fill="none"
   version="1.1"
   id="svg16"
   xmlns="http://www.w3.org/2000/svg"
   xmlns:svg="http://www.w3.org/2000/svg">
  <defs
     id="defs20" />
  <path
     d="m 81.133929,146.15974 c 13.550538,-47.426269 59.814691,-17.94478 59.814691,-17.94478 35.88712,29.90673 5.98039,89.72022 -47.851506,77.75825 C 39.264985,194.01002 39.264985,134.19654 57.209029,104.28981 75.15356,74.383073 140.94862,50.457927 182.81733,98.308217 c 10.87684,12.429983 11.96318,35.888323 5.98159,83.738623 l -5.98159,29.90674 -53.83188,5.9816"
     fill="#a57939"
     id="path2"
     style="stroke-width:12.2199" />
  <path
     fill-rule="evenodd"
     clip-rule="evenodd"
     d="m 111.96571,78.049014 c -22.582194,3.527855 -41.761169,16.208347 -49.627055,29.317736 -8.209018,13.68251 -12.404441,34.55149 -8.26144,53.19524 4.047321,18.21361 15.948916,34.15556 40.318867,39.57137 24.327178,5.40605 42.631208,-5.3596 51.065318,-20.28241 8.428,-14.9106 7.11925,-33.90873 -8.02229,-46.77373 -0.0257,-0.0147 -0.0514,-0.0305 -0.0794,-0.0477 -0.28961,-0.1723 -0.73441,-0.43258 -1.31729,-0.75396 -1.167,-0.64521 -2.87288,-1.53114 -4.96368,-2.46107 -4.23294,-1.88307 -9.81129,-3.83702 -15.60224,-4.46634 -5.76897,-0.62809 -11.34975,0.0941 -16.105697,3.06961 -4.692404,2.9352 -9.394586,8.5722 -12.48375,19.38428 l -11.502497,-3.28713 c 3.685491,-12.90044 9.846714,-21.36265 17.641724,-26.23835 7.72903,-4.83537 16.25478,-5.63577 23.74429,-4.82072 7.46874,0.8114 14.3045,3.26392 19.1692,5.42804 2.45618,1.09245 4.47246,2.13847 5.8875,2.92053 0.70875,0.39227 1.27086,0.71853 1.66557,0.95559 0.19795,0.11732 0.35437,0.21263 0.46679,0.28228 l 0.13564,0.0842 0.0428,0.0268 0.0147,0.0103 0.006,0.005 c 0.002,10e-4 0.005,0.005 -3.21015,5.04677 l 3.21015,-5.04677 0.32627,0.20774 0.29328,0.24439 c 20.44617,17.03929 22.05062,42.73997 11.09801,62.11814 -11.00515,19.4698 -34.57103,32.63052 -64.075734,26.07338 -29.461927,-6.5481 -44.47664,-26.49326 -49.401219,-48.65387 -4.82902,-21.73169 -0.05242,-45.7216 9.681991,-61.94581 10.078892,-16.797348 32.769838,-31.033417 58.037942,-34.981634 25.6408,-4.006873 54.72026,2.446404 77.20102,28.138534 6.67568,7.63004 9.85528,18.12929 10.77909,32.13196 0.92259,13.99655 -0.36537,32.29449 -3.3641,56.28806 l -0.0268,0.2163 -6.88219,34.40973 -58.17969,6.46428 -1.32096,-11.88864 49.4853,-5.49891 5.081,-25.40376 c 2.96208,-23.7455 4.11197,-41.03653 3.27123,-53.8001 -0.84443,-12.79657 -3.6452,-20.24087 -7.84637,-25.04081 -19.3876,-22.159964 -44.14125,-27.66865 -66.35073,-24.198226 z"
     fill="#7a5827"
     id="path4"
     style="stroke-width:12.2199" />
  <path
     d="m 9.3583698,235.87628 c 110.0760702,9.57176 181.8576202,5.97793 206.1542502,1.7682 5.85695,-1.01424 11.37052,-3.43865 15.99694,-7.17057 100.31601,-80.89629 88.87949,-132.168134 58.97275,-138.149721 -18.54842,-3.70994 -54.73858,62.060701 -71.77665,83.738611 -9.51312,12.10494 -29.90674,23.92638 -53.83188,23.92638"
     fill="#cda468"
     id="path6"
     style="stroke-width:12.2199" />
  <path
     fill-rule="evenodd"
     clip-rule="evenodd"
     d="m 269.21987,69.405949 c 2.74823,-1.83297 6.46183,-1.090007 8.29358,1.658227 l 11.96318,17.944776 c 1.83297,2.748231 1.09,6.461822 -1.65945,8.2948 -2.74823,1.831741 -6.46183,1.088784 -8.29357,-1.659446 L 267.56042,77.700749 c -1.83297,-2.749455 -1.09001,-6.463052 1.65945,-8.2948 z"
     fill="#7a5827"
     id="path8"
     style="stroke-width:12.2199" />
  <path
     fill-rule="evenodd"
     clip-rule="evenodd"
     d="m 311.10078,57.07006 c 2.95476,1.477375 4.15229,5.069996 2.67492,8.024743 l -12.96032,25.919418 c -1.47737,2.954743 -5.07,4.152294 -8.02474,2.67492 -2.95474,-1.477374 -4.1523,-5.069998 -2.67492,-8.024745 l 12.96032,-25.919422 c 1.47738,-2.954746 5.07,-4.152287 8.02474,-2.674914 z"
     fill="#7a5827"
     id="path10"
     style="stroke-width:12.2199" />
  <path
     fill-rule="evenodd"
     clip-rule="evenodd"
     d="m 111.96693,78.050236 c -22.582192,3.529076 -41.759945,16.20834 -49.62583,29.317744 -8.209994,13.68251 -12.405419,34.55149 -8.262418,53.19524 4.047442,18.2136 15.948671,34.15556 40.318614,39.57137 24.327184,5.40603 42.631224,-5.3596 51.066554,-20.28243 8.42677,-14.9106 7.11803,-33.9075 -8.02352,-46.7725 -0.0244,-0.0159 -0.0512,-0.0319 -0.0794,-0.0477 -0.28961,-0.17352 -0.73441,-0.43258 -1.3173,-0.75518 -1.16699,-0.64521 -2.87165,-1.53114 -4.96369,-2.46108 -4.23293,-1.88306 -9.81127,-3.83579 -15.601,-4.46633 -5.7702,-0.62687 -11.35099,0.0941 -16.106922,3.06962 -4.691189,2.9352 -9.394589,8.57218 -12.483753,19.38428 -0.907931,3.17591 -4.218276,5.015 -7.394202,4.10829 -3.175925,-0.90793 -5.015005,-4.21827 -4.108296,-7.39542 3.686713,-12.90046 9.847936,-21.36267 17.641725,-26.23837 7.729028,-4.83537 16.254768,-5.63577 23.744298,-4.82071 7.46874,0.81262 14.30449,3.26514 19.1692,5.42805 2.45739,1.09244 4.47244,2.13845 5.88749,2.92052 0.70875,0.39226 1.27087,0.71975 1.66679,0.9556 0.19673,0.11853 0.35315,0.21384 0.46557,0.28227 l 0.13564,0.0855 0.0427,0.0268 0.0159,0.008 c 0,0 0.0103,0.007 -3.20404,5.05165 l 3.21381,-5.04433 c 0.21507,0.13686 0.42036,0.28595 0.61466,0.44847 20.44617,17.03929 22.05063,42.74119 11.09802,62.11812 -11.00515,19.46981 -34.5698,32.63054 -64.075741,26.0734 -29.461926,-6.54568 -44.476396,-26.49206 -49.400975,-48.65267 -4.82902,-21.73047 -0.05242,-45.7216 9.681992,-61.94583 10.078647,-16.797339 32.769593,-31.033401 58.037704,-34.981618 25.6408,-4.006873 54.72025,2.447626 77.20102,28.138538 6.03169,6.89441 11.14201,15.40182 12.97253,27.92223 1.79876,12.30779 -1.40283,53.29544 -7.5115,74.67276 -2.53072,8.85813 -1.14865,-19.17532 -4.32581,-20.08323 -3.17593,-0.90793 1.83908,-6.38241 -1.78409,-10.46627 5.8545,-20.49138 3.2468,-32.38736 1.78409,-42.39293 -1.43094,-9.79296 -5.29362,-16.23889 -10.13755,-21.77445 C 158.93007,80.088498 134.17764,74.579811 111.96693,78.050236 Z"
     fill="#7a5827"
     id="path12"
     style="stroke-width:12.2199" />
  <path
     fill-rule="evenodd"
     clip-rule="evenodd"
     d="m 279.96595,88.687573 c 3.43255,-1.823201 7.48586,-3.067168 11.68825,-2.226445 9.08175,1.817081 16.9843,7.159579 21.60583,15.769652 4.58975,8.54897 5.60278,19.65187 2.36941,32.53277 -6.4154,25.56505 -29.85175,59.63262 -80.36595,100.36855 -5.45369,4.39791 -11.91797,7.22801 -18.73052,8.40845 v 0 c -24.74631,4.28791 -97.04842,13.90001 -207.6934536,4.27814 -3.2910358,-0.28593 -5.7269316,-3.1857 -5.4407438,-6.47649 0.2861879,-3.29079 3.1860692,-5.7262 6.477105,-5.44026 109.5060324,9.52167 180.7682224,-0.0171 204.6139524,-4.14862 4.90135,-0.84928 9.46423,-2.86799 13.2646,-5.93271 v 0 c 49.80056,-40.1616 70.80396,-72.17747 76.27231,-93.96781 2.70914,-10.7962 1.52503,-18.68898 -1.3063,-23.96426 -2.79833,-5.21297 -7.54084,-8.522094 -13.41244,-9.696413 -0.43381,-0.08676 -1.56903,-0.08676 -3.73193,1.060682 -2.12258,1.127891 -4.67529,3.070841 -7.60805,5.870391 -5.85817,5.59301 -12.39455,13.78027 -19.09221,23.05387 -6.35064,8.79459 -12.67072,18.31627 -18.52766,27.14141 -0.28961,0.43624 -0.578,0.87126 -0.86517,1.30384 -6.02924,9.08176 -11.63447,17.48898 -16.07514,23.13942 l -4.70341,-3.6965 4.70341,3.6965 c -5.11032,6.50094 -13.06664,14.45602 -22.98055,20.82743 -9.90904,6.37018 -22.1044,11.36441 -35.55474,11.36441 -3.30301,0 -5.9816,-2.67735 -5.9816,-5.9816 0,-3.303 2.67859,-5.98158 5.9816,-5.98158 10.47603,0 20.44005,-3.90545 29.08679,-9.46424 8.64307,-5.55513 15.63891,-12.5534 20.04291,-18.15618 4.07776,-5.18852 9.38603,-13.13262 15.51426,-22.36468 0.29817,-0.44968 0.59877,-0.90304 0.90183,-1.35761 5.82518,-8.7787 12.265,-18.48122 18.75983,-27.47379 6.79788,-9.41412 13.85237,-18.32969 20.52927,-24.703544 3.33356,-3.182034 6.78565,-5.938812 10.25851,-7.782783 z"
     fill="#bf904a"
     id="path14"
     style="stroke-width:12.2199" />
</svg>
