<?xml version="1.0" encoding="UTF-8"?>
<svg width="24px" height="24px" viewBox="0 0 24 24" version="1.1" xmlns="http://www.w3.org/2000/svg" xmlns:xlink="http://www.w3.org/1999/xlink">
    <title>Group 14</title>
    <g id="Light-Theme" stroke="none" stroke-width="1" fill="none" fill-rule="evenodd">
        <g id="Settings_Wallet_Connected__Tag_desktop" transform="translate(-376.000000, -190.000000)">
            <g id="Group" transform="translate(320.000000, 190.000000)">
                <g id="Group-15" transform="translate(56.000000, 0.000000)">
                    <circle id="Oval" fill="#FFFFFF" cx="12" cy="12" r="12"></circle>
                    <g id="photo_camera_black_24dp-2" transform="translate(4.000000, 4.000000)">
                        <polygon id="Path" points="0 0 16 0 16 16 0 16"></polygon>
                        <path d="M10.0082685,1.18575706 C10.76787,1.3255084 11.3417668,1.93105626 11.41869,2.67396496 C12.2867788,2.74167061 13.1490959,2.83508071 13.982564,2.95078146 C14.7805466,3.06357168 15.4164988,3.65282043 15.5660706,4.41799755 L15.5962467,4.57225936 C16.1345844,7.34512532 16.1345844,10.1904358 15.5962467,12.9633017 L15.566516,13.1171335 C15.4186331,13.8804603 14.7856589,14.4692488 13.9901171,14.5834896 C12.0054425,14.860652 10.0027157,14.9998468 7.9973889,15 C5.99217557,15 3.98957089,14.8604265 2.0051061,14.5826296 C1.20906766,14.4697272 0.577332295,13.8773811 0.437132847,13.1124209 L0.379434776,12.8021772 C-0.144633559,10.0168204 -0.125669999,7.16148877 0.43535137,4.38285029 C0.591003349,3.63198467 1.22137007,3.0582402 2.0068694,2.95249275 C2.85009926,2.83508071 3.71241639,2.74167061 4.58139587,2.67396496 C4.6579805,1.93106242 5.23179234,1.32541294 5.99137203,1.18575706 C7.31805154,0.938080981 8.68158897,0.938080981 10.0082685,1.18575706 Z M8.00005203,2.40443242 C7.41824854,2.40443242 6.83777746,2.45813666 6.26653766,2.56469691 C6.13126301,2.58682218 6.03117396,2.69836688 6.02776508,2.8307981 C6.02402421,3.47536857 5.51042198,4.01015552 4.84501825,4.06233007 C3.95609712,4.12874567 3.07467455,4.22216455 2.22478233,4.34085786 C2.04855604,4.35989395 1.90366407,4.48367506 1.86263332,4.65024153 C1.33629123,7.2583554 1.31853317,9.93839137 1.81027059,12.552794 L1.86796866,12.8630377 C1.89913271,13.0324999 2.03742491,13.164661 2.21324817,13.1930095 C6.04703781,13.7296546 9.94090304,13.7302457 13.7748673,13.1947647 C13.9574766,13.1692129 14.1030375,13.0343559 14.1370163,12.8592465 L14.1663107,12.7058448 C14.6385215,10.2768841 14.6700022,7.78853487 14.2607528,5.35165573 L14.1663107,4.83029555 L14.13658,4.67646375 C14.1029793,4.50203787 13.9584055,4.36743925 13.7766487,4.34136686 C12.9249932,4.22224353 12.0435797,4.12882466 11.1555221,4.06283907 C10.4899268,4.01050341 9.97621095,3.47557407 9.97234806,2.83080688 C9.96871941,2.69830979 9.86849167,2.58681425 9.73313921,2.56470569 C9.16204657,2.45812447 8.58171515,2.40443242 8.00005203,2.40443242 Z M8.00005203,5.52912492 C9.75821096,5.52912492 11.1834804,6.90526159 11.1834804,8.6028122 C11.1814269,10.2995409 9.75735966,11.6745168 8.00005203,11.6764995 C6.2418931,11.6764995 4.81662367,10.3003628 4.81662367,8.6028122 C4.81662367,6.90526159 6.2418931,5.52912492 8.00005203,5.52912492 Z M8.00005203,6.93290919 C7.0448672,6.93290919 6.2705369,7.68055508 6.2705369,8.6028122 C6.2705369,9.52506933 7.0448672,10.2727064 8.00005203,10.2727064 C8.95523686,10.2727064 9.72956716,9.52506933 9.72956716,8.6028122 C9.72855022,7.68096068 8.95481678,6.93389591 8.00005203,6.93290919 Z M12.7457732,5.31684662 C13.0683386,5.46689721 13.2464084,5.80733733 13.1800172,6.14704976 C13.1068871,6.50603383 12.7809088,6.76488623 12.401984,6.7648693 C12.3530652,6.76683411 12.3041044,6.76210682 12.2565573,6.75082794 C12.0496668,6.71620582 11.8660786,6.60225334 11.7475636,6.4348975 C11.5463135,6.14896687 11.5689254,5.7682003 11.8027053,5.50635357 C12.0364853,5.24450685 12.4232077,5.16679602 12.7457732,5.31684662 Z" id="Shape" fill="#404040" fill-rule="nonzero"></path>
                    </g>
                </g>
            </g>
        </g>
    </g>
</svg>