<?xml version="1.0" encoding="UTF-8"?>
<svg width="80px" height="80px" viewBox="0 0 80 80" version="1.1" xmlns="http://www.w3.org/2000/svg" xmlns:xlink="http://www.w3.org/1999/xlink">
    <title>avatar_big_light_theme</title>
    <g id="Page-1" stroke="none" stroke-width="1" fill="none" fill-rule="evenodd">
        <g id="avatar_big_light_theme" transform="translate(0.000000, 0.000000)">
            <rect id="Rectangle" fill="#333333" fill-rule="nonzero" x="0" y="0" width="80" height="80" rx="39.99996"></rect>
            <g id="avatar_small_light_theme" transform="translate(27.999995, 28.000000)">
                <rect id="Rectangle" opacity="0" x="4.57350678e-06" y="0" width="24" height="24"></rect>
                <path d="M15.0240346,1.43254 C16.1570662,1.64728351 16.9907171,2.61747365 17.0324646,3.76992 C18.4122746,3.87807 19.7754146,4.02903 21.0853746,4.21829 C22.22339,4.38388331 23.1302864,5.25456365 23.3420946,6.38489 L23.3876046,6.62734 C24.2041342,10.9785885 24.2041342,15.4437615 23.3876046,19.79501 L23.3420946,20.0388 C23.1313463,21.1648059 22.2300902,22.0335004 21.0970946,22.20269 C18.083226,22.6384748 15.0419559,22.85744 11.9967446,22.85744 C8.95149921,22.85744 5.91020143,22.6382978 2.89640457,22.20178 C1.76238769,22.0346201 0.862688956,21.1603416 0.663104573,20.03158 L0.574784573,19.54358 C-0.219243272,15.1719402 -0.190358705,10.6905014 0.659954573,6.32946 C0.881803668,5.22212894 1.77963338,4.37617763 2.89819457,4.22055 C4.22347457,4.02903 5.58661457,3.87808 6.96732457,3.76993 C7.00896647,2.61728028 7.84291834,1.64695799 8.97621457,1.43254 C10.9736165,1.04590497 13.0266327,1.04590497 15.0240346,1.43254 Z M11.9998946,2.989 C11.1020071,2.98922179 10.2061807,3.074942 9.32454457,3.245 C9.03179358,3.29686417 8.81681856,3.54886381 8.81173457,3.84613 C8.80636899,4.76688064 8.09777361,5.53062707 7.18000457,5.60486 C5.81600457,5.71031 4.46950457,5.85856 3.17800457,6.04512 C2.83073767,6.08396864 2.54678377,6.33968398 2.47190457,6.681 C1.66553564,10.8175906 1.63802832,15.0683199 2.39079457,19.215 L2.47911457,19.70257 C2.53815182,20.049976 2.81270766,20.3207223 3.16090457,20.3749 C9.01711404,21.2228185 14.9648692,21.2235762 20.8212946,20.37715 C21.1772971,20.3254573 21.4611652,20.0533565 21.5278746,19.69986 L21.5733846,19.45562 C22.3475516,15.3286117 22.3475516,11.0936283 21.5733846,6.96662 L21.5278746,6.72373 C21.4624363,6.37098718 21.180219,6.09872451 20.8253546,6.04599 C19.5293546,5.85853 18.1833546,5.71028 16.8202146,5.60483 C15.9022656,5.53078794 15.1934322,4.76696457 15.1880546,3.84605 C15.1829706,3.54878381 14.9679956,3.29678417 14.6752446,3.24492 C13.7936059,3.07488885 12.8977795,2.98919543 11.9998946,2.989 Z M11.9998946,8.28688 C14.5757506,8.28688 16.6638946,10.3750239 16.6638946,12.95088 C16.6610068,15.525539 14.5745535,17.6119922 11.9998946,17.61488 C9.4240385,17.61488 7.33589457,15.5267361 7.33589457,12.95088 C7.33589457,10.3750239 9.4240385,8.28688 11.9998946,8.28688 Z M11.9998946,10.13272 C10.4434457,10.13272 9.18169457,11.3944711 9.18169457,12.95092 C9.18169457,14.5073689 10.4434457,15.76912 11.9998946,15.76912 C13.5563435,15.76912 14.8180946,14.5073689 14.8180946,12.95092 C14.8161826,11.3952654 13.5555492,10.1346364 11.9998946,10.13272 Z M18.9849992,7.42054368 C19.774574,7.57325927 20.2909334,8.33703333 20.1384346,9.12665 C20.0654144,9.50760884 19.8426684,9.84337211 19.5200746,10.05877 C19.2014968,10.2757259 18.8090878,10.3555337 18.4310746,10.28025 C17.6415838,10.1271008 17.1256439,9.36304336 17.2785763,8.57351055 C17.4315087,7.78397774 18.1954244,7.26782809 18.9849992,7.42054368 Z" id="Shape" fill="#999999" fill-rule="nonzero"></path>
            </g>
        </g>
    </g>
</svg>