<svg width="40" height="40" viewBox="0 0 40 40" fill="none" xmlns="http://www.w3.org/2000/svg">
<rect width="40" height="40" rx="20" fill="white"/>
<path fill-rule="evenodd" clip-rule="evenodd" d="M14.0281 19.6387C14.2888 19.3168 14.761 19.2672 15.0829 19.5279L22.972 25.917C23.2939 26.1777 23.3435 26.6499 23.0828 26.9718C22.8221 27.2937 22.3499 27.3433 22.028 27.0826L14.1389 20.6936C13.817 20.4329 13.7674 19.9606 14.0281 19.6387Z" fill="#404040"/>
<path fill-rule="evenodd" clip-rule="evenodd" d="M23.0828 13.0283C22.8221 12.7065 22.3498 12.6568 22.0279 12.9175L14.1388 19.3066C13.8169 19.5673 13.7673 20.0396 14.028 20.3615C14.2887 20.6834 14.761 20.733 15.0829 20.4723L22.9719 14.0832C23.2938 13.8225 23.3435 13.3502 23.0828 13.0283Z" fill="#404040"/>
</svg>
