<?xml version="1.0" encoding="UTF-8"?>
<svg width="40px" height="40px" viewBox="0 0 40 40" version="1.1" xmlns="http://www.w3.org/2000/svg" xmlns:xlink="http://www.w3.org/1999/xlink">
    <title>buy_now_pay_later_light_theme</title>
    <g id="Page-1" stroke="none" stroke-width="1" fill="none" fill-rule="evenodd">
        <g id="buy_now_pay_later_light_theme" transform="translate(0.000000, 0.000000)" fill-rule="nonzero">
            <rect id="Rectangle" fill="#333333" x="0" y="0" width="40" height="40" rx="8"></rect>
            <path d="M22.5607533,9.55542001 C24.4170253,9.55542001 25.9219419,11.0599781 25.92208,12.91625 C25.9214662,13.5444165 25.7487294,14.132274 25.4484866,14.6351989 C26.15244,14.6825156 26.8575469,14.7395604 27.55779,14.80541 C28.8606081,14.92759 29.9041791,15.9374796 30.06902,17.23559 C30.2890778,18.9641774 30.39959,20.7049617 30.39959,22.4475 C30.39959,24.1901982 30.2889855,25.9311397 30.06902,27.6599 C29.9031702,28.9573335 28.8600143,29.9664144 27.55779,30.0891 C25.04708,30.32495 22.50411,30.44457 20.00069,30.44457 C17.49581,30.44457 14.95284,30.32494 12.44356,30.0891 C11.1413414,29.9662055 10.0981514,28.9572885 9.93184,27.6599 C9.48978308,24.1990255 9.48978308,20.6959745 9.93184,17.2351 C10.0978551,15.9374772 11.1411418,14.9282631 12.44356,14.80541 C13.1430674,14.7396332 13.847288,14.6826577 14.5507964,14.6349377 C14.2500627,14.132195 14.07784,13.5444198 14.07784,12.9164233 C14.07784,11.0602139 15.5826239,9.55542001 17.4388333,9.55542001 C18.4654599,9.55542001 19.3845983,10.0156745 20.0011314,10.7411103 C20.6149761,10.0158737 21.5340922,9.55542001 22.5607533,9.55542001 Z M28.7369096,24.6787825 L11.2629707,24.6788632 C11.3154614,25.6069728 11.4007278,26.5336909 11.51877,27.45728 C11.5902811,28.0119844 12.0362227,28.4433219 12.593,28.49633 C17.5206755,28.9582441 22.4807545,28.9582441 27.40843,28.49633 C27.6791286,28.4716636 27.933094,28.354596 28.12767,28.16479 C28.3221854,27.9758459 28.4471118,27.726691 28.48216,27.45779 C28.5995828,26.5344916 28.6845356,25.6075842 28.7369096,24.6787825 Z M19.0505081,16.0568538 L15.70919,19.39966 C15.559046,19.5496078 15.3554669,19.6337417 15.14327,19.6335404 C14.8195521,19.6338348 14.5275783,19.4389655 14.4036556,19.1399061 C14.2797329,18.8408467 14.3483014,18.4965777 14.57735,18.26782 L16.6594703,16.1867371 C16.5912535,16.1705384 16.5238419,16.1522605 16.4573062,16.131974 L16.57834,16.12476 C15.25803,16.18189 13.91721,16.27369 12.59299,16.3982 C12.0358217,16.4507551 11.5895692,16.8826049 11.51877,17.43775 C11.2794755,19.3100448 11.1748735,21.1951985 11.2049642,23.0787352 L28.7948593,23.0788232 C28.7982425,22.8684221 28.8,22.6579744 28.8,22.4475 C28.7997198,20.7725467 28.6935514,19.0992864 28.48213,17.43773 C28.447242,17.168238 28.3221115,16.9185058 28.12713,16.72923 C27.932444,16.5399477 27.678767,16.4231062 27.40838,16.39818 C26.1240784,16.2773339 24.8232162,16.187301 23.5397228,16.1298734 C23.4743286,16.1518733 23.4076174,16.1699878 23.3401173,16.1860686 L25.42257,18.26781 C25.6516186,18.4965677 25.7201871,18.8408367 25.5962644,19.1398961 C25.4723417,19.4389555 25.1803679,19.6338248 24.85665,19.6335404 C24.6444517,19.633739 24.4408724,19.5496014 24.29073,19.39965 L20.9482973,16.05742 L20.4281356,16.0520033 C19.9682415,16.0493744 19.5093849,16.0509913 19.0505081,16.0568538 Z M17.43868,11.155 C16.4658483,11.1551581 15.6773238,11.943905 15.67746,12.9167367 C15.6775963,13.8895684 16.4663416,14.6780944 17.4391733,14.67796 C17.6703151,14.67796 17.8910525,14.6333773 18.0932794,14.5524161 C18.1171743,14.5380379 18.143238,14.5266557 18.1699929,14.5166597 C18.3517741,14.4363413 18.5158296,14.3241677 18.6573153,14.1886233 L18.6838,14.16137 L18.6942691,14.1521685 C19.0040576,13.8374815 19.1964158,13.4068608 19.2003388,12.9313308 L19.1992973,12.90142 L19.2004,12.91625 C19.1993414,11.9437938 18.4111364,11.1557992 17.43868,11.155 Z M22.56124,11.155 C21.8487482,11.1549229 21.2063635,11.5840557 20.9336599,12.2422937 C20.6618303,12.898422 20.8106833,13.6533736 21.3106192,14.1571852 L21.3272973,14.17242 L21.3154526,14.1620374 C21.4680141,14.3145989 21.6438569,14.43478 21.8331691,14.5206295 C21.8544089,14.526213 21.8735938,14.5344352 21.8923706,14.5433657 C22.3133412,14.7192606 22.7963709,14.7256326 23.2351963,14.5438301 C23.8934343,14.2711265 24.3225671,13.6287418 24.32247,12.91625 C24.3214118,11.9439849 23.5335051,11.1560692 22.56124,11.155 Z" id="Path-3" fill="#FFFFFF"></path>
        </g>
    </g>
</svg>