<svg width="24" height="24" viewBox="0 0 24 24" fill="none" xmlns="http://www.w3.org/2000/svg">
<circle cx="12" cy="12" r="12" fill="#404040"/>
<path fill-rule="evenodd" clip-rule="evenodd" d="M8.40117 10.7998C7.74117 10.7998 7.20117 11.3398 7.20117 11.9998C7.20117 12.6598 7.74117 13.1998 8.40117 13.1998C9.06117 13.1998 9.60117 12.6598 9.60117 11.9998C9.60117 11.3398 9.06117 10.7998 8.40117 10.7998ZM15.6012 10.7998C14.9412 10.7998 14.4012 11.3398 14.4012 11.9998C14.4012 12.6598 14.9412 13.1998 15.6012 13.1998C16.2612 13.1998 16.8012 12.6598 16.8012 11.9998C16.8012 11.3398 16.2612 10.7998 15.6012 10.7998ZM10.8012 11.9998C10.8012 11.3398 11.3412 10.7998 12.0012 10.7998C12.6612 10.7998 13.2012 11.3398 13.2012 11.9998C13.2012 12.6598 12.6612 13.1998 12.0012 13.1998C11.3412 13.1998 10.8012 12.6598 10.8012 11.9998Z" fill="#999999"/>
</svg>
