<svg width="24" height="24" viewBox="0 0 24 24" fill="none" xmlns="http://www.w3.org/2000/svg">
<circle cx="12" cy="12" r="12" fill="#F1F1F1"/>
<path fill-rule="evenodd" clip-rule="evenodd" d="M8.39971 10.7998C7.73971 10.7998 7.19971 11.3398 7.19971 11.9998C7.19971 12.6598 7.73971 13.1998 8.39971 13.1998C9.05971 13.1998 9.59971 12.6598 9.59971 11.9998C9.59971 11.3398 9.05971 10.7998 8.39971 10.7998ZM15.5997 10.7998C14.9397 10.7998 14.3997 11.3398 14.3997 11.9998C14.3997 12.6598 14.9397 13.1998 15.5997 13.1998C16.2597 13.1998 16.7997 12.6598 16.7997 11.9998C16.7997 11.3398 16.2597 10.7998 15.5997 10.7998ZM10.7997 11.9998C10.7997 11.3398 11.3397 10.7998 11.9997 10.7998C12.6597 10.7998 13.1997 11.3398 13.1997 11.9998C13.1997 12.6598 12.6597 13.1998 11.9997 13.1998C11.3397 13.1998 10.7997 12.6598 10.7997 11.9998Z" fill="#B1B1B1"/>
</svg>
