<svg width="40" height="40" viewBox="0 0 40 40" fill="none" xmlns="http://www.w3.org/2000/svg">
<rect width="40" height="40" rx="20" fill="#333333"/>
<path fill-rule="evenodd" clip-rule="evenodd" d="M14.4697 14.4697C14.1768 14.7626 14.1768 15.2374 14.4697 15.5303L24.4697 25.5303C24.7626 25.8232 25.2374 25.8232 25.5303 25.5303C25.8232 25.2374 25.8232 24.7626 25.5303 24.4697L15.5303 14.4697C15.2374 14.1768 14.7626 14.1768 14.4697 14.4697Z" fill="white"/>
<path fill-rule="evenodd" clip-rule="evenodd" d="M25.5303 14.4697C25.8232 14.7626 25.8232 15.2374 25.5303 15.5303L15.5303 25.5303C15.2374 25.8232 14.7626 25.8232 14.4697 25.5303C14.1768 25.2374 14.1768 24.7626 14.4697 24.4697L24.4697 14.4697C24.7626 14.1768 25.2374 14.1768 25.5303 14.4697Z" fill="white"/>
</svg>
