<?xml version="1.0" encoding="UTF-8"?>
<svg width="24px" height="24px" viewBox="0 0 24 24" version="1.1" xmlns="http://www.w3.org/2000/svg" xmlns:xlink="http://www.w3.org/1999/xlink">
    <title>dark_theme_light_theme</title>
    <g id="Page-1" stroke="none" stroke-width="1" fill="none" fill-rule="evenodd">
        <g id="dark_theme_light_theme" transform="translate(0.000000, 0.000000)">
            <rect id="Rectangle" opacity="0" x="0" y="0" width="24" height="24"></rect>
            <g id="dark_mode_black_24dp" transform="translate(3.000252, 3.000226)" fill="#1F1F1F" fill-rule="nonzero">
                <path d="M9.58824304,0.797090657 C9.90602318,1.33487033 9.8868908,2.00733475 9.53904864,2.52617375 C9.10610702,3.21073897 8.87732239,4.00457035 8.87952712,4.81456559 C8.87980496,6.38715888 9.73734025,7.83451548 11.1164411,8.59005136 C12.495542,9.34558723 14.1768192,9.28911065 15.5021177,8.44273 C16.0319911,8.10332014 16.7101569,8.10029018 17.2430415,8.43495179 C17.769809,8.76341764 18.0603592,9.36588038 17.9894442,9.98263587 C17.4827381,14.5521301 13.6173273,18.0072998 9.02018405,18 C4.23099586,17.9985698 0.277332072,14.2553427 0.0138738303,9.47303426 C-0.249584411,4.69072582 3.2689681,0.535788951 8.02901549,0.0082309075 L8.04997078,0.00620572224 C8.67220746,-0.0482751435 9.2704629,0.259310989 9.58824304,0.797090657 Z" id="Shape"></path>
            </g>
        </g>
    </g>
</svg>