<?xml version="1.0" encoding="UTF-8"?>
<svg width="24px" height="24px" viewBox="0 0 24 24" version="1.1" xmlns="http://www.w3.org/2000/svg" xmlns:xlink="http://www.w3.org/1999/xlink">
    <title>deposit_light_theme</title>
    <g id="Light-Theme" stroke="none" stroke-width="1" fill="none" fill-rule="evenodd">
        <g id="Smart_Treasury_Overview_desktop" transform="translate(-473.000000, -80.000000)" fill-rule="nonzero">
            <g id="deposit_light_theme" transform="translate(473.000000, 80.000000)">
                <rect id="Rectangle" opacity="0" x="0" y="0" width="24" height="24"></rect>
                <path d="M17.4857122,3.33991098 C18.3281216,3.44753669 19.109509,3.83777374 19.7029303,4.44722424 C20.2981078,5.05057758 20.6650847,5.84317508 20.7407241,6.68865324 C20.9127822,8.49902314 21,10.2870075 21,11.9969923 C21,13.704938 20.9127822,15.4878358 20.7403866,17.2965352 C20.6619785,18.1437724 20.2957023,18.9382303 19.7029378,19.5467755 C19.1100684,20.1504638 18.3340537,20.5393814 17.4968723,20.6523957 C15.6518106,20.8803134 13.7947281,20.9963922 11.9357371,21 C10.0834464,20.9958279 8.23306898,20.8803096 6.39455192,20.6540662 C5.60055518,20.5521909 4.86117687,20.1982234 4.28353336,19.6458148 C4.24226492,19.6191228 4.20380617,19.5870938 4.16888883,19.5508237 C3.57324345,18.9476263 3.20609061,18.1547896 3.13075756,17.3090636 C3.08918491,16.8834373 3.05300478,16.4421975 3.01751465,16.0067365 L3.00973712,15.9131311 C2.98944257,15.6658323 3.10219194,15.4264564 3.30551362,15.2851739 C3.5088353,15.1438914 3.7718399,15.1221666 3.99545613,15.2281829 C4.21907236,15.3341993 4.3693276,15.5518504 4.38962214,15.7991491 L4.39739967,15.8930932 C4.43221479,16.3210973 4.46771242,16.7545266 4.50963007,17.1815149 C4.53984092,17.5150416 4.64269317,17.8352698 4.80818088,18.1207313 C4.84374755,18.1534993 4.87506436,18.1925241 4.9024365,18.2355995 C4.97948743,18.3571838 5.06936053,18.4700931 5.17050247,18.5723759 C5.54499473,18.9593458 6.03916652,19.2075395 6.57236257,19.2764484 C8.35190452,19.4951538 10.1428974,19.6068196 11.9357371,19.6108471 C13.7348146,19.6073331 15.5320515,19.4952128 17.3177041,19.275094 C17.8450037,19.2037606 18.3339727,18.9594304 18.7084117,18.5801789 C19.0807634,18.1996869 19.3112554,17.7022245 19.361169,17.1713568 C19.5301897,15.3993245 19.615375,13.6608441 19.615375,11.9969848 C19.615375,10.3307553 19.5301897,8.58719586 19.361874,6.81413269 C19.3133057,6.28506937 19.0820647,5.7896432 18.7081042,5.41345213 C18.3343473,5.03054476 17.8426171,4.78554343 17.3126641,4.71818341 C13.7424433,4.27887349 10.1320808,4.27910091 6.56191503,4.71886062 C6.03498332,4.78463855 5.54654519,5.0299564 5.17831,5.41377569 C5.07485491,5.51805853 4.98220805,5.63259891 4.9017915,5.75563872 L4.84666304,5.82289584 C4.66021937,6.12496853 4.54422519,6.4680449 4.51062758,6.82635256 L4.49981254,6.94539099 C4.45823239,7.40965593 4.41731224,7.86888695 4.38251211,8.3341978 C4.35560734,8.69641416 4.05497382,8.97660601 3.69293711,8.97688495 C3.67568704,8.97688495 3.65812198,8.97620774 3.64054191,8.97485332 C3.45743106,8.96117885 3.28724736,8.87504166 3.16747246,8.73541279 C3.04769757,8.59578393 2.98815537,8.41411571 3.00195959,8.23041916 C3.03711972,7.75832869 3.07868487,7.29234062 3.12095503,6.82125844 L3.13109506,6.70560605 C3.20859877,5.856967 3.57508074,5.06100591 4.16888133,4.45164116 C4.19664536,4.42298709 4.22627464,4.39724998 4.25738928,4.37443555 L4.19153142,4.43942881 C4.77757272,3.8315932 5.55356666,3.44364336 6.39015691,3.34024958 C10.074854,2.88669679 13.8009876,2.88658308 17.4857122,3.33991098 Z M12.2514357,8.59703797 L15.1714438,11.5265949 C15.3013075,11.6568156 15.3742698,11.8334734 15.3742698,12.0176811 C15.3742698,12.2018888 15.3013075,12.3785466 15.1714438,12.5087673 L12.2872708,15.4023719 C12.1576066,15.5328373 11.9814578,15.6060701 11.7978191,15.6058589 C11.5178403,15.6058589 11.2654505,15.4365845 11.1583135,15.1770694 C11.0511765,14.9175542 11.1103855,14.618845 11.3083373,14.4201995 L12.956,12.766 L3.6922471,12.7661823 C3.3107851,12.7649226 3.00221326,12.4543211 3.00221326,12.0716096 C3.00221326,11.6888981 3.3107851,11.3782965 3.6922471,11.3770369 L13.065,11.377 L11.2724646,9.57921039 C11.0052024,9.30746801 11.0066578,8.87025258 11.2757233,8.60030724 C11.5447887,8.33036189 11.9805791,8.32890172 12.2514357,8.59703797 Z" id="Path-2" fill="#404040"></path>
            </g>
        </g>
    </g>
</svg>