<svg width="16" height="14" viewBox="0 0 16 14" fill="none" xmlns="http://www.w3.org/2000/svg">
<path fill-rule="evenodd" clip-rule="evenodd" d="M8.87368 0.489829C8.48541 -0.163276 7.51459 -0.163276 7.12632 0.489829L0.136682 12.2449C-0.251661 12.898 0.233749 13.7143 1.01036 13.7143H14.9896C15.7663 13.7143 16.2517 12.898 15.8633 12.2449L8.87368 0.489829ZM6.88937 4.41151C6.87185 4.08442 7.13242 3.80953 7.46004 3.80953H8.53996C8.86758 3.80953 9.12815 4.08442 9.11063 4.41151L8.8861 8.60198C8.86987 8.9053 8.6192 9.14286 8.31551 9.14286H7.68449C7.3808 9.14286 7.13013 8.9053 7.1139 8.60198L6.88937 4.41151ZM9.14286 11.0476C9.14286 11.6788 8.63116 12.1905 8 12.1905C7.36884 12.1905 6.85714 11.6788 6.85714 11.0476C6.85714 10.4165 7.36884 9.90477 8 9.90477C8.63116 9.90477 9.14286 10.4165 9.14286 11.0476Z" fill="#E8102C"/>
</svg>
