<?xml version="1.0" encoding="UTF-8"?>
<svg width="24px" height="24px" viewBox="0 0 24 24" version="1.1" xmlns="http://www.w3.org/2000/svg" xmlns:xlink="http://www.w3.org/1999/xlink">
    <title>external_link_light_theme</title>
    <g id="Page-1" stroke="none" stroke-width="1" fill="none" fill-rule="evenodd">
        <g id="external_link_light_theme" transform="translate(0.000000, 0.000000)">
            <rect id="Rectangle" opacity="0" x="0" y="0" width="24" height="24"></rect>
            <path d="M11.926305,3 C12.3077656,3.00130166 12.6163363,3.31380002 12.6163363,3.6988487 C12.6163363,4.08389738 12.3077656,4.39639573 11.926305,4.39766308 C10.1641974,4.39608233 8.4037608,4.5072002 6.655575,4.73034892 C6.13245243,4.79188363 5.64661683,5.03449269 5.28075,5.41688773 C4.91139966,5.800112 4.68216594,6.29874881 4.63071,6.83087635 C4.467435,8.49158773 4.38462,10.2321452 4.38462,12.0027273 C4.38462,13.7685325 4.4674425,15.5067053 4.631055,17.1698013 C4.7347969,18.2606165 5.57485279,19.1325273 6.6522,19.2675883 C10.2016651,19.713674 13.792232,19.7137884 17.341725,19.2679289 C18.4199692,19.1330044 19.2606524,18.2601587 19.3638825,17.1684084 C19.5300461,15.4878021 19.6122952,13.7998183 19.6103175,12.1108644 C19.6095016,11.8606542 19.7412757,11.6290972 19.9558112,11.5037538 C20.1703466,11.3784103 20.4349009,11.3784103 20.6494363,11.5037538 C20.8639718,11.6290972 20.9957459,11.8606542 20.9949933,12.1108644 C20.9968555,13.8468745 20.9123514,15.5818855 20.7417375,17.3093333 C20.5730343,19.0499543 19.2312267,20.4398288 17.51175,20.6550271 C15.6834448,20.8849211 13.8427738,21 12.0003375,21 C10.1556444,21 8.31272007,20.8847379 6.48216,20.6546864 C4.76295804,20.4393295 3.4215389,19.0494373 3.2531925,17.3090381 C3.085185,15.5991941 3,13.8142735 3,12.0027501 C3,10.1864421 3.085185,8.39913672 3.2531925,6.69099613 C3.42072941,4.94940096 4.76312184,3.55837372 6.48351,3.34364439 C8.28876193,3.11316051 10.1066705,2.9983938 11.926305,3 Z M20.30769,3.00003432 C20.6900354,3.00003432 21,3.3129128 21,3.69885248 L21,8.51037015 C21,8.89630984 20.6900354,9.20918832 20.30769,9.20918832 C19.9253446,9.20918832 19.6153966,8.89630984 19.61538,8.51037015 L19.615,5.462 L12.399225,12.7459238 C12.2695539,12.8771934 12.0933935,12.950874 11.909745,12.950654 C11.6297678,12.950654 11.3773775,12.7803518 11.2702377,12.5192538 C11.1630979,12.2581558 11.2223023,11.9576222 11.42025,11.7577609 L18.712,4.397 L15.490605,4.39766308 C15.1091444,4.39639573 14.8005737,4.08389738 14.8005737,3.6988487 C14.8005737,3.31380002 15.1091444,3.00130166 15.490605,3.00003432 L20.30769,3.00003432 Z" id="Path-2" fill="#FFFFFF" fill-rule="nonzero"></path>
        </g>
    </g>
</svg>