<?xml version="1.0" encoding="UTF-8"?>
<svg width="40px" height="40px" viewBox="0 0 40 40" version="1.1" xmlns="http://www.w3.org/2000/svg" xmlns:xlink="http://www.w3.org/1999/xlink">
    <title>invite_friends_light_theme</title>
    <g id="Page-1" stroke="none" stroke-width="1" fill="none" fill-rule="evenodd">
        <g id="invite_friends_light_theme" transform="translate(0.003038, 0.003038)" fill-rule="nonzero">
            <rect id="Rectangle" fill="#F1F1F1" x="0" y="0" width="40" height="40" rx="8"></rect>
            <path d="M18.58084,20.37015 C21.27664,20.37015 26.5613267,21.69583 26.5613267,24.76029 L26.5613267,26.1846 C26.565561,27.2452663 25.758229,28.1331634 24.70194,28.22952 C22.67117,28.42289 20.62576,28.52005 18.58084,28.52005 C16.53543,28.52005 14.49051,28.42337 12.45926,28.22952 C11.403152,28.1329481 10.5960779,27.2451054 10.600353,26.1846 L10.600353,24.76029 C10.600353,21.69584 15.88504,20.37015 18.58084,20.37015 Z M18.58084,21.96976 C16.06131,21.96976 12.1999772,23.22025 12.1999772,24.76029 L12.1999772,26.1846 C12.1991567,26.4189002 12.377323,26.6150766 12.61062,26.63675 C16.5816282,27.0146796 20.5795518,27.0146796 24.55056,26.63675 C24.784042,26.6152964 24.9624715,26.4190643 24.9616926,26.1846 L24.9616926,24.76029 C24.9616926,23.22025 21.10037,21.96976 18.58084,21.96976 Z M27.981725,14.816925 C28.4234451,14.816925 28.78153,15.1750099 28.78153,15.61673 L28.7813361,17.4343892 L30.59988,17.43509 C31.0416001,17.43509 31.399685,17.7931749 31.399685,18.234895 C31.399685,18.6766151 31.0416001,19.0347 30.59988,19.0347 L28.7813361,19.0343892 L28.78153,20.85306 C28.781591,21.0652015 28.6973452,21.2686718 28.5473385,21.4186785 C28.3973318,21.5686852 28.1938615,21.65287 27.98172,21.65287 C27.769582,21.65287 27.5661158,21.5686827 27.4161115,21.4186785 C27.2661073,21.2686742 27.1818616,21.065208 27.18192,20.85307 L27.1813361,19.0343892 L25.36355,19.0347 C24.9218299,19.0347 24.563745,18.6766151 24.563745,18.234895 C24.563745,17.7931749 24.9218299,17.43509 25.36355,17.43509 L27.1813361,17.4343892 L27.18192,15.61673 C27.18192,15.1750099 27.5400049,14.816925 27.981725,14.816925 Z M20.0520256,11.7736835 C21.5021964,12.3732479 22.448,13.7877732 22.448,15.357 C22.4456921,17.4934799 20.7173063,19.2264468 18.58084,19.2344238 C17.0116187,19.2385785 15.5945948,18.2965077 14.9911939,16.847929 C14.387793,15.3993503 14.716994,13.7298951 15.8251354,12.6188166 C16.9332768,11.507738 18.6018547,11.1741192 20.0520256,11.7736835 Z M18.58084,13.0791166 C17.6586076,13.0749779 16.8248673,13.627314 16.4690566,14.478154 C16.1132458,15.328994 16.3055842,16.3104236 16.9562311,16.9640202 C17.6068781,17.6176168 18.5874276,17.8143925 19.4398683,17.4624338 C20.292309,17.1104752 20.84842,16.2792418 20.84842,15.357 C20.84694,14.1035932 19.8342273,13.0862894 18.58084,13.0791166 Z" id="Shape" fill="#404040"></path>
        </g>
    </g>
</svg>