<?xml version="1.0" encoding="UTF-8"?>
<svg width="24px" height="24px" viewBox="0 0 24 24" version="1.1" xmlns="http://www.w3.org/2000/svg" xmlns:xlink="http://www.w3.org/1999/xlink">
    <title>light_theme_light_theme</title>
    <g id="Page-1" stroke="none" stroke-width="1" fill="none" fill-rule="evenodd">
        <g id="light_theme_light_theme" transform="translate(0.003038, 0.003038)">
            <rect id="Rectangle" opacity="0" x="0" y="0" width="24" height="24"></rect>
            <path d="M12.0025277,18.667987 C12.4263751,18.667987 12.7703618,19.0107999 12.7717568,19.4345914 L12.7717568,21.230864 C12.7717384,21.6556352 12.4273568,22 12.0025318,22 C11.5777036,22 11.2333169,21.6556385 11.2332985,21.230864 L11.2332985,19.4345914 C11.2346936,19.0107999 11.5786803,18.667987 12.0025277,18.667987 Z M7.28737785,16.7158313 C7.58633839,17.014754 7.58795552,17.4989024 7.29099852,17.799815 L6.01958185,19.0710624 C5.8755029,19.2155409 5.67976906,19.2966355 5.47571518,19.2963933 C5.16462876,19.296341 4.88419668,19.1089476 4.765156,18.8215747 C4.64611532,18.5342018 4.71190285,18.2034276 4.93184852,17.9834585 L6.20325685,16.7122111 C6.50420759,16.4152916 6.98841731,16.4169086 7.28737785,16.7158313 Z M17.8021902,16.7122027 L19.0735985,17.9834501 C19.2935442,18.2034193 19.3593317,18.5341935 19.240291,18.8215664 C19.1212504,19.1089393 18.8408183,19.2963326 18.5297318,19.2963933 C18.3256696,19.2966355 18.1299358,19.2155409 17.9858568,19.0710624 L16.7144485,17.7998067 C16.4174915,17.4988941 16.4191086,17.0147456 16.7180692,16.7158229 C17.0170297,16.4169002 17.5012394,16.4152833 17.8021902,16.7122027 Z M13.9563937,7.2860392 C15.8640203,8.07614961 17.1076985,9.93745935 17.1076985,12.0020157 C17.1044426,14.8196078 14.8208557,17.1029057 12.0029068,17.1061612 C9.93808917,17.1061612 8.07654381,15.8626404 7.28633337,13.9552552 C6.49612293,12.04787 6.93287182,9.85234594 8.3929184,8.39248416 C9.85296498,6.93262239 12.048767,6.49592878 13.9563937,7.2860392 Z M4.57276518,11.2321298 C4.84818741,11.2312317 5.10307679,11.3776289 5.24105026,11.6159714 C5.37902373,11.8543139 5.37902373,12.1482259 5.24105026,12.3865685 C5.10307679,12.624911 4.84818741,12.7713081 4.57276518,12.77041 L2.77176518,12.77041 C2.49634296,12.7713081 2.24145357,12.624911 2.1034801,12.3865685 C1.96550663,12.1482259 1.96550663,11.8543139 2.1034801,11.6159714 C2.24145357,11.3776289 2.49634296,11.2312317 2.77176518,11.2321298 L4.57276518,11.2321298 Z M21.2332985,11.2321381 C21.6571436,11.233533 22,11.5774762 22,12.0012699 C22,12.4250637 21.6571436,12.7690069 21.2332985,12.7704017 L19.4371735,12.7704017 C19.0133284,12.7690069 18.670472,12.4250637 18.670472,12.0012699 C18.670472,11.5774762 19.0133284,11.233533 19.4371735,11.2321381 L21.2332985,11.2321381 Z M19.0694042,4.93528793 C19.3681394,5.23398533 19.370012,5.71768888 19.0735985,6.01868978 L17.8021902,7.28994552 C17.6581106,7.43442904 17.4623731,7.51552691 17.2583152,7.51528474 C16.9472288,7.51523236 16.6667967,7.327839 16.547756,7.04046613 C16.4287153,6.75309325 16.4945028,6.42231899 16.7144485,6.20234986 L17.9858652,4.93109413 C18.2869042,4.63471814 18.770669,4.63659053 19.0694042,4.93528793 Z M6.01958185,4.93109413 L7.29099018,6.20234153 C7.51093585,6.42231066 7.57672338,6.75308491 7.4576827,7.04045779 C7.33864202,7.32783067 7.05820994,7.51522403 6.74712352,7.51528474 C6.54306964,7.5155269 6.3473358,7.43443227 6.20325685,7.28995385 L4.93184018,6.01868978 C4.6351661,5.71773015 4.63691759,5.23381236 4.93576246,4.93500761 C5.23460733,4.63620285 5.71858639,4.63445529 6.01958185,4.93109413 Z M12.387875,2.103467 C12.6262477,2.24142301 12.7726634,2.49628013 12.7717651,2.7716675 L12.7717651,4.57243953 C12.7717384,4.99721072 12.4273568,5.3415755 12.0025318,5.3415755 C11.5777036,5.3415755 11.2333169,4.99721397 11.2332902,4.57243953 L11.2332902,2.7716675 C11.232392,2.49628013 11.3788077,2.24142301 11.6171804,2.103467 C11.8555531,1.965511 12.1495023,1.965511 12.387875,2.103467 Z" id="Shape" fill="#1F1F1F" fill-rule="nonzero"></path>
        </g>
    </g>
</svg>