<svg width="40" height="40" viewBox="0 0 40 40" fill="none" xmlns="http://www.w3.org/2000/svg">
<path fill-rule="evenodd" clip-rule="evenodd" d="M25.9719 20.3613C25.7112 20.6832 25.239 20.7328 24.9171 20.4721L17.028 14.083C16.7061 13.8223 16.6565 13.3501 16.9172 13.0282C17.1779 12.7063 17.6501 12.6567 17.972 12.9174L25.8611 19.3064C26.183 19.5671 26.2326 20.0394 25.9719 20.3613Z" fill="white"/>
<path fill-rule="evenodd" clip-rule="evenodd" d="M16.9171 26.9717C17.1778 27.2935 17.6501 27.3432 17.972 27.0825L25.8611 20.6934C26.1829 20.4327 26.2326 19.9604 25.9719 19.6385C25.7112 19.3166 25.2389 19.267 24.917 19.5277L17.0279 25.9168C16.706 26.1775 16.6564 26.6498 16.9171 26.9717Z" fill="white"/>
</svg>
