<svg width="14" height="14" viewBox="0 0 14 14" fill="none" xmlns="http://www.w3.org/2000/svg">
<path fill-rule="evenodd" clip-rule="evenodd" d="M7 14C5.14348 14 3.36301 13.2625 2.05025 11.9497C0.737498 10.637 0 8.85652 0 7C0 5.14348 0.737498 3.36301 2.05025 2.05025C3.36301 0.737498 5.14348 0 7 0C8.85652 0 10.637 0.737498 11.9497 2.05025C13.2625 3.36301 14 5.14348 14 7C14 8.85652 13.2625 10.637 11.9497 11.9497C10.637 13.2625 8.85652 14 7 14ZM9.69763 4.37063L6.125 7.94938L4.55612 6.38225C4.3911 6.22286 4.17007 6.13467 3.94065 6.13666C3.71123 6.13865 3.49177 6.23068 3.32953 6.39291C3.1673 6.55514 3.07528 6.7746 3.07329 7.00402C3.07129 7.23345 3.15949 7.45447 3.31888 7.6195L5.50638 9.807C5.67046 9.97104 5.89298 10.0632 6.125 10.0632C6.35702 10.0632 6.57954 9.97104 6.74362 9.807L10.9349 5.60875C11.0184 5.52803 11.0851 5.43148 11.131 5.32473C11.1768 5.21798 11.201 5.10316 11.202 4.98698C11.203 4.87079 11.1808 4.75557 11.1368 4.64804C11.0928 4.54051 11.0279 4.44281 10.9457 4.36065C10.8636 4.2785 10.7659 4.21353 10.6583 4.16953C10.5508 4.12554 10.4356 4.1034 10.3194 4.10441C10.2032 4.10542 10.0884 4.12955 9.98165 4.17541C9.87489 4.22127 9.77834 4.28793 9.69763 4.3715V4.37063Z" fill="#41CA28"/>
</svg>
