<?xml version="1.0" encoding="UTF-8"?>
<svg width="24px" height="24px" viewBox="0 0 24 24" version="1.1" xmlns="http://www.w3.org/2000/svg" xmlns:xlink="http://www.w3.org/1999/xlink">
    <title>data_secure_light_theme</title>
    <g id="Light-Theme" stroke="none" stroke-width="1" fill="none" fill-rule="evenodd">
        <g id="Connect_Wallet_TermsAgree_desktop" transform="translate(-460.000000, -478.000000)" fill-rule="nonzero">
            <g id="data_secure_light_theme" transform="translate(460.000000, 478.000001)">
                <rect id="Rectangle" opacity="0" x="0" y="0" width="24" height="24"></rect>
                <path d="M14.3870445,2.24901639 C15.474072,2.48089572 16.2520577,3.43563148 16.2561187,4.54272446 L16.2567691,7.837607 C16.6029046,7.86755099 16.9488011,7.9011539 17.2944003,7.93841574 C18.5538331,8.06651177 19.557887,9.04321359 19.7160532,10.2940988 C20.0815814,13.1605842 20.0942465,16.0607964 19.753767,18.9303395 L19.7051164,19.3386061 C19.5669054,20.5383801 18.6476083,21.4932033 17.4654186,21.6921054 L17.2948019,21.7153225 C15.5363392,21.9052266 13.7688482,22.0002571 12.0000763,21.999998 C10.2313125,22.0002507 8.46382989,21.9052146 6.70537578,21.7153058 C5.44149779,21.5836372 4.43919163,20.5951311 4.29468476,19.3378061 L4.24641069,18.9299228 C3.90581137,16.0605284 3.91834995,13.1604492 4.283748,10.2940821 C4.43982428,9.04783176 5.43700766,8.0726589 6.69105003,7.93991574 C7.0429583,7.90187294 7.39517594,7.86762402 7.74764129,7.83716898 L7.7470798,4.54278279 C7.75113358,3.43554505 8.52932658,2.4807272 9.61653893,2.24901639 C11.1892321,1.91699255 12.8143513,1.91699255 14.3870445,2.24901639 Z M11.996679,9.19249851 C10.8908037,9.19235293 9.78544516,9.23065175 8.6826204,9.30728673 C8.63039652,9.32101199 8.57563081,9.32698224 8.5194649,9.32698224 L8.46962525,9.32256671 C7.93640822,9.36201851 7.40381425,9.4104361 6.87207152,9.46780723 C6.32426068,9.52081305 5.8861389,9.94418929 5.81645177,10.4878988 C5.46644871,13.2299544 5.45441573,16.0043418 5.78062068,18.7493062 L5.82889475,19.1575728 C5.89150768,19.7015296 6.32525207,20.1291022 6.87207152,20.185906 C10.2806232,20.553981 13.7191445,20.553981 17.1276962,20.185906 C17.67475,20.1289465 18.1083023,19.7014089 18.1708729,19.1575728 L18.2195236,18.7489312 C18.545227,16.0040557 18.5330678,13.2298382 18.1833159,10.4878988 C18.1157794,9.94850431 17.6840612,9.52650363 17.1412688,9.46930723 C16.6046693,9.41135747 16.0672051,9.36249324 15.529109,9.32272706 L15.4837336,9.32698224 C15.4293496,9.32697271 15.3762787,9.32136667 15.32507,9.31071094 C14.2175419,9.23099193 13.1073715,9.19242417 11.996679,9.19249851 Z M12.5691102,12.3456411 C13.1248784,12.5749349 13.487213,13.1150726 13.4871419,13.7141651 C13.4864774,14.2496992 13.2007772,14.7187003 12.7730005,14.978797 L12.7724949,16.7974064 C12.7724533,17.2222142 12.4266432,17.566573 12.0000763,17.566573 C11.5735355,17.5665315 11.2277663,17.2221882 11.2277247,16.7974064 L11.2277571,14.9798755 C10.9632215,14.8198206 10.7495336,14.5781346 10.625875,14.2808844 C10.3956254,13.7274106 10.5228536,13.0903073 10.9482277,12.6666826 C11.3736018,12.2430579 12.0133419,12.1163472 12.5691102,12.3456411 Z M9.93450011,3.75444955 C9.5607521,3.83397465 9.29320067,4.16217763 9.29185,4.54278279 L9.29176605,7.72809561 C11.0969459,7.62898267 12.9062487,7.62905282 14.7114298,7.72830723 L14.711382,4.54278279 C14.7100506,4.162298 14.4426963,3.8341445 14.0691084,3.75444955 C12.7060446,3.46675002 11.297564,3.46675002 9.93450011,3.75444955 Z" id="Path-2" fill="#B1B1B1"></path>
            </g>
        </g>
    </g>
</svg>