<svg width="54" height="40" viewBox="0 0 54 40" fill="none" xmlns="http://www.w3.org/2000/svg">
<path fill-rule="evenodd" clip-rule="evenodd" d="M0 4C0 1.79086 1.79086 0 4 0L40.0139 0L54 14.0067V36C54 38.2091 52.2091 40 50 40H4C1.79086 40 0 38.2091 0 36V4Z" fill="#333333"/>
<path d="M24.1486 17.4205C24.088 16.8826 23.838 16.466 23.3986 16.1705C22.9592 15.8713 22.4062 15.7216 21.7395 15.7216C21.2623 15.7216 20.8494 15.7974 20.5009 15.9489C20.1524 16.0966 19.8816 16.3012 19.6884 16.5625C19.499 16.8201 19.4043 17.1137 19.4043 17.4432C19.4043 17.7197 19.4687 17.9584 19.5975 18.1591C19.7301 18.3599 19.9024 18.5285 20.1145 18.6648C20.3304 18.7974 20.5615 18.9091 20.8077 19C21.0539 19.0872 21.2907 19.1591 21.5179 19.216L22.6543 19.5114C23.0255 19.6023 23.4062 19.7254 23.7963 19.8807C24.1865 20.036 24.5482 20.2406 24.8816 20.4944C25.2149 20.7482 25.4838 21.0625 25.6884 21.4375C25.8967 21.8125 26.0009 22.2614 26.0009 22.7841C26.0009 23.4432 25.8304 24.0285 25.4895 24.5398C25.1524 25.0512 24.6619 25.4546 24.0179 25.75C23.3778 26.0455 22.6032 26.1932 21.6941 26.1932C20.8229 26.1932 20.0691 26.055 19.4327 25.7785C18.7963 25.5019 18.2982 25.1099 17.9384 24.6023C17.5785 24.091 17.3797 23.4849 17.3418 22.7841H19.1032C19.1373 23.2046 19.2736 23.555 19.5123 23.8353C19.7547 24.1118 20.0634 24.3182 20.4384 24.4546C20.8172 24.5872 21.2319 24.6535 21.6827 24.6535C22.1789 24.6535 22.6202 24.5758 23.0066 24.4205C23.3967 24.2614 23.7035 24.0417 23.927 23.7614C24.1505 23.4773 24.2623 23.1459 24.2623 22.7671C24.2623 22.4224 24.1638 22.1402 23.9668 21.9205C23.7736 21.7008 23.5104 21.519 23.177 21.375C22.8475 21.2311 22.4744 21.1042 22.0577 20.9944L20.6827 20.6194C19.7509 20.3656 19.0123 19.9925 18.4668 19.5C17.9251 19.0076 17.6543 18.3561 17.6543 17.5455C17.6543 16.875 17.8361 16.2898 18.1998 15.7898C18.5634 15.2898 19.0558 14.9016 19.677 14.625C20.2982 14.3447 20.999 14.2046 21.7793 14.2046C22.5672 14.2046 23.2623 14.3428 23.8645 14.6194C24.4706 14.8959 24.9479 15.2766 25.2963 15.7614C25.6448 16.2425 25.8266 16.7955 25.8418 17.4205H24.1486Z" fill="white"/>
<path d="M31.383 24.0455V16.3637H32.9114V24.0455H31.383ZM28.3091 20.966V19.4432H35.9909V20.966H28.3091Z" fill="white"/>
<path fill-rule="evenodd" clip-rule="evenodd" d="M40.0137 0L53.9998 14.0067C53.9998 14.0067 42.2171 14.0067 41.4997 14.0067C40.7822 14.0067 40.0137 13.1122 40.0137 12.468C40.0137 11.8238 40.0137 0 40.0137 0Z" fill="#FF930F"/>
</svg>
