<?xml version="1.0" encoding="UTF-8"?>
<svg width="40px" height="40px" viewBox="0 0 40 40" version="1.1" xmlns="http://www.w3.org/2000/svg" xmlns:xlink="http://www.w3.org/1999/xlink">
    <title>savings_light_theme</title>
    <g id="Page-1" stroke="none" stroke-width="1" fill="none" fill-rule="evenodd">
        <g id="savings_light_theme" transform="translate(0.000000, 0.000000)" fill-rule="nonzero">
            <rect id="Rectangle" fill="#333333" x="0" y="0" width="40" height="40" rx="8"></rect>
            <path d="M20.000205,9.600265 C20.4419251,9.600265 20.80001,9.9583499 20.80001,10.40007 L20.799305,19.200265 L29.59981,19.20039 C30.0415301,19.20039 30.399615,19.5584749 30.399615,20.000195 C30.399615,20.4419151 30.0415301,20.8 29.59981,20.8 L20.799305,20.799265 L20.80001,29.59977 C20.800071,29.8119115 20.7158252,30.0153818 20.5658185,30.1653885 C20.4158118,30.3153952 20.2123415,30.39958 20.0002,30.39958 C19.788062,30.39958 19.5845958,30.3153927 19.4345915,30.1653885 C19.2845873,30.0153842 19.2003416,29.811918 19.2004,29.59978 L19.200305,20.799265 L10.40011,20.8 C9.9583899,20.8 9.600305,20.4419151 9.600305,20.000195 C9.600305,19.5584749 9.9583899,19.20039 10.40011,19.20039 L19.200305,19.200265 L19.2004,10.40007 C19.2004,9.9583499 19.5584849,9.600265 20.000205,9.600265 Z" id="Path-3" fill="#FFFFFF"></path>
        </g>
    </g>
</svg>