<?xml version="1.0" encoding="UTF-8"?>
<svg width="24px" height="24px" viewBox="0 0 24 24" version="1.1" xmlns="http://www.w3.org/2000/svg" xmlns:xlink="http://www.w3.org/1999/xlink">
    <title>savings_overview_light_theme</title>
    <g id="Light-Theme" stroke="none" stroke-width="1" fill="none" fill-rule="evenodd">
        <g id="Savings+_Overview_desktop" transform="translate(-320.000000, -80.000000)" fill-rule="nonzero">
            <g id="savings_overview_light_theme" transform="translate(320.003038, 80.003038)">
                <rect id="Rectangle" opacity="0" x="0" y="0" width="24" height="24"></rect>
                <path d="M12.3460493,3.09008208 C12.5605847,3.21424249 12.6923588,3.4436139 12.6915467,3.69146253 L12.6909618,11.3049618 L20.3069304,11.3058823 C20.6883911,11.3071415 20.9969618,11.6166903 20.9969618,11.9981047 C20.9969618,12.3795191 20.6883911,12.689068 20.3069304,12.6903271 L12.6909618,12.6899618 L12.6915467,20.3047394 C12.6915264,20.6870335 12.3815829,20.9969618 11.9992404,20.9969618 C11.6168951,20.9969618 11.306947,20.6870364 11.3069267,20.3047394 L11.3059618,12.6899618 L3.69155045,12.6903271 C3.44367044,12.6911391 3.21426999,12.5593817 3.09009387,12.3448734 C2.96591775,12.1303651 2.96591775,11.8658443 3.09009387,11.651336 C3.21426999,11.4368278 3.44367044,11.3050703 3.69155045,11.3058823 L11.3059618,11.3049618 L11.3069267,3.69146253 C11.3061146,3.4436139 11.4378887,3.21424249 11.6524241,3.09008208 C11.8669595,2.96592168 12.1315138,2.96592168 12.3460493,3.09008208 Z" id="Path-2" fill="#404040"></path>
            </g>
        </g>
    </g>
</svg>