<svg width="54" height="40" viewBox="0 0 54 40" fill="none" xmlns="http://www.w3.org/2000/svg">
<path fill-rule="evenodd" clip-rule="evenodd" d="M0 4C0 1.79086 1.79086 0 4 0L40.0139 0L54 14.0067V36C54 38.2091 52.2091 40 50 40H4C1.79086 40 0 38.2091 0 36V4Z" fill="white"/>
<path d="M24.1486 17.42C24.088 16.8821 23.838 16.4655 23.3986 16.17C22.9592 15.8708 22.4062 15.7211 21.7395 15.7211C21.2623 15.7211 20.8494 15.7969 20.5009 15.9484C20.1524 16.0961 19.8816 16.3007 19.6884 16.5621C19.499 16.8196 19.4043 17.1132 19.4043 17.4427C19.4043 17.7193 19.4687 17.9579 19.5975 18.1586C19.7301 18.3594 19.9024 18.528 20.1145 18.6643C20.3304 18.7969 20.5615 18.9086 20.8077 18.9996C21.0539 19.0867 21.2907 19.1586 21.5179 19.2155L22.6543 19.5109C23.0255 19.6018 23.4062 19.7249 23.7963 19.8802C24.1865 20.0355 24.5482 20.2401 24.8816 20.4939C25.2149 20.7477 25.4838 21.0621 25.6884 21.4371C25.8967 21.8121 26.0009 22.2609 26.0009 22.7836C26.0009 23.4427 25.8304 24.028 25.4895 24.5393C25.1524 25.0507 24.6619 25.4541 24.0179 25.7496C23.3778 26.045 22.6032 26.1927 21.6941 26.1927C20.8229 26.1927 20.0691 26.0545 19.4327 25.778C18.7963 25.5015 18.2982 25.1094 17.9384 24.6018C17.5785 24.0905 17.3797 23.4844 17.3418 22.7836H19.1032C19.1373 23.2041 19.2736 23.5545 19.5123 23.8348C19.7547 24.1113 20.0634 24.3177 20.4384 24.4541C20.8172 24.5867 21.2319 24.653 21.6827 24.653C22.1789 24.653 22.6202 24.5753 23.0066 24.42C23.3967 24.2609 23.7035 24.0412 23.927 23.7609C24.1505 23.4768 24.2623 23.1454 24.2623 22.7666C24.2623 22.4219 24.1638 22.1397 23.9668 21.92C23.7736 21.7003 23.5104 21.5185 23.177 21.3746C22.8475 21.2306 22.4744 21.1037 22.0577 20.9939L20.6827 20.6189C19.7509 20.3651 19.0123 19.992 18.4668 19.4996C17.9251 19.0071 17.6543 18.3556 17.6543 17.545C17.6543 16.8746 17.8361 16.2893 18.1998 15.7893C18.5634 15.2893 19.0558 14.9011 19.677 14.6246C20.2982 14.3443 20.999 14.2041 21.7793 14.2041C22.5672 14.2041 23.2623 14.3424 23.8645 14.6189C24.4706 14.8954 24.9479 15.2761 25.2963 15.7609C25.6448 16.242 25.8266 16.795 25.8418 17.42H24.1486Z" fill="#333333"/>
<path d="M31.383 24.045V16.3632H32.9114V24.045H31.383ZM28.3091 20.9655V19.4427H35.9909V20.9655H28.3091Z" fill="#333333"/>
<path fill-rule="evenodd" clip-rule="evenodd" d="M40.0137 0L53.9998 14.0067C53.9998 14.0067 42.2171 14.0067 41.4997 14.0067C40.7822 14.0067 40.0137 13.1122 40.0137 12.468C40.0137 11.8238 40.0137 0 40.0137 0Z" fill="#FF930F"/>
</svg>
