<?xml version="1.0" encoding="UTF-8"?>
<svg width="24px" height="24px" viewBox="0 0 24 24" version="1.1" xmlns="http://www.w3.org/2000/svg" xmlns:xlink="http://www.w3.org/1999/xlink">
    <title>search_light_theme</title>
    <g id="Page-1" stroke="none" stroke-width="1" fill="none" fill-rule="evenodd">
        <g id="search_light_theme" transform="translate(0.000332, 0.000022)">
            <rect id="Rectangle" opacity="0" x="0" y="0" width="24" height="24"></rect>
            <path d="M10.3180781,2.99997841 C12.1568219,2.99997841 13.9242146,3.69199991 15.2720624,4.93181013 L15.4927593,5.14349256 C17.5857002,7.2364922 18.2117925,10.384161 17.0790955,13.1187724 C16.795578,13.8032539 16.4158446,14.4281208 15.9594077,14.9803328 L20.7969268,19.8181811 C20.9948824,20.0161784 21.0540935,20.3139179 20.9469553,20.57259 C20.8398171,20.831262 20.5874237,20.9999784 20.3074439,20.9999784 C20.1237972,21.0001964 19.9476384,20.927202 19.8179685,20.7971551 L14.9800469,15.9593653 C13.694733,17.0212595 12.0566876,17.6364706 10.3180781,17.6364706 C7.3581538,17.6364706 4.68965147,15.8534898 3.55693564,13.1188377 C2.42421981,10.3841856 3.05036638,7.23646609 5.1433969,5.14349256 C6.51578481,3.77102705 8.37718186,2.99997841 10.3180781,2.99997841 Z M10.3180931,4.38456168 C7.91819276,4.38456168 5.75461551,5.83032802 4.83620728,8.04756308 C3.91779905,10.2647981 4.42541866,12.8169491 6.12237016,14.5139836 C8.44075125,16.8245165 12.1922326,16.8213282 14.5066831,14.5068581 C16.760227,12.2532951 16.8225534,8.63732773 14.6914107,6.30843084 L14.5138085,6.12247413 C13.4034604,5.00607649 11.8926334,4.38029087 10.3180931,4.38456168 Z" id="Shape" fill="#999999" fill-rule="nonzero"></path>
        </g>
    </g>
</svg>