<svg width="16" height="16" viewBox="0 0 16 16" fill="none" xmlns="http://www.w3.org/2000/svg">
<rect opacity="0.01" width="16" height="16" fill="white"/>
<path fill-rule="evenodd" clip-rule="evenodd" d="M12.2927 5.52567C12.0957 5.71917 11.7791 5.71631 11.5857 5.5193L7.71002 1.57314C7.51653 1.37613 7.51939 1.05956 7.7164 0.866065C7.91341 0.672571 8.22998 0.675426 8.42348 0.87244L12.2991 4.81859C12.4926 5.01561 12.4897 5.33218 12.2927 5.52567Z" fill="white"/>
<path fill-rule="evenodd" clip-rule="evenodd" d="M8.28262 0.86593C8.47964 1.05942 8.48249 1.37599 8.289 1.57301L4.41337 5.51916C4.21987 5.71618 3.9033 5.71903 3.70629 5.52554C3.50927 5.33204 3.50642 5.01547 3.69991 4.81846L7.57555 0.872305C7.76904 0.67529 8.08561 0.672436 8.28262 0.86593Z" fill="white"/>
<path fill-rule="evenodd" clip-rule="evenodd" d="M3.70629 10.8659C3.9033 10.6724 4.21987 10.6753 4.41337 10.8723L8.289 14.8185C8.48249 15.0155 8.47964 15.332 8.28262 15.5255C8.08561 15.719 7.76904 15.7162 7.57555 15.5192L3.69991 11.573C3.50642 11.376 3.50927 11.0594 3.70629 10.8659Z" fill="white"/>
<path fill-rule="evenodd" clip-rule="evenodd" d="M7.7164 15.5257C7.51939 15.3322 7.51653 15.0156 7.71002 14.8186L11.5857 10.8724C11.7791 10.6754 12.0957 10.6726 12.2927 10.8661C12.4897 11.0596 12.4926 11.3761 12.2991 11.5731L8.42348 15.5193C8.22998 15.7163 7.91341 15.7192 7.7164 15.5257Z" fill="white"/>
</svg>
