<?xml version="1.0" encoding="UTF-8"?>
<svg width="16px" height="16px" viewBox="0 0 16 16" version="1.1" xmlns="http://www.w3.org/2000/svg" xmlns:xlink="http://www.w3.org/1999/xlink">
    <title>settings_small_light_theme</title>
    <g id="Page-1" stroke="none" stroke-width="1" fill="none" fill-rule="evenodd">
        <g id="settings_small_light_theme" transform="translate(0.000000, 0.000000)" fill-rule="nonzero">
            <g id="Group-15" fill="#333333">
                <circle id="Oval" cx="8" cy="8" r="8"></circle>
            </g>
            <g transform="translate(3.000000, 3.000000)">
                <rect id="Rectangle" opacity="0" x="0" y="0" width="10" height="9.99999563"></rect>
                <path d="M5.00009167,10.0000022 C4.68839216,10.0000022 4.37804683,9.95899354 4.077025,9.87810818 C3.76149259,9.78929121 3.54442127,9.5003049 3.547025,9.17252099 C3.54496704,9.00914802 3.4460843,8.86259862 3.29535833,8.79953782 C3.0382444,8.68366563 2.79354042,8.5420248 2.565,8.376788 C2.4348694,8.27680999 2.25771642,8.26388694 2.11445417,8.34392135 C1.8254897,8.5114539 1.45987321,8.46291632 1.22462917,8.22579224 C0.787926478,7.7856003 0.47397407,7.2388258 0.31395,6.63976793 C0.232999985,6.32209438 0.374696132,5.98954506 0.6598875,5.82788078 C0.801347748,5.74333404 0.878663121,5.58249478 0.856333333,5.4192143 C0.826534776,5.14055322 0.826534776,4.85950907 0.856333333,4.580848 C0.878836539,4.41754027 0.801477341,4.25660984 0.6598875,4.17218151 C0.374698733,4.01041768 0.233018326,3.67782509 0.31395,3.36009853 C0.475556041,2.75531055 0.793901935,2.20387986 1.23683333,1.7615034 C1.47163736,1.53287346 1.83028118,1.48936041 2.11294583,1.65520761 C2.25646749,1.73587653 2.43424216,1.72332009 2.565,1.62327846 C2.7934968,1.45791275 3.03821326,1.3162051 3.295375,1.20034114 C3.44601344,1.1374811 3.54490863,0.991134303 3.54704167,0.827920471 C3.54429907,0.499971915 3.76136645,0.210751375 4.077025,0.12177078 C4.68163025,-0.0405873445 5.31836559,-0.0405873445 5.92297083,0.12177078 C6.23859409,0.210491065 6.45576378,0.499512907 6.45314583,0.827357972 C6.45509863,0.990706189 6.55391977,1.13727834 6.70461667,1.20034114 C6.96174913,1.31619256 7.20646345,1.45783453 7.435,1.62309096 C7.56531635,1.72276759 7.74233585,1.73567553 7.88573333,1.65595761 C8.16852606,1.48900668 8.52812561,1.53233969 8.7631625,1.7616909 C9.20612616,2.20397112 9.52447877,2.75535412 9.68604167,3.36010686 C9.76697097,3.6776858 9.62546149,4.01015744 9.34047917,4.17199401 C9.19873267,4.25630769 9.12121121,4.41726841 9.14365833,4.5806605 C9.17351964,4.85950961 9.17345678,5.14075356 9.14347083,5.4195893 C9.12141437,5.58286873 9.19884647,5.74357015 9.34029167,5.82806828 C9.62538922,5.98971609 9.76700985,6.32219162 9.68604167,6.63976793 C9.52598634,7.23890743 9.21197062,7.78574927 8.77518333,8.22597974 C8.54032482,8.4625951 8.1755212,8.51126009 7.88685,8.34448385 C7.74326059,8.26430601 7.56579324,8.27691971 7.4349875,8.3766005 C7.20650123,8.54198587 6.96178147,8.68369602 6.70460833,8.79954199 C6.55403219,8.86244456 6.4552154,9.00878922 6.4531375,9.17196266 C6.45588519,9.49987682 6.2387898,9.78904877 5.9231375,9.87792485 L5.92295,9.87811235 C5.62199859,9.95899449 5.31172234,10.0000022 5.00009167,10.0000022 Z M4.3159125,9.14547933 C4.76493109,9.25928959 5.23524808,9.25928959 5.68426667,9.14547933 C5.69840039,8.68985904 5.97238222,8.2826465 6.38910417,8.09789646 C6.59867999,8.00353318 6.79809588,7.88806194 6.9842625,7.75327161 C7.35337339,7.48296227 7.84490776,7.44862943 8.2480125,7.66500081 C8.57098084,7.33313223 8.80607345,6.92594866 8.93200417,6.480318 C8.54251128,6.23831454 8.32709363,5.79373852 8.3785375,5.338081 C8.39067347,5.22574368 8.39675449,5.1128346 8.39675417,4.99984365 C8.3967279,4.88704553 8.39070969,4.77432843 8.378725,4.66216879 C8.32693583,4.20640121 8.54242956,3.76159516 8.93219167,3.51974429 C8.80619012,3.07399485 8.57104335,2.66669277 8.248025,2.33468648 C7.84496026,2.55113083 7.35341773,2.51687197 6.984275,2.24660735 C6.79810838,2.11181702 6.59869249,1.99634578 6.38911667,1.9019825 C5.97232534,1.71731518 5.69831013,1.31005301 5.68427917,0.854399626 C5.23526058,0.740589371 4.76494359,0.740589371 4.315925,0.854399626 C4.30179043,1.31007414 4.02771737,1.71731394 3.6109,1.9019825 C3.40133397,1.99636487 3.20191997,2.11183502 3.01574167,2.24660735 C2.64668444,2.51710554 2.15500413,2.55137401 1.75199167,2.33468648 C1.4289633,2.66668519 1.19381498,3.07398997 1.067825,3.51974429 C1.45747301,3.76153182 1.6730014,4.20612949 1.62145833,4.66179379 C1.59716876,4.88663265 1.59716876,5.11343381 1.62145833,5.33827267 C1.67285777,5.79387152 1.45744215,6.23837038 1.06799167,6.48032217 C1.19392365,6.92594985 1.42901618,7.33313042 1.75198333,7.66499665 C2.15511823,7.44865481 2.64666831,7.48306168 3.01573333,7.75345494 C3.20196044,7.8880995 3.40136759,8.00350286 3.61089167,8.09789229 C4.02774376,8.28252094 4.30183215,8.68978755 4.3159125,9.14547933 Z M5.00009167,7.00374694 C4.18962984,7.00374694 3.45894804,6.51561021 3.14876231,5.76685612 C2.83857657,5.01810202 3.00997274,4.15622377 3.58302898,3.58311416 C4.15608522,3.01000455 5.0179478,2.83852781 5.76673124,3.14864334 C6.51551468,3.45875888 7.00379583,4.18939468 7.00379583,4.99985615 C7.00248505,6.10595789 6.10619376,7.00233265 5.00009167,7.00374694 Z M5.00009167,3.76541502 C4.50074705,3.76537626 4.05055137,4.06614936 3.85944255,4.52747601 C3.66833373,4.98880267 3.77395014,5.51982585 4.12704011,5.87291566 C4.48013007,6.22600547 5.01115348,6.33162184 5.47248034,6.1405131 C5.9338072,5.94940437 6.23458043,5.49920888 6.23454167,4.99986448 C6.23370142,4.31844521 5.68151123,3.76625527 5.00009167,3.76541502 Z" id="Shape" fill="#FFFFFF"></path>
            </g>
        </g>
    </g>
</svg>