<?xml version="1.0" encoding="UTF-8"?>
<svg width="40px" height="40px" viewBox="0 0 40 40" version="1.1" xmlns="http://www.w3.org/2000/svg" xmlns:xlink="http://www.w3.org/1999/xlink">
    <title>settings_big_light_theme</title>
    <g id="Light-Theme" stroke="none" stroke-width="1" fill="none" fill-rule="evenodd">
        <g id="Card_General_desktop" transform="translate(-1360.000000, -40.000000)" fill-rule="nonzero">
            <g id="settings_big_light_theme" transform="translate(1360.000000, 40.000000)">
                <rect id="Rectangle" fill="#F1F1F1" x="0" y="0" width="40" height="40" rx="19.99998"></rect>
                <path d="M19.99975,30.3996701 C19.3515956,30.3996701 18.7062497,30.3145238 18.08032,30.14625 C17.4240508,29.9616562 16.9724801,29.3607156 16.97777,28.679 C16.9736889,28.3389934 16.7679968,28.0339094 16.45433,27.90263 C15.919776,27.6616712 15.4109972,27.3671989 14.93578,27.02372 C14.6649819,26.8152357 14.2959442,26.7883408 13.99778,26.95536 C13.3967513,27.3025743 12.6372984,27.2017532 12.14768,26.70975 C11.2392755,25.794187 10.5861503,24.6569398 10.25315,23.41092 C10.0852711,22.7503422 10.3797379,22.0590552 10.97239,21.72244 C11.266749,21.5468527 11.4278011,21.2124487 11.38157,20.87283 C11.3197209,20.2929311 11.3197209,19.7080989 11.38157,19.1282 C11.4281047,18.788522 11.2672311,18.4538953 10.97288,18.2781 C10.3803728,17.9418045 10.0855798,17.2510849 10.25267,16.5906 C10.5890703,15.3322488 11.2514974,14.1849182 12.17308,13.26443 C12.6610967,12.7880629 13.4077229,12.697637 13.99535,13.04373 C14.2938021,13.2108488 14.6630368,13.1845589 14.9348,12.97684 C15.4102484,12.6333371 15.9191622,12.3387131 16.4538,12.09745 C16.7673935,11.9668013 16.9733142,11.6622417 16.97773,11.32255 C16.972068,10.6405417 17.4233879,10.039048 18.07978,9.8538 C19.337427,9.51591021 20.661973,9.51591021 21.91962,9.8538 C22.5758996,10.0384014 23.0274692,10.6393624 23.02216,11.32109 C23.0262411,11.6610966 23.2319332,11.9661806 23.5456,12.09746 C24.080154,12.3384188 24.5889328,12.6328911 25.06415,12.97637 C25.3352031,13.1836856 25.7033901,13.2105328 26.00165,13.04473 C26.5899066,12.6976114 27.337784,12.787646 27.82685,13.26446 C28.7486285,14.1843343 29.4109596,15.3314566 29.74677,16.58966 C29.9145502,17.2500967 29.620081,17.9411928 29.02753,18.27766 C28.733171,18.4532473 28.5721189,18.7876513 28.61835,19.12727 C28.6801991,19.7071689 28.6801991,20.2920011 28.61835,20.8719 C28.5718153,21.211578 28.7326889,21.5462047 29.02704,21.722 C29.6195472,22.0582955 29.9143402,22.7490151 29.74725,23.4095 C29.4141478,24.6562644 28.7606779,25.7941958 27.85174,26.71028 C27.3631747,27.201843 26.6049684,27.3030565 26.00457,26.95686 C25.7065089,26.7882821 25.3365019,26.814438 25.06512,27.02327 C24.5896716,27.3667729 24.0807578,27.6613969 23.54612,27.90266 C23.2325265,28.0333087 23.0266058,28.3378683 23.02219,28.67756 C23.027852,29.3595683 22.5765321,29.961062 21.92014,30.14631 L21.91965,30.14631 C21.2935636,30.3145939 20.6480583,30.3996701 19.99975,30.3996701 L19.99975,30.3996701 Z M18.57689,28.62233 C19.5108419,28.8591458 20.4891281,28.8591458 21.42308,28.62233 C21.4523922,27.6746038 22.0224398,26.8276012 22.88939,26.44362 C23.3252161,26.2469583 23.7400788,26.0068078 24.12767,25.72682 C24.9105498,25.1523529 25.9576777,25.0908007 26.80247,25.56959 C27.4413506,24.8524285 27.9116607,24.0013971 28.17893,23.07887 C27.3679838,22.5761411 26.9196165,21.6508775 27.02756,20.70287 C27.0776906,20.2352965 27.0776906,19.7637035 27.02756,19.29613 C26.9200789,18.3484737 27.3683799,17.4237364 28.17893,16.92113 C27.9170197,15.9940016 27.4277789,15.1469339 26.75559,14.45677 C25.917054,14.9061593 24.8950906,14.8347772 24.12717,14.27318 C23.739712,13.9929867 23.3248279,13.7528238 22.88889,13.55638 C22.0220082,13.1724017 21.4521119,12.3253408 21.42307,11.37767 C20.4891181,11.1408542 19.5108319,11.1408542 18.57688,11.37767 C18.5475678,12.3253962 17.9775202,13.1723988 17.11057,13.55638 C16.6747439,13.7530417 16.2598812,13.9931922 15.87229,14.27318 C15.104889,14.8356934 14.0825205,14.9071171 13.24436,14.45677 C12.5725974,15.1472715 12.0834173,15.9942326 11.821,16.92116 C12.6319462,17.4238889 13.0803135,18.3491525 12.97237,19.29716 C12.9222394,19.7647335 12.9222394,20.2363265 12.97237,20.7039 C13.0798511,21.6515563 12.6315501,22.5762936 11.821,23.0789 C12.0882398,24.0238059 12.5913322,24.8852535 13.283,25.58229 C14.094551,25.095143 15.1212172,25.1526132 15.87333,25.72729 C16.2606779,26.007248 16.675392,26.2472434 17.11112,26.4436 C17.9779926,26.8275931 18.5478729,27.6746612 18.5769,28.62233 L18.57689,28.62233 Z M20.00024,24.16725 C18.314608,24.1674441 16.7948463,23.1521933 16.1496483,21.5949282 C15.5044503,20.037663 15.8608838,18.2450768 17.0527369,17.0530864 C18.2445901,15.8610959 20.0371352,15.504456 21.5944747,16.1494746 C23.1518141,16.7944932 24.16724,18.314138 24.16724,19.99977 C24.1645624,22.3001083 22.300578,24.1643075 20.00024,24.16725 Z M20.00024,17.4319 C18.961589,17.4317018 18.0251,18.0572176 17.6274881,19.0167491 C17.2298762,19.9762807 17.4494513,21.0808477 18.1838185,21.815355 C18.9181856,22.5498623 20.0227107,22.7696481 20.9823181,22.3722194 C21.9419255,21.9747906 22.56762,21.0384211 22.56762,19.99977 C22.5660774,18.5824053 21.4176044,17.4337131 20.00024,17.4319 Z" id="Shape" fill="#404040"></path>
            </g>
        </g>
    </g>
</svg>