<?xml version="1.0" encoding="UTF-8"?>
<svg width="24px" height="24px" viewBox="0 0 24 24" version="1.1" xmlns="http://www.w3.org/2000/svg" xmlns:xlink="http://www.w3.org/1999/xlink">
    <title>smart_treasury_overview_light_theme</title>
    <g id="Page-1" stroke="none" stroke-width="1" fill="none" fill-rule="evenodd">
        <g id="smart_treasury_overview_light_theme" transform="translate(0.000238, 0.000000)">
            <rect id="Rectangle" opacity="0" x="0" y="0" width="24" height="24"></rect>
            <path d="M12.000993,7.29667861 C12.6434797,7.29667861 13.1643181,7.82968076 13.1643181,8.48717224 C13.1643181,9.14466371 12.6434797,9.67766586 12.000993,9.67766586 C11.3585063,9.67766586 10.8376679,9.14466371 10.8376679,8.48717224 C10.8376679,7.82968076 11.3585063,7.29667861 12.000993,7.29667861 Z M12.2629513,3.05242084 L13.3959691,3.52437856 C16.0379018,4.62449361 18.5111493,6.10844244 20.7394722,7.93048133 C21.0382487,8.17470238 21.0869929,8.62054543 20.8483452,8.92629967 C20.6096976,9.2320539 20.1740293,9.28193642 19.8752527,9.03771538 C17.7506382,7.30080941 15.3926557,5.88609172 12.8739199,4.83712897 L12.001923,4.47382007 L11.1268886,4.83853351 C8.60775054,5.88798006 6.2495159,7.30340386 4.12487329,9.04117686 C4.00230141,9.14171986 3.84985138,9.19640947 3.69276355,9.19619231 C3.39851979,9.19640163 3.13627667,9.00629817 3.03885655,8.72216529 C2.94143643,8.43803241 3.03011539,8.12192336 3.25997881,7.9339428 C5.48865147,6.11114534 7.96235689,4.62649817 10.6048394,3.52576775 L11.7409022,3.05242084 C11.9082169,2.98252639 12.0956366,2.98252639 12.2629513,3.05242084 Z M5.45569479,17.3699964 C5.07327071,17.3699964 4.76325992,17.0527244 4.76323921,16.6613691 L4.76323921,12.5524926 C4.76323921,12.299323 4.89522121,12.0653847 5.10946887,11.9387999 C5.32371654,11.8122152 5.58768055,11.8122152 5.80192821,11.9387999 C6.01617587,12.0653847 6.14815787,12.299323 6.14815787,12.5524926 L6.14815787,16.6613691 C6.14813716,17.0527274 5.8381218,17.3699964 5.45569479,17.3699964 L5.45569479,17.3699964 Z M9.81973693,17.3699964 C9.43731285,17.3699964 9.12730206,17.0527244 9.12728135,16.6613691 L9.12728135,12.5524926 C9.12728135,12.1611264 9.43730595,11.8438614 9.81974068,11.8438614 C10.2021754,11.8438614 10.5122,12.1611264 10.5122,12.5524926 L10.5122,16.6613691 C10.5121793,17.0527274 10.2021639,17.3699964 9.81973693,17.3699964 Z M14.1841166,17.3699964 C13.8016925,17.3699964 13.4916817,17.0527244 13.491661,16.6613691 L13.491661,12.5524926 C13.491661,12.1611264 13.8016856,11.8438614 14.1841203,11.8438614 C14.566555,11.8438614 14.8765796,12.1611264 14.8765796,12.5524926 L14.8765796,16.6613691 C14.8765589,17.0527274 14.5665436,17.3699964 14.1841166,17.3699964 L14.1841166,17.3699964 Z M18.5484962,17.3699964 C18.1660721,17.3699964 17.8560613,17.0527244 17.8560406,16.6613691 L17.8560406,12.5524926 C17.8560406,12.1611264 18.1660652,11.8438614 18.5484999,11.8438614 C18.9309347,11.8438614 19.2409593,12.1611264 19.2409593,12.5524926 L19.2409593,16.6613691 C19.2409386,17.0527274 18.9309232,17.3699964 18.5484962,17.3699964 Z M19.7738159,21 L4.23036762,21 C3.84793289,21 3.53790829,20.682735 3.53790829,20.2913688 C3.53790829,19.9000026 3.84793289,19.5827376 4.23036762,19.5827376 L19.7738159,19.5827376 C20.1562506,19.5827376 20.4662752,19.9000026 20.4662752,20.2913688 C20.4662752,20.682735 20.1562506,21 19.7738159,21 Z" id="Oval-2" fill="#FFFFFF" fill-rule="nonzero"></path>
        </g>
    </g>
</svg>