<?xml version="1.0" encoding="UTF-8"?>
<svg width="40px" height="40px" viewBox="0 0 40 40" version="1.1" xmlns="http://www.w3.org/2000/svg" xmlns:xlink="http://www.w3.org/1999/xlink">
    <title>smart_treasury_light_theme</title>
    <g id="Page-1" stroke="none" stroke-width="1" fill="none" fill-rule="evenodd">
        <g id="smart_treasury_light_theme" transform="translate(0.000000, 0.000000)" fill-rule="nonzero">
            <rect id="Rectangle" fill="#333333" x="0" y="0" width="40" height="40" rx="8"></rect>
            <path d="M19.99968,14.68999 C20.7397416,14.68999 21.33968,15.292167 21.33968,16.03499 C21.33968,16.777813 20.7397416,17.37999 19.99968,17.37999 C19.2596184,17.37999 18.65968,16.777813 18.65968,16.03499 C18.65968,15.292167 19.2596184,14.68999 19.99968,14.68999 Z M20.30182,9.89846 L21.6109,10.43117 C24.6627005,11.6736101 27.5197917,13.3488246 30.0943,15.40529 C30.319516,15.5829474 30.4323402,15.8676128 30.3899816,16.1513206 C30.347623,16.4350285 30.1565696,16.6743239 29.8892825,16.7784488 C29.6219954,16.8825737 29.3194144,16.8355796 29.0963,16.65529 C26.6416301,14.6945917 23.917376,13.0976324 21.00743,11.91359 L20.00011,11.50343 L18.98937,11.91505 C16.0787718,13.0994226 13.3541313,14.6972387 10.89953,16.65919 C10.7579025,16.7725424 10.581853,16.8342063 10.40045,16.834001 C10.0604999,16.8343537 9.75746783,16.6197829 9.64490039,16.2990107 C9.53233296,15.9782386 9.63482752,15.6213577 9.90045,15.4092 C12.4752048,13.3515484 15.3330198,11.6756378 18.3858,10.43313 L19.6983,9.89846 C19.8918881,9.82033348 20.1082319,9.82033348 20.30182,9.89846 Z M12.43707,26.062 C12.224932,26.062 12.0214658,25.9778127 11.8714615,25.8278085 C11.7214573,25.6778042 11.6372116,25.474338 11.63727,25.2622 L11.63727,20.62357 C11.63727,20.1818499 11.9953549,19.823765 12.437075,19.823765 C12.8787951,19.823765 13.23688,20.1818499 13.23688,20.62357 L13.23688,25.26224 C13.2369278,25.4743728 13.1526761,25.6778303 13.0026708,25.8278261 C12.8526655,25.977822 12.6492028,26.062 12.43707,26.062 L12.43707,26.062 Z M17.47907,26.062 C17.266932,26.062 17.0634658,25.9778127 16.9134615,25.8278085 C16.7634573,25.6778042 16.6792116,25.474338 16.67927,25.2622 L16.67927,20.62357 C16.67927,20.1818499 17.0373549,19.823765 17.479075,19.823765 C17.9207951,19.823765 18.27888,20.1818499 18.27888,20.62357 L18.27888,25.26224 C18.2789278,25.4743728 18.1946761,25.6778303 18.0446708,25.8278261 C17.8946655,25.977822 17.6912028,26.062 17.47907,26.062 L17.47907,26.062 Z M22.52106,26.062 C22.308922,26.062 22.1054558,25.9778127 21.9554515,25.8278085 C21.8054473,25.6778042 21.7212016,25.474338 21.72126,25.2622 L21.72126,20.62357 C21.72126,20.1818499 22.0793449,19.823765 22.521065,19.823765 C22.9627851,19.823765 23.32087,20.1818499 23.32087,20.62357 L23.32087,25.26224 C23.3209178,25.4743728 23.2366661,25.6778303 23.0866608,25.8278261 C22.9366555,25.977822 22.7331928,26.062 22.52106,26.062 L22.52106,26.062 Z M27.56305,26.062 C27.350912,26.062 27.1474458,25.9778127 26.9974415,25.8278085 C26.8474373,25.6778042 26.7631916,25.474338 26.76325,25.2622 L26.76325,20.62357 C26.76325,20.3378272 26.9156919,20.0737899 27.1631525,19.9309185 C27.410613,19.7880471 27.715497,19.7880471 27.9629575,19.9309185 C28.2104181,20.0737899 28.36286,20.3378272 28.36286,20.62357 L28.36286,25.26224 C28.3629078,25.4743728 28.2786561,25.6778303 28.1286508,25.8278261 C27.9786455,25.977822 27.7751828,26.062 27.56305,26.062 L27.56305,26.062 Z M28.97858,30.16019 L11.02106,30.16019 C10.5793399,30.16019 10.221255,29.8021051 10.221255,29.360385 C10.221255,28.9186649 10.5793399,28.56058 11.02106,28.56058 L28.97858,28.56058 C29.4203001,28.56058 29.778385,28.9186649 29.778385,29.360385 C29.778385,29.8021051 29.4203001,30.16019 28.97858,30.16019 L28.97858,30.16019 Z" id="Path-4" fill="#FFFFFF"></path>
        </g>
    </g>
</svg>