<svg width="54" height="40" viewBox="0 0 54 40" fill="none" xmlns="http://www.w3.org/2000/svg">
<path fill-rule="evenodd" clip-rule="evenodd" d="M0 4C0 1.79086 1.79086 0 4 0L40.0139 0L54 14.0067V36C54 38.2091 52.2091 40 50 40H4C1.79086 40 0 38.2091 0 36V4Z" fill="white"/>
<path d="M24.2658 17.42C24.2052 16.8821 23.9552 16.4655 23.5158 16.17C23.0764 15.8708 22.5234 15.7211 21.8567 15.7211C21.3794 15.7211 20.9666 15.7969 20.6181 15.9484C20.2696 16.0961 19.9988 16.3007 19.8056 16.5621C19.6162 16.8196 19.5215 17.1132 19.5215 17.4427C19.5215 17.7193 19.5859 17.9579 19.7147 18.1586C19.8472 18.3594 20.0196 18.528 20.2317 18.6643C20.4476 18.7969 20.6787 18.9086 20.9249 18.9996C21.1711 19.0867 21.4078 19.1586 21.6351 19.2155L22.7715 19.5109C23.1427 19.6018 23.5234 19.7249 23.9135 19.8802C24.3037 20.0355 24.6654 20.2401 24.9988 20.4939C25.3321 20.7477 25.601 21.0621 25.8056 21.4371C26.0139 21.8121 26.1181 22.2609 26.1181 22.7836C26.1181 23.4427 25.9476 24.028 25.6067 24.5393C25.2696 25.0507 24.7791 25.4541 24.1351 25.7496C23.495 26.045 22.7203 26.1927 21.8113 26.1927C20.94 26.1927 20.1863 26.0545 19.5499 25.778C18.9135 25.5015 18.4154 25.1094 18.0556 24.6018C17.6957 24.0905 17.4969 23.4844 17.459 22.7836H19.2203C19.2544 23.2041 19.3908 23.5545 19.6294 23.8348C19.8719 24.1113 20.1806 24.3177 20.5556 24.4541C20.9344 24.5867 21.3491 24.653 21.7999 24.653C22.2961 24.653 22.7374 24.5753 23.1238 24.42C23.5139 24.2609 23.8207 24.0412 24.0442 23.7609C24.2677 23.4768 24.3794 23.1454 24.3794 22.7666C24.3794 22.4219 24.281 22.1397 24.084 21.92C23.8908 21.7003 23.6275 21.5185 23.2942 21.3746C22.9647 21.2306 22.5916 21.1037 22.1749 20.9939L20.7999 20.6189C19.8681 20.3651 19.1294 19.992 18.584 19.4996C18.0423 19.0071 17.7715 18.3556 17.7715 17.545C17.7715 16.8746 17.9533 16.2893 18.3169 15.7893C18.6806 15.2893 19.173 14.9011 19.7942 14.6246C20.4154 14.3443 21.1162 14.2041 21.8965 14.2041C22.6844 14.2041 23.3794 14.3424 23.9817 14.6189C24.5878 14.8954 25.065 15.2761 25.4135 15.7609C25.762 16.242 25.9438 16.795 25.959 17.42H24.2658Z" fill="#333333"/>
<path d="M27.6422 15.8746V14.3632H36.6479V15.8746H33.0172V25.9996H31.2672V15.8746H27.6422Z" fill="#333333"/>
<path fill-rule="evenodd" clip-rule="evenodd" d="M40.0137 0L53.9998 14.0067C53.9998 14.0067 42.2171 14.0067 41.4997 14.0067C40.7822 14.0067 40.0137 13.1122 40.0137 12.468C40.0137 11.8238 40.0137 0 40.0137 0Z" fill="#F4A4B4"/>
</svg>
