<svg width="54" height="40" viewBox="0 0 54 40" fill="none" xmlns="http://www.w3.org/2000/svg">
<path fill-rule="evenodd" clip-rule="evenodd" d="M0 4C0 1.79086 1.79086 0 4 0L40.0139 0L54 14.0067V36C54 38.2091 52.2091 40 50 40H4C1.79086 40 0 38.2091 0 36V4Z" fill="#333333"/>
<path d="M24.2658 17.4205C24.2052 16.8826 23.9552 16.466 23.5158 16.1705C23.0764 15.8713 22.5234 15.7216 21.8567 15.7216C21.3794 15.7216 20.9666 15.7974 20.6181 15.9489C20.2696 16.0966 19.9988 16.3012 19.8056 16.5625C19.6162 16.8201 19.5215 17.1137 19.5215 17.4432C19.5215 17.7197 19.5859 17.9584 19.7147 18.1591C19.8472 18.3599 20.0196 18.5285 20.2317 18.6648C20.4476 18.7974 20.6787 18.9091 20.9249 19C21.1711 19.0872 21.4078 19.1591 21.6351 19.216L22.7715 19.5114C23.1427 19.6023 23.5234 19.7254 23.9135 19.8807C24.3037 20.036 24.6654 20.2406 24.9988 20.4944C25.3321 20.7482 25.601 21.0625 25.8056 21.4375C26.0139 21.8125 26.1181 22.2614 26.1181 22.7841C26.1181 23.4432 25.9476 24.0285 25.6067 24.5398C25.2696 25.0512 24.7791 25.4546 24.1351 25.75C23.495 26.0455 22.7203 26.1932 21.8113 26.1932C20.94 26.1932 20.1863 26.055 19.5499 25.7785C18.9135 25.5019 18.4154 25.1099 18.0556 24.6023C17.6957 24.091 17.4969 23.4849 17.459 22.7841H19.2203C19.2544 23.2046 19.3908 23.555 19.6294 23.8353C19.8719 24.1118 20.1806 24.3182 20.5556 24.4546C20.9344 24.5872 21.3491 24.6535 21.7999 24.6535C22.2961 24.6535 22.7374 24.5758 23.1238 24.4205C23.5139 24.2614 23.8207 24.0417 24.0442 23.7614C24.2677 23.4773 24.3794 23.1459 24.3794 22.7671C24.3794 22.4224 24.281 22.1402 24.084 21.9205C23.8908 21.7008 23.6275 21.519 23.2942 21.375C22.9647 21.2311 22.5916 21.1042 22.1749 20.9944L20.7999 20.6194C19.8681 20.3656 19.1294 19.9925 18.584 19.5C18.0423 19.0076 17.7715 18.3561 17.7715 17.5455C17.7715 16.875 17.9533 16.2898 18.3169 15.7898C18.6806 15.2898 19.173 14.9016 19.7942 14.625C20.4154 14.3447 21.1162 14.2046 21.8965 14.2046C22.6844 14.2046 23.3794 14.3428 23.9817 14.6194C24.5878 14.8959 25.065 15.2766 25.4135 15.7614C25.762 16.2425 25.9438 16.7955 25.959 17.4205H24.2658Z" fill="white"/>
<path d="M27.6422 15.875V14.3637H36.6479V15.875H33.0172V26H31.2672V15.875H27.6422Z" fill="white"/>
<path fill-rule="evenodd" clip-rule="evenodd" d="M40.0137 0L53.9998 14.0067C53.9998 14.0067 42.2171 14.0067 41.4997 14.0067C40.7822 14.0067 40.0137 13.1122 40.0137 12.468C40.0137 11.8238 40.0137 0 40.0137 0Z" fill="#F4A4B4"/>
</svg>
