<?xml version="1.0" encoding="UTF-8"?>
<svg width="40px" height="40px" viewBox="0 0 40 40" version="1.1" xmlns="http://www.w3.org/2000/svg" xmlns:xlink="http://www.w3.org/1999/xlink">
    <title>staking_light_theme</title>
    <g id="Page-1" stroke="none" stroke-width="1" fill="none" fill-rule="evenodd">
        <g id="staking_light_theme" transform="translate(0.000000, 0.000000)" fill-rule="nonzero">
            <rect id="Rectangle" fill="#333333" x="0" y="0" width="40" height="40" rx="8"></rect>
            <path d="M14.6507772,23.609987 C14.899468,23.7546761 15.0513072,24.0217656 15.04843,24.30947 L15.0478401,25.8130444 L16.5527,25.81337 C16.8404044,25.8104928 17.1074939,25.962332 17.252183,26.2110228 C17.3968722,26.4597136 17.3968722,26.7669464 17.252183,27.0156372 C17.1074939,27.264328 16.8404044,27.4161672 16.5527,27.41329 L15.0478401,27.4130444 L15.04843,28.91747 C15.04843,29.3592666 14.6903066,29.71747 14.24851,29.71747 C13.8066822,29.71747 13.44851,29.3592978 13.44851,28.91747 L13.4478401,27.4130444 L11.9447,27.41329 C11.5060151,27.408903 11.1526999,27.0520368 11.1526999,26.61333 C11.1526999,26.1746232 11.5060151,25.817757 11.9447,25.81337 L13.4478401,25.8130444 L13.44851,24.30947 C13.4456328,24.0217656 13.597472,23.7546761 13.8461628,23.609987 C14.0948536,23.4652978 14.4020864,23.4652978 14.6507772,23.609987 Z M26.0541105,9.60002663 C26.3658017,9.85502932 26.5491944,10.2344941 26.55535,10.63716 L26.5682476,11.5793 C26.5695468,13.3219417 26.2356796,15.0485716 25.58483,16.66511 C25.5252549,16.8188469 25.4396507,16.9611766 25.33177,17.08586 C24.9231848,17.550175 24.2538197,17.6825916 23.69924,17.40871 C23.021073,17.0767238 22.371929,16.6894936 21.7583005,16.2511693 C20.8523203,17.6382326 20.3590263,19.2608771 20.34353,20.92879 C20.4149521,23.9216233 22.041901,26.6605873 24.63591,28.155 C24.9485019,28.336929 25.1001376,28.7059686 25.0057618,29.0551176 C24.911386,29.4042666 24.594479,29.646658 24.2328,29.6463806 C24.0916812,29.6463806 23.9530772,29.6090297 23.83126,29.53779 C20.7486986,27.7531309 18.8202161,24.4898747 18.74361,20.92879 C18.7606216,18.6417496 19.5376851,16.4252993 20.95249,14.62831 C21.1810017,14.3320054 21.5763737,14.2400071 21.9047015,14.3828149 L21.9345214,14.3968495 C21.9539365,14.405958 21.9725618,14.4159314 21.9908886,14.4267114 C22.0253951,14.445954 22.0593481,14.4688956 22.0919,14.49478 C22.7391934,15.0214098 23.4393941,15.4794399 24.18125,15.86151 C24.7025413,14.4940416 24.9692881,13.0427494 24.96832,11.57929 L24.95973,10.93791 L24.50506,11.02267 C23.0110487,11.2984086 21.5832566,11.8562826 20.29806,12.66645 L20.0790301,12.8139026 L19.86766,12.97214 C19.5873839,13.1907014 19.1988555,13.18502 18.9264523,12.9722352 L18.84026,12.89366 C18.6347679,12.6799567 18.5733574,12.3657698 18.68326,12.09042 C18.7881463,11.8380614 18.9666689,11.6231806 19.19553,11.47382 C20.7146469,10.4688167 22.4208531,9.78051764 24.2121,9.45009 L24.93824,9.31416 C25.3341464,9.2404315 25.7424193,9.34502393 26.0541105,9.60002663 Z M27.3041,18.9099399 C27.7428068,18.9099399 28.099673,19.2632551 28.10406,19.70194 L28.1038401,21.2050444 L29.60793,21.20578 C30.0466149,21.210167 30.3999301,21.5670332 30.3999301,22.00574 C30.3999301,22.4444468 30.0466149,22.801313 29.60793,22.8057 L28.1038401,22.8050444 L28.10406,24.30953 C28.1040379,24.7513109 27.7459209,25.10949 27.30414,25.10949 C26.8623122,25.10949 26.50414,24.7513178 26.50414,24.30949 L26.5038401,22.8050444 L25.00034,22.8057 C24.7126356,22.8085772 24.4455461,22.656738 24.300857,22.4080472 C24.1561678,22.1593564 24.1561678,21.8521236 24.300857,21.6034328 C24.4455461,21.354742 24.7126356,21.2029028 25.00034,21.20578 L26.5038401,21.2050444 L26.50414,19.70194 C26.508527,19.2632551 26.8653932,18.9099399 27.3041,18.9099399 Z M12.71261,13.5339999 C13.1513168,13.5339999 13.508183,13.8873151 13.51257,14.326 L13.5118401,15.8290444 L15.01684,15.82986 C15.3045444,15.8269828 15.5716339,15.978822 15.716323,16.2275128 C15.8610122,16.4762036 15.8610122,16.7834364 15.716323,17.0321272 C15.5716339,17.280818 15.3045444,17.4326572 15.01684,17.42978 L13.5118401,17.4290444 L13.51257,18.934 C13.51257,19.3757966 13.1544466,19.734 12.71265,19.734 C12.5004768,19.734 12.2969937,19.6497145 12.1469646,19.4996854 C11.9969355,19.3496563 11.91265,19.1461732 11.91265,18.934 L11.9118401,17.4290444 L10.40884,17.42978 C10.1211356,17.4326572 9.85404611,17.280818 9.70935696,17.0321272 C9.56466781,16.7834364 9.56466781,16.4762036 9.70935696,16.2275128 C9.85404611,15.978822 10.1211356,15.8269828 10.40884,15.82986 L11.9118401,15.8290444 L11.91265,14.326 C11.917037,13.8873151 12.2739032,13.5339999 12.71261,13.5339999 Z" id="Path-5" fill="#FFFFFF"></path>
        </g>
    </g>
</svg>