<?xml version="1.0" encoding="UTF-8"?>
<svg width="24px" height="24px" viewBox="0 0 24 24" version="1.1" xmlns="http://www.w3.org/2000/svg" xmlns:xlink="http://www.w3.org/1999/xlink">
    <title>staking_overview_light_theme</title>
    <g id="Page-1" stroke="none" stroke-width="1" fill="none" fill-rule="evenodd">
        <g id="staking_overview_light_theme" transform="translate(0.003038, 0.000000)">
            <rect id="Rectangle" opacity="0" x="0" y="0" width="24" height="24"></rect>
            <path d="M8.67654918,19.7439215 L4.24558436,19.7439215 C3.97016225,19.7448361 3.71527297,19.59575 3.57729956,19.3530296 C3.43932615,19.1103092 3.43932615,18.8109986 3.57729956,18.5682782 C3.71527297,18.3255577 3.97016225,18.1764716 4.24558436,18.1773862 L8.67654918,18.1773862 C8.95197129,18.1764716 9.20686057,18.3255577 9.34483398,18.5682782 C9.48280739,18.8109986 9.48280739,19.1103092 9.34483398,19.3530296 C9.20686057,19.59575 8.95197129,19.7448361 8.67654918,19.7439215 Z M16.0616128,21.930387 C15.9259147,21.930387 15.7926346,21.8938173 15.6754963,21.8240653 C12.7113687,20.07667 10.8569748,16.8815599 10.7832983,13.3948359 C10.7996602,11.1555435 11.5468717,8.98536804 12.9073224,7.22589371 C13.0746566,7.00385949 13.3456118,6.88959142 13.6181218,6.92613317 C13.8906317,6.96267492 14.1232957,7.14447494 14.2284715,7.40305091 C14.3336473,7.66162688 14.2953561,7.95769497 14.1280219,8.17972918 C12.974473,9.66594424 12.3390459,11.50056 12.321756,13.3948104 C12.3904346,16.3251672 13.9548889,19.0069531 16.4492543,20.4701636 C16.749843,20.64829 16.8956591,21.0096267 16.8049099,21.3514894 C16.7141608,21.6933522 16.4094251,21.9306849 16.0616378,21.930387 L16.0616128,21.930387 Z M10.8762316,5.52741149 L10.8762316,5.52741149 C10.6786385,5.31816667 10.6195914,5.01054004 10.7252733,4.74094058 C10.8261316,4.49385225 10.9977961,4.2834593 11.2178648,4.13721813 C12.6786189,3.15319676 14.3192746,2.47926591 16.0417044,2.15573332 L16.7399458,2.02264099 C17.1206434,1.95043783 17.5132382,2.05283862 17.8129602,2.30251612 C18.1126822,2.55219362 18.289031,2.92373998 18.2949452,3.31800235 L18.3073441,4.24047606 C18.3085925,5.94673565 17.9875506,7.6373176 17.3617039,9.2201065 C17.3044195,9.37063518 17.2221057,9.50999519 17.1183707,9.63207755 C16.7254826,10.0866878 16.0818369,10.2163476 15.548563,9.94818988 C14.6516364,9.50110305 13.8075056,8.95168964 13.032414,8.310522 C12.7027945,8.03762375 12.65285,7.54431284 12.9208599,7.20868122 C13.1888698,6.87304961 13.6733441,6.82219416 14.0029636,7.09509241 C14.6253923,7.61072752 15.2986959,8.0591949 16.0120545,8.43328769 C16.5133196,7.09436787 16.7698188,5.67337429 16.7688875,4.24046757 L16.7606208,3.61248558 L16.323421,3.69548055 C14.8867987,3.96546094 13.5138516,4.51168827 12.2780227,5.30494321 C12.1352433,5.3976112 11.9971146,5.49750695 11.8641562,5.6042546 L11.8641562,5.6042546 C11.5647022,5.84202503 11.1367426,5.80873732 10.8762316,5.52741149 Z M19.0149615,17.4882504 C18.5901335,17.4882504 18.2457469,17.1375637 18.2457285,16.704987 L18.2457285,12.1935514 C18.2471236,11.7619757 18.5911101,11.4128659 19.0149574,11.4128659 C19.4388046,11.4128659 19.7827912,11.7619757 19.7841862,12.1935514 L19.7841862,16.704953 C19.7841862,17.1375397 19.4397993,17.4882504 19.0149615,17.4882504 Z M21.2302523,15.2325199 L16.7996708,15.2325199 C16.5242487,15.2334345 16.2693594,15.0843483 16.131386,14.8416279 C15.9934126,14.5989075 15.9934126,14.2995969 16.131386,14.0568765 C16.2693594,13.8141561 16.5242487,13.6650699 16.7996708,13.6659845 L21.2302606,13.6659845 C21.6541056,13.6674135 21.9969618,14.0176742 21.9969618,14.4492522 C21.9969618,14.8808302 21.6541056,15.2310909 21.2302606,15.2325199 L21.2302523,15.2325199 Z M4.98401739,12.2249131 C4.55918935,12.2249131 4.21480278,11.8742264 4.21478437,11.4416497 L4.21478437,6.92987463 C4.21617942,6.49829894 4.56016597,6.1491892 4.98401322,6.1491892 C5.40786047,6.1491892 5.75184702,6.49829894 5.75324207,6.92987463 L5.75324207,11.4416581 C5.75321906,11.8742282 5.40883891,12.2249131 4.98401739,12.2249131 L4.98401739,12.2249131 Z M7.19968313,9.96884316 L2.76872664,9.96884316 C2.49330453,9.96975774 2.23841525,9.82067158 2.10044184,9.57795117 C1.96246843,9.33523076 1.96246843,9.03592017 2.10044184,8.79319976 C2.23841525,8.55047935 2.49330453,8.40139319 2.76872664,8.40230777 L7.19968313,8.40230777 C7.62352808,8.40373674 7.96638429,8.75399744 7.96638429,9.18557547 C7.96638429,9.61715349 7.62352808,9.96741419 7.19968313,9.96884316 L7.19968313,9.96884316 Z M6.46088344,22 C6.0360554,22 5.69166883,21.6493132 5.69165042,21.2167365 L5.69165042,16.704953 C5.69304547,16.2733773 6.03703202,15.9242676 6.46087927,15.9242676 C6.88472652,15.9242676 7.22871307,16.2733773 7.23010812,16.704953 L7.23010812,21.2167026 C7.23010812,21.6492892 6.88572124,22 6.46088344,22 Z" id="Path-2" fill="#FFFFFF" fill-rule="nonzero"></path>
        </g>
    </g>
</svg>