<svg width="54" height="40" viewBox="0 0 54 40" fill="none" xmlns="http://www.w3.org/2000/svg">
<path fill-rule="evenodd" clip-rule="evenodd" d="M0 4C0 1.79086 1.79086 0 4 0L40.0139 0L54 14.0067V36C54 38.2091 52.2091 40 50 40H4C1.79086 40 0 38.2091 0 36V4Z" fill="#333333"/>
<path d="M22.4533 17.4205C22.3927 16.8826 22.1427 16.466 21.7033 16.1705C21.2639 15.8713 20.7109 15.7216 20.0442 15.7216C19.5669 15.7216 19.1541 15.7974 18.8056 15.9489C18.4571 16.0966 18.1863 16.3012 17.9931 16.5625C17.8037 16.8201 17.709 17.1137 17.709 17.4432C17.709 17.7197 17.7734 17.9584 17.9022 18.1591C18.0347 18.3599 18.2071 18.5285 18.4192 18.6648C18.6351 18.7974 18.8662 18.9091 19.1124 19C19.3586 19.0872 19.5953 19.1591 19.8226 19.216L20.959 19.5114C21.3302 19.6023 21.7109 19.7254 22.101 19.8807C22.4912 20.036 22.8529 20.2406 23.1863 20.4944C23.5196 20.7482 23.7885 21.0625 23.9931 21.4375C24.2014 21.8125 24.3056 22.2614 24.3056 22.7841C24.3056 23.4432 24.1351 24.0285 23.7942 24.5398C23.4571 25.0512 22.9666 25.4546 22.3226 25.75C21.6825 26.0455 20.9078 26.1932 19.9988 26.1932C19.1275 26.1932 18.3738 26.055 17.7374 25.7785C17.101 25.5019 16.6029 25.1099 16.2431 24.6023C15.8832 24.091 15.6844 23.4849 15.6465 22.7841H17.4078C17.4419 23.2046 17.5783 23.555 17.8169 23.8353C18.0594 24.1118 18.3681 24.3182 18.7431 24.4546C19.1219 24.5872 19.5366 24.6535 19.9874 24.6535C20.4836 24.6535 20.9249 24.5758 21.3113 24.4205C21.7014 24.2614 22.0082 24.0417 22.2317 23.7614C22.4552 23.4773 22.5669 23.1459 22.5669 22.7671C22.5669 22.4224 22.4685 22.1402 22.2715 21.9205C22.0783 21.7008 21.815 21.519 21.4817 21.375C21.1522 21.2311 20.7791 21.1042 20.3624 20.9944L18.9874 20.6194C18.0556 20.3656 17.3169 19.9925 16.7715 19.5C16.2298 19.0076 15.959 18.3561 15.959 17.5455C15.959 16.875 16.1408 16.2898 16.5044 15.7898C16.8681 15.2898 17.3605 14.9016 17.9817 14.625C18.6029 14.3447 19.3037 14.2046 20.084 14.2046C20.8719 14.2046 21.5669 14.3428 22.1692 14.6194C22.7753 14.8959 23.2525 15.2766 23.601 15.7614C23.9495 16.2425 24.1313 16.7955 24.1465 17.4205H22.4533Z" fill="white"/>
<path d="M30.3411 17.2728V18.6364H25.574V17.2728H30.3411ZM26.8525 15.1819H28.5513V23.4375C28.5513 23.7671 28.6006 24.0152 28.699 24.1819C28.7975 24.3447 28.9244 24.4565 29.0797 24.5171C29.2388 24.5739 29.4112 24.6023 29.5968 24.6023C29.7331 24.6023 29.8525 24.5928 29.9547 24.5739C30.057 24.555 30.1365 24.5398 30.1934 24.5285L30.5002 25.9319C30.4017 25.9697 30.2615 26.0076 30.0797 26.0455C29.8979 26.0872 29.6706 26.1099 29.3979 26.1137C28.9509 26.1213 28.5343 26.0417 28.1479 25.875C27.7615 25.7084 27.449 25.4508 27.2104 25.1023C26.9718 24.7538 26.8525 24.3163 26.8525 23.7898V15.1819Z" fill="white"/>
<path d="M33.9703 23.0398L33.959 20.966H34.2544L37.7317 17.2728H39.7658L35.7999 21.4773H35.5328L33.9703 23.0398ZM32.4078 26V14.3637H34.1067V26H32.4078ZM37.9192 26L34.7942 21.8523L35.9647 20.6648L40.0044 26H37.9192Z" fill="white"/>
<path fill-rule="evenodd" clip-rule="evenodd" d="M40.0137 0L53.9998 14.0067C53.9998 14.0067 42.2171 14.0067 41.4997 14.0067C40.7822 14.0067 40.0137 13.1122 40.0137 12.468C40.0137 11.8238 40.0137 0 40.0137 0Z" fill="#8EC52C"/>
</svg>
