<svg width="54" height="40" viewBox="0 0 54 40" fill="none" xmlns="http://www.w3.org/2000/svg">
<path fill-rule="evenodd" clip-rule="evenodd" d="M0 4C0 1.79086 1.79086 0 4 0L40.0139 0L54 14.0067V36C54 38.2091 52.2091 40 50 40H4C1.79086 40 0 38.2091 0 36V4Z" fill="white"/>
<path d="M22.4533 17.42C22.3927 16.8821 22.1427 16.4655 21.7033 16.17C21.2639 15.8708 20.7109 15.7211 20.0442 15.7211C19.5669 15.7211 19.1541 15.7969 18.8056 15.9484C18.4571 16.0961 18.1863 16.3007 17.9931 16.5621C17.8037 16.8196 17.709 17.1132 17.709 17.4427C17.709 17.7193 17.7734 17.9579 17.9022 18.1586C18.0347 18.3594 18.2071 18.528 18.4192 18.6643C18.6351 18.7969 18.8662 18.9086 19.1124 18.9996C19.3586 19.0867 19.5953 19.1586 19.8226 19.2155L20.959 19.5109C21.3302 19.6018 21.7109 19.7249 22.101 19.8802C22.4912 20.0355 22.8529 20.2401 23.1863 20.4939C23.5196 20.7477 23.7885 21.0621 23.9931 21.4371C24.2014 21.8121 24.3056 22.2609 24.3056 22.7836C24.3056 23.4427 24.1351 24.028 23.7942 24.5393C23.4571 25.0507 22.9666 25.4541 22.3226 25.7496C21.6825 26.045 20.9078 26.1927 19.9988 26.1927C19.1275 26.1927 18.3738 26.0545 17.7374 25.778C17.101 25.5015 16.6029 25.1094 16.2431 24.6018C15.8832 24.0905 15.6844 23.4844 15.6465 22.7836H17.4078C17.4419 23.2041 17.5783 23.5545 17.8169 23.8348C18.0594 24.1113 18.3681 24.3177 18.7431 24.4541C19.1219 24.5867 19.5366 24.653 19.9874 24.653C20.4836 24.653 20.9249 24.5753 21.3113 24.42C21.7014 24.2609 22.0082 24.0412 22.2317 23.7609C22.4552 23.4768 22.5669 23.1454 22.5669 22.7666C22.5669 22.4219 22.4685 22.1397 22.2715 21.92C22.0783 21.7003 21.815 21.5185 21.4817 21.3746C21.1522 21.2306 20.7791 21.1037 20.3624 20.9939L18.9874 20.6189C18.0556 20.3651 17.3169 19.992 16.7715 19.4996C16.2298 19.0071 15.959 18.3556 15.959 17.545C15.959 16.8746 16.1408 16.2893 16.5044 15.7893C16.8681 15.2893 17.3605 14.9011 17.9817 14.6246C18.6029 14.3443 19.3037 14.2041 20.084 14.2041C20.8719 14.2041 21.5669 14.3424 22.1692 14.6189C22.7753 14.8954 23.2525 15.2761 23.601 15.7609C23.9495 16.242 24.1313 16.795 24.1465 17.42H22.4533Z" fill="#333333"/>
<path d="M30.3411 17.2723V18.6359H25.574V17.2723H30.3411ZM26.8525 15.1814H28.5513V23.4371C28.5513 23.7666 28.6006 24.0147 28.699 24.1814C28.7975 24.3443 28.9244 24.456 29.0797 24.5166C29.2388 24.5734 29.4112 24.6018 29.5968 24.6018C29.7331 24.6018 29.8525 24.5924 29.9547 24.5734C30.057 24.5545 30.1365 24.5393 30.1934 24.528L30.5002 25.9314C30.4017 25.9693 30.2615 26.0071 30.0797 26.045C29.8979 26.0867 29.6706 26.1094 29.3979 26.1132C28.9509 26.1208 28.5343 26.0412 28.1479 25.8746C27.7615 25.7079 27.449 25.4503 27.2104 25.1018C26.9718 24.7533 26.8525 24.3158 26.8525 23.7893V15.1814Z" fill="#333333"/>
<path d="M33.9703 23.0393L33.959 20.9655H34.2544L37.7317 17.2723H39.7658L35.7999 21.4768H35.5328L33.9703 23.0393ZM32.4078 25.9996V14.3632H34.1067V25.9996H32.4078ZM37.9192 25.9996L34.7942 21.8518L35.9647 20.6643L40.0044 25.9996H37.9192Z" fill="#333333"/>
<path fill-rule="evenodd" clip-rule="evenodd" d="M40.0137 0L53.9998 14.0067C53.9998 14.0067 42.2171 14.0067 41.4997 14.0067C40.7822 14.0067 40.0137 13.1122 40.0137 12.468C40.0137 11.8238 40.0137 0 40.0137 0Z" fill="#8EC52C"/>
</svg>
