<?xml version="1.0" encoding="UTF-8"?>
<svg width="24px" height="24px" viewBox="0 0 24 24" version="1.1" xmlns="http://www.w3.org/2000/svg" xmlns:xlink="http://www.w3.org/1999/xlink">
    <title>Group 6</title>
    <g id="Light-Theme" stroke="none" stroke-width="1" fill="none" fill-rule="evenodd">
        <g id="Settings_Wallet_Connected_NoTag_desktop" transform="translate(-419.000000, -306.000000)">
            <g id="Group-13" transform="translate(320.000000, 306.000000)">
                <g id="Group-6" transform="translate(99.000000, 0.000000)">
                    <circle id="Oval" fill="#F1F1F1" cx="12" cy="12" r="12"></circle>
                    <g id="question_mark_black_24dp-2" transform="translate(5.000000, 5.000000)">
                        <g id="Group">
                            <rect id="Rectangle" x="0" y="0" width="14" height="14"></rect>
                            <rect id="Rectangle" x="0" y="0" width="14" height="14"></rect>
                        </g>
                        <path d="M4.62,4.39833333 C4.15333333,4.2 3.955,3.6225 4.235,3.2025 C4.80083333,2.3625 5.74583333,1.75 6.99416667,1.75 C8.365,1.75 9.30416667,2.37416667 9.7825,3.15583333 C10.1908333,3.82666667 10.43,5.08083333 9.8,6.01416667 C9.1,7.04666667 8.42916667,7.36166667 8.0675,8.02666667 C7.98,8.18416667 7.9275,8.3125 7.8925,8.575 C7.84,9.00083333 7.49,9.33333333 7.05833333,9.33333333 C6.55083333,9.33333333 6.13666667,8.89583333 6.195,8.38833333 C6.23,8.09083333 6.3,7.78166667 6.46333333,7.49 C6.9125,6.67916667 7.77583333,6.20083333 8.2775,5.48333333 C8.80833333,4.73083333 8.51083333,3.325 7.00583333,3.325 C6.32333333,3.325 5.88,3.68083333 5.60583333,4.10666667 C5.40166667,4.43916667 4.97583333,4.54416667 4.62,4.39833333 Z M8.16666667,11.6666667 C8.16666667,12.3083333 7.64166667,12.8333333 7,12.8333333 C6.35833333,12.8333333 5.83333333,12.3083333 5.83333333,11.6666667 C5.83333333,11.025 6.35833333,10.5 7,10.5 C7.64166667,10.5 8.16666667,11.025 8.16666667,11.6666667 Z" id="Shape" fill="#B1B1B1" fill-rule="nonzero"></path>
                    </g>
                </g>
            </g>
        </g>
    </g>
</svg>