<?xml version="1.0" encoding="UTF-8"?>
<svg width="40px" height="40px" viewBox="0 0 40 40" version="1.1" xmlns="http://www.w3.org/2000/svg" xmlns:xlink="http://www.w3.org/1999/xlink">
    <title>top_up_light_theme</title>
    <g id="Page-1" stroke="none" stroke-width="1" fill="none" fill-rule="evenodd">
        <g id="top_up_light_theme" transform="translate(0.000000, 0.000000)" fill-rule="nonzero">
            <rect id="Rectangle" fill="#333333" x="0" y="0" width="40" height="40" rx="8"></rect>
            <path d="M27.53481,12.29472 C28.8461705,12.4174543 29.8973238,13.432696 30.06555,14.739 C30.1939796,15.7454624 30.2811624,16.6579252 30.3313387,17.5249718 C30.3447173,17.5791955 30.351857,17.6368347 30.35267,17.69603 L30.345195,17.8063742 L30.3739972,18.4342756 C30.3922416,18.9553644 30.4001277,19.47696 30.4001277,19.99876 C30.4029178,21.7580862 30.2910134,23.5157267 30.06502,25.26048 C29.9035742,26.5700254 28.8486688,27.5884995 27.53426,27.70384 C25.00794,27.94213 22.462,28.06176 19.91468,28.06176 C17.36683,28.06176 14.818,27.94213 12.28529,27.70336 C10.9737185,27.5841641 9.92339972,26.5653799 9.76429,25.25805 C9.7262,24.96899 9.69105,24.70092 9.67347,24.43285 C9.65443592,24.1475192 9.78913604,23.8737234 10.0267917,23.714677 C10.2644473,23.5556306 10.5689202,23.5355184 10.8254315,23.6619222 C11.0819427,23.788326 11.2514869,24.0420247 11.27015,24.32738 C11.28529,24.56078 11.31703,24.79418 11.34779,25.02758 C11.4065258,25.6009026 11.8607145,26.0536574 12.43422,26.11058 C17.4071307,26.5783535 22.4129693,26.5783535 27.38588,26.11058 C27.9539572,26.0606188 28.4096245,25.6200171 28.47865,25.05394 C28.6955286,23.3776513 28.8030161,21.6890184 28.80043,19.99876 C28.80043,19.4978004 28.7926374,18.9966236 28.7750367,18.4955188 L23.81311,18.49584 C23.3713899,18.49584 23.013305,18.1377551 23.013305,17.696035 C23.013305,17.2543149 23.3713899,16.8962271 23.81311,16.8962271 L28.6840614,16.8962876 C28.6348537,16.28078 28.5668466,15.6351712 28.47865,14.94261 C28.403963,14.377692 27.9484027,13.9395797 27.381,13.887 C22.4094764,13.4242722 17.4057133,13.4244362 12.43422,13.88749 C11.8711814,13.9448622 11.4221855,14.3831327 11.35122,14.94462 C11.30874,15.24101 11.27602,15.52762 11.25161,15.82206 C11.2149355,16.2624325 10.8282125,16.5896945 10.38784,16.55302 C9.94746747,16.5163455 9.62020553,16.1296225 9.65688,15.68925 C9.68422,15.36357 9.72088,15.0457 9.76577,14.7288 C9.93462383,13.4311762 10.9770311,12.4219778 12.27944,12.29521 C17.3534967,11.820926 22.4607228,11.820762 27.53481,12.29472 Z M18.14905,16.85225 L20.74817,19.45137 C21.060184,19.7639491 21.060184,20.2701409 20.74817,20.58272 L18.18128,23.1501 C18.0313207,23.3003897 17.8276681,23.3847483 17.61536,23.384521 C17.2918527,23.384626 17.00014,23.1898347 16.8762601,22.8909857 C16.7523802,22.5921368 16.8207319,22.2480903 17.04944,22.01929 L18.202195,20.8643742 L10.4,20.865 C9.9582799,20.865 9.600195,20.5069151 9.600195,20.065195 C9.600195,19.6234749 9.9582799,19.26539 10.4,19.26539 L18.299195,19.2653742 L17.01721,17.98409 C16.8150262,17.7819063 16.7360645,17.487217 16.8100689,17.2110289 C16.8840732,16.9348407 17.0998007,16.7191132 17.3759889,16.6451089 C17.652177,16.5711045 17.9468663,16.6500662 18.14905,16.85225 Z" id="Path-4" fill="#FFFFFF"></path>
        </g>
    </g>
</svg>