<?xml version="1.0" encoding="UTF-8"?>
<svg width="24px" height="24px" viewBox="0 0 24 24" version="1.1" xmlns="http://www.w3.org/2000/svg" xmlns:xlink="http://www.w3.org/1999/xlink">
    <title>trust_light_theme</title>
    <g id="Page-1" stroke="none" stroke-width="1" fill="none" fill-rule="evenodd">
        <g id="trust_light_theme" transform="translate(0.000003, 0.000000)">
            <rect id="Rectangle" opacity="0" x="0" y="0" width="24" height="24"></rect>
            <path d="M12.0094748,21 C11.3553506,21.0022966 10.7243334,20.7556612 10.2419748,20.3091337 L10.1439498,20.2187917 C5.16364122,15.6649462 1.87199109,12.65564 2.00381609,8.67080519 C2.06381036,6.81881882 2.9898003,5.10547215 4.49922453,4.05358469 C6.82736339,2.46548918 9.92940447,2.69845837 11.9997082,4.61688529 C14.0688718,2.69334477 17.1754057,2.4607535 19.5024501,4.05514275 C21.0102929,5.10662175 21.9353449,6.81851467 21.9956002,8.66894394 C22.1368252,12.6340462 18.8635751,15.6391835 13.9088166,20.1884559 L13.8517249,20.2412193 L13.7600582,20.3243437 C13.2797696,20.7613973 12.6557645,21.0022271 12.0094748,21 Z M7.840833,4.55235648 C6.95574853,4.55376802 6.0921494,4.82800953 5.3653329,5.33846758 C4.26732077,6.11710091 3.59258216,7.3697035 3.54147449,8.72432654 C3.43330782,11.9864421 6.51424961,14.8036947 11.1779248,19.0675227 L11.2812081,19.1627999 C11.6896713,19.5409421 12.3152626,19.5445547 12.7279749,19.1711545 L12.7309832,19.1685016 L12.8233749,19.0846108 C17.5107084,14.7809218 20.5736252,11.9686129 20.4579502,8.72471394 C20.4069939,7.37022375 19.7325531,6.11764655 18.6348418,5.3388213 C16.6898317,4.0289957 14.0805946,4.4118805 12.5844999,6.22666087 C12.4341249,6.39212005 12.2220063,6.48629634 11.9997082,6.48629634 C11.7774101,6.48629634 11.5652915,6.39212005 11.4149165,6.22666087 C10.5153693,5.1775865 9.21432012,4.56810092 7.840833,4.55235648 Z" id="Shape" fill="#999999" fill-rule="nonzero"></path>
        </g>
    </g>
</svg>