<?xml version="1.0" encoding="UTF-8"?>
<svg width="24px" height="24px" viewBox="0 0 24 24" version="1.1" xmlns="http://www.w3.org/2000/svg" xmlns:xlink="http://www.w3.org/1999/xlink">
    <title>view_permissions_light_theme</title>
    <g id="Page-1" stroke="none" stroke-width="1" fill="none" fill-rule="evenodd">
        <g id="view_permissions_light_theme">
            <polygon id="Rectangle" opacity="0" transform="translate(12.000000, 12.000000) rotate(0.707290) translate(-12.000000, -12.000000) " points="0.145432227 0.145432227 23.8545678 0.145432227 23.8545678 23.8545678 0.145432227 23.8545678"></polygon>
            <path d="M11.9139758,18.989222 C8.24173594,18.9503825 4.73633837,17.445052 2.17357134,14.806379 C1.40885197,14.0204586 0.986799521,12.9619154 1.00031488,11.8637526 C1.01383023,10.7655898 1.46180557,9.71782152 2.24563394,8.95107933 C4.87417135,6.37816345 8.41402511,4.95822775 12.0863087,5.00370568 C15.7585924,5.04918361 19.2624232,6.55634902 21.826841,9.19357498 C23.4187731,10.8304346 23.3865097,13.4519391 21.7547785,15.0488747 C19.127735,17.6233598 15.5861945,19.041425 11.9139758,18.989222 Z M12.065233,6.70129539 C8.84016861,6.65251959 5.72971513,7.90018496 3.42732852,10.1661324 C2.96484859,10.6185407 2.70053203,11.2367597 2.69219486,11.8847123 C2.68458392,12.5326648 2.93360597,13.157241 3.3848115,13.6209643 C8.07585066,18.4334853 15.7650146,18.528707 20.5730564,13.8338216 C21.5355959,12.8914705 21.5546289,11.3448901 20.6155734,10.3789897 C18.369546,8.05664675 15.2906024,6.73232934 12.0651964,6.70129539 L12.065233,6.70129539 Z M11.91426,18.9995858 C8.55040073,18.9579284 5.85233896,15.7841873 5.89984289,11.9244512 C5.94734682,8.06471498 8.72268726,4.9587568 12.0865466,5.00041418 C15.4499567,5.04206238 18.1480551,8.21580347 18.1005512,12.0755488 C18.0530472,15.9352942 15.2777068,19.0412432 11.91426,18.9995858 Z M12.0656456,6.69797567 C9.63508903,6.66787752 7.62807099,9.02189689 7.59209928,11.9453994 C7.55612756,14.8689019 9.50459532,17.2719078 11.9351518,17.3020059 C14.3657084,17.3321041 16.3723139,14.9780847 16.4082948,12.054573 C16.4442757,9.13106131 14.4962113,6.72808302 12.0656456,6.69798487 L12.0656456,6.69797567 Z M13.634199,12.3379643 C13.8203455,11.4327467 13.2397208,10.5475472 12.3373372,10.3608155 C11.4349533,10.1740844 10.552525,10.7565325 10.3663778,11.6617499 C10.1802313,12.5669675 10.760856,13.4521671 11.6632397,13.6388988 C12.5656235,13.8256299 13.4480518,13.2431818 13.634199,12.3379643 Z" id="Shape" fill="#999999" fill-rule="nonzero"></path>
        </g>
    </g>
</svg>