<svg width="54" height="40" viewBox="0 0 54 40" fill="none" xmlns="http://www.w3.org/2000/svg">
<rect width="54" height="40" rx="4" fill="#CDFF00"/>
<rect width="54" height="40" rx="4" fill="#333333"/>
<path d="M24.4669 25.8268H21.3887L23.314 14.2104H26.3921L24.4669 25.8268Z" fill="white"/>
<path d="M35.6265 14.4946C35.0194 14.2595 34.0563 14 32.8656 14C29.8257 14 27.685 15.5817 27.6719 17.8431C27.6466 19.5115 29.2045 20.4382 30.3697 20.9945C31.5607 21.563 31.9655 21.934 31.9655 22.4407C31.9534 23.2189 31.0032 23.5777 30.1169 23.5777C28.8879 23.5777 28.2294 23.3927 27.2287 22.9598L26.8233 22.7742L26.3926 25.3818C27.1145 25.7027 28.4447 25.9875 29.8257 26C33.0556 26 35.1584 24.4428 35.1833 22.0329C35.1956 20.7105 34.373 19.6973 32.5994 18.8693C31.5228 18.3378 30.8634 17.9794 30.8634 17.4356C30.8761 16.9412 31.4211 16.4348 32.6365 16.4348C33.6372 16.41 34.3725 16.6447 34.9295 16.8796L35.2079 17.003L35.6265 14.4946Z" fill="white"/>
<path fill-rule="evenodd" clip-rule="evenodd" d="M41.1364 14.2104H43.5174L46.0008 25.8266H43.1506C43.1506 25.8266 42.8717 24.4919 42.7833 24.0841H38.8311C38.7168 24.3929 38.185 25.8266 38.185 25.8266H34.9551L39.5274 15.1743C39.8442 14.4204 40.4021 14.2104 41.1364 14.2104ZM40.9466 18.4614C40.9466 18.4614 39.9712 21.0442 39.7177 21.7115H42.2763C42.1497 21.1307 41.5668 18.3502 41.5668 18.3502L41.3516 17.3492C41.2611 17.607 41.13 17.9613 41.0417 18.2003C40.9818 18.3624 40.9415 18.4714 40.9466 18.4614Z" fill="white"/>
<path d="M15.8021 22.1317L15.4727 20.5251C14.9154 18.6714 13.1674 16.6574 11.2168 15.656L13.9781 25.8144H17.2333L22.0718 14.2104H18.8168L15.8021 22.1317Z" fill="white"/>
<path d="M13.0033 14.2104H8.05067L8 14.4452C11.8634 15.4091 14.422 17.7328 15.4732 20.5256L14.3966 15.1869C14.2193 14.445 13.6746 14.2349 13.0033 14.2104Z" fill="white"/>
</svg>
