<?xml version="1.0" encoding="UTF-8"?>
<svg width="24px" height="24px" viewBox="0 0 24 24" version="1.1" xmlns="http://www.w3.org/2000/svg" xmlns:xlink="http://www.w3.org/1999/xlink">
    <title>withdraw_light_theme</title>
    <g id="Light-Theme" stroke="none" stroke-width="1" fill="none" fill-rule="evenodd">
        <g id="Smart_Treasury_Overview_desktop" transform="translate(-614.000000, -80.000000)" fill-rule="nonzero">
            <g id="withdraw_light_theme" transform="translate(614.000000, 80.000000)">
                <rect id="Rectangle" opacity="0" x="0" y="0" width="24" height="24"></rect>
                <path d="M12,3 C13.8382656,3.0040775 15.6746412,3.11950721 17.4992393,3.34566795 C18.3344947,3.45357012 19.108915,3.84427946 19.696168,4.45405917 C19.8646194,4.62558873 20.0142375,4.81500546 20.1424178,5.01901215 C20.1820848,5.08188209 20.2109505,5.14970631 20.2288988,5.21982046 C20.481855,5.6710187 20.6387319,6.17520611 20.6849375,6.69952539 L19.9946604,6.7620386 L19.3023507,6.7620386 C19.2462156,6.25477284 19.0196356,5.7822943 18.6604111,5.4234269 C18.6245074,5.38587333 18.5935929,5.34530336 18.5676547,5.3025554 L18.7094611,5.43538542 C18.3386957,5.04944481 17.8494102,4.80188795 17.3214669,4.73312165 C15.5558304,4.51455917 13.7788272,4.40300692 12,4.39906361 C10.2148254,4.40250154 8.43147907,4.51451146 6.65963042,4.73448573 C6.13772825,4.80584591 5.65379871,5.04949429 5.2831262,5.42752675 C4.91432184,5.80658703 4.68606281,6.30248844 4.63679157,6.83171328 C4.46912167,8.60341593 4.38461171,10.3406602 4.38461171,12.0030765 C4.38461171,13.66788 4.46912167,15.4102244 4.63611657,17.1822832 C4.68422036,17.7096747 4.91306039,18.2035428 5.2831262,18.5786186 C5.65308476,18.960622 6.13994658,19.2050876 6.66470042,19.2723417 C10.2072299,19.7106926 13.7894698,19.7104636 17.3319444,19.2716596 C17.7854299,19.2146903 18.2101077,19.0223706 18.5527874,18.7216131 C18.5802146,18.6677781 18.6166717,18.6176725 18.6600736,18.5724651 C19.0169806,18.2061879 19.2420512,17.7295777 19.2993057,17.2188256 C19.3160847,17.0335046 19.4060117,16.8628178 19.5487968,16.7452766 C19.691582,16.6277354 19.875195,16.5732434 20.0582078,16.5940952 C20.2408335,16.6129371 20.4085715,16.7043127 20.5245211,16.8481201 C20.6404707,16.9919275 20.6951338,17.1763867 20.676485,17.3609183 C20.6222948,17.8617966 20.4679085,18.3426925 20.2262908,18.7758942 C20.2089233,18.8593382 20.175567,18.9400016 20.1272303,19.0134374 C19.9995197,19.2100359 19.8525272,19.39313 19.6884805,19.5599449 C19.1062765,20.1684176 18.3350981,20.5566458 17.5037318,20.6597954 C15.6751206,20.8863863 13.8345276,21 11.9922174,21 C10.1535516,21.000213 8.31659291,20.8868325 6.49162302,20.6604926 C5.65461026,20.5525785 4.87826438,20.1619791 4.28861177,19.5521014 C3.69683534,18.9482744 3.33208865,18.1547509 3.25724985,17.3083251 C3.08653495,15.4990342 3,13.7119325 3,12.0030765 C3,10.2966001 3.08653495,8.51428782 3.25758735,6.70602755 C3.33527901,5.85805292 3.69932648,5.06290141 4.28861177,4.45406675 C4.87748953,3.84987451 5.64839743,3.46057332 6.48012552,3.34737306 C8.3114975,3.11955975 10.1548003,3.00355814 12,3 Z M17.8994915,8.59967984 L20.7971749,11.5276078 C20.927038,11.6587583 21,11.8366773 21,12.0222003 C21,12.2077232 20.927038,12.3856423 20.7971749,12.5167927 L17.934974,15.4088603 C17.805303,15.5402646 17.6291427,15.6140209 17.4454943,15.6138001 C17.1655167,15.6138001 16.913128,15.4433171 16.8059914,15.1819491 C16.6988549,14.9205811 16.7580636,14.6197391 16.9560146,14.4196754 L18.583,12.775 L9.40215387,12.7757046 C9.02069347,12.7744359 8.71212292,12.4616167 8.71212292,12.0761728 C8.71212292,11.6907288 9.02069347,11.3779096 9.40215387,11.3766409 L18.689,11.376 L16.9205171,9.58886476 C16.6529805,9.31522683 16.6543074,8.87466106 16.9234874,8.60267358 C17.1926674,8.33068609 17.6286823,8.32934869 17.8994915,8.59967984 Z" id="Path-3" fill="#404040"></path>
            </g>
        </g>
    </g>
</svg>