<svg width="40" height="40" viewBox="0 0 40 40" fill="none" xmlns="http://www.w3.org/2000/svg">
<circle cx="20" cy="20" r="20" fill="white"/>
<path fill-rule="evenodd" clip-rule="evenodd" d="M0 19.9338C0 8.91632 8.94595 0 20 0C31.0541 0 40 8.91632 40 19.9338C40 30.9512 31.0541 39.8675 20 39.8675C8.94595 39.8675 0 30.9512 0 19.9338ZM8.29731 19.9338C8.29731 26.3718 13.5405 31.5976 20 31.5976C26.4595 31.5976 31.7027 26.3718 31.7027 19.9338C31.7027 13.4957 26.4595 8.26981 20 8.26981C13.5405 8.26981 8.29731 13.4957 8.29731 19.9338Z" fill="url(#paint0_linear_205_6243)"/>
<path d="M22.8378 23.678H17.1622C16.6757 23.678 16.2703 23.2739 16.2703 22.7891V17.1052C16.2703 16.6204 16.6757 16.2163 17.1622 16.2163H22.8649C23.3513 16.2163 23.7567 16.6204 23.7567 17.1052V22.7891C23.7567 23.2739 23.3513 23.678 22.8378 23.678Z" fill="#2059EB"/>
<defs>
<linearGradient id="paint0_linear_205_6243" x1="40" y1="39.8675" x2="40" y2="0" gradientUnits="userSpaceOnUse">
<stop stop-color="#1447EA"/>
<stop offset="1" stop-color="#2B65FB"/>
</linearGradient>
</defs>
</svg>
