<svg width="40" height="40" viewBox="0 0 40 40" fill="none" xmlns="http://www.w3.org/2000/svg">
<circle cx="20" cy="20" r="20" fill="#FCEAE7"/>
<path d="M29.5912 9.8667L21.163 16.1265L22.7216 12.4333L29.5912 9.8667Z" fill="#E2761B" stroke="#E2761B" stroke-width="0.625" stroke-linecap="round" stroke-linejoin="round"/>
<path d="M10.1344 9.8667L18.4949 16.1858L17.0125 12.4333L10.1344 9.8667Z" fill="#E4761B" stroke="#E4761B" stroke-width="0.625" stroke-linecap="round" stroke-linejoin="round"/>
<path d="M26.5588 24.377L24.3141 27.8159L29.1168 29.1375L30.4976 24.4532L26.5588 24.377Z" fill="#E4761B" stroke="#E4761B" stroke-width="0.625" stroke-linecap="round" stroke-linejoin="round"/>
<path d="M9.24475 24.4532L10.617 29.1375L15.4198 27.8159L13.1751 24.377L9.24475 24.4532Z" fill="#E4761B" stroke="#E4761B" stroke-width="0.625" stroke-linecap="round" stroke-linejoin="round"/>
<path d="M15.1493 18.5657L13.8109 20.5902L18.5798 20.802L18.4104 15.6772L15.1493 18.5657Z" fill="#E4761B" stroke="#E4761B" stroke-width="0.625" stroke-linecap="round" stroke-linejoin="round"/>
<path d="M24.5766 18.5659L21.2731 15.6182L21.163 20.8022L25.9234 20.5904L24.5766 18.5659Z" fill="#E4761B" stroke="#E4761B" stroke-width="0.625" stroke-linecap="round" stroke-linejoin="round"/>
<path d="M15.4198 27.8157L18.2829 26.4181L15.8095 24.4868L15.4198 27.8157Z" fill="#E4761B" stroke="#E4761B" stroke-width="0.625" stroke-linecap="round" stroke-linejoin="round"/>
<path d="M21.4427 26.4181L24.3143 27.8157L23.9162 24.4868L21.4427 26.4181Z" fill="#E4761B" stroke="#E4761B" stroke-width="0.625" stroke-linecap="round" stroke-linejoin="round"/>
<path d="M24.3137 27.8155L21.4421 26.418L21.6709 28.2899L21.6454 29.0776L24.3137 27.8155Z" fill="#D7C1B3" stroke="#D7C1B3" stroke-width="0.625" stroke-linecap="round" stroke-linejoin="round"/>
<path d="M15.4198 27.8155L18.088 29.0776L18.0711 28.2899L18.2829 26.418L15.4198 27.8155Z" fill="#D7C1B3" stroke="#D7C1B3" stroke-width="0.625" stroke-linecap="round" stroke-linejoin="round"/>
<path d="M18.1304 23.2503L15.7417 22.5472L17.4274 21.7764L18.1304 23.2503Z" fill="#233447" stroke="#233447" stroke-width="0.625" stroke-linecap="round" stroke-linejoin="round"/>
<path d="M21.5942 23.2503L22.2973 21.7764L23.9914 22.5472L21.5942 23.2503Z" fill="#233447" stroke="#233447" stroke-width="0.625" stroke-linecap="round" stroke-linejoin="round"/>
<path d="M15.4191 27.8159L15.8257 24.377L13.1744 24.4532L15.4191 27.8159Z" fill="#CD6116" stroke="#CD6116" stroke-width="0.625" stroke-linecap="round" stroke-linejoin="round"/>
<path d="M23.9062 24.377L24.3128 27.8159L26.5576 24.4532L23.9062 24.377Z" fill="#CD6116" stroke="#CD6116" stroke-width="0.625" stroke-linecap="round" stroke-linejoin="round"/>
<path d="M25.9229 20.5903L21.1625 20.8021L21.6029 23.2501L22.306 21.7762L24.0001 22.5471L25.9229 20.5903Z" fill="#CD6116" stroke="#CD6116" stroke-width="0.625" stroke-linecap="round" stroke-linejoin="round"/>
<path d="M15.7406 22.5471L17.4347 21.7762L18.1293 23.2501L18.5783 20.8021L13.8093 20.5903L15.7406 22.5471Z" fill="#CD6116" stroke="#CD6116" stroke-width="0.625" stroke-linecap="round" stroke-linejoin="round"/>
<path d="M13.8104 20.5903L15.8095 24.4868L15.7417 22.5471L13.8104 20.5903Z" fill="#E4751F" stroke="#E4751F" stroke-width="0.625" stroke-linecap="round" stroke-linejoin="round"/>
<path d="M24.0003 22.5471L23.9156 24.4868L25.9232 20.5903L24.0003 22.5471Z" fill="#E4751F" stroke="#E4751F" stroke-width="0.625" stroke-linecap="round" stroke-linejoin="round"/>
<path d="M18.5792 20.8022L18.1302 23.2502L18.6893 26.1387L18.8164 22.3354L18.5792 20.8022Z" fill="#E4751F" stroke="#E4751F" stroke-width="0.625" stroke-linecap="round" stroke-linejoin="round"/>
<path d="M21.1625 20.8022L20.9338 22.3269L21.0355 26.1387L21.603 23.2502L21.1625 20.8022Z" fill="#E4751F" stroke="#E4751F" stroke-width="0.625" stroke-linecap="round" stroke-linejoin="round"/>
<path d="M21.6034 23.2504L21.0359 26.1389L21.4425 26.4184L23.9159 24.4871L24.0006 22.5474L21.6034 23.2504Z" fill="#F6851B" stroke="#F6851B" stroke-width="0.625" stroke-linecap="round" stroke-linejoin="round"/>
<path d="M15.7417 22.5474L15.8095 24.4871L18.2829 26.4184L18.6895 26.1389L18.1304 23.2504L15.7417 22.5474Z" fill="#F6851B" stroke="#F6851B" stroke-width="0.625" stroke-linecap="round" stroke-linejoin="round"/>
<path d="M21.6457 29.0781L21.6711 28.2903L21.4593 28.1039H18.2659L18.0711 28.2903L18.088 29.0781L15.4198 27.8159L16.3516 28.5783L18.2405 29.8914H21.4847L23.3821 28.5783L24.3139 27.8159L21.6457 29.0781Z" fill="#C0AD9E" stroke="#C0AD9E" stroke-width="0.625" stroke-linecap="round" stroke-linejoin="round"/>
<path d="M21.4421 26.4182L21.0355 26.1387H18.6891L18.2826 26.4182L18.0708 28.2902L18.2656 28.1038H21.459L21.6708 28.2902L21.4421 26.4182Z" fill="#161616" stroke="#161616" stroke-width="0.625" stroke-linecap="round" stroke-linejoin="round"/>
<path d="M29.9466 16.533L30.6666 13.077L29.5909 9.8667L21.4421 15.9147L24.5762 18.566L29.0064 19.862L29.989 18.7185L29.5656 18.4135L30.2432 17.7952L29.7178 17.3886L30.3954 16.8719L29.9466 16.533Z" fill="#763D16" stroke="#763D16" stroke-width="0.625" stroke-linecap="round" stroke-linejoin="round"/>
<path d="M9.06665 13.077L9.78665 16.533L9.32924 16.8719L10.0069 17.3886L9.49017 17.7952L10.1678 18.4135L9.7443 18.7185L10.7184 19.862L15.1485 18.566L18.2826 15.9147L10.134 9.8667L9.06665 13.077Z" fill="#763D16" stroke="#763D16" stroke-width="0.625" stroke-linecap="round" stroke-linejoin="round"/>
<path d="M29.0058 19.8619L24.5758 18.5659L25.9226 20.5904L23.915 24.4869L26.5579 24.453H30.4967L29.0058 19.8619Z" fill="#F6851B" stroke="#F6851B" stroke-width="0.625" stroke-linecap="round" stroke-linejoin="round"/>
<path d="M15.1488 18.5659L10.7186 19.8619L9.24475 24.453H13.1751L15.8094 24.4869L13.8104 20.5904L15.1488 18.5659Z" fill="#F6851B" stroke="#F6851B" stroke-width="0.625" stroke-linecap="round" stroke-linejoin="round"/>
<path d="M21.1625 20.802L21.4421 15.9145L22.7296 12.4331H17.012L18.2825 15.9145L18.579 20.802L18.6807 22.3437L18.6891 26.1385H21.0355L21.0524 22.3437L21.1625 20.802Z" fill="#F6851B" stroke="#F6851B" stroke-width="0.625" stroke-linecap="round" stroke-linejoin="round"/>
</svg>
