<svg width="40" height="40" viewBox="0 0 40 40" fill="none" xmlns="http://www.w3.org/2000/svg">
<circle cx="20" cy="20" r="20" fill="#BADCFF"/>
<path fill-rule="evenodd" clip-rule="evenodd" d="M28.3663 15.0857C23.7458 10.5268 16.2544 10.5268 11.6338 15.0857L11.0234 15.6879C10.7924 15.9159 10.7924 16.2854 11.0234 16.5134L12.9257 18.3903C13.0412 18.5043 13.2285 18.5043 13.344 18.3903L14.1635 17.5817C17.387 14.4013 22.6132 14.4013 25.8366 17.5817L26.6018 18.3367C26.7173 18.4507 26.9046 18.4507 27.0201 18.3367L28.9224 16.4598C29.1534 16.2319 29.1534 15.8623 28.9224 15.6344L28.3663 15.0857ZM33.9934 20.6378L32.3004 18.9673C32.0694 18.7394 31.6948 18.7394 31.4638 18.9673L26.0457 24.3132C25.9879 24.3702 25.8942 24.3702 25.8365 24.3132L20.4183 18.9672L20.4183 18.9672C20.1872 18.7393 19.8127 18.7393 19.5816 18.9672L14.1637 24.3132C14.1059 24.3702 14.0123 24.3702 13.9545 24.3132L8.53631 18.9672C8.30528 18.7393 7.93071 18.7393 7.69968 18.9672L6.00664 20.6377C5.77562 20.8656 5.77562 21.2352 6.00664 21.4632L13.6409 28.9955C13.8719 29.2235 14.2465 29.2235 14.4775 28.9955L19.8955 23.6497C19.9533 23.5927 20.0469 23.5927 20.1047 23.6497L25.5228 28.9955C25.7538 29.2235 26.1284 29.2235 26.3594 28.9955L33.9934 21.4633C34.2245 21.2353 34.2245 20.8657 33.9934 20.6378Z" fill="#3B99FC"/>
</svg>
