<?xml version="1.0" encoding="UTF-8" standalone="no"?>
<svg
        width="320"
        height="320"
        viewBox="0 0 320 320"
        fill="none"
        version="1.1"
        xmlns="http://www.w3.org/2000/svg"
>
    <path
            d="m 119.75099,236.10045 c 23.39033,23.38988 61.31384,23.38988 84.70486,0 l 42.75253,-42.75207 c 7.93125,-7.66018 8.1503,-20.2993 0.49034,-28.23055 -7.66018,-7.93102 -20.29929,-8.15052 -28.23054,-0.49034 -0.16657,0.16041 -0.32994,0.32446 -0.49034,0.49034 l -37.04185,37.02839 -0.30644,-181.668023 c 0,-11.0263063 -8.93862,-19.96502403 -19.96502,-19.96502403 -11.0264,0 -19.96502,8.93871773 -19.96502,19.96502403 l 0.27951,181.375283 -36.74865,-36.74865 c -7.931247,-7.66041 -20.570362,-7.44068 -28.230543,0.49034 -7.472623,7.73707 -7.472623,20.00313 0,27.7402 z"
            fill="currentColor"/>
    <path
            d="m 37.507048,299.67593 c 0,-11.19866 9.078313,-20.27533 20.277071,-20.27533 H 266.79236 c 11.19867,0 20.27762,9.07667 20.27762,20.27533 0,11.19867 -9.07895,20.27762 -20.27762,20.27762 H 57.784119 c -11.198758,0 -20.277071,-9.07895 -20.277071,-20.27762 z"
            fill="currentColor"/>
</svg>
