<?xml version="1.0" encoding="UTF-8" standalone="no"?>
<svg
        width="320"
        height="320"
        viewBox="0 0 320 320"
        fill="none"
        version="1.1"
        xmlns="http://www.w3.org/2000/svg"
>
    <path
            d="m 102.78573,89.330808 37.06134,-36.936007 0.27987,180.991329 c 0,10.9983 8.94994,19.91393 19.98989,19.91393 11.04018,0 19.99011,-8.91563 19.99011,-19.91393 l -0.27987,-180.765308 36.84819,36.710669 c 7.67007,7.911396 20.32481,8.13036 28.26585,0.489141 7.94057,-7.641217 8.1599,-20.248739 0.49097,-28.160135 -0.16107,-0.166157 -0.32488,-0.329356 -0.49097,-0.489141 L 202.13589,18.525774 C 178.71627,-4.8068569 140.7454,-4.8068569 117.32533,18.52516 l -6.9e-4,6.14e-4 -42.804526,42.644899 c -7.67007,7.911396 -7.450057,20.518916 0.490974,28.160135 7.746606,7.453891 20.02804,7.453891 27.774642,0 z"
            fill="currentColor" />
    <path
            d="m 34.347974,299.45782 c 0,-11.17127 9.090033,-20.22801 20.303113,-20.22801 H 263.93031 c 11.21312,0 20.3038,9.05674 20.3038,20.22801 0,11.17129 -9.09068,20.22576 -20.3038,20.22576 H 54.651087 c -11.21308,0 -20.303113,-9.05447 -20.303113,-20.22576 z"
            fill="currentColor" />
</svg>
