<?xml version="1.0" encoding="UTF-8" standalone="no"?>
<svg
   width="320"
   height="320"
   viewBox="0 0 320 320"
   fill="none"
   version="1.1"
   xmlns="http://www.w3.org/2000/svg">
  <path
     d="m 253.54638,318.41048 h -13.26679 c -3.51835,0 -6.89342,-1.39744 -9.3805,-3.88629 -2.48885,-2.48708 -3.88629,-5.86215 -3.88629,-9.3805 0,-3.51836 1.39744,-6.89343 3.88629,-9.38051 2.48708,-2.48885 5.86215,-3.88628 9.3805,-3.88628 h 13.26679 c 10.55506,0 20.6785,-4.19408 28.14328,-11.65709 7.46301,-7.46478 11.65709,-17.58822 11.65709,-28.14328 v -13.26679 c 0,-3.51835 1.39743,-6.89342 3.88628,-9.3805 2.48708,-2.48885 5.86215,-3.88629 9.38051,-3.88629 3.51835,0 6.89342,1.39744 9.3805,3.88629 2.48885,2.48708 3.88629,5.86215 3.88629,9.3805 v 13.26679 c -0.0212,17.58646 -7.01725,34.44589 -19.45266,46.88129 -12.4354,12.43541 -29.29483,19.43143 -46.88129,19.45266 z M 319.88033,79.60827 V 66.341481 C 319.8591,48.755025 312.86308,31.895059 300.42767,19.459479 287.99227,7.0240932 271.13284,0.02860383 253.54638,0.00753617 h -13.26679 c -3.51835,0 -6.89342,1.39775353 -9.3805,3.88575403 -2.48885,2.4880006 -3.88629,5.862506 -3.88629,9.3810348 0,3.518529 1.39744,6.89307 3.88629,9.381035 2.48708,2.487965 5.86215,3.885754 9.3805,3.885754 h 13.26679 c 10.55506,0 20.6785,4.19319 28.14328,11.657262 7.46301,7.464072 11.65709,17.58734 11.65709,28.143105 V 79.60827 c 0,3.518529 1.39743,6.89307 3.88628,9.381035 2.48708,2.487965 5.86215,3.885754 9.38051,3.885754 3.51835,0 6.89342,-1.397789 9.3805,-3.885754 2.48885,-2.487965 3.88629,-5.862506 3.88629,-9.381035 z M 94.344914,305.14369 c 0,-3.51836 -1.397789,-6.89343 -3.885754,-9.38051 -2.487965,-2.48885 -5.862506,-3.88628 -9.381035,-3.88628 H 67.811336 c -10.555765,0 -20.679033,-4.19408 -28.143105,-11.65709 -7.464072,-7.46478 -11.657262,-17.58822 -11.657262,-28.14328 v -13.26679 c 0,-3.51835 -1.397789,-6.89342 -3.885754,-9.3805 -2.487965,-2.48885 -5.86247,-3.88629 -9.381035,-3.88629 -3.518564,0 -6.8930339,1.39744 -9.3810345,3.88629 -2.4880076,2.48708 -3.885754,5.86215 -3.885754,9.3805 v 13.26679 c 0.021066,17.58646 7.016557,34.44589 19.4519425,46.88129 12.43558,12.43541 29.295546,19.43143 46.882002,19.45266 h 13.266789 c 3.518529,0 6.89307,-1.39744 9.381035,-3.88629 2.487965,-2.48708 3.885754,-5.86215 3.885754,-9.3805 z M 28.010969,79.60827 V 66.341481 c 0,-10.555765 4.19319,-20.679033 11.657262,-28.143105 7.464072,-7.464072 17.58734,-11.657262 28.143105,-11.657262 h 13.266789 c 3.518529,0 6.89307,-1.397789 9.381035,-3.885754 2.487965,-2.487965 3.885754,-5.862506 3.885754,-9.381035 0,-3.5185288 -1.397789,-6.8930342 -3.885754,-9.3810348 C 87.971195,1.4052897 84.596654,0.00753617 81.078125,0.00753617 H 67.811336 C 50.22488,0.02860383 33.364914,7.0240932 20.929334,19.459479 8.4939485,31.895059 1.4984572,48.755025 1.4773915,66.341481 V 79.60827 c 0,3.518529 1.3977464,6.89307 3.885754,9.381035 2.4880006,2.487965 5.8624705,3.885754 9.3810345,3.885754 3.518565,0 6.89307,-1.397789 9.381035,-3.885754 2.487965,-2.487965 3.885754,-5.862506 3.885754,-9.381035 z"
     fill="currentColor"/>
  <path
     d="m 104.70964,124.38369 c 0,-13.05134 10.58017,-23.63152 23.63151,-23.63152 h 64.67506 c 13.05099,0 23.63258,10.58018 23.63258,23.63152 v 69.20576 c 0,13.05098 -10.58159,23.6308 -23.63258,23.6308 h -64.67506 c -13.05134,0 -23.63151,-10.57982 -23.63151,-23.6308 z"
     fill="currentColor"/>
</svg>
