<?xml version="1.0" encoding="UTF-8" standalone="no"?>
<svg
        width="320"
        height="320"
        viewBox="0 0 320 320"
        fill="none"
        version="1.1"
        xmlns="http://www.w3.org/2000/svg">
    <path
            d="m 319.85567,159.92783 c 0,-11.89543 -8.57214,-24.57735 -19.13803,-28.3177 -10.56768,-3.74054 -20.81016,-12.90014 -23.79193,-20.1232 -2.98,-7.22323 -2.207,-20.96902 2.61748,-31.093517 4.81738,-10.124321 1.89604,-25.158782 -6.51617,-33.571519 -8.40509,-8.412737 -23.44008,-11.327155 -33.57062,-6.509596 -10.12522,4.817737 -23.85057,5.604227 -31.05443,2.623705 C 201.19811,39.955482 192.03246,29.698955 188.27949,19.131812 184.51763,8.5647219 171.82326,0 159.92783,0 c -11.89543,0 -24.5905,8.5647219 -28.35076,19.131812 -3.76044,10.567143 -12.91985,20.82367 -20.12318,23.804191 -7.20333,2.980522 -20.93598,2.194032 -31.060477,-2.623705 -10.124321,-4.817559 -25.158782,-1.903141 -33.571519,6.509596 -8.412737,8.412737 -11.327155,23.440623 -6.509596,33.571519 4.817737,10.131073 5.584326,23.863717 2.590654,31.080197 -2.993671,7.21665 -13.203997,16.39598 -23.77114,20.13652 C 8.5647219,135.35048 0,148.0324 0,159.92783 c 0,11.89543 8.5647219,24.5898 19.131812,28.35166 10.567143,3.75297 20.790618,12.93283 23.78429,20.13491 2.993849,7.19675 2.213933,20.92389 -2.603804,31.04732 -4.817559,10.12522 -1.903141,25.16021 6.509596,33.57241 8.412737,8.4051 23.440623,11.32644 33.571519,6.50906 10.131073,-4.81738 23.857147,-5.59748 31.060477,-2.61038 7.2099,2.9871 16.36274,13.27047 20.12318,23.81682 3.76026,10.54812 16.45533,19.10604 28.35076,19.10604 11.89543,0 24.5898,-8.55792 28.35166,-19.10604 3.75297,-10.54635 12.90617,-20.81728 20.10826,-23.81682 7.20386,-2.9942 20.95054,-2.207 31.06865,2.61749 10.13054,4.81739 25.16553,1.89604 33.57062,-6.50906 8.41221,-8.41398 11.33355,-23.4472 6.51617,-33.57241 -4.81738,-10.13054 -5.60991,-23.85768 -2.62992,-31.05976 2.97999,-7.20386 13.2438,-16.3695 23.8097,-20.12426 10.56768,-3.76718 19.1327,-16.46155 19.1327,-28.35698 z m -159.92784,58.68463 c -32.44811,0 -58.68427,-26.23704 -58.68427,-58.61853 0,-32.44811 26.23616,-58.68427 58.68427,-58.68427 32.37473,0 58.61888,26.23616 58.61888,58.68427 0,32.38149 -26.23705,58.61853 -58.61888,58.61853 z"
            fill="currentColor"
    />
</svg>
