<?xml version="1.0" encoding="UTF-8" standalone="no"?>
<svg
        width="320"
        height="320"
        viewBox="0 0 320 320"
        fill="none"
        version="1.1"
        xmlns="http://www.w3.org/2000/svg">
    <path
            d="M 93.978747,271.60765 V 85.393446 l 40.691503,40.721134 c 5.51026,5.51426 14.41161,5.51426 19.92187,0 5.51043,-5.51427 5.51043,-14.42207 0,-19.93634 L 89.74006,41.27877 c -5.510434,-5.51432 -14.411608,-5.51432 -19.921867,0 L 4.9659591,106.17825 c -5.51027646,5.51426 -5.51027646,14.42206 0,19.93633 5.5102589,5.51426 14.4116079,5.51426 19.9218669,0 L 65.720656,85.393446 V 271.60765 c 0,7.7772 6.358205,14.13941 14.129132,14.13941 7.770928,0 14.128959,-6.36221 14.128959,-14.13941 z"
            fill="currentColor"/>
    <path
            d="M 227.16405,44.306075 V 230.52075 l -40.69133,-40.7213 c -5.51183,-5.51427 -14.413,-5.51427 -19.92309,0 -5.51008,5.51444 -5.51008,14.42206 0,19.93563 l 64.85241,64.89946 c 5.51008,5.51531 14.41126,5.51531 19.92134,0 l 64.85241,-64.89946 c 5.51009,-5.51357 5.51009,-14.42119 0,-19.93563 -5.51008,-5.51427 -14.41126,-5.51427 -19.92134,0 l -40.83248,40.7213 V 44.306075 c 0,-7.776625 -6.35873,-14.139327 -14.12896,-14.139327 -7.77198,0 -14.12896,6.362702 -14.12896,14.139327 z"
            fill="currentColor"/>
</svg>
