<?xml version="1.0" encoding="UTF-8" standalone="no"?>
<svg
   width="320"
   height="320"
   viewBox="0 0 320 320"
   fill="none"
   version="1.1"
   id="svg4"
   xmlns="http://www.w3.org/2000/svg"
   xmlns:svg="http://www.w3.org/2000/svg">
  <path
     d="m 6.6566572,80.786928 c 2.1215655,-2.13885 4.6456448,-3.83678 7.4265448,-4.99521 2.781203,-1.15874 5.764151,-1.75514 8.776919,-1.75514 3.012768,0 5.995715,0.5964 8.776614,1.75514 2.780899,1.15843 5.304979,2.85636 7.426788,4.99521 L 143.58688,185.31029 c 2.12151,2.13885 4.64559,3.83678 7.42649,4.99521 2.7812,1.15873 5.76415,1.75514 8.77691,1.75514 3.01277,0 5.99572,-0.59641 8.77662,-1.75514 2.7809,-1.15843 5.30498,-2.85636 7.42679,-4.99521 L 280.51705,80.786928 c 2.12059,-2.13885 4.64619,-3.83678 7.42739,-4.99521 2.78121,-1.15874 5.76324,-1.75514 8.77571,-1.75514 3.01246,0 5.99449,0.5964 8.77569,1.75514 2.78121,1.15843 5.30681,2.85636 7.4277,4.99521 4.25092,4.27618 6.63655,10.06011 6.63655,16.08929 0,6.029192 -2.38563,11.813432 -6.63655,16.089302 L 208.17228,217.71679 c -12.83736,12.82122 -30.23875,20.02287 -48.382,20.02287 -18.14324,0 -35.54494,-7.20165 -48.38199,-20.02287 L 6.6566572,112.96552 C 2.406071,108.68965 0.02023023,102.90541 0.02023023,96.876218 c 0,-6.02918 2.38584077,-11.81311 6.63642697,-16.08929 z"
     fill="currentColor"/>
</svg>
