<?xml version="1.0" encoding="UTF-8" standalone="no"?>
<svg
        width="320"
        height="320"
        viewBox="0 0 320 320"
        fill="none"
        version="1.1"
        xmlns="http://www.w3.org/2000/svg"
>
    <path
            fill="currentColor"
            d="m 34.002379,3.5351563 c -17.1209,0 -30.9672228,13.8463227 -30.9672227,30.9672227 V 286.8321 c 0,17.1209 13.8463227,30.96722 30.9672227,30.96722 H 286.3321 c 17.1209,0 30.96722,-13.84632 30.96722,-30.96722 V 34.502379 c 0,-17.1209 -13.84632,-30.9672228 -30.96722,-30.9672227 z m 0,4.0011797 H 286.3321 c 14.97397,0 26.96605,11.992078 26.96605,26.966043 V 286.8321 c 0,14.97397 -11.99208,26.96605 -26.96605,26.96605 H 34.002379 c -14.973965,0 -26.966043,-11.99208 -26.966043,-26.96605 V 34.502379 c 0,-5.262845 1.4813646,-10.157342 4.052906,-14.292302 C 15.834308,12.580155 24.291259,7.536336 34.002379,7.536336 Z"/>
</svg>
