<?xml version="1.0" encoding="UTF-8" standalone="no"?>
<svg
        width="320"
        height="320"
        viewBox="0 0 320 320"
        fill="none"
        version="1.1"
        xmlns="http://www.w3.org/2000/svg"
>
    <path
            d="M 45.256122,47.402735 C 54.183721,56.555224 64.149209,64.520214 74.906099,71.184943 86.647515,43.058368 104.33294,19.510739 126.98688,2.3292724 95.300672,8.9656839 67.037672,25.014175 45.256122,47.402735 Z"
            fill="currentColor"
    />
    <path
            d="m 273.93936,270.6629 c -8.86216,-9.16392 -18.73919,-17.1478 -29.38331,-23.84367 -11.74158,27.96665 -29.37538,51.38468 -51.93261,68.49279 31.4861,-6.5958 59.59091,-22.48259 81.31592,-44.64912 z"
            fill="currentColor"
    />
    <path
            d="m 167.97932,315.85518 c 29.2642,-16.07418 51.60226,-42.37322 65.19567,-75.55234 -20.0034,-10.37413 -42.20804,-16.46488 -65.19567,-17.63697 z"
            fill="currentColor"
    />
    <path
            d="m 167.97932,209.67119 c 24.5393,1.15622 48.26545,7.50267 69.71569,18.36915 6.14953,-18.65819 9.72139,-39.17934 10.4329,-61.0473 h -80.14859 z"
            fill="currentColor"
    />
    <path
            d="M 70.234563,83.534163 C 58.001441,76.203819 46.678039,67.338795 36.563895,57.074565 14.63955,83.58451 1.0924063,117.25915 0,154.00823 h 58.408814 c 0.456925,-25.32658 4.523834,-49.04795 11.825749,-70.474067 z"
            fill="currentColor"
    />
    <path
            d="m 282.66336,56.620975 c -10.05015,10.288529 -21.28825,19.179599 -33.40941,26.548854 7.38037,21.520131 11.48746,45.368881 11.94645,70.838401 h 58.40929 c -1.09744,-36.96 -14.79887,-70.807589 -36.94633,-97.387255 z"
            fill="currentColor"
    />
    <path
            d="m 261.12099,166.99304 c -0.74645,24.20896 -4.81225,46.90754 -11.86704,67.47793 12.12116,7.36925 23.35926,16.26001 33.40941,26.54837 21.47407,-25.77175 35.01507,-58.37594 36.81928,-94.0263 z"
            fill="currentColor"
    />
    <path
            d="m 167.97932,154.00823 h 80.23436 C 247.77374,130.8802 244.159,109.21142 237.69501,89.599187 216.24477,100.46566 192.51862,106.81323 167.97932,107.96976 Z"
            fill="currentColor"
    />
    <path
            d="m 154.99355,317.64032 v -95.11263 c -24.26264,0.71152 -47.68528,6.78639 -68.66987,17.49722 14.09656,34.57038 37.66849,61.69846 68.66987,77.61541 z"
            fill="currentColor"
    />
    <path
            d="M 154.99355,108.10682 C 129.19051,107.40642 104.25336,101.07522 81.822558,89.883317 75.4175,109.4209 71.835152,130.99217 71.397603,154.00823 h 83.596737 z"
            fill="currentColor"
    />
    <path
            d="M 154.99355,166.99304 H 71.483683 c 0.708497,21.75836 4.246216,42.18105 10.338875,60.7646 22.431602,-11.19205 47.367952,-17.52422 73.170992,-18.22303 z"
            fill="currentColor"
    />
    <path
            d="M 244.55605,70.820609 C 255.20176,64.125704 265.07878,56.142132 273.93936,46.97678 252.21435,24.810409 224.10954,8.9234854 192.62503,2.3292724 215.18067,19.436094 232.81447,42.854602 244.55605,70.820609 Z"
            fill="currentColor"
    />
    <path
            d="m 86.32368,77.616047 c 20.98459,10.710673 44.40723,16.785386 68.66987,17.496424 V 0 C 123.99217,15.916162 100.42024,43.045345 86.32368,77.616047 Z"
            fill="currentColor"
    />
    <path
            d="M 167.97932,94.974456 C 190.96854,93.802521 213.17159,87.711451 233.17499,77.336842 219.57998,44.158039 197.24352,17.859168 167.97932,1.7846939 Z"
            fill="currentColor"
    />
    <path
            d="M 0.12819868,166.99304 C 1.9210092,202.43376 15.309072,234.86642 36.563895,260.56512 46.678039,250.30216 58.002234,241.43682 70.234563,234.10568 63.257276,213.63058 59.232614,191.05907 58.489971,166.99304 Z"
            fill="currentColor"
    />
    <path
            d="m 126.98688,315.31043 c -22.65394,-17.18117 -40.340318,-40.72784 -52.080781,-68.8549 -10.75689,6.6641 -20.722378,14.62894 -29.649977,23.78174 21.78155,22.38887 50.04455,38.43765 81.730758,45.07316 z"
            fill="currentColor"
    />
</svg>
