<?xml version="1.0" encoding="UTF-8" standalone="no"?>
<svg
   width="320"
   height="320"
   viewBox="0 0 320 320"
   fill="none"
   version="1.1"
   xmlns="http://www.w3.org/2000/svg">
  <path
     d="M 25.908382,97.937596 57.172605,181.0115 88.362544,97.937596 H 112.70411 V 206.32071 H 93.945436 v -35.73076 l 1.86101,-47.78977 -32.008738,83.52053 H 50.324232 l -31.934315,-83.4461 1.861011,47.71534 v 35.73076 H 1.4923383 V 97.937596 Z"
     fill="currentColor"/>
  <path
     d="m 197.04316,181.08592 h -41.98361 l -8.78394,25.23479 H 126.69869 L 167.63953,97.937596 h 16.89849 l 41.01485,108.383114 h -19.65093 z m -36.69772,-15.18564 h 31.41321 l -15.7066,-44.96111 z"
     fill="currentColor"/>
  <path
     d="m 275.20475,137.09246 22.77756,-39.154864 h 21.73673 l -32.75339,53.744974 33.49763,54.63814 h -21.95986 l -23.29867,-39.75047 -23.37488,39.75047 h -21.88503 l 33.57247,-54.63814 -32.82685,-53.744974 h 21.73535 z"
     fill="currentColor"/>
</svg>
