<?xml version="1.0" encoding="UTF-8" standalone="no"?>
<svg
        width="320"
        height="320"
        viewBox="0 0 320 320"
        fill="none"
        version="1.1"
        xmlns="http://www.w3.org/2000/svg"
>
    <path
            d="m 234.06984,116.43633 h 86.2372 V 76.398026 c 0,-25.473709 -20.72444,-46.197953 -46.19845,-46.197953 H 46.197998 C 20.724139,30.200073 0,50.924317 0,76.398026 V 248.87033 c 0,25.47401 20.724139,46.19845 46.197998,46.19845 H 274.10859 c 25.47401,0 46.19845,-20.72444 46.19845,-46.19845 v -40.03876 h -86.2372 c -25.47401,0 -46.19695,-20.72293 -46.19695,-46.19739 0,-25.47371 20.72294,-46.19785 46.19695,-46.19785 z"
            fill="currentColor"
    />
    <path
            d="m 232.94118,134.44869 c -15.28395,0 -27.71901,12.43438 -27.71901,27.71906 0,15.28455 12.43445,27.71892 27.71901,27.71892 h 86.23615 v -55.43736 h -86.23615 z m 12.31924,36.95845 h -12.31924 c -5.10308,0 -9.23954,-4.13707 -9.23954,-9.23939 0,-5.10248 4.13721,-9.23954 9.23954,-9.23954 h 12.31924 c 5.10308,0 9.23954,4.13706 9.23954,9.23954 0,5.10232 -4.13646,9.23939 -9.23954,9.23939 z"
            fill="currentColor"
    />
</svg>
