<?xml version="1.0" encoding="UTF-8" standalone="no"?>
<svg
        width="320"
        height="320"
        viewBox="0 0 320 320"
        fill="none"
        version="1.1"
        xmlns="http://www.w3.org/2000/svg"
>
    <path
            d="m 160.69226,319.47846 c 18.10413,0 32.77855,-14.6766 32.77855,-32.77855 0,-18.10412 -14.67442,-32.77854 -32.77855,-32.77854 -18.10194,0 -32.77854,14.67442 -32.77854,32.77854 0,18.10195 14.6766,32.77855 32.77854,32.77855 z"
            fill="currentColor"
    />
    <path
            d="m 160.15773,205.13537 c -5.39109,0.007 -10.57928,-2.0683 -14.48024,-5.79036 -3.90096,-3.72424 -6.21579,-8.8077 -6.46451,-14.19443 L 131.79504,30.107234 c -0.16145,-3.89267 0.46472,-7.777704 1.84576,-11.421001 1.38105,-3.643078 3.48425,-6.968713 6.18525,-9.7761829 2.70318,-2.807252 5.94525,-5.0380867 9.53204,-6.5576725 3.58679,-1.5195857 7.4463,-2.2962871 11.34072,-2.28363298 v 0 c 3.90314,4.3635e-4 7.76483,0.79284632 11.35162,2.32944968 3.58679,1.5366033 6.82668,3.7853284 9.51895,6.6100343 2.69228,2.8249244 4.78239,6.1667034 6.14598,9.8235274 1.36359,3.656605 1.97012,7.551893 1.78249,11.4498 l -8.50008,155.008654 c -0.27927,5.34309 -2.59628,10.37856 -6.47106,14.06789 -3.87696,3.69152 -9.01715,5.75763 -14.36898,5.77727 z"
            fill="currentColor"
    />
</svg>
